<?xml version="1.0" encoding="utf-8"?>
<!-- Generator: Adobe Illustrator 16.0.3, SVG Export Plug-In . SVG Version: 6.00 Build 0)  -->
<!DOCTYPE svg PUBLIC "-//W3C//DTD SVG 1.1//EN" "http://www.w3.org/Graphics/SVG/1.1/DTD/svg11.dtd">
<svg version="1.1" id="Layer_2" xmlns="http://www.w3.org/2000/svg" xmlns:xlink="http://www.w3.org/1999/xlink" x="0px" y="0px"
	 viewBox="0 0 522 174.838" enable-background="new 0 0 522 174.838" xml:space="preserve">
<g>
	<path fill="#8DB8E9" d="M271.823,150.737c0,2.985-2.422,5.411-5.41,5.411H8.679c-2.989,0-5.412-2.426-5.412-5.411V24.101
		c0-2.988,2.423-5.411,5.412-5.411h257.733c2.988,0,5.41,2.423,5.41,5.411V150.737z"/>
	<g>
		<path fill="#FFFFFF" d="M50.377,62.219h23.091c12.83,0,23.826,4.765,23.826,19.793c0,14.57-11.363,20.895-23.826,20.895h-7.33
			v18.874H50.377V62.219z M72.737,90.442c6.23,0,9.162-3.117,9.162-8.431c0-5.314-3.298-7.33-9.162-7.33h-6.599v15.761H72.737z"/>
		<path fill="#FFFFFF" d="M107.009,62.219h15.762v22.174h17.776V62.219h15.762v59.562h-15.762V98.139h-17.776v23.642h-15.762V62.219
			z"/>
		<path fill="#FFFFFF" d="M169.506,62.219h23.092c12.829,0,23.825,4.765,23.825,19.793c0,14.57-11.362,20.895-23.825,20.895h-7.331
			v18.874h-15.761V62.219z M191.865,90.442c6.231,0,9.163-3.117,9.163-8.431c0-5.314-3.298-7.33-9.163-7.33h-6.598v15.761H191.865z"
			/>
	</g>
	<g>
		<g>
			<path fill="#00609C" d="M513.323,18.689h-246.91c-2.989,0-5.412,2.423-5.412,5.411v11.771h-23.541
				c-2.989,0-5.412,2.423-5.412,5.411v11.771c0,2.988,2.423,5.412,5.412,5.412H261v57.908h-23.541c-2.989,0-5.412,2.422-5.412,5.406
				v11.773c0,2.987,2.423,5.413,5.412,5.413H261v11.771c0,2.985,2.423,5.411,5.412,5.411h246.91c2.987,0,5.411-2.426,5.411-5.411
				V24.101C518.734,21.112,516.31,18.689,513.323,18.689z"/>
		</g>
	</g>
	<g>
		<path fill="#FFFFFF" d="M345.719,61.118c7.514,0,13.927,3.666,18.143,7.882l-8.614,9.713c-2.93-2.566-5.498-4.031-9.345-4.031
			c-7.148,0-13.196,6.414-13.196,17.228c0,11.177,5.131,17.41,12.828,17.41c4.582,0,7.88-2.018,10.446-4.766l8.614,9.531
			c-5.041,5.864-11.914,8.796-19.242,8.796c-15.581,0-28.775-10.08-28.775-30.423C316.578,72.481,330.324,61.118,345.719,61.118z"/>
		<path fill="#FFFFFF" d="M385.307,97.04h-15.944V86.045h15.944V69.549h11.361v16.496h15.944V97.04h-15.944v16.496h-11.361V97.04z"
			/>
		<path fill="#FFFFFF" d="M434.791,97.04h-15.944V86.045h15.944V69.549h11.363v16.496h15.944V97.04h-15.944v16.496h-11.363V97.04z"
			/>
	</g>
</g>
</svg>
