<?xml version="1.0" encoding="utf-8"?>
<!-- Generator: Adobe Illustrator 22.0.1, SVG Export Plug-In . SVG Version: 6.00 Build 0)  -->
<svg version="1.1" id="Layer_1" xmlns="http://www.w3.org/2000/svg" xmlns:xlink="http://www.w3.org/1999/xlink" x="0px" y="0px"
	 viewBox="0 0 8192 8192" style="enable-background:new 0 0 8192 8192;" xml:space="preserve">
<style type="text/css">
	.st0{display:none;}
	.st1{opacity:0.3;fill:#52606D;enable-background:new    ;}
	.st2{fill:none;stroke:#B3B3B3;stroke-width:7;stroke-miterlimit:10;}
	.st3{fill:#4F86A0;}
	.st4{fill:#D25459;}
	.st5{fill:#5783A5;}
	.st6{fill:#344E62;}
	.st7{fill:#FFFFFF;}
	.st8{fill:#F16822;}
	.st9{fill:#D25459;stroke:#FFFFFF;stroke-width:1.4342;stroke-miterlimit:10;}
	.st10{fill:none;stroke:#5783A5;stroke-width:7;stroke-miterlimit:10;}
	.st11{fill:#FFFFFF;stroke:#4F86A0;stroke-width:3.3146;stroke-miterlimit:10;}
	.st12{fill:#52606D;}
	.st13{fill:#B3B3B3;}
	.st14{fill:#39B54A;}
	.st15{fill:#C33A32;}
</style>
<g id="Layer_2_1_" class="st0">
</g>
<g id="Layer_1_1_">
	<g>
		<g>
			<path class="st1" d="M4312,3839.7h-432.6c-15.6,0-28.3,13.4-28.3,29.8v182.7c0,16.4,12.7,29.8,28.3,29.8H4312
				c15.6,0,28.3-13.4,28.3-29.8v-182.7C4340.3,3853.1,4327.6,3839.7,4312,3839.7z"/>
		</g>
		<line class="st2" x1="3626.2" y1="4057.6" x2="3626.2" y2="4231"/>
		<polyline class="st2" points="3626.2,4131.6 3746.4,4131.6 3746.4,4045.1 4095.7,4045.1 		"/>
		<g id="MailerQ_logo_1_">
			<path class="st3" d="M4029.3,3906.6l-6.6-23.5h-0.2c0.1,1.3,0.2,2.5,0.2,3.7c0,0.5,0.1,1.1,0.1,1.5c0,0.6,0,1.1,0.1,1.5
				c0,0.5,0,1.1,0,1.5c0,0.5,0,0.9,0,1.3v14h-5.7v-30h8.7l6.5,22.9h0.1l6.8-22.9h8.7v30h-5.9v-14.2c0-0.4,0-0.8,0-1.3
				c0-0.5,0-1,0-1.4c0-0.5,0-1.1,0.1-1.5c0-0.5,0-1.1,0.1-1.5c0.1-1.2,0.1-2.3,0.1-3.6h-0.2l-7.1,23.4L4029.3,3906.6L4029.3,3906.6z
				"/>
			<path class="st3" d="M4068.3,3906.6l-1.3-3.1h-0.2c-0.5,0.6-0.9,1.2-1.3,1.5c-0.5,0.5-1,0.8-1.4,1.1c-0.6,0.3-1.2,0.5-1.8,0.7
				c-0.7,0.2-1.4,0.2-2.3,0.2c-1,0-1.8-0.2-2.6-0.5c-0.8-0.3-1.4-0.8-2-1.3c-0.6-0.6-1.1-1.3-1.3-2.2c-0.3-0.9-0.5-2-0.5-3.2
				c0-2.4,0.8-4.2,2.3-5.4c1.5-1.2,3.9-1.8,6.9-1.9l3.7-0.1v-1.7c0-1-0.3-1.6-0.9-2.1c-0.6-0.5-1.3-0.7-2.3-0.7
				c-1,0-1.9,0.1-2.9,0.4c-1,0.3-1.8,0.7-2.8,1.2l-2-4.1c1.2-0.7,2.4-1.2,3.9-1.5c1.3-0.4,2.9-0.6,4.4-0.6c2.9,0,5,0.7,6.6,2
				c1.5,1.3,2.3,3.4,2.3,6.1v15.2L4068.3,3906.6L4068.3,3906.6z M4066.5,3896l-2,0.1c-0.9,0-1.5,0.1-2.1,0.3
				c-0.6,0.2-1.1,0.5-1.3,0.8c-0.4,0.3-0.6,0.7-0.8,1.2c-0.2,0.5-0.2,1-0.2,1.4c0,1,0.2,1.6,0.7,2c0.5,0.4,1.1,0.6,1.8,0.6
				c0.6,0,1.1-0.1,1.6-0.3c0.5-0.2,1-0.5,1.3-0.9c0.4-0.4,0.7-0.9,0.9-1.4c0.2-0.6,0.3-1.3,0.3-1.9L4066.5,3896L4066.5,3896z"/>
			<path class="st3" d="M4078.9,3877.8c0-0.6,0.1-1.1,0.3-1.4c0.2-0.4,0.4-0.7,0.8-1c0.3-0.2,0.7-0.4,1.1-0.5
				c0.4-0.1,0.9-0.1,1.3-0.1s0.9,0.1,1.3,0.1c0.4,0.1,0.8,0.3,1.1,0.5c0.3,0.2,0.6,0.6,0.8,1c0.2,0.4,0.3,0.9,0.3,1.4
				c0,0.6-0.1,1.1-0.3,1.4c-0.2,0.4-0.4,0.7-0.8,1c-0.3,0.2-0.7,0.4-1.1,0.5c-0.4,0.1-0.9,0.2-1.3,0.2s-0.9-0.1-1.3-0.2
				c-0.4-0.1-0.8-0.3-1.1-0.5c-0.3-0.2-0.6-0.6-0.8-1C4079,3878.8,4078.9,3878.4,4078.9,3877.8z M4085.4,3906.6h-6.3v-22.9h6.3
				V3906.6L4085.4,3906.6z"/>
			<path class="st3" d="M4098.2,3906.6h-6.3v-31.9h6.3V3906.6z"/>
			<path class="st3" d="M4114.8,3907c-1.6,0-3.2-0.2-4.5-0.7s-2.6-1.2-3.6-2.1c-1-1-1.7-2.2-2.3-3.7c-0.6-1.4-0.9-3.2-0.9-5.2
				c0-2,0.3-3.8,0.8-5.3c0.5-1.5,1.3-2.8,2.1-3.8c0.9-1,2-1.7,3.3-2.2c1.3-0.5,2.7-0.8,4.2-0.8s2.9,0.2,4.1,0.7
				c1.3,0.5,2.2,1.2,3.1,2c0.9,0.9,1.5,2,1.9,3.3c0.5,1.3,0.7,2.8,0.7,4.4v3h-14c0,0.9,0.2,1.6,0.4,2.4c0.3,0.7,0.6,1.3,1.1,1.7
				s1,0.9,1.6,1.2c0.7,0.3,1.3,0.4,2.2,0.4c0.7,0,1.3,0,2-0.1c0.6-0.1,1.3-0.2,1.8-0.4s1.2-0.4,1.7-0.6c0.6-0.2,1.2-0.5,1.7-0.8v4.8
				c-0.6,0.3-1.1,0.5-1.6,0.8c-0.6,0.2-1.2,0.4-1.7,0.5c-0.6,0.1-1.3,0.2-2,0.3C4116.4,3907,4115.6,3907,4114.8,3907z M4114,3887.7
				c-1.1,0-2,0.4-2.8,1.2c-0.8,0.8-1.2,2-1.3,3.7h8c0-0.7-0.1-1.3-0.3-1.9c-0.2-0.6-0.4-1.1-0.8-1.5c-0.3-0.4-0.8-0.8-1.3-1.1
				C4115.2,3887.8,4114.7,3887.7,4114,3887.7z"/>
			<path class="st3" d="M4141.1,3883.3c0.2,0,0.4,0,0.6,0c0.2,0,0.4,0,0.6,0s0.4,0,0.5,0.1c0.2,0,0.3,0,0.4,0.1v5.9
				c-0.1,0-0.3-0.1-0.5-0.1c-0.2,0-0.4-0.1-0.6-0.1s-0.4,0-0.6,0s-0.4,0-0.5,0c-0.8,0-1.5,0.1-2.2,0.3c-0.7,0.2-1.3,0.6-1.7,1
				c-0.5,0.5-0.9,1.1-1.2,1.8c-0.3,0.8-0.4,1.6-0.4,2.7v11.7h-6.3v-22.9h4.7l1,3.5h0.3c0.3-0.6,0.7-1.2,1.1-1.6
				c0.4-0.5,0.8-0.9,1.3-1.3c0.5-0.3,1-0.6,1.6-0.8C4139.6,3883.4,4140.3,3883.3,4141.1,3883.3z"/>
			<path class="st4" d="M4173.3,3891.6c0,1.6-0.1,3.2-0.4,4.6s-0.7,2.7-1.3,4c-0.6,1.2-1.3,2.2-2,3.2c-0.8,1-1.7,1.6-2.9,2.3
				l7.4,8.3h-8.2l-5.5-6.7c-0.1,0-0.2,0-0.3,0c-0.1,0-0.1,0-0.2,0c-0.1,0-0.1,0-0.2,0c-2.3,0-4.2-0.4-6-1.1
				c-1.7-0.8-3.1-1.8-4.1-3.2c-1.1-1.3-1.9-3-2.5-4.9c-0.6-1.9-0.8-4-0.8-6.4s0.3-4.4,0.8-6.4c0.6-1.9,1.3-3.5,2.5-4.8
				c1.1-1.3,2.5-2.4,4.1-3.1c1.6-0.8,3.7-1.1,6-1.1s4.2,0.4,6,1.1c1.6,0.8,3.1,1.7,4.1,3.1s1.9,3,2.5,4.8
				C4173.1,3887.1,4173.3,3889.2,4173.3,3891.6z M4153,3891.6c0,1.5,0.1,3,0.4,4.2c0.3,1.3,0.7,2.3,1.3,3.2c0.6,0.9,1.3,1.5,2.1,2
				c0.9,0.5,1.9,0.7,3.1,0.7c1.3,0,2.2-0.2,3.1-0.7c0.9-0.5,1.5-1.2,2.1-2c0.6-0.9,1-1.9,1.3-3.2c0.3-1.3,0.4-2.7,0.4-4.2
				c0-1.5-0.1-3-0.4-4.2c-0.3-1.3-0.7-2.3-1.3-3.2c-0.6-0.9-1.3-1.5-2.1-2c-0.9-0.5-1.9-0.7-3.1-0.7c-1.2,0-2.2,0.2-3.1,0.7
				c-0.9,0.5-1.6,1.2-2.1,2c-0.6,0.9-1,1.9-1.3,3.2C4153.2,3888.6,4153,3890,4153,3891.6z"/>
		</g>
		<polygon class="st5" points="3975.2,3944.4 3975.2,3953.5 3975.2,3962.5 3993.3,3953.5 		"/>
		<g>
			<g id="third_queue_1_">
				<path class="st5" d="M3561.1,3988.8c-6.2,0-11.2-5-11.2-11.2v-57.8c0-6.2,5-11.2,11.2-11.2h112.8c6.2,0,11.2,5,11.2,11.2v57.8
					c0,6.2-5,11.2-11.2,11.2H3561.1z"/>
				<path class="st6" d="M3673.9,3908.9c6,0,10.9,4.9,10.9,10.9v57.8c0,6-4.9,10.9-10.9,10.9h-112.8c-6,0-10.9-4.9-10.9-10.9v-57.8
					c0-6,4.9-10.9,10.9-10.9H3673.9 M3673.9,3908.2h-112.8c-6.4,0-11.6,5.2-11.6,11.6v57.8c0,6.4,5.2,11.6,11.6,11.6h112.8
					c6.4,0,11.6-5.2,11.6-11.6v-57.8C3685.5,3913.4,3680.3,3908.2,3673.9,3908.2L3673.9,3908.2z"/>
			</g>
			<g id="second_queue_1_">
				<path class="st5" d="M3566,3993.6c-6.2,0-11.2-5-11.2-11.2v-57.8c0-6.2,5-11.2,11.2-11.2h112.8c6.2,0,11.2,5,11.2,11.2v57.8
					c0,6.2-5,11.2-11.2,11.2H3566z"/>
				<path class="st6" d="M3678.7,3913.7c6,0,10.9,4.9,10.9,10.9v57.8c0,6-4.9,10.9-10.9,10.9H3566c-6,0-10.9-4.9-10.9-10.9v-57.8
					c0-6,4.9-10.9,10.9-10.9H3678.7 M3678.7,3913H3566c-6.4,0-11.6,5.2-11.6,11.6v57.8c0,6.4,5.2,11.6,11.6,11.6h112.8
					c6.4,0,11.6-5.2,11.6-11.6v-57.8C3690.3,3918.2,3685.1,3913,3678.7,3913L3678.7,3913z"/>
			</g>
			<g id="queue_1_">
				<path class="st7" d="M3569.8,3998.4c-6.2,0-11.2-5-11.2-11.2v-57.8c0-6.2,5-11.2,11.2-11.2h112.8c6.2,0,11.2,5,11.2,11.2v57.8
					c0,6.2-5,11.2-11.2,11.2H3569.8z"/>
				<path class="st6" d="M3682.6,3918.5c6,0,10.9,4.9,10.9,10.9v57.8c0,6-4.9,10.9-10.9,10.9h-112.8c-6,0-10.9-4.9-10.9-10.9v-57.8
					c0-6,4.9-10.9,10.9-10.9H3682.6 M3682.6,3917.8h-112.8c-6.4,0-11.6,5.2-11.6,11.6v57.8c0,6.4,5.2,11.6,11.6,11.6h112.8
					c6.4,0,11.6-5.2,11.6-11.6v-57.8C3694.1,3923,3688.9,3917.8,3682.6,3917.8L3682.6,3917.8z"/>
			</g>
			<g id="RabbitMQ_1_">
				<path class="st8" d="M3674.2,3952h-13.1c-0.9,0-1.6-0.8-1.6-1.6v-13.1c0-0.9-0.8-1.6-1.6-1.6h-4.4c-0.9,0-1.6,0.8-1.6,1.6v13.1
					c0,0.9-0.8,1.6-1.6,1.6h-5.4c-0.9,0-1.6-0.8-1.6-1.6v-13.1c0-0.9-0.8-1.6-1.6-1.6h-4.4c-0.9,0-1.6,0.8-1.6,1.6v37.2
					c0,0.9,0.8,1.6,1.6,1.6h37.2c0.9,0,1.6-0.8,1.6-1.6v-20.8C3675.8,3952.8,3675.1,3952,3674.2,3952z M3665.7,3967.4h-2.8
					c-1.3,0-2.4-1.1-2.4-2.4v-2.8c0-1.3,1.1-2.4,2.4-2.4h2.8c1.3,0,2.4,1.1,2.4,2.4v2.8C3668.1,3966.3,3667.1,3967.4,3665.7,3967.4z
					"/>
			</g>
			<g id="Outbox_1_">
				<rect x="3586.2" y="3942.3" class="st4" width="30.8" height="33.7"/>
				<polygon class="st7" points="3615.1,3944.3 3589.1,3944.3 3589.1,3969.3 3593.9,3969.3 3593.9,3971.3 3609.3,3971.3 
					3609.3,3969.3 3615.1,3969.3 				"/>
				<polygon class="st9" points="3608.8,3951.5 3601.5,3936.2 3594.5,3951.5 3598.3,3951.5 3598.3,3965 3605,3965 3605,3951.5 				
					"/>
			</g>
		</g>
		<line id="stroke_3_" class="st10" x1="3714.8" y1="3953.5" x2="3979.7" y2="3953.5"/>
		<polygon class="st5" points="4430.4,3944.4 4430.4,3953.5 4430.4,3962.5 4448.5,3953.5 		"/>
		<line id="stroke_4_" class="st10" x1="4200.4" y1="3953.5" x2="4438.2" y2="3953.5"/>
		<g>
			<path class="st11" d="M4464.8,3958.2c0,15.7,12.7,28.4,28.4,28.4c1.8,0,3.6-0.2,5.4-0.5c-0.2,1.3-0.4,2.7-0.4,4
				c0,12.8,10.5,23.3,23.3,23.3c5.9,0,11.5-2.2,15.5-5.9c6.1,7.4,15.4,12.3,25.7,12.3c13,0,24.2-7.4,29.6-18.2
				c2.9,0.9,4.1,1.3,7.2,1.3c18.2,0,33.2-14.8,33.2-33.2c0-2.7-0.4-5.4-1.1-7.9c5.4-4.2,9-11,9-18.4c0-12.8-10.5-23.3-23.3-23.3
				h-0.2l0,0c0-12.8-8.6-23.3-21.4-23.3c-7.1,0-13.4,3.2-17.7,8.1c-4-10.6-14.4-18.1-26.4-18.1c-11.3,0-21.1,6.6-25.7,16.2
				c-4-6.7-11.5-11.2-19.9-11.2c-12.8,0-23.3,10.5-23.3,23.3c0,5.8,2.2,11.2,5.6,15.2C4475.1,3932.4,4464.8,3944.1,4464.8,3958.2z"
				/>
			<g>
				<path class="st12" d="M4531.1,3987.3h-2.2v-12h2.2V3987.3z"/>
				<path class="st12" d="M4535.3,3979.9c0.2-0.2,0.4-0.3,0.6-0.5c0.2-0.2,0.4-0.3,0.6-0.4c0.2-0.1,0.5-0.2,0.7-0.2
					c0.3-0.1,0.5-0.1,0.8-0.1c0.5,0,0.9,0.1,1.3,0.2c0.4,0.2,0.7,0.4,0.9,0.7c0.2,0.3,0.4,0.6,0.6,1.1c0.1,0.4,0.2,0.9,0.2,1.3v5.4
					h-2v-5.5c0-0.5-0.1-1-0.4-1.2c-0.2-0.3-0.6-0.4-1.1-0.4c-0.4,0-0.7,0.1-1,0.2c-0.3,0.1-0.6,0.4-0.9,0.7v6.2h-2v-8.5h1.3
					c0.3,0,0.5,0.1,0.5,0.4L4535.3,3979.9z"/>
				<path class="st12" d="M4545.4,3987.4c-0.8,0-1.3-0.2-1.7-0.6c-0.4-0.4-0.6-1-0.6-1.7v-4.7h-0.9c-0.1,0-0.2,0-0.3-0.1
					c-0.1-0.1-0.1-0.2-0.1-0.3v-0.8l1.3-0.2l0.4-2.3c0-0.1,0.1-0.2,0.2-0.3c0.1-0.1,0.2-0.1,0.3-0.1h1.1v2.7h2.2v1.4h-2.2v4.6
					c0,0.3,0.1,0.5,0.2,0.6c0.1,0.2,0.3,0.2,0.6,0.2c0.1,0,0.2,0,0.3,0c0.1,0,0.2-0.1,0.2-0.1c0.1,0,0.1-0.1,0.2-0.1
					c0.1,0,0.1,0,0.2,0c0.1,0,0.1,0,0.2,0s0.1,0.1,0.1,0.1l0.6,1c-0.3,0.3-0.7,0.5-1.1,0.6
					C4546.2,3987.3,4545.8,3987.4,4545.4,3987.4z"/>
				<path class="st12" d="M4550.2,3983.2c0,0.5,0.1,0.8,0.2,1.2c0.1,0.3,0.3,0.6,0.5,0.8c0.2,0.2,0.5,0.4,0.7,0.5
					c0.3,0.1,0.6,0.2,0.9,0.2s0.6,0,0.9-0.1c0.2-0.1,0.5-0.2,0.7-0.3c0.2-0.1,0.3-0.2,0.5-0.3c0.1-0.1,0.3-0.1,0.4-0.1
					c0.2,0,0.3,0.1,0.4,0.2l0.6,0.8c-0.2,0.3-0.5,0.5-0.8,0.7c-0.3,0.2-0.6,0.3-0.9,0.4s-0.6,0.2-1,0.2c-0.3,0-0.6,0.1-1,0.1
					c-0.6,0-1.2-0.1-1.6-0.3s-1-0.5-1.3-0.9c-0.4-0.4-0.7-0.9-0.9-1.4c-0.2-0.6-0.3-1.3-0.3-1.9c0-0.6,0.1-1.2,0.3-1.6
					c0.2-0.5,0.5-1,0.8-1.3c0.4-0.4,0.8-0.7,1.3-0.9c0.5-0.2,1.1-0.3,1.7-0.3c0.6,0,1.1,0.1,1.4,0.3c0.5,0.2,0.9,0.4,1.2,0.8
					s0.6,0.8,0.8,1.3c0.2,0.5,0.3,1.1,0.3,1.6c0,0.3,0,0.5-0.1,0.6s-0.2,0.2-0.4,0.2h-5.1V3983.2z M4554.1,3982.1
					c0-0.3,0-0.5-0.1-0.8c-0.1-0.2-0.2-0.5-0.3-0.6c-0.2-0.2-0.4-0.3-0.6-0.4s-0.5-0.2-0.8-0.2c-0.6,0-1.1,0.2-1.3,0.5
					c-0.3,0.3-0.6,0.8-0.7,1.4H4554.1z"/>
				<path class="st12" d="M4559.4,3980.2c0.3-0.5,0.6-0.9,1-1.2c0.4-0.3,0.8-0.5,1.3-0.5c0.4,0,0.7,0.1,1,0.3l-0.1,1.5
					c0,0.1-0.1,0.2-0.1,0.2c-0.1,0-0.1,0.1-0.2,0.1c-0.1,0-0.2,0-0.4,0s-0.3,0-0.5,0c-0.2,0-0.4,0-0.6,0.1c-0.2,0.1-0.3,0.2-0.5,0.3
					c-0.1,0.1-0.3,0.3-0.4,0.5c-0.1,0.2-0.2,0.4-0.3,0.6v5.2h-2v-8.5h1.2c0.2,0,0.4,0,0.5,0.1c0.1,0.1,0.1,0.2,0.2,0.4V3980.2z"/>
				<path class="st12" d="M4565.5,3979.9c0.2-0.2,0.4-0.3,0.6-0.5c0.2-0.2,0.4-0.3,0.6-0.4c0.2-0.1,0.5-0.2,0.7-0.2
					c0.3-0.1,0.5-0.1,0.8-0.1c0.5,0,0.9,0.1,1.3,0.2c0.4,0.2,0.7,0.4,0.9,0.7c0.2,0.3,0.4,0.6,0.6,1.1c0.1,0.4,0.2,0.9,0.2,1.3v5.4
					h-2v-5.5c0-0.5-0.1-1-0.4-1.2c-0.2-0.3-0.6-0.4-1.1-0.4c-0.4,0-0.7,0.1-1,0.2c-0.3,0.1-0.6,0.4-0.9,0.7v6.2h-2v-8.5h1.3
					c0.3,0,0.5,0.1,0.5,0.4L4565.5,3979.9z"/>
				<path class="st12" d="M4574.5,3983.2c0,0.5,0.1,0.8,0.2,1.2c0.1,0.3,0.3,0.6,0.5,0.8c0.2,0.2,0.5,0.4,0.7,0.5
					c0.3,0.1,0.6,0.2,0.9,0.2s0.6,0,0.9-0.1c0.2-0.1,0.5-0.2,0.7-0.3s0.3-0.2,0.5-0.3c0.1-0.1,0.3-0.1,0.4-0.1
					c0.2,0,0.3,0.1,0.4,0.2l0.6,0.8c-0.2,0.3-0.5,0.5-0.8,0.7c-0.3,0.2-0.6,0.3-0.9,0.4s-0.6,0.2-1,0.2c-0.3,0-0.6,0.1-1,0.1
					c-0.6,0-1.2-0.1-1.6-0.3s-1-0.5-1.3-0.9c-0.4-0.4-0.7-0.9-0.9-1.4c-0.2-0.6-0.3-1.3-0.3-1.9c0-0.6,0.1-1.2,0.3-1.6
					c0.2-0.5,0.5-1,0.8-1.3c0.4-0.4,0.8-0.7,1.3-0.9c0.5-0.2,1.1-0.3,1.7-0.3c0.6,0,1.1,0.1,1.4,0.3c0.5,0.2,0.9,0.4,1.2,0.8
					c0.3,0.4,0.6,0.8,0.8,1.3c0.2,0.5,0.3,1.1,0.3,1.6c0,0.3,0,0.5-0.1,0.6c-0.1,0.1-0.2,0.2-0.4,0.2h-5.1V3983.2z M4578.4,3982.1
					c0-0.3,0-0.5-0.1-0.8c-0.1-0.2-0.2-0.5-0.3-0.6c-0.2-0.2-0.4-0.3-0.6-0.4s-0.5-0.2-0.8-0.2c-0.6,0-1.1,0.2-1.3,0.5
					s-0.6,0.8-0.7,1.4H4578.4z"/>
				<path class="st12" d="M4584.5,3987.4c-0.8,0-1.3-0.2-1.7-0.6c-0.4-0.4-0.6-1-0.6-1.7v-4.7h-0.9c-0.1,0-0.2,0-0.3-0.1
					s-0.1-0.2-0.1-0.3v-0.8l1.3-0.2l0.4-2.3c0-0.1,0.1-0.2,0.2-0.3s0.2-0.1,0.3-0.1h1.1v2.7h2.2v1.4h-2.2v4.6c0,0.3,0.1,0.5,0.2,0.6
					c0.1,0.2,0.3,0.2,0.6,0.2c0.1,0,0.2,0,0.3,0c0.1,0,0.2-0.1,0.2-0.1c0.1,0,0.1-0.1,0.2-0.1s0.1,0,0.2,0c0.1,0,0.1,0,0.2,0
					s0.1,0.1,0.1,0.1l0.6,1c-0.3,0.3-0.7,0.5-1.1,0.6C4585.3,3987.3,4584.9,3987.4,4584.5,3987.4z"/>
			</g>
			<path class="st4" d="M4557.1,3922c-12.7,0-22.9,10.3-22.9,22.9c0,12.6,10.3,22.9,22.9,22.9c12.7,0,22.9-10.3,22.9-22.9
				C4580,3932.3,4569.7,3922,4557.1,3922z M4576.6,3945c0,4.4-1.5,8.6-4,11.9c-0.7-0.5-1.5-2-0.9-3.8c0.7-1.5,0.9-5.2,0.7-6.6
				s-0.9-4.9-2.9-4.9s-3.4-0.7-4.5-3.1c-2.5-4.9,4.5-5.9,2.2-8.6c-0.7-0.9-4.2,3.2-4.7-2c0-0.4,0.4-1.1,0.9-1.5
				C4571,3928.9,4576.6,3936.4,4576.6,3945z M4554.6,3925.6c-0.5,0.9-1.7,1.3-2.5,2c-1.7,1.5-2.4,1.3-3.2,2.7
				c-0.9,1.3-3.8,3.4-3.8,4.5c0,1.2,1.5,2.2,2.2,2c0.7-0.2,2.7-0.2,3.8,0.2c1.2,0.4,9.3,0.9,6.7,7.8c-0.9,2.2-4.4,1.8-5.4,5.6
				c-0.2,0.5-0.7,2.9-0.7,3.6c0,1.2,0.9,5.6-0.4,5.6c-1.2,0-4.2-3.9-4.2-4.5s-0.9-3.2-0.9-5.4c0-2.2-3.6-2-3.6-4.9
				c0-2.5,2-3.9,1.5-5.1c-0.5-1.2-3.9-1.2-5.2-1.3C4541.3,3931.5,4547.2,3926.6,4554.6,3925.6z M4551,3963.6
				c1.2-0.7,1.3-1.3,2.4-1.5c1.2,0,2.2-0.5,3.6-0.9c1.2-0.4,3.4-1.5,5.4-1.7c1.7-0.2,4.7,0,5.8,1.7c-3.1,2-6.7,3.2-10.8,3.2
				C4555,3964.4,4552.8,3964.1,4551,3963.6z"/>
		</g>
		<g>
			<path class="st12" d="M4059.8,3943c0.1,0,0.3,0.1,0.4,0.2l1.1,1.1c-0.6,0.7-1.3,1.3-2.2,1.7c-0.9,0.4-1.9,0.6-3.1,0.6
				c-1.1,0-2-0.2-2.9-0.5s-1.6-0.9-2.2-1.5c-0.6-0.6-1.1-1.4-1.4-2.3c-0.3-0.9-0.5-1.9-0.5-3c0-1.1,0.2-2.1,0.5-3s0.8-1.7,1.5-2.3
				c0.6-0.6,1.4-1.2,2.2-1.5c0.9-0.4,1.8-0.5,2.9-0.5c1,0,2,0.2,2.8,0.5c0.8,0.3,1.5,0.8,2.1,1.4l-0.9,1.2c-0.1,0.1-0.1,0.1-0.2,0.2
				c-0.1,0.1-0.2,0.1-0.3,0.1c-0.1,0-0.2,0-0.3-0.1c-0.1-0.1-0.2-0.1-0.3-0.2c-0.1-0.1-0.3-0.2-0.4-0.3c-0.2-0.1-0.4-0.2-0.6-0.3
				c-0.2-0.1-0.5-0.2-0.8-0.2c-0.3-0.1-0.6-0.1-1-0.1c-0.6,0-1.2,0.1-1.8,0.3c-0.5,0.2-1,0.6-1.4,1c-0.4,0.4-0.7,1-0.9,1.6
				s-0.3,1.3-0.3,2.1c0,0.8,0.1,1.5,0.3,2.2c0.2,0.6,0.5,1.2,0.9,1.6c0.4,0.4,0.9,0.8,1.4,1c0.5,0.2,1.1,0.3,1.7,0.3
				c0.4,0,0.7,0,1-0.1c0.3,0,0.6-0.1,0.8-0.2c0.2-0.1,0.5-0.2,0.7-0.3c0.2-0.1,0.4-0.3,0.7-0.5c0.1-0.1,0.1-0.1,0.2-0.1
				C4059.7,3943,4059.8,3943,4059.8,3943z"/>
			<path class="st12" d="M4068,3936c0.8,0,1.4,0.1,2.1,0.4c0.6,0.2,1.2,0.6,1.6,1c0.4,0.5,0.8,1,1,1.7c0.2,0.7,0.4,1.4,0.4,2.2
				c0,0.8-0.1,1.5-0.4,2.2c-0.2,0.7-0.6,1.2-1,1.7c-0.4,0.5-1,0.8-1.6,1.1s-1.3,0.4-2.1,0.4c-0.8,0-1.5-0.1-2.1-0.4
				c-0.6-0.2-1.2-0.6-1.6-1.1c-0.4-0.5-0.8-1-1-1.7c-0.2-0.7-0.4-1.4-0.4-2.2c0-0.8,0.1-1.5,0.4-2.2s0.6-1.2,1-1.7
				c0.4-0.5,1-0.8,1.6-1C4066.6,3936.1,4067.3,3936,4068,3936z M4068,3944.6c0.8,0,1.5-0.3,1.9-0.9c0.4-0.6,0.6-1.4,0.6-2.5
				c0-1.1-0.2-1.9-0.6-2.5c-0.4-0.6-1-0.9-1.9-0.9c-0.9,0-1.5,0.3-1.9,0.9c-0.4,0.6-0.6,1.4-0.6,2.5s0.2,1.9,0.6,2.5
				S4067.2,3944.6,4068,3944.6z"/>
			<path class="st12" d="M4078.3,3937.4c0.2-0.2,0.4-0.4,0.7-0.6c0.2-0.2,0.5-0.3,0.7-0.4c0.3-0.1,0.5-0.2,0.8-0.3
				c0.3-0.1,0.6-0.1,1-0.1c0.6,0,1.1,0.1,1.5,0.3c0.4,0.2,0.8,0.5,1.1,0.8c0.3,0.3,0.5,0.8,0.7,1.2c0.1,0.5,0.2,1,0.2,1.6v6.5h-2.5
				v-6.5c0-0.6-0.1-1.1-0.4-1.4c-0.3-0.3-0.7-0.5-1.3-0.5c-0.4,0-0.8,0.1-1.2,0.3c-0.4,0.2-0.7,0.5-1.1,0.8v7.4h-2.5v-10.2h1.5
				c0.3,0,0.5,0.1,0.6,0.4L4078.3,3937.4z"/>
			<path class="st12" d="M4094.4,3938.2c-0.1,0.1-0.1,0.2-0.2,0.2c-0.1,0-0.2,0.1-0.3,0.1c-0.1,0-0.2,0-0.4-0.1
				c-0.1-0.1-0.3-0.1-0.5-0.2c-0.2-0.1-0.4-0.2-0.6-0.2c-0.2-0.1-0.5-0.1-0.8-0.1c-0.5,0-0.9,0.1-1.1,0.3c-0.3,0.2-0.4,0.5-0.4,0.8
				c0,0.2,0.1,0.4,0.2,0.6c0.1,0.1,0.3,0.3,0.6,0.4c0.2,0.1,0.5,0.2,0.8,0.3c0.3,0.1,0.6,0.2,0.9,0.3c0.3,0.1,0.6,0.2,0.9,0.4
				c0.3,0.1,0.6,0.3,0.8,0.5c0.2,0.2,0.4,0.5,0.6,0.8c0.1,0.3,0.2,0.6,0.2,1.1c0,0.5-0.1,0.9-0.3,1.4c-0.2,0.4-0.4,0.8-0.8,1.1
				c-0.3,0.3-0.8,0.5-1.3,0.7c-0.5,0.2-1.1,0.3-1.8,0.3c-0.4,0-0.7,0-1-0.1c-0.3-0.1-0.7-0.2-1-0.3c-0.3-0.1-0.6-0.2-0.9-0.4
				c-0.3-0.2-0.5-0.3-0.7-0.5l0.6-0.9c0.1-0.1,0.2-0.2,0.3-0.3c0.1-0.1,0.2-0.1,0.4-0.1c0.2,0,0.3,0,0.4,0.1
				c0.1,0.1,0.3,0.2,0.5,0.3c0.2,0.1,0.4,0.2,0.6,0.3c0.2,0.1,0.5,0.1,0.9,0.1c0.3,0,0.5,0,0.8-0.1c0.2-0.1,0.4-0.2,0.5-0.3
				c0.1-0.1,0.2-0.2,0.3-0.4c0.1-0.1,0.1-0.3,0.1-0.5c0-0.2-0.1-0.4-0.2-0.6c-0.1-0.2-0.3-0.3-0.6-0.4c-0.2-0.1-0.5-0.2-0.8-0.3
				c-0.3-0.1-0.6-0.2-0.9-0.3c-0.3-0.1-0.6-0.2-0.9-0.4c-0.3-0.1-0.6-0.3-0.8-0.5c-0.2-0.2-0.4-0.5-0.6-0.8
				c-0.1-0.3-0.2-0.7-0.2-1.2c0-0.4,0.1-0.8,0.2-1.2c0.2-0.4,0.4-0.7,0.7-1c0.3-0.3,0.7-0.5,1.2-0.7c0.5-0.2,1-0.3,1.7-0.3
				c0.7,0,1.3,0.1,1.9,0.3c0.6,0.2,1.1,0.5,1.4,0.9L4094.4,3938.2z"/>
			<path class="st12" d="M4106.7,3936.2v10.2h-1.5c-0.3,0-0.5-0.1-0.6-0.4l-0.2-0.8c-0.4,0.4-0.9,0.8-1.4,1
				c-0.5,0.3-1.1,0.4-1.8,0.4c-0.6,0-1.1-0.1-1.5-0.3c-0.4-0.2-0.8-0.5-1.1-0.8c-0.3-0.3-0.5-0.8-0.7-1.2c-0.1-0.5-0.2-1-0.2-1.6
				v-6.5h2.5v6.5c0,0.6,0.1,1.1,0.4,1.4c0.3,0.3,0.7,0.5,1.3,0.5c0.4,0,0.8-0.1,1.2-0.3c0.4-0.2,0.7-0.4,1.1-0.8v-7.4H4106.7z"/>
			<path class="st12" d="M4110.2,3946.4v-10.2h1.5c0.3,0,0.5,0.1,0.6,0.4l0.2,0.8c0.2-0.2,0.4-0.4,0.6-0.5s0.4-0.3,0.6-0.4
				c0.2-0.1,0.5-0.2,0.7-0.3c0.3-0.1,0.5-0.1,0.8-0.1c0.6,0,1.2,0.2,1.6,0.5s0.7,0.8,0.9,1.4c0.2-0.3,0.4-0.6,0.6-0.9
				s0.5-0.4,0.8-0.6c0.3-0.2,0.6-0.3,0.9-0.3c0.3-0.1,0.6-0.1,1-0.1c0.6,0,1.1,0.1,1.5,0.3c0.4,0.2,0.8,0.4,1.1,0.8
				c0.3,0.3,0.5,0.7,0.7,1.2c0.2,0.5,0.2,1,0.2,1.6v6.5h-2.5v-6.5c0-0.7-0.1-1.1-0.4-1.5c-0.3-0.3-0.7-0.5-1.3-0.5
				c-0.3,0-0.5,0-0.7,0.1c-0.2,0.1-0.4,0.2-0.6,0.4c-0.2,0.2-0.3,0.4-0.4,0.6c-0.1,0.2-0.1,0.5-0.1,0.8v6.5h-2.5v-6.5
				c0-0.7-0.1-1.2-0.4-1.5c-0.3-0.3-0.7-0.5-1.2-0.5c-0.4,0-0.7,0.1-1,0.3s-0.6,0.4-0.9,0.7v7.5H4110.2z"/>
			<path class="st12" d="M4129.7,3941.6c0,0.5,0.1,1,0.3,1.4c0.1,0.4,0.3,0.7,0.6,0.9c0.2,0.2,0.5,0.4,0.9,0.6
				c0.3,0.1,0.7,0.2,1.1,0.2s0.7,0,1-0.1c0.3-0.1,0.5-0.2,0.8-0.3c0.2-0.1,0.4-0.2,0.6-0.3c0.2-0.1,0.3-0.1,0.5-0.1
				c0.2,0,0.4,0.1,0.5,0.2l0.7,0.9c-0.3,0.3-0.6,0.6-0.9,0.8s-0.7,0.4-1.1,0.5c-0.4,0.1-0.7,0.2-1.1,0.3c-0.4,0.1-0.8,0.1-1.1,0.1
				c-0.7,0-1.4-0.1-2-0.4c-0.6-0.2-1.1-0.6-1.6-1c-0.5-0.5-0.8-1-1.1-1.7c-0.3-0.7-0.4-1.5-0.4-2.4c0-0.7,0.1-1.4,0.3-2
				c0.2-0.6,0.5-1.1,1-1.6c0.4-0.5,0.9-0.8,1.5-1.1c0.6-0.3,1.3-0.4,2.1-0.4c0.6,0,1.2,0.1,1.8,0.3s1,0.5,1.4,0.9s0.7,0.9,0.9,1.5
				c0.2,0.6,0.3,1.2,0.3,2c0,0.4,0,0.6-0.1,0.8c-0.1,0.1-0.2,0.2-0.5,0.2H4129.7z M4134.4,3940.1c0-0.3,0-0.6-0.1-0.9
				c-0.1-0.3-0.2-0.5-0.4-0.7c-0.2-0.2-0.4-0.4-0.7-0.5c-0.3-0.1-0.6-0.2-1-0.2c-0.7,0-1.3,0.2-1.7,0.6c-0.4,0.4-0.7,1-0.8,1.7
				H4134.4z"/>
			<path class="st12" d="M4031.5,3965.2c0,0.8-0.1,1.5-0.3,2.2c-0.2,0.6-0.5,1.2-0.9,1.7c-0.4,0.5-0.9,0.8-1.5,1.1
				c-0.6,0.2-1.3,0.4-2.1,0.4c-0.4,0-0.7,0-1.1-0.1c-0.3,0-0.7-0.1-1.1-0.2c0-0.3,0-0.5,0.1-0.8c0-0.3,0.1-0.5,0.1-0.8
				c0-0.1,0.1-0.3,0.2-0.4c0.1-0.1,0.2-0.1,0.4-0.1c0.1,0,0.3,0,0.4,0.1c0.2,0,0.4,0.1,0.7,0.1c0.4,0,0.7-0.1,1-0.2
				c0.3-0.1,0.5-0.3,0.7-0.5c0.2-0.2,0.3-0.5,0.4-0.9c0.1-0.4,0.1-0.8,0.1-1.4v-9.3h2.7V3965.2z"/>
			<path class="st12" d="M4043.2,3958.5c-0.1,0.1-0.2,0.2-0.3,0.3c-0.1,0.1-0.2,0.1-0.3,0.1c-0.1,0-0.3-0.1-0.5-0.2
				s-0.4-0.2-0.6-0.3c-0.2-0.1-0.5-0.2-0.8-0.3c-0.3-0.1-0.7-0.2-1.1-0.2c-0.4,0-0.7,0-1,0.1c-0.3,0.1-0.5,0.2-0.7,0.4
				c-0.2,0.2-0.3,0.4-0.4,0.6c-0.1,0.2-0.1,0.5-0.1,0.7c0,0.3,0.1,0.6,0.3,0.8c0.2,0.2,0.4,0.4,0.8,0.6c0.3,0.2,0.7,0.3,1.1,0.4
				c0.4,0.1,0.8,0.3,1.2,0.4c0.4,0.1,0.8,0.3,1.2,0.5c0.4,0.2,0.8,0.4,1.1,0.7c0.3,0.3,0.6,0.6,0.8,1.1c0.2,0.4,0.3,0.9,0.3,1.5
				c0,0.7-0.1,1.3-0.3,1.8c-0.2,0.6-0.5,1.1-1,1.5c-0.4,0.4-1,0.8-1.6,1s-1.3,0.4-2.1,0.4c-0.5,0-0.9,0-1.4-0.1
				c-0.4-0.1-0.9-0.2-1.3-0.4c-0.4-0.2-0.8-0.4-1.1-0.6c-0.4-0.2-0.7-0.5-1-0.8l0.8-1.3c0.1-0.1,0.2-0.2,0.3-0.2
				c0.1-0.1,0.2-0.1,0.3-0.1c0.2,0,0.3,0.1,0.5,0.2c0.2,0.1,0.4,0.3,0.7,0.5c0.3,0.2,0.6,0.3,0.9,0.5c0.4,0.1,0.8,0.2,1.3,0.2
				c0.8,0,1.4-0.2,1.8-0.5c0.4-0.4,0.6-0.9,0.6-1.6c0-0.4-0.1-0.7-0.3-0.9c-0.2-0.2-0.4-0.4-0.8-0.6c-0.3-0.2-0.7-0.3-1.1-0.4
				c-0.4-0.1-0.8-0.2-1.2-0.4c-0.4-0.1-0.8-0.3-1.2-0.5c-0.4-0.2-0.8-0.4-1.1-0.7c-0.3-0.3-0.6-0.7-0.8-1.1c-0.2-0.4-0.3-1-0.3-1.7
				c0-0.5,0.1-1,0.3-1.5c0.2-0.5,0.5-0.9,0.9-1.3c0.4-0.4,0.9-0.7,1.5-0.9c0.6-0.2,1.3-0.3,2-0.3c0.8,0,1.6,0.1,2.3,0.4
				c0.7,0.3,1.3,0.6,1.8,1.1L4043.2,3958.5z"/>
			<path class="st12" d="M4061.2,3963.1c0,1.1-0.2,2-0.5,2.9c-0.3,0.9-0.8,1.7-1.5,2.3c-0.6,0.7-1.4,1.2-2.3,1.5
				c-0.9,0.4-1.9,0.6-3,0.6c-1.1,0-2.1-0.2-3-0.6c-0.9-0.4-1.7-0.9-2.3-1.5c-0.6-0.7-1.1-1.4-1.5-2.3c-0.4-0.9-0.5-1.9-0.5-2.9
				c0-1.1,0.2-2,0.5-2.9c0.4-0.9,0.8-1.7,1.5-2.3c0.6-0.7,1.4-1.2,2.3-1.5c0.9-0.4,1.9-0.6,3-0.6c0.7,0,1.4,0.1,2.1,0.3
				c0.6,0.2,1.2,0.4,1.8,0.7c0.5,0.3,1,0.7,1.4,1.1c0.4,0.4,0.8,0.9,1.1,1.5c0.3,0.5,0.5,1.1,0.7,1.8
				C4061.1,3961.7,4061.2,3962.4,4061.2,3963.1z M4058.5,3963.1c0-0.8-0.1-1.5-0.3-2.1c-0.2-0.6-0.5-1.2-0.9-1.6
				c-0.4-0.4-0.9-0.8-1.4-1c-0.6-0.2-1.2-0.3-1.9-0.3c-0.7,0-1.3,0.1-1.9,0.3c-0.6,0.2-1,0.6-1.4,1c-0.4,0.4-0.7,1-0.9,1.6
				c-0.2,0.6-0.3,1.3-0.3,2.1c0,0.8,0.1,1.5,0.3,2.1c0.2,0.6,0.5,1.2,0.9,1.6c0.4,0.4,0.9,0.8,1.4,1c0.6,0.2,1.2,0.3,1.9,0.3
				c0.7,0,1.3-0.1,1.9-0.3c0.6-0.2,1-0.6,1.4-1c0.4-0.4,0.7-1,0.9-1.6C4058.4,3964.6,4058.5,3963.9,4058.5,3963.1z"/>
			<path class="st12" d="M4076.7,3955.9v14.4h-1.4c-0.2,0-0.4,0-0.5-0.1c-0.1-0.1-0.3-0.2-0.4-0.4l-7.5-9.6c0,0.4,0.1,0.8,0.1,1.2
				v8.8h-2.4v-14.4h1.4c0.1,0,0.2,0,0.3,0c0.1,0,0.2,0,0.2,0.1c0.1,0,0.1,0.1,0.2,0.1c0.1,0.1,0.1,0.1,0.2,0.2l7.5,9.6
				c0-0.2,0-0.5,0-0.7c0-0.2,0-0.4,0-0.6v-8.8H4076.7z"/>
			<path class="st12" d="M4086.4,3970.3v-10.2h1.5c0.3,0,0.5,0.1,0.6,0.4l0.2,0.8c0.2-0.2,0.4-0.4,0.6-0.5c0.2-0.2,0.4-0.3,0.6-0.4
				c0.2-0.1,0.5-0.2,0.7-0.3c0.3-0.1,0.5-0.1,0.8-0.1c0.6,0,1.2,0.2,1.6,0.5c0.4,0.3,0.7,0.8,0.9,1.4c0.2-0.3,0.4-0.6,0.6-0.9
				c0.2-0.2,0.5-0.4,0.8-0.6c0.3-0.2,0.6-0.3,0.9-0.3c0.3-0.1,0.6-0.1,1-0.1c0.6,0,1.1,0.1,1.5,0.3c0.4,0.2,0.8,0.4,1.1,0.8
				c0.3,0.3,0.5,0.7,0.7,1.2c0.2,0.5,0.2,1,0.2,1.6v6.5h-2.5v-6.5c0-0.7-0.1-1.1-0.4-1.5c-0.3-0.3-0.7-0.5-1.3-0.5
				c-0.3,0-0.5,0-0.7,0.1c-0.2,0.1-0.4,0.2-0.6,0.4c-0.2,0.2-0.3,0.4-0.4,0.6c-0.1,0.2-0.1,0.5-0.1,0.8v6.5h-2.5v-6.5
				c0-0.7-0.1-1.2-0.4-1.5c-0.3-0.3-0.7-0.5-1.2-0.5c-0.4,0-0.7,0.1-1,0.3c-0.3,0.2-0.6,0.4-0.9,0.7v7.5H4086.4z"/>
			<path class="st12" d="M4105.9,3965.5c0,0.5,0.1,1,0.3,1.4c0.1,0.4,0.3,0.7,0.6,0.9c0.2,0.2,0.5,0.4,0.9,0.6
				c0.3,0.1,0.7,0.2,1.1,0.2c0.4,0,0.7,0,1-0.1c0.3-0.1,0.5-0.2,0.8-0.3c0.2-0.1,0.4-0.2,0.6-0.3c0.2-0.1,0.3-0.1,0.5-0.1
				c0.2,0,0.4,0.1,0.5,0.2l0.7,0.9c-0.3,0.3-0.6,0.6-0.9,0.8c-0.3,0.2-0.7,0.4-1.1,0.5c-0.4,0.1-0.7,0.2-1.1,0.3
				c-0.4,0.1-0.8,0.1-1.1,0.1c-0.7,0-1.4-0.1-2-0.4c-0.6-0.2-1.1-0.6-1.6-1c-0.5-0.5-0.8-1-1.1-1.7c-0.3-0.7-0.4-1.5-0.4-2.4
				c0-0.7,0.1-1.4,0.3-2c0.2-0.6,0.5-1.1,1-1.6c0.4-0.5,0.9-0.8,1.5-1.1c0.6-0.3,1.3-0.4,2.1-0.4c0.6,0,1.2,0.1,1.8,0.3
				c0.5,0.2,1,0.5,1.4,0.9s0.7,0.9,0.9,1.5s0.3,1.2,0.3,2c0,0.4,0,0.6-0.1,0.8c-0.1,0.1-0.2,0.2-0.5,0.2H4105.9z M4110.6,3964
				c0-0.3,0-0.6-0.1-0.9s-0.2-0.5-0.4-0.7c-0.2-0.2-0.4-0.4-0.7-0.5c-0.3-0.1-0.6-0.2-1-0.2c-0.7,0-1.3,0.2-1.7,0.6
				c-0.4,0.4-0.7,1-0.8,1.7H4110.6z"/>
			<path class="st12" d="M4121.9,3962.1c-0.1,0.1-0.1,0.2-0.2,0.2c-0.1,0-0.2,0.1-0.3,0.1c-0.1,0-0.2,0-0.4-0.1
				c-0.1-0.1-0.3-0.1-0.5-0.2c-0.2-0.1-0.4-0.2-0.6-0.2c-0.2-0.1-0.5-0.1-0.8-0.1c-0.5,0-0.9,0.1-1.1,0.3c-0.3,0.2-0.4,0.5-0.4,0.8
				c0,0.2,0.1,0.4,0.2,0.6c0.1,0.1,0.3,0.3,0.6,0.4c0.2,0.1,0.5,0.2,0.8,0.3c0.3,0.1,0.6,0.2,0.9,0.3c0.3,0.1,0.6,0.2,0.9,0.4
				c0.3,0.1,0.6,0.3,0.8,0.5c0.2,0.2,0.4,0.5,0.6,0.8c0.1,0.3,0.2,0.6,0.2,1.1c0,0.5-0.1,0.9-0.3,1.4c-0.2,0.4-0.4,0.8-0.8,1.1
				c-0.3,0.3-0.8,0.5-1.3,0.7c-0.5,0.2-1.1,0.3-1.8,0.3c-0.4,0-0.7,0-1-0.1c-0.3-0.1-0.7-0.2-1-0.3c-0.3-0.1-0.6-0.2-0.9-0.4
				c-0.3-0.2-0.5-0.3-0.7-0.5l0.6-0.9c0.1-0.1,0.2-0.2,0.3-0.3c0.1-0.1,0.2-0.1,0.4-0.1c0.2,0,0.3,0,0.4,0.1
				c0.1,0.1,0.3,0.2,0.5,0.3c0.2,0.1,0.4,0.2,0.6,0.3c0.2,0.1,0.5,0.1,0.9,0.1c0.3,0,0.5,0,0.8-0.1c0.2-0.1,0.4-0.2,0.5-0.3
				s0.2-0.2,0.3-0.4c0.1-0.1,0.1-0.3,0.1-0.5c0-0.2-0.1-0.4-0.2-0.6c-0.1-0.2-0.3-0.3-0.6-0.4c-0.2-0.1-0.5-0.2-0.8-0.3
				c-0.3-0.1-0.6-0.2-0.9-0.3c-0.3-0.1-0.6-0.2-0.9-0.4c-0.3-0.1-0.6-0.3-0.8-0.5c-0.2-0.2-0.4-0.5-0.6-0.8
				c-0.1-0.3-0.2-0.7-0.2-1.2c0-0.4,0.1-0.8,0.2-1.2c0.2-0.4,0.4-0.7,0.7-1c0.3-0.3,0.7-0.5,1.2-0.7c0.5-0.2,1-0.3,1.7-0.3
				c0.7,0,1.3,0.1,1.9,0.3c0.6,0.2,1.1,0.5,1.4,0.9L4121.9,3962.1z"/>
			<path class="st12" d="M4131.6,3962.1c-0.1,0.1-0.1,0.2-0.2,0.2c-0.1,0-0.2,0.1-0.3,0.1c-0.1,0-0.2,0-0.4-0.1
				c-0.1-0.1-0.3-0.1-0.5-0.2c-0.2-0.1-0.4-0.2-0.6-0.2c-0.2-0.1-0.5-0.1-0.8-0.1c-0.5,0-0.9,0.1-1.1,0.3c-0.3,0.2-0.4,0.5-0.4,0.8
				c0,0.2,0.1,0.4,0.2,0.6c0.1,0.1,0.3,0.3,0.6,0.4c0.2,0.1,0.5,0.2,0.8,0.3c0.3,0.1,0.6,0.2,0.9,0.3c0.3,0.1,0.6,0.2,0.9,0.4
				c0.3,0.1,0.6,0.3,0.8,0.5c0.2,0.2,0.4,0.5,0.6,0.8c0.1,0.3,0.2,0.6,0.2,1.1c0,0.5-0.1,0.9-0.3,1.4c-0.2,0.4-0.4,0.8-0.8,1.1
				c-0.3,0.3-0.8,0.5-1.3,0.7c-0.5,0.2-1.1,0.3-1.8,0.3c-0.4,0-0.7,0-1-0.1c-0.3-0.1-0.7-0.2-1-0.3c-0.3-0.1-0.6-0.2-0.9-0.4
				s-0.5-0.3-0.7-0.5l0.6-0.9c0.1-0.1,0.2-0.2,0.3-0.3c0.1-0.1,0.2-0.1,0.4-0.1c0.2,0,0.3,0,0.4,0.1c0.1,0.1,0.3,0.2,0.5,0.3
				c0.2,0.1,0.4,0.2,0.6,0.3c0.2,0.1,0.5,0.1,0.9,0.1c0.3,0,0.5,0,0.8-0.1c0.2-0.1,0.4-0.2,0.5-0.3s0.2-0.2,0.3-0.4
				c0.1-0.1,0.1-0.3,0.1-0.5c0-0.2-0.1-0.4-0.2-0.6c-0.1-0.2-0.3-0.3-0.6-0.4c-0.2-0.1-0.5-0.2-0.8-0.3c-0.3-0.1-0.6-0.2-0.9-0.3
				c-0.3-0.1-0.6-0.2-0.9-0.4c-0.3-0.1-0.6-0.3-0.8-0.5c-0.2-0.2-0.4-0.5-0.6-0.8c-0.1-0.3-0.2-0.7-0.2-1.2c0-0.4,0.1-0.8,0.2-1.2
				c0.2-0.4,0.4-0.7,0.7-1c0.3-0.3,0.7-0.5,1.2-0.7c0.5-0.2,1-0.3,1.7-0.3c0.7,0,1.3,0.1,1.9,0.3c0.6,0.2,1.1,0.5,1.4,0.9
				L4131.6,3962.1z"/>
			<path class="st12" d="M4134.9,3961.5c1.2-1.1,2.6-1.6,4.2-1.6c0.6,0,1.1,0.1,1.6,0.3c0.5,0.2,0.9,0.5,1.2,0.8
				c0.3,0.3,0.6,0.8,0.7,1.2c0.2,0.5,0.3,1,0.3,1.6v6.5h-1.1c-0.2,0-0.4,0-0.5-0.1c-0.1-0.1-0.2-0.2-0.3-0.4l-0.2-0.7
				c-0.3,0.2-0.5,0.4-0.8,0.6c-0.2,0.2-0.5,0.3-0.8,0.4c-0.3,0.1-0.5,0.2-0.9,0.3c-0.3,0.1-0.6,0.1-1,0.1c-0.4,0-0.8-0.1-1.2-0.2
				c-0.4-0.1-0.7-0.3-0.9-0.5c-0.3-0.2-0.5-0.5-0.6-0.9c-0.1-0.3-0.2-0.7-0.2-1.2c0-0.3,0-0.5,0.1-0.8s0.2-0.5,0.4-0.7
				c0.2-0.2,0.5-0.5,0.8-0.7c0.3-0.2,0.7-0.4,1.1-0.5c0.5-0.2,1-0.3,1.6-0.4c0.6-0.1,1.3-0.2,2.1-0.2v-0.6c0-0.7-0.1-1.2-0.4-1.5
				c-0.3-0.3-0.7-0.5-1.3-0.5c-0.4,0-0.7,0-1,0.1s-0.5,0.2-0.7,0.3c-0.2,0.1-0.4,0.2-0.5,0.3c-0.2,0.1-0.3,0.1-0.5,0.1
				c-0.2,0-0.3,0-0.4-0.1c-0.1-0.1-0.2-0.2-0.3-0.3L4134.9,3961.5z M4140.6,3965.9c-0.7,0-1.3,0.1-1.8,0.2c-0.5,0.1-0.9,0.2-1.2,0.3
				c-0.3,0.1-0.5,0.3-0.6,0.5c-0.1,0.2-0.2,0.4-0.2,0.6c0,0.4,0.1,0.7,0.4,0.9c0.3,0.2,0.6,0.3,1,0.3c0.5,0,0.9-0.1,1.3-0.3
				c0.4-0.2,0.7-0.5,1.1-0.8V3965.9z"/>
			<path class="st12" d="M4155.2,3960.4v0.9c0,0.3-0.2,0.5-0.5,0.5l-0.9,0.2c0.1,0.4,0.2,0.7,0.2,1.2c0,0.5-0.1,1-0.3,1.4
				c-0.2,0.4-0.5,0.8-0.8,1c-0.4,0.3-0.8,0.5-1.3,0.7c-0.5,0.2-1,0.2-1.6,0.2c-0.2,0-0.4,0-0.6,0c-0.2,0-0.4,0-0.5-0.1
				c-0.3,0.2-0.5,0.4-0.5,0.6c0,0.2,0.1,0.4,0.3,0.5c0.2,0.1,0.4,0.2,0.8,0.2c0.3,0,0.7,0.1,1.1,0.1c0.4,0,0.8,0,1.2,0.1
				c0.4,0,0.8,0.1,1.2,0.2c0.4,0.1,0.8,0.2,1.1,0.4c0.3,0.2,0.6,0.4,0.8,0.7c0.2,0.3,0.3,0.7,0.3,1.2c0,0.5-0.1,0.9-0.3,1.3
				c-0.2,0.4-0.5,0.8-1,1.1c-0.4,0.3-0.9,0.6-1.6,0.8c-0.6,0.2-1.3,0.3-2.1,0.3c-0.8,0-1.4-0.1-2-0.2c-0.6-0.1-1-0.3-1.4-0.6
				c-0.4-0.2-0.7-0.5-0.8-0.9c-0.2-0.3-0.3-0.7-0.3-1c0-0.5,0.1-0.9,0.4-1.2c0.3-0.3,0.7-0.6,1.2-0.8c-0.3-0.1-0.5-0.3-0.6-0.6
				c-0.2-0.2-0.2-0.5-0.2-0.9c0-0.2,0-0.3,0.1-0.5c0.1-0.2,0.1-0.3,0.2-0.5c0.1-0.2,0.2-0.3,0.4-0.5c0.2-0.1,0.4-0.3,0.6-0.4
				c-0.5-0.3-0.9-0.7-1.2-1.1c-0.3-0.5-0.4-1-0.4-1.6c0-0.5,0.1-1,0.3-1.4c0.2-0.4,0.5-0.8,0.8-1c0.4-0.3,0.8-0.5,1.3-0.7
				c0.5-0.2,1-0.2,1.6-0.2c0.4,0,0.9,0,1.2,0.1c0.4,0.1,0.7,0.2,1.1,0.4H4155.2z M4152.8,3970.7c0-0.2-0.1-0.4-0.2-0.5
				c-0.1-0.1-0.3-0.2-0.5-0.3c-0.2-0.1-0.4-0.1-0.7-0.2c-0.3,0-0.6-0.1-0.9-0.1c-0.3,0-0.6,0-1,0c-0.3,0-0.6,0-1-0.1
				c-0.3,0.2-0.5,0.3-0.7,0.5s-0.3,0.4-0.3,0.7c0,0.2,0,0.3,0.1,0.5c0.1,0.2,0.2,0.3,0.4,0.4s0.4,0.2,0.8,0.3
				c0.3,0.1,0.7,0.1,1.1,0.1c0.5,0,0.9,0,1.2-0.1c0.3-0.1,0.6-0.2,0.8-0.3c0.2-0.1,0.4-0.3,0.5-0.4
				C4152.7,3971.1,4152.8,3970.9,4152.8,3970.7z M4150,3964.9c0.3,0,0.6,0,0.8-0.1c0.2-0.1,0.4-0.2,0.6-0.3c0.1-0.1,0.3-0.3,0.3-0.5
				c0.1-0.2,0.1-0.4,0.1-0.7c0-0.5-0.2-0.9-0.5-1.2c-0.3-0.3-0.8-0.4-1.4-0.4s-1.1,0.1-1.4,0.4c-0.3,0.3-0.5,0.7-0.5,1.2
				c0,0.2,0,0.5,0.1,0.7c0.1,0.2,0.2,0.4,0.3,0.5c0.1,0.1,0.3,0.3,0.6,0.3C4149.4,3964.9,4149.7,3964.9,4150,3964.9z"/>
			<path class="st12" d="M4159.5,3965.5c0,0.5,0.1,1,0.3,1.4c0.1,0.4,0.3,0.7,0.6,0.9c0.2,0.2,0.5,0.4,0.9,0.6
				c0.3,0.1,0.7,0.2,1.1,0.2c0.4,0,0.7,0,1-0.1c0.3-0.1,0.5-0.2,0.8-0.3c0.2-0.1,0.4-0.2,0.6-0.3c0.2-0.1,0.3-0.1,0.5-0.1
				c0.2,0,0.4,0.1,0.5,0.2l0.7,0.9c-0.3,0.3-0.6,0.6-0.9,0.8c-0.3,0.2-0.7,0.4-1.1,0.5c-0.4,0.1-0.7,0.2-1.1,0.3
				c-0.4,0.1-0.8,0.1-1.1,0.1c-0.7,0-1.4-0.1-2-0.4c-0.6-0.2-1.1-0.6-1.6-1c-0.5-0.5-0.8-1-1.1-1.7c-0.3-0.7-0.4-1.5-0.4-2.4
				c0-0.7,0.1-1.4,0.3-2c0.2-0.6,0.5-1.1,1-1.6c0.4-0.5,0.9-0.8,1.5-1.1c0.6-0.3,1.3-0.4,2.1-0.4c0.6,0,1.2,0.1,1.8,0.3
				c0.5,0.2,1,0.5,1.4,0.9s0.7,0.9,0.9,1.5c0.2,0.6,0.3,1.2,0.3,2c0,0.4,0,0.6-0.1,0.8c-0.1,0.1-0.2,0.2-0.5,0.2H4159.5z
				 M4164.2,3964c0-0.3,0-0.6-0.1-0.9c-0.1-0.3-0.2-0.5-0.4-0.7c-0.2-0.2-0.4-0.4-0.7-0.5c-0.3-0.1-0.6-0.2-1-0.2
				c-0.7,0-1.3,0.2-1.7,0.6c-0.4,0.4-0.7,1-0.8,1.7H4164.2z"/>
		</g>
		<g>
			<path class="st12" d="M4155.6,4036.3h-1.8c-0.2,0-0.4-0.1-0.5-0.1s-0.2-0.2-0.3-0.4l-0.9-2.5h-5.1l-0.9,2.5
				c0,0.1-0.1,0.3-0.3,0.4c-0.1,0.1-0.3,0.2-0.5,0.2h-1.8l4.9-12.3h2.3L4155.6,4036.3z M4151.5,4031.6l-1.5-4.1
				c-0.1-0.2-0.2-0.4-0.2-0.6c-0.1-0.3-0.2-0.5-0.2-0.8c-0.1,0.3-0.2,0.6-0.2,0.8c-0.1,0.3-0.2,0.5-0.2,0.7l-1.5,4.1H4151.5z"/>
			<path class="st12" d="M4164.8,4023.6v12.7h-1.3c-0.3,0-0.5-0.1-0.5-0.4l-0.2-0.8c-0.4,0.4-0.8,0.7-1.2,1c-0.5,0.3-1,0.4-1.6,0.4
				c-0.5,0-0.9-0.1-1.3-0.3c-0.4-0.2-0.7-0.5-1-0.9c-0.3-0.4-0.5-0.8-0.7-1.4c-0.2-0.6-0.2-1.2-0.2-1.9c0-0.6,0.1-1.3,0.3-1.8
				c0.2-0.6,0.4-1,0.8-1.5s0.7-0.7,1.2-1c0.5-0.2,1-0.3,1.6-0.3c0.5,0,0.9,0.1,1.3,0.2c0.3,0.2,0.7,0.4,0.9,0.6v-4.6H4164.8z
				 M4162.7,4029.8c-0.2-0.3-0.5-0.5-0.8-0.6c-0.3-0.1-0.6-0.2-0.9-0.2c-0.3,0-0.6,0.1-0.9,0.2c-0.3,0.1-0.5,0.3-0.7,0.5
				c-0.2,0.2-0.3,0.5-0.4,0.9c-0.1,0.4-0.1,0.8-0.1,1.3c0,0.5,0,0.9,0.1,1.3c0.1,0.4,0.2,0.6,0.4,0.9c0.2,0.2,0.3,0.4,0.6,0.5
				c0.2,0.1,0.5,0.1,0.7,0.1c0.4,0,0.8-0.1,1.1-0.3c0.3-0.2,0.6-0.4,0.9-0.8V4029.8z"/>
			<path class="st12" d="M4175.3,4023.6v12.7h-1.3c-0.3,0-0.5-0.1-0.5-0.4l-0.2-0.8c-0.4,0.4-0.8,0.7-1.2,1c-0.5,0.3-1,0.4-1.6,0.4
				c-0.5,0-0.9-0.1-1.3-0.3c-0.4-0.2-0.7-0.5-1-0.9c-0.3-0.4-0.5-0.8-0.7-1.4c-0.2-0.6-0.2-1.2-0.2-1.9c0-0.6,0.1-1.3,0.3-1.8
				c0.2-0.6,0.4-1,0.8-1.5s0.7-0.7,1.2-1c0.5-0.2,1-0.3,1.6-0.3c0.5,0,0.9,0.1,1.3,0.2c0.3,0.2,0.7,0.4,0.9,0.6v-4.6H4175.3z
				 M4173.2,4029.8c-0.2-0.3-0.5-0.5-0.8-0.6c-0.3-0.1-0.6-0.2-0.9-0.2c-0.3,0-0.6,0.1-0.9,0.2c-0.3,0.1-0.5,0.3-0.7,0.5
				c-0.2,0.2-0.3,0.5-0.4,0.9c-0.1,0.4-0.1,0.8-0.1,1.3c0,0.5,0,0.9,0.1,1.3s0.2,0.6,0.4,0.9c0.2,0.2,0.3,0.4,0.6,0.5
				c0.2,0.1,0.5,0.1,0.7,0.1c0.4,0,0.8-0.1,1.1-0.3c0.3-0.2,0.6-0.4,0.9-0.8V4029.8z"/>
			<path class="st12" d="M4185.3,4029c0.3-0.5,0.6-0.9,1-1.2c0.4-0.3,0.8-0.4,1.3-0.4c0.4,0,0.7,0.1,1,0.3l-0.1,1.6
				c0,0.1-0.1,0.2-0.1,0.2c-0.1,0-0.1,0.1-0.2,0.1c-0.1,0-0.2,0-0.4,0c-0.2,0-0.3,0-0.5,0c-0.2,0-0.4,0-0.6,0.1
				c-0.2,0.1-0.3,0.2-0.5,0.3c-0.1,0.1-0.3,0.3-0.4,0.5c-0.1,0.2-0.2,0.4-0.3,0.6v5.4h-2.1v-8.8h1.2c0.2,0,0.4,0,0.5,0.1
				s0.1,0.2,0.2,0.4L4185.3,4029z"/>
			<path class="st12" d="M4191.9,4032.2c0,0.4,0.1,0.8,0.2,1.2c0.1,0.3,0.3,0.6,0.5,0.8c0.2,0.2,0.4,0.4,0.7,0.5
				c0.3,0.1,0.6,0.2,0.9,0.2s0.6,0,0.9-0.1c0.2-0.1,0.5-0.2,0.6-0.3c0.2-0.1,0.3-0.2,0.5-0.3c0.1-0.1,0.3-0.1,0.4-0.1
				c0.2,0,0.3,0.1,0.4,0.2l0.6,0.8c-0.2,0.3-0.5,0.5-0.8,0.7c-0.3,0.2-0.6,0.3-0.9,0.4s-0.6,0.2-1,0.2c-0.3,0-0.6,0.1-1,0.1
				c-0.6,0-1.2-0.1-1.7-0.3s-1-0.5-1.4-0.9c-0.4-0.4-0.7-0.9-0.9-1.5c-0.2-0.6-0.3-1.3-0.3-2c0-0.6,0.1-1.2,0.3-1.7s0.5-1,0.8-1.4
				s0.8-0.7,1.3-0.9c0.5-0.2,1.1-0.3,1.8-0.3c0.6,0,1.1,0.1,1.5,0.3c0.5,0.2,0.9,0.4,1.2,0.8c0.3,0.3,0.6,0.8,0.8,1.2
				c0.2,0.5,0.3,1.1,0.3,1.7c0,0.3,0,0.5-0.1,0.6c-0.1,0.1-0.2,0.2-0.4,0.2H4191.9z M4195.9,4030.9c0-0.3,0-0.5-0.1-0.8
				s-0.2-0.5-0.3-0.6c-0.2-0.2-0.3-0.3-0.6-0.4c-0.2-0.1-0.5-0.2-0.8-0.2c-0.6,0-1.1,0.2-1.4,0.5c-0.3,0.3-0.6,0.8-0.7,1.5H4195.9z"
				/>
			<path class="st12" d="M4205.6,4029.2c-0.1,0.1-0.1,0.2-0.2,0.2c-0.1,0-0.1,0.1-0.2,0.1c-0.1,0-0.2,0-0.3-0.1
				c-0.1-0.1-0.3-0.1-0.4-0.2s-0.3-0.1-0.5-0.2c-0.2-0.1-0.4-0.1-0.7-0.1c-0.4,0-0.7,0.1-1,0.3c-0.2,0.2-0.4,0.4-0.4,0.7
				c0,0.2,0.1,0.3,0.2,0.5c0.1,0.1,0.3,0.2,0.5,0.3c0.2,0.1,0.4,0.2,0.7,0.3c0.3,0.1,0.5,0.2,0.8,0.3c0.3,0.1,0.5,0.2,0.8,0.3
				c0.3,0.1,0.5,0.3,0.7,0.4c0.2,0.2,0.4,0.4,0.5,0.6c0.1,0.3,0.2,0.6,0.2,0.9c0,0.4-0.1,0.8-0.2,1.2c-0.2,0.4-0.4,0.7-0.7,0.9
				c-0.3,0.3-0.7,0.5-1.1,0.6c-0.4,0.1-0.9,0.2-1.5,0.2c-0.3,0-0.6,0-0.9-0.1c-0.3-0.1-0.6-0.1-0.8-0.2c-0.3-0.1-0.5-0.2-0.7-0.3
				c-0.2-0.1-0.4-0.3-0.6-0.4l0.5-0.8c0.1-0.1,0.1-0.2,0.2-0.2c0.1-0.1,0.2-0.1,0.3-0.1c0.1,0,0.3,0,0.4,0.1
				c0.1,0.1,0.3,0.2,0.4,0.2c0.2,0.1,0.3,0.2,0.5,0.2c0.2,0.1,0.5,0.1,0.8,0.1c0.3,0,0.5,0,0.6-0.1c0.2-0.1,0.3-0.1,0.4-0.2
				s0.2-0.2,0.3-0.3c0.1-0.1,0.1-0.3,0.1-0.4c0-0.2-0.1-0.4-0.2-0.5c-0.1-0.1-0.3-0.2-0.5-0.3c-0.2-0.1-0.4-0.2-0.7-0.3
				c-0.3-0.1-0.5-0.2-0.8-0.3c-0.3-0.1-0.5-0.2-0.8-0.3s-0.5-0.3-0.7-0.5c-0.2-0.2-0.4-0.4-0.5-0.7c-0.1-0.3-0.2-0.6-0.2-1
				c0-0.4,0.1-0.7,0.2-1c0.1-0.3,0.4-0.6,0.6-0.8c0.3-0.2,0.6-0.4,1-0.6c0.4-0.1,0.9-0.2,1.4-0.2c0.6,0,1.2,0.1,1.6,0.3
				c0.5,0.2,0.9,0.5,1.2,0.8L4205.6,4029.2z"/>
			<path class="st12" d="M4216.1,4027.5v8.8h-1.3c-0.3,0-0.5-0.1-0.5-0.4l-0.1-0.7c-0.4,0.4-0.8,0.7-1.2,0.9
				c-0.4,0.2-0.9,0.3-1.5,0.3c-0.5,0-0.9-0.1-1.3-0.2c-0.4-0.2-0.7-0.4-0.9-0.7c-0.3-0.3-0.4-0.6-0.6-1.1c-0.1-0.4-0.2-0.9-0.2-1.3
				v-5.6h2.1v5.6c0,0.5,0.1,0.9,0.4,1.2c0.2,0.3,0.6,0.4,1.1,0.4c0.4,0,0.7-0.1,1-0.2c0.3-0.2,0.6-0.4,0.9-0.7v-6.3H4216.1z"/>
			<path class="st12" d="M4221.2,4023.6v12.7h-2.1v-12.7H4221.2z"/>
			<path class="st12" d="M4227.1,4036.4c-0.8,0-1.3-0.2-1.8-0.6s-0.6-1-0.6-1.8v-4.9h-0.9c-0.1,0-0.2,0-0.3-0.1
				c-0.1-0.1-0.1-0.2-0.1-0.3v-0.8l1.4-0.2l0.4-2.4c0-0.1,0.1-0.2,0.2-0.3c0.1-0.1,0.2-0.1,0.3-0.1h1.1v2.8h2.3v1.5h-2.3v4.7
				c0,0.3,0.1,0.5,0.2,0.6c0.1,0.2,0.3,0.2,0.6,0.2c0.1,0,0.2,0,0.3,0c0.1,0,0.2-0.1,0.2-0.1c0.1,0,0.1-0.1,0.2-0.1
				c0.1,0,0.1,0,0.2,0c0.1,0,0.1,0,0.2,0c0,0,0.1,0.1,0.1,0.1l0.6,1c-0.3,0.3-0.7,0.4-1.1,0.6
				C4227.9,4036.3,4227.5,4036.4,4227.1,4036.4z"/>
			<path class="st12" d="M4239.3,4036.4c-0.8,0-1.3-0.2-1.8-0.6c-0.4-0.4-0.6-1-0.6-1.8v-4.9h-0.9c-0.1,0-0.2,0-0.3-0.1
				c-0.1-0.1-0.1-0.2-0.1-0.3v-0.8l1.4-0.2l0.4-2.4c0-0.1,0.1-0.2,0.2-0.3c0.1-0.1,0.2-0.1,0.3-0.1h1.1v2.8h2.3v1.5h-2.3v4.7
				c0,0.3,0.1,0.5,0.2,0.6c0.1,0.2,0.3,0.2,0.6,0.2c0.1,0,0.2,0,0.3,0c0.1,0,0.2-0.1,0.2-0.1c0.1,0,0.1-0.1,0.2-0.1
				c0.1,0,0.1,0,0.2,0c0.1,0,0.1,0,0.2,0c0,0,0.1,0.1,0.1,0.1l0.6,1c-0.3,0.3-0.7,0.4-1.1,0.6
				C4240.1,4036.3,4239.7,4036.4,4239.3,4036.4z"/>
			<path class="st12" d="M4247.4,4027.4c0.6,0,1.2,0.1,1.8,0.3c0.5,0.2,1,0.5,1.4,0.9s0.7,0.9,0.9,1.4c0.2,0.6,0.3,1.2,0.3,1.9
				c0,0.7-0.1,1.3-0.3,1.9c-0.2,0.6-0.5,1-0.9,1.4c-0.4,0.4-0.8,0.7-1.4,0.9c-0.5,0.2-1.1,0.3-1.8,0.3c-0.7,0-1.2-0.1-1.8-0.3
				c-0.5-0.2-1-0.5-1.4-0.9c-0.4-0.4-0.7-0.9-0.9-1.4c-0.2-0.6-0.3-1.2-0.3-1.9c0-0.7,0.1-1.3,0.3-1.9c0.2-0.6,0.5-1,0.9-1.4
				c0.4-0.4,0.8-0.7,1.4-0.9C4246.1,4027.5,4246.7,4027.4,4247.4,4027.4z M4247.4,4034.8c0.7,0,1.3-0.2,1.6-0.7
				c0.3-0.5,0.5-1.2,0.5-2.2c0-0.9-0.2-1.7-0.5-2.2c-0.3-0.5-0.9-0.7-1.6-0.7c-0.7,0-1.3,0.2-1.6,0.7s-0.5,1.2-0.5,2.2
				c0,0.9,0.2,1.7,0.5,2.1C4246.1,4034.5,4246.6,4034.8,4247.4,4034.8z"/>
			<path class="st12" d="M4263.7,4031.9c0,0.7-0.1,1.3-0.3,1.9c-0.2,0.6-0.4,1-0.8,1.4c-0.3,0.4-0.8,0.7-1.3,0.9
				c-0.5,0.2-1.1,0.3-1.8,0.3c-0.3,0-0.6,0-0.9-0.1c-0.3,0-0.6-0.1-0.9-0.2c0-0.2,0-0.5,0.1-0.7c0-0.2,0-0.5,0.1-0.7
				c0-0.1,0.1-0.2,0.1-0.3c0.1-0.1,0.2-0.1,0.4-0.1c0.1,0,0.2,0,0.4,0.1c0.2,0,0.4,0.1,0.6,0.1c0.3,0,0.6,0,0.9-0.1
				c0.3-0.1,0.5-0.2,0.6-0.4s0.3-0.5,0.4-0.8c0.1-0.3,0.1-0.7,0.1-1.2v-8h2.3V4031.9z"/>
			<path class="st12" d="M4273.7,4026.2c-0.1,0.1-0.1,0.2-0.2,0.3c-0.1,0.1-0.2,0.1-0.3,0.1c-0.1,0-0.2,0-0.4-0.1
				c-0.1-0.1-0.3-0.2-0.5-0.3c-0.2-0.1-0.4-0.2-0.7-0.3c-0.3-0.1-0.6-0.1-0.9-0.1c-0.3,0-0.6,0-0.8,0.1s-0.4,0.2-0.6,0.3
				s-0.3,0.3-0.4,0.5c-0.1,0.2-0.1,0.4-0.1,0.6c0,0.3,0.1,0.5,0.2,0.7c0.2,0.2,0.4,0.4,0.6,0.5c0.3,0.1,0.6,0.3,0.9,0.4
				c0.3,0.1,0.7,0.2,1,0.3s0.7,0.3,1,0.4c0.3,0.2,0.6,0.4,0.9,0.6c0.3,0.2,0.5,0.6,0.6,0.9c0.2,0.4,0.2,0.8,0.2,1.3
				c0,0.6-0.1,1.1-0.3,1.6c-0.2,0.5-0.5,0.9-0.8,1.3c-0.4,0.4-0.8,0.6-1.3,0.9s-1.1,0.3-1.8,0.3c-0.4,0-0.8,0-1.2-0.1
				c-0.4-0.1-0.7-0.2-1.1-0.3c-0.3-0.1-0.7-0.3-1-0.5c-0.3-0.2-0.6-0.4-0.8-0.7l0.7-1.1c0.1-0.1,0.1-0.1,0.2-0.2s0.2-0.1,0.3-0.1
				c0.1,0,0.3,0.1,0.5,0.2s0.4,0.2,0.6,0.4c0.2,0.1,0.5,0.3,0.8,0.4c0.3,0.1,0.7,0.2,1.1,0.2c0.7,0,1.2-0.2,1.5-0.5
				c0.4-0.3,0.5-0.8,0.5-1.3c0-0.3-0.1-0.6-0.2-0.8s-0.4-0.4-0.6-0.5c-0.3-0.1-0.6-0.3-0.9-0.4c-0.3-0.1-0.7-0.2-1-0.3
				c-0.4-0.1-0.7-0.3-1-0.4c-0.3-0.2-0.6-0.4-0.9-0.6c-0.3-0.3-0.5-0.6-0.6-1c-0.2-0.4-0.2-0.9-0.2-1.4c0-0.4,0.1-0.9,0.3-1.3
				c0.2-0.4,0.4-0.8,0.8-1.1c0.3-0.3,0.8-0.6,1.3-0.8c0.5-0.2,1.1-0.3,1.7-0.3c0.7,0,1.4,0.1,2,0.3c0.6,0.2,1.1,0.5,1.6,1
				L4273.7,4026.2z"/>
			<path class="st12" d="M4289.1,4030.1c0,0.9-0.1,1.7-0.4,2.5c-0.3,0.8-0.7,1.4-1.3,2c-0.5,0.6-1.2,1-2,1.3
				c-0.8,0.3-1.6,0.5-2.6,0.5c-0.9,0-1.8-0.2-2.6-0.5c-0.8-0.3-1.4-0.8-2-1.3c-0.5-0.6-1-1.2-1.3-2c-0.3-0.8-0.5-1.6-0.5-2.5
				s0.2-1.7,0.5-2.5c0.3-0.8,0.7-1.4,1.3-2c0.5-0.6,1.2-1,2-1.3c0.8-0.3,1.6-0.5,2.6-0.5c0.6,0,1.2,0.1,1.8,0.2s1.1,0.4,1.5,0.6
				s0.9,0.6,1.2,1c0.4,0.4,0.7,0.8,0.9,1.3c0.3,0.5,0.5,1,0.6,1.5S4289.1,4029.5,4289.1,4030.1z M4286.8,4030.1
				c0-0.7-0.1-1.3-0.3-1.8c-0.2-0.5-0.4-1-0.8-1.4s-0.7-0.7-1.2-0.9c-0.5-0.2-1-0.3-1.6-0.3c-0.6,0-1.1,0.1-1.6,0.3
				c-0.5,0.2-0.9,0.5-1.2,0.9c-0.3,0.4-0.6,0.8-0.8,1.4c-0.2,0.5-0.3,1.1-0.3,1.8c0,0.7,0.1,1.3,0.3,1.8c0.2,0.5,0.4,1,0.8,1.4
				c0.3,0.4,0.7,0.7,1.2,0.9c0.5,0.2,1,0.3,1.6,0.3c0.6,0,1.1-0.1,1.6-0.3c0.5-0.2,0.9-0.5,1.2-0.9c0.3-0.4,0.6-0.8,0.8-1.4
				C4286.7,4031.4,4286.8,4030.8,4286.8,4030.1z"/>
			<path class="st12" d="M4302.4,4023.9v12.3h-1.2c-0.2,0-0.3,0-0.5-0.1c-0.1-0.1-0.2-0.2-0.4-0.3l-6.4-8.2c0,0.4,0.1,0.7,0.1,1v7.6
				h-2v-12.3h1.2c0.1,0,0.2,0,0.3,0c0.1,0,0.1,0,0.2,0.1c0.1,0,0.1,0.1,0.2,0.1c0.1,0,0.1,0.1,0.2,0.2l6.5,8.3c0-0.2,0-0.4,0-0.6
				s0-0.4,0-0.5v-7.5H4302.4z"/>
		</g>
		<g>
			<path class="st12" d="M3924.7,4036.3h-2.3v-12.3h2.3V4036.3z"/>
			<path class="st12" d="M3928.3,4036.3v-7.2l-0.8-0.1c-0.2,0-0.3-0.1-0.4-0.2c-0.1-0.1-0.1-0.2-0.1-0.4v-0.9h1.3v-0.6
				c0-0.5,0.1-0.9,0.2-1.3c0.2-0.4,0.4-0.7,0.6-1c0.3-0.3,0.6-0.5,1-0.6c0.4-0.1,0.9-0.2,1.4-0.2c0.4,0,0.8,0.1,1.1,0.2l0,1.1
				c0,0.1,0,0.1-0.1,0.2c0,0-0.1,0.1-0.2,0.1c-0.1,0-0.1,0-0.2,0.1c-0.1,0-0.2,0-0.3,0c-0.3,0-0.5,0-0.7,0.1
				c-0.2,0.1-0.4,0.1-0.5,0.3c-0.1,0.1-0.2,0.3-0.3,0.5c-0.1,0.2-0.1,0.5-0.1,0.8v0.6h2.3v1.5h-2.2v7.2H3928.3z"/>
			<path class="st12" d="M3947,4027.8v0.8c0,0.3-0.2,0.4-0.5,0.5l-0.8,0.1c0.1,0.3,0.2,0.6,0.2,1c0,0.4-0.1,0.8-0.3,1.2
				c-0.2,0.3-0.4,0.6-0.7,0.9c-0.3,0.2-0.7,0.4-1.1,0.6c-0.4,0.1-0.9,0.2-1.4,0.2c-0.2,0-0.3,0-0.5,0c-0.2,0-0.3,0-0.5-0.1
				c-0.3,0.2-0.4,0.4-0.4,0.6c0,0.2,0.1,0.3,0.2,0.4c0.2,0.1,0.4,0.1,0.6,0.2c0.3,0,0.6,0.1,0.9,0.1c0.3,0,0.7,0,1,0.1
				c0.4,0,0.7,0.1,1,0.1c0.3,0.1,0.6,0.2,0.9,0.3c0.3,0.2,0.5,0.4,0.6,0.6c0.2,0.3,0.2,0.6,0.2,1c0,0.4-0.1,0.8-0.3,1.1
				c-0.2,0.4-0.5,0.7-0.8,1c-0.4,0.3-0.8,0.5-1.3,0.7c-0.5,0.2-1.1,0.3-1.8,0.3c-0.7,0-1.2-0.1-1.7-0.2c-0.5-0.1-0.9-0.3-1.2-0.5
				c-0.3-0.2-0.6-0.5-0.7-0.7c-0.2-0.3-0.2-0.6-0.2-0.9c0-0.4,0.1-0.8,0.4-1c0.2-0.3,0.6-0.5,1-0.7c-0.2-0.1-0.4-0.3-0.6-0.5
				c-0.1-0.2-0.2-0.5-0.2-0.8c0-0.1,0-0.3,0.1-0.4c0-0.1,0.1-0.3,0.2-0.4c0.1-0.1,0.2-0.3,0.4-0.4c0.1-0.1,0.3-0.2,0.5-0.3
				c-0.4-0.2-0.8-0.6-1-1c-0.3-0.4-0.4-0.9-0.4-1.4c0-0.4,0.1-0.8,0.3-1.2c0.2-0.4,0.4-0.6,0.7-0.9c0.3-0.2,0.7-0.4,1.1-0.6
				c0.4-0.1,0.9-0.2,1.4-0.2c0.4,0,0.7,0,1.1,0.1c0.3,0.1,0.6,0.2,0.9,0.3H3947z M3944.9,4036.7c0-0.2-0.1-0.3-0.2-0.4
				c-0.1-0.1-0.2-0.2-0.4-0.3c-0.2-0.1-0.4-0.1-0.6-0.1s-0.5-0.1-0.8-0.1c-0.3,0-0.5,0-0.8,0c-0.3,0-0.6,0-0.8-0.1
				c-0.2,0.1-0.4,0.3-0.6,0.5c-0.1,0.2-0.2,0.4-0.2,0.6c0,0.2,0,0.3,0.1,0.4c0.1,0.1,0.2,0.2,0.4,0.3c0.2,0.1,0.4,0.2,0.7,0.2
				c0.3,0.1,0.6,0.1,1,0.1c0.4,0,0.7,0,1-0.1c0.3-0.1,0.5-0.1,0.7-0.2c0.2-0.1,0.3-0.2,0.4-0.4S3944.9,4036.8,3944.9,4036.7z
				 M3942.5,4031.7c0.3,0,0.5,0,0.7-0.1s0.4-0.2,0.5-0.3c0.1-0.1,0.2-0.3,0.3-0.5c0.1-0.2,0.1-0.4,0.1-0.6c0-0.4-0.1-0.8-0.4-1
				c-0.3-0.3-0.6-0.4-1.2-0.4c-0.5,0-0.9,0.1-1.2,0.4c-0.3,0.3-0.4,0.6-0.4,1c0,0.2,0,0.4,0.1,0.6c0.1,0.2,0.2,0.3,0.3,0.5
				c0.1,0.1,0.3,0.2,0.5,0.3C3942.1,4031.6,3942.3,4031.7,3942.5,4031.7z"/>
			<path class="st12" d="M3951.2,4029c0.3-0.5,0.6-0.9,1-1.2c0.4-0.3,0.8-0.4,1.3-0.4c0.4,0,0.7,0.1,1,0.3l-0.1,1.6
				c0,0.1-0.1,0.2-0.1,0.2c-0.1,0-0.1,0.1-0.2,0.1c-0.1,0-0.2,0-0.4,0s-0.3,0-0.5,0c-0.2,0-0.4,0-0.6,0.1c-0.2,0.1-0.3,0.2-0.5,0.3
				c-0.1,0.1-0.3,0.3-0.4,0.5c-0.1,0.2-0.2,0.4-0.3,0.6v5.4h-2.1v-8.8h1.2c0.2,0,0.4,0,0.5,0.1c0.1,0.1,0.1,0.2,0.2,0.4L3951.2,4029
				z"/>
			<path class="st12" d="M3957.8,4032.2c0,0.4,0.1,0.8,0.2,1.2c0.1,0.3,0.3,0.6,0.5,0.8s0.4,0.4,0.7,0.5c0.3,0.1,0.6,0.2,0.9,0.2
				c0.3,0,0.6,0,0.9-0.1c0.2-0.1,0.5-0.2,0.6-0.3c0.2-0.1,0.3-0.2,0.5-0.3c0.1-0.1,0.3-0.1,0.4-0.1c0.2,0,0.3,0.1,0.4,0.2l0.6,0.8
				c-0.2,0.3-0.5,0.5-0.8,0.7c-0.3,0.2-0.6,0.3-0.9,0.4c-0.3,0.1-0.6,0.2-1,0.2c-0.3,0-0.6,0.1-1,0.1c-0.6,0-1.2-0.1-1.7-0.3
				s-1-0.5-1.4-0.9c-0.4-0.4-0.7-0.9-0.9-1.5c-0.2-0.6-0.3-1.3-0.3-2c0-0.6,0.1-1.2,0.3-1.7s0.5-1,0.8-1.4c0.4-0.4,0.8-0.7,1.3-0.9
				c0.5-0.2,1.1-0.3,1.8-0.3c0.6,0,1.1,0.1,1.5,0.3c0.5,0.2,0.9,0.4,1.2,0.8s0.6,0.8,0.8,1.2c0.2,0.5,0.3,1.1,0.3,1.7
				c0,0.3,0,0.5-0.1,0.6c-0.1,0.1-0.2,0.2-0.4,0.2H3957.8z M3961.8,4030.9c0-0.3,0-0.5-0.1-0.8c-0.1-0.2-0.2-0.5-0.3-0.6
				c-0.2-0.2-0.3-0.3-0.6-0.4c-0.2-0.1-0.5-0.2-0.8-0.2c-0.6,0-1.1,0.2-1.4,0.5c-0.4,0.3-0.6,0.8-0.7,1.5H3961.8z"/>
			<path class="st12" d="M3973.8,4027.5l-4.8,11.2c-0.1,0.1-0.1,0.3-0.2,0.3c-0.1,0.1-0.3,0.1-0.5,0.1h-1.6l1.6-3.5l-3.5-8.1h1.9
				c0.2,0,0.3,0,0.4,0.1c0.1,0.1,0.2,0.2,0.2,0.3l1.9,4.5c0.1,0.2,0.1,0.3,0.2,0.5c0,0.2,0.1,0.3,0.1,0.5c0.1-0.2,0.1-0.3,0.2-0.5
				c0.1-0.2,0.1-0.3,0.2-0.5l1.8-4.5c0-0.1,0.1-0.2,0.2-0.3c0.1-0.1,0.2-0.1,0.4-0.1H3973.8z"/>
			<path class="st12" d="M3977.9,4023.6v12.7h-2.1v-12.7H3977.9z"/>
			<path class="st12" d="M3983.3,4025c0,0.2,0,0.4-0.1,0.5c-0.1,0.2-0.2,0.3-0.3,0.4s-0.3,0.2-0.4,0.3s-0.3,0.1-0.5,0.1
				c-0.2,0-0.4,0-0.5-0.1c-0.2-0.1-0.3-0.2-0.4-0.3s-0.2-0.3-0.3-0.4c-0.1-0.2-0.1-0.3-0.1-0.5c0-0.2,0-0.4,0.1-0.5
				c0.1-0.2,0.2-0.3,0.3-0.4s0.3-0.2,0.4-0.3c0.2-0.1,0.3-0.1,0.5-0.1c0.2,0,0.4,0,0.5,0.1s0.3,0.2,0.4,0.3s0.2,0.3,0.3,0.4
				C3983.3,4024.6,3983.3,4024.8,3983.3,4025z M3983,4027.5v8.8h-2.1v-8.8H3983z"/>
			<path class="st12" d="M3991.4,4029.2c-0.1,0.1-0.1,0.2-0.2,0.2c-0.1,0-0.1,0.1-0.2,0.1c-0.1,0-0.2,0-0.3-0.1
				c-0.1-0.1-0.3-0.1-0.4-0.2s-0.3-0.1-0.5-0.2c-0.2-0.1-0.4-0.1-0.7-0.1c-0.4,0-0.7,0.1-1,0.3s-0.4,0.4-0.4,0.7
				c0,0.2,0.1,0.3,0.2,0.5c0.1,0.1,0.3,0.2,0.5,0.3c0.2,0.1,0.4,0.2,0.7,0.3c0.3,0.1,0.5,0.2,0.8,0.3c0.3,0.1,0.5,0.2,0.8,0.3
				c0.3,0.1,0.5,0.3,0.7,0.4c0.2,0.2,0.4,0.4,0.5,0.6c0.1,0.3,0.2,0.6,0.2,0.9c0,0.4-0.1,0.8-0.2,1.2c-0.2,0.4-0.4,0.7-0.7,0.9
				c-0.3,0.3-0.7,0.5-1.1,0.6s-0.9,0.2-1.5,0.2c-0.3,0-0.6,0-0.9-0.1c-0.3-0.1-0.6-0.1-0.8-0.2c-0.3-0.1-0.5-0.2-0.7-0.3
				c-0.2-0.1-0.4-0.3-0.6-0.4l0.5-0.8c0.1-0.1,0.1-0.2,0.2-0.2c0.1-0.1,0.2-0.1,0.3-0.1s0.3,0,0.4,0.1c0.1,0.1,0.3,0.2,0.4,0.2
				c0.2,0.1,0.3,0.2,0.5,0.2c0.2,0.1,0.5,0.1,0.8,0.1c0.3,0,0.5,0,0.6-0.1c0.2-0.1,0.3-0.1,0.4-0.2s0.2-0.2,0.3-0.3
				c0.1-0.1,0.1-0.3,0.1-0.4c0-0.2-0.1-0.4-0.2-0.5c-0.1-0.1-0.3-0.2-0.5-0.3s-0.4-0.2-0.7-0.3c-0.3-0.1-0.5-0.2-0.8-0.3
				c-0.3-0.1-0.5-0.2-0.8-0.3c-0.3-0.1-0.5-0.3-0.7-0.5c-0.2-0.2-0.4-0.4-0.5-0.7c-0.1-0.3-0.2-0.6-0.2-1c0-0.4,0.1-0.7,0.2-1
				c0.1-0.3,0.4-0.6,0.6-0.8c0.3-0.2,0.6-0.4,1-0.6c0.4-0.1,0.9-0.2,1.4-0.2c0.6,0,1.2,0.1,1.6,0.3c0.5,0.2,0.9,0.5,1.2,0.8
				L3991.4,4029.2z"/>
			<path class="st12" d="M3997.3,4036.4c-0.8,0-1.3-0.2-1.8-0.6s-0.6-1-0.6-1.8v-4.9h-0.9c-0.1,0-0.2,0-0.3-0.1
				c-0.1-0.1-0.1-0.2-0.1-0.3v-0.8l1.4-0.2l0.4-2.4c0-0.1,0.1-0.2,0.2-0.3c0.1-0.1,0.2-0.1,0.3-0.1h1.1v2.8h2.3v1.5h-2.3v4.7
				c0,0.3,0.1,0.5,0.2,0.6c0.1,0.2,0.3,0.2,0.6,0.2c0.1,0,0.2,0,0.3,0c0.1,0,0.2-0.1,0.2-0.1c0.1,0,0.1-0.1,0.2-0.1
				c0.1,0,0.1,0,0.2,0c0.1,0,0.1,0,0.2,0c0,0,0.1,0.1,0.1,0.1l0.6,1c-0.3,0.3-0.7,0.4-1.1,0.6
				C3998.1,4036.3,3997.7,4036.4,3997.3,4036.4z"/>
			<path class="st12" d="M4003.1,4032.2c0,0.4,0.1,0.8,0.2,1.2c0.1,0.3,0.3,0.6,0.5,0.8c0.2,0.2,0.4,0.4,0.7,0.5
				c0.3,0.1,0.6,0.2,0.9,0.2s0.6,0,0.9-0.1c0.2-0.1,0.5-0.2,0.6-0.3c0.2-0.1,0.3-0.2,0.5-0.3c0.1-0.1,0.3-0.1,0.4-0.1
				c0.2,0,0.3,0.1,0.4,0.2l0.6,0.8c-0.2,0.3-0.5,0.5-0.8,0.7c-0.3,0.2-0.6,0.3-0.9,0.4s-0.6,0.2-1,0.2c-0.3,0-0.6,0.1-1,0.1
				c-0.6,0-1.2-0.1-1.7-0.3c-0.5-0.2-1-0.5-1.4-0.9c-0.4-0.4-0.7-0.9-0.9-1.5c-0.2-0.6-0.3-1.3-0.3-2c0-0.6,0.1-1.2,0.3-1.7
				c0.2-0.5,0.5-1,0.8-1.4s0.8-0.7,1.3-0.9c0.5-0.2,1.1-0.3,1.8-0.3c0.6,0,1.1,0.1,1.5,0.3c0.5,0.2,0.9,0.4,1.2,0.8
				c0.3,0.3,0.6,0.8,0.8,1.2s0.3,1.1,0.3,1.7c0,0.3,0,0.5-0.1,0.6c-0.1,0.1-0.2,0.2-0.4,0.2H4003.1z M4007.2,4030.9
				c0-0.3,0-0.5-0.1-0.8c-0.1-0.2-0.2-0.5-0.3-0.6c-0.2-0.2-0.3-0.3-0.6-0.4c-0.2-0.1-0.5-0.2-0.8-0.2c-0.6,0-1.1,0.2-1.4,0.5
				c-0.3,0.3-0.6,0.8-0.7,1.5H4007.2z"/>
			<path class="st12" d="M4019.1,4023.6v12.7h-1.3c-0.3,0-0.5-0.1-0.5-0.4l-0.2-0.8c-0.4,0.4-0.8,0.7-1.2,1c-0.5,0.3-1,0.4-1.6,0.4
				c-0.5,0-0.9-0.1-1.3-0.3c-0.4-0.2-0.7-0.5-1-0.9s-0.5-0.8-0.7-1.4c-0.2-0.6-0.2-1.2-0.2-1.9c0-0.6,0.1-1.3,0.3-1.8
				c0.2-0.6,0.4-1,0.8-1.5c0.3-0.4,0.7-0.7,1.2-1c0.5-0.2,1-0.3,1.6-0.3c0.5,0,0.9,0.1,1.3,0.2c0.3,0.2,0.7,0.4,0.9,0.6v-4.6H4019.1
				z M4017,4029.8c-0.2-0.3-0.5-0.5-0.8-0.6c-0.3-0.1-0.6-0.2-0.9-0.2c-0.3,0-0.6,0.1-0.9,0.2c-0.3,0.1-0.5,0.3-0.7,0.5
				c-0.2,0.2-0.3,0.5-0.4,0.9c-0.1,0.4-0.1,0.8-0.1,1.3c0,0.5,0,0.9,0.1,1.3c0.1,0.4,0.2,0.6,0.4,0.9c0.2,0.2,0.3,0.4,0.6,0.5
				c0.2,0.1,0.5,0.1,0.7,0.1c0.4,0,0.8-0.1,1.1-0.3c0.3-0.2,0.6-0.4,0.9-0.8V4029.8z"/>
		</g>
		<polyline class="st10" points="4559.9,4030.3 4559.9,4045.1 4095.7,4045.1 4095.7,4119 		"/>
		<line class="st10" x1="4095.7" y1="4119" x2="4095.7" y2="4227.1"/>
		<g id="third_queue_5_">
			<path class="st5" d="M4273.3,4341.7c-6.2,0-11.2-5-11.2-11.2v-57.8c0-6.2,5-11.2,11.2-11.2h112.8c6.2,0,11.2,5,11.2,11.2v57.8
				c0,6.2-5,11.2-11.2,11.2H4273.3z"/>
			<path class="st6" d="M4386.1,4261.8c6,0,10.9,4.9,10.9,10.9v57.8c0,6-4.9,10.9-10.9,10.9h-112.8c-6,0-10.9-4.9-10.9-10.9v-57.8
				c0-6,4.9-10.9,10.9-10.9H4386.1 M4386.1,4261.2h-112.8c-6.4,0-11.6,5.2-11.6,11.6v57.8c0,6.4,5.2,11.6,11.6,11.6h112.8
				c6.4,0,11.6-5.2,11.6-11.6v-57.8C4397.7,4266.4,4392.5,4261.2,4386.1,4261.2L4386.1,4261.2z"/>
		</g>
		<g id="second_queue_5_">
			<path class="st5" d="M4278.2,4346.6c-6.2,0-11.2-5-11.2-11.2v-57.8c0-6.2,5-11.2,11.2-11.2h112.8c6.2,0,11.2,5,11.2,11.2v57.8
				c0,6.2-5,11.2-11.2,11.2H4278.2z"/>
			<path class="st6" d="M4390.9,4266.7c6,0,10.9,4.9,10.9,10.9v57.8c0,6-4.9,10.9-10.9,10.9h-112.8c-6,0-10.9-4.9-10.9-10.9v-57.8
				c0-6,4.9-10.9,10.9-10.9H4390.9 M4390.9,4266h-112.8c-6.4,0-11.6,5.2-11.6,11.6v57.8c0,6.4,5.2,11.6,11.6,11.6h112.8
				c6.4,0,11.6-5.2,11.6-11.6v-57.8C4402.5,4271.2,4397.3,4266,4390.9,4266L4390.9,4266z"/>
		</g>
		<g id="queue_5_">
			<path class="st7" d="M4282,4351.4c-6.2,0-11.2-5-11.2-11.2v-57.8c0-6.2,5-11.2,11.2-11.2h112.8c6.2,0,11.2,5,11.2,11.2v57.8
				c0,6.2-5,11.2-11.2,11.2H4282z"/>
			<path class="st6" d="M4394.8,4271.5c6,0,10.9,4.9,10.9,10.9v57.8c0,6-4.9,10.9-10.9,10.9H4282c-6,0-10.9-4.9-10.9-10.9v-57.8
				c0-6,4.9-10.9,10.9-10.9H4394.8 M4394.8,4270.8H4282c-6.4,0-11.6,5.2-11.6,11.6v57.8c0,6.4,5.2,11.6,11.6,11.6h112.8
				c6.4,0,11.6-5.2,11.6-11.6v-57.8C4406.3,4276,4401.1,4270.8,4394.8,4270.8L4394.8,4270.8z"/>
		</g>
		<g id="RabbitMQ_5_">
			<path class="st8" d="M4387,4306.1h-13.1c-0.9,0-1.6-0.8-1.6-1.6v-13.1c0-0.9-0.8-1.6-1.6-1.6h-4.4c-0.9,0-1.6,0.8-1.6,1.6v13.1
				c0,0.9-0.8,1.6-1.6,1.6h-5.4c-0.9,0-1.6-0.8-1.6-1.6v-13.1c0-0.9-0.8-1.6-1.6-1.6h-4.4c-0.9,0-1.6,0.8-1.6,1.6v37.2
				c0,0.9,0.8,1.6,1.6,1.6h37.2c0.9,0,1.6-0.8,1.6-1.6v-20.8C4388.6,4306.9,4387.8,4306.1,4387,4306.1z M4378.5,4321.5h-2.8
				c-1.3,0-2.4-1.1-2.4-2.4v-2.8c0-1.3,1.1-2.4,2.4-2.4h2.8c1.3,0,2.4,1.1,2.4,2.4v2.8C4380.9,4320.5,4379.8,4321.5,4378.5,4321.5z"
				/>
		</g>
		<path class="st5" d="M3561.1,4341.7c-6.2,0-11.2-5-11.2-11.2v-57.8c0-6.2,5-11.2,11.2-11.2h112.8c6.2,0,11.2,5,11.2,11.2v57.8
			c0,6.2-5,11.2-11.2,11.2H3561.1z"/>
		<path class="st6" d="M3673.9,4261.8c6,0,10.9,4.9,10.9,10.9v57.8c0,6-4.9,10.9-10.9,10.9h-112.8c-6,0-10.9-4.9-10.9-10.9v-57.8
			c0-6,4.9-10.9,10.9-10.9H3673.9 M3673.9,4261.2h-112.8c-6.4,0-11.6,5.2-11.6,11.6v57.8c0,6.4,5.2,11.6,11.6,11.6h112.8
			c6.4,0,11.6-5.2,11.6-11.6v-57.8C3685.5,4266.4,3680.3,4261.2,3673.9,4261.2L3673.9,4261.2z"/>
		<path class="st5" d="M3566,4346.6c-6.2,0-11.2-5-11.2-11.2v-57.8c0-6.2,5-11.2,11.2-11.2h112.8c6.2,0,11.2,5,11.2,11.2v57.8
			c0,6.2-5,11.2-11.2,11.2H3566z"/>
		<path class="st6" d="M3678.7,4266.7c6,0,10.9,4.9,10.9,10.9v57.8c0,6-4.9,10.9-10.9,10.9H3566c-6,0-10.9-4.9-10.9-10.9v-57.8
			c0-6,4.9-10.9,10.9-10.9H3678.7 M3678.7,4266H3566c-6.4,0-11.6,5.2-11.6,11.6v57.8c0,6.4,5.2,11.6,11.6,11.6h112.8
			c6.4,0,11.6-5.2,11.6-11.6v-57.8C3690.3,4271.2,3685.1,4266,3678.7,4266L3678.7,4266z"/>
		<path class="st7" d="M3569.8,4351.4c-6.2,0-11.2-5-11.2-11.2v-57.8c0-6.2,5-11.2,11.2-11.2h112.8c6.2,0,11.2,5,11.2,11.2v57.8
			c0,6.2-5,11.2-11.2,11.2H3569.8z"/>
		<path class="st6" d="M3682.6,4271.5c6,0,10.9,4.9,10.9,10.9v57.8c0,6-4.9,10.9-10.9,10.9h-112.8c-6,0-10.9-4.9-10.9-10.9v-57.8
			c0-6,4.9-10.9,10.9-10.9H3682.6 M3682.6,4270.8h-112.8c-6.4,0-11.6,5.2-11.6,11.6v57.8c0,6.4,5.2,11.6,11.6,11.6h112.8
			c6.4,0,11.6-5.2,11.6-11.6v-57.8C3694.1,4276,3688.9,4270.8,3682.6,4270.8L3682.6,4270.8z"/>
		<path class="st8" d="M3674.2,4306.1h-13.1c-0.9,0-1.6-0.8-1.6-1.6v-13.1c0-0.9-0.8-1.6-1.6-1.6h-4.4c-0.9,0-1.6,0.8-1.6,1.6v13.1
			c0,0.9-0.8,1.6-1.6,1.6h-5.4c-0.9,0-1.6-0.8-1.6-1.6v-13.1c0-0.9-0.8-1.6-1.6-1.6h-4.4c-0.9,0-1.6,0.8-1.6,1.6v37.2
			c0,0.9,0.8,1.6,1.6,1.6h37.2c0.9,0,1.6-0.8,1.6-1.6v-20.8C3675.8,4306.9,3675.1,4306.1,3674.2,4306.1z M3665.7,4321.5h-2.8
			c-1.3,0-2.4-1.1-2.4-2.4v-2.8c0-1.3,1.1-2.4,2.4-2.4h2.8c1.3,0,2.4,1.1,2.4,2.4v2.8C3668.1,4320.5,3667.1,4321.5,3665.7,4321.5z"
			/>
		<g>
			<g>
				<path class="st12" d="M3586.4,4380.3h-2.1c-0.4,0-0.7-0.2-0.9-0.5l-2.6-4c-0.1-0.1-0.2-0.3-0.3-0.3c-0.1-0.1-0.3-0.1-0.5-0.1h-1
					v4.8h-2.3V4368h3.8c0.8,0,1.6,0.1,2.2,0.3c0.6,0.2,1.1,0.4,1.5,0.7c0.4,0.3,0.7,0.7,0.8,1.1c0.2,0.4,0.3,0.9,0.3,1.4
					c0,0.4-0.1,0.8-0.2,1.2c-0.1,0.4-0.3,0.7-0.5,1c-0.2,0.3-0.5,0.6-0.9,0.8c-0.3,0.2-0.7,0.4-1.2,0.5c0.1,0.1,0.3,0.2,0.4,0.3
					c0.1,0.1,0.2,0.3,0.3,0.4L3586.4,4380.3z M3580.5,4373.9c0.4,0,0.8-0.1,1.1-0.2s0.6-0.3,0.8-0.4c0.2-0.2,0.4-0.4,0.5-0.7
					c0.1-0.3,0.2-0.5,0.2-0.9c0-0.6-0.2-1.1-0.6-1.4c-0.4-0.3-1-0.5-1.9-0.5h-1.5v4.1H3580.5z"/>
				<path class="st12" d="M3589.3,4376.2c0,0.4,0.1,0.8,0.2,1.2c0.1,0.3,0.3,0.6,0.5,0.8s0.4,0.4,0.7,0.5c0.3,0.1,0.6,0.2,0.9,0.2
					c0.3,0,0.6,0,0.9-0.1c0.2-0.1,0.5-0.2,0.6-0.3c0.2-0.1,0.3-0.2,0.5-0.3c0.1-0.1,0.3-0.1,0.4-0.1c0.2,0,0.3,0.1,0.4,0.2l0.6,0.8
					c-0.2,0.3-0.5,0.5-0.8,0.7c-0.3,0.2-0.6,0.3-0.9,0.4c-0.3,0.1-0.6,0.2-1,0.2c-0.3,0-0.6,0.1-1,0.1c-0.6,0-1.2-0.1-1.7-0.3
					s-1-0.5-1.4-0.9c-0.4-0.4-0.7-0.9-0.9-1.5c-0.2-0.6-0.3-1.3-0.3-2c0-0.6,0.1-1.2,0.3-1.7c0.2-0.5,0.5-1,0.8-1.4
					c0.4-0.4,0.8-0.7,1.3-0.9c0.5-0.2,1.1-0.3,1.8-0.3c0.6,0,1.1,0.1,1.5,0.3c0.5,0.2,0.9,0.4,1.2,0.8s0.6,0.8,0.8,1.2
					c0.2,0.5,0.3,1.1,0.3,1.7c0,0.3,0,0.5-0.1,0.6c-0.1,0.1-0.2,0.2-0.4,0.2H3589.3z M3593.4,4375c0-0.3,0-0.5-0.1-0.8
					c-0.1-0.2-0.2-0.5-0.3-0.6c-0.2-0.2-0.3-0.3-0.6-0.4c-0.2-0.1-0.5-0.2-0.8-0.2c-0.6,0-1.1,0.2-1.4,0.5c-0.4,0.3-0.6,0.8-0.7,1.5
					H3593.4z"/>
				<path class="st12" d="M3600.5,4380.5c-0.8,0-1.3-0.2-1.8-0.6c-0.4-0.4-0.6-1-0.6-1.8v-4.9h-0.9c-0.1,0-0.2,0-0.3-0.1
					c-0.1-0.1-0.1-0.2-0.1-0.3v-0.8l1.4-0.2l0.4-2.4c0-0.1,0.1-0.2,0.2-0.3c0.1-0.1,0.2-0.1,0.3-0.1h1.1v2.8h2.3v1.5h-2.3v4.7
					c0,0.3,0.1,0.5,0.2,0.6c0.1,0.2,0.3,0.2,0.6,0.2c0.1,0,0.2,0,0.3,0c0.1,0,0.2-0.1,0.2-0.1c0.1,0,0.1-0.1,0.2-0.1
					c0.1,0,0.1,0,0.2,0c0.1,0,0.1,0,0.2,0c0,0,0.1,0.1,0.1,0.1l0.6,1c-0.3,0.3-0.7,0.4-1.1,0.6
					C3601.4,4380.4,3600.9,4380.5,3600.5,4380.5z"/>
				<path class="st12" d="M3606.8,4373.1c0.3-0.5,0.6-0.9,1-1.2c0.4-0.3,0.8-0.4,1.3-0.4c0.4,0,0.7,0.1,1,0.3l-0.1,1.6
					c0,0.1-0.1,0.2-0.1,0.2c-0.1,0-0.1,0.1-0.2,0.1c-0.1,0-0.2,0-0.4,0c-0.2,0-0.3,0-0.5,0c-0.2,0-0.4,0-0.6,0.1
					c-0.2,0.1-0.3,0.2-0.5,0.3c-0.1,0.1-0.3,0.3-0.4,0.5c-0.1,0.2-0.2,0.4-0.3,0.6v5.4h-2.1v-8.8h1.2c0.2,0,0.4,0,0.5,0.1
					s0.1,0.2,0.2,0.4L3606.8,4373.1z"/>
				<path class="st12" d="M3620,4371.6l-4.8,11.2c-0.1,0.1-0.1,0.3-0.2,0.3s-0.3,0.1-0.5,0.1h-1.6l1.6-3.5l-3.5-8.1h1.9
					c0.2,0,0.3,0,0.4,0.1c0.1,0.1,0.2,0.2,0.2,0.3l1.9,4.5c0.1,0.2,0.1,0.3,0.2,0.5c0,0.2,0.1,0.3,0.1,0.5c0.1-0.2,0.1-0.3,0.2-0.5
					c0.1-0.2,0.1-0.3,0.2-0.5l1.8-4.5c0-0.1,0.1-0.2,0.2-0.3c0.1-0.1,0.2-0.1,0.4-0.1H3620z"/>
				<path class="st12" d="M3634.1,4371.6v11.6h-2.1v-4c-0.3,0.4-0.7,0.7-1.2,0.9s-0.9,0.3-1.5,0.3c-0.5,0-0.9-0.1-1.3-0.3
					c-0.4-0.2-0.7-0.5-1-0.9c-0.3-0.4-0.5-0.8-0.7-1.4c-0.2-0.6-0.2-1.2-0.2-1.9c0-0.6,0.1-1.3,0.3-1.8c0.2-0.6,0.4-1,0.8-1.5
					c0.3-0.4,0.7-0.7,1.2-1c0.5-0.2,1-0.3,1.6-0.3c0.5,0,1,0.1,1.4,0.3c0.4,0.2,0.7,0.4,1,0.8l0.1-0.5c0.1-0.3,0.3-0.4,0.5-0.4
					H3634.1z M3631.9,4373.8c-0.2-0.3-0.5-0.5-0.8-0.6c-0.3-0.1-0.6-0.2-0.9-0.2c-0.3,0-0.6,0.1-0.9,0.2c-0.3,0.1-0.5,0.3-0.7,0.5
					c-0.2,0.2-0.3,0.5-0.4,0.9c-0.1,0.4-0.1,0.8-0.1,1.3c0,0.5,0,0.9,0.1,1.3c0.1,0.4,0.2,0.6,0.4,0.9c0.2,0.2,0.3,0.4,0.6,0.5
					c0.2,0.1,0.5,0.1,0.7,0.1c0.4,0,0.8-0.1,1.1-0.3c0.3-0.2,0.6-0.4,0.9-0.8V4373.8z"/>
				<path class="st12" d="M3644.5,4371.6v8.8h-1.3c-0.3,0-0.5-0.1-0.5-0.4l-0.1-0.7c-0.4,0.4-0.8,0.7-1.2,0.9s-0.9,0.3-1.5,0.3
					c-0.5,0-0.9-0.1-1.3-0.2c-0.4-0.2-0.7-0.4-0.9-0.7c-0.3-0.3-0.4-0.6-0.6-1.1c-0.1-0.4-0.2-0.9-0.2-1.3v-5.6h2.1v5.6
					c0,0.5,0.1,0.9,0.4,1.2c0.2,0.3,0.6,0.4,1.1,0.4c0.4,0,0.7-0.1,1-0.2c0.3-0.2,0.6-0.4,0.9-0.7v-6.3H3644.5z"/>
				<path class="st12" d="M3649.1,4376.2c0,0.4,0.1,0.8,0.2,1.2c0.1,0.3,0.3,0.6,0.5,0.8s0.4,0.4,0.7,0.5c0.3,0.1,0.6,0.2,0.9,0.2
					c0.3,0,0.6,0,0.9-0.1c0.2-0.1,0.5-0.2,0.6-0.3c0.2-0.1,0.3-0.2,0.5-0.3c0.1-0.1,0.3-0.1,0.4-0.1c0.2,0,0.3,0.1,0.4,0.2l0.6,0.8
					c-0.2,0.3-0.5,0.5-0.8,0.7c-0.3,0.2-0.6,0.3-0.9,0.4c-0.3,0.1-0.6,0.2-1,0.2c-0.3,0-0.6,0.1-1,0.1c-0.6,0-1.2-0.1-1.7-0.3
					s-1-0.5-1.4-0.9c-0.4-0.4-0.7-0.9-0.9-1.5c-0.2-0.6-0.3-1.3-0.3-2c0-0.6,0.1-1.2,0.3-1.7c0.2-0.5,0.5-1,0.8-1.4
					c0.4-0.4,0.8-0.7,1.3-0.9c0.5-0.2,1.1-0.3,1.8-0.3c0.6,0,1.1,0.1,1.5,0.3c0.5,0.2,0.9,0.4,1.2,0.8s0.6,0.8,0.8,1.2
					c0.2,0.5,0.3,1.1,0.3,1.7c0,0.3,0,0.5-0.1,0.6c-0.1,0.1-0.2,0.2-0.4,0.2H3649.1z M3653.1,4375c0-0.3,0-0.5-0.1-0.8
					c-0.1-0.2-0.2-0.5-0.3-0.6c-0.2-0.2-0.3-0.3-0.6-0.4c-0.2-0.1-0.5-0.2-0.8-0.2c-0.6,0-1.1,0.2-1.4,0.5c-0.4,0.3-0.6,0.8-0.7,1.5
					H3653.1z"/>
				<path class="st12" d="M3665,4371.6v8.8h-1.3c-0.3,0-0.5-0.1-0.5-0.4l-0.1-0.7c-0.4,0.4-0.8,0.7-1.2,0.9s-0.9,0.3-1.5,0.3
					c-0.5,0-0.9-0.1-1.3-0.2c-0.4-0.2-0.7-0.4-0.9-0.7c-0.3-0.3-0.4-0.6-0.6-1.1c-0.1-0.4-0.2-0.9-0.2-1.3v-5.6h2.1v5.6
					c0,0.5,0.1,0.9,0.4,1.2c0.2,0.3,0.6,0.4,1.1,0.4c0.4,0,0.7-0.1,1-0.2c0.3-0.2,0.6-0.4,0.9-0.7v-6.3H3665z"/>
				<path class="st12" d="M3669.5,4376.2c0,0.4,0.1,0.8,0.2,1.2c0.1,0.3,0.3,0.6,0.5,0.8s0.4,0.4,0.7,0.5c0.3,0.1,0.6,0.2,0.9,0.2
					c0.3,0,0.6,0,0.9-0.1c0.2-0.1,0.5-0.2,0.6-0.3c0.2-0.1,0.3-0.2,0.5-0.3s0.3-0.1,0.4-0.1c0.2,0,0.3,0.1,0.4,0.2l0.6,0.8
					c-0.2,0.3-0.5,0.5-0.8,0.7c-0.3,0.2-0.6,0.3-0.9,0.4c-0.3,0.1-0.6,0.2-1,0.2c-0.3,0-0.6,0.1-1,0.1c-0.6,0-1.2-0.1-1.7-0.3
					s-1-0.5-1.4-0.9c-0.4-0.4-0.7-0.9-0.9-1.5c-0.2-0.6-0.3-1.3-0.3-2c0-0.6,0.1-1.2,0.3-1.7c0.2-0.5,0.5-1,0.8-1.4
					c0.4-0.4,0.8-0.7,1.3-0.9c0.5-0.2,1.1-0.3,1.8-0.3c0.6,0,1.1,0.1,1.5,0.3c0.5,0.2,0.9,0.4,1.2,0.8s0.6,0.8,0.8,1.2
					c0.2,0.5,0.3,1.1,0.3,1.7c0,0.3,0,0.5-0.1,0.6c-0.1,0.1-0.2,0.2-0.4,0.2H3669.5z M3673.6,4375c0-0.3,0-0.5-0.1-0.8
					c-0.1-0.2-0.2-0.5-0.3-0.6c-0.2-0.2-0.3-0.3-0.6-0.4c-0.2-0.1-0.5-0.2-0.8-0.2c-0.6,0-1.1,0.2-1.4,0.5c-0.4,0.3-0.6,0.8-0.7,1.5
					H3673.6z"/>
			</g>
		</g>
		<g>
			<g>
				<path class="st12" d="M3579.7,4020.3c0,0.9-0.1,1.7-0.4,2.5c-0.3,0.8-0.7,1.4-1.3,2c-0.5,0.6-1.2,1-2,1.3
					c-0.8,0.3-1.6,0.5-2.6,0.5c-0.9,0-1.8-0.2-2.6-0.5c-0.8-0.3-1.4-0.8-2-1.3c-0.5-0.6-1-1.2-1.3-2c-0.3-0.8-0.5-1.6-0.5-2.5
					c0-0.9,0.2-1.7,0.5-2.5c0.3-0.8,0.7-1.4,1.3-2c0.5-0.6,1.2-1,2-1.3c0.8-0.3,1.6-0.5,2.6-0.5c0.6,0,1.2,0.1,1.8,0.2
					c0.6,0.1,1.1,0.4,1.5,0.6s0.9,0.6,1.2,1c0.4,0.4,0.7,0.8,0.9,1.3c0.3,0.5,0.5,1,0.6,1.5S3579.7,4019.7,3579.7,4020.3z
					 M3577.3,4020.3c0-0.7-0.1-1.3-0.3-1.8c-0.2-0.5-0.4-1-0.8-1.4c-0.3-0.4-0.7-0.7-1.2-0.9c-0.5-0.2-1-0.3-1.6-0.3
					c-0.6,0-1.1,0.1-1.6,0.3c-0.5,0.2-0.9,0.5-1.2,0.9c-0.3,0.4-0.6,0.8-0.8,1.4c-0.2,0.5-0.3,1.1-0.3,1.8c0,0.7,0.1,1.3,0.3,1.8
					s0.4,1,0.8,1.4c0.3,0.4,0.7,0.7,1.2,0.9c0.5,0.2,1,0.3,1.6,0.3c0.6,0,1.1-0.1,1.6-0.3c0.5-0.2,0.9-0.5,1.2-0.9
					c0.3-0.4,0.6-0.8,0.8-1.4S3577.3,4021,3577.3,4020.3z"/>
				<path class="st12" d="M3589.6,4017.7v8.8h-1.3c-0.3,0-0.5-0.1-0.5-0.4l-0.1-0.7c-0.4,0.4-0.8,0.7-1.2,0.9
					c-0.4,0.2-0.9,0.3-1.5,0.3c-0.5,0-0.9-0.1-1.3-0.2c-0.4-0.2-0.7-0.4-0.9-0.7c-0.3-0.3-0.4-0.6-0.6-1.1c-0.1-0.4-0.2-0.9-0.2-1.3
					v-5.6h2.1v5.6c0,0.5,0.1,0.9,0.4,1.2c0.2,0.3,0.6,0.4,1.1,0.4c0.4,0,0.7-0.1,1-0.2c0.3-0.2,0.6-0.4,0.9-0.7v-6.3H3589.6z"/>
				<path class="st12" d="M3595.5,4026.6c-0.8,0-1.3-0.2-1.8-0.6c-0.4-0.4-0.6-1-0.6-1.8v-4.9h-0.9c-0.1,0-0.2,0-0.3-0.1
					s-0.1-0.2-0.1-0.3v-0.8l1.4-0.2l0.4-2.4c0-0.1,0.1-0.2,0.2-0.3c0.1-0.1,0.2-0.1,0.3-0.1h1.1v2.8h2.3v1.5h-2.3v4.7
					c0,0.3,0.1,0.5,0.2,0.6c0.1,0.2,0.3,0.2,0.6,0.2c0.1,0,0.2,0,0.3,0c0.1,0,0.2-0.1,0.2-0.1c0.1,0,0.1-0.1,0.2-0.1
					c0.1,0,0.1,0,0.2,0c0.1,0,0.1,0,0.2,0c0,0,0.1,0.1,0.1,0.1l0.6,1c-0.3,0.3-0.7,0.4-1.1,0.6
					C3596.3,4026.6,3595.9,4026.6,3595.5,4026.6z"/>
				<path class="st12" d="M3601.9,4018.8c0.4-0.4,0.7-0.7,1.2-0.9c0.4-0.2,0.9-0.3,1.5-0.3c0.5,0,1,0.1,1.4,0.3
					c0.4,0.2,0.8,0.5,1,0.9c0.3,0.4,0.5,0.8,0.7,1.4c0.2,0.5,0.2,1.1,0.2,1.8c0,0.7-0.1,1.4-0.3,1.9c-0.2,0.6-0.4,1.1-0.8,1.5
					c-0.3,0.4-0.7,0.7-1.2,1c-0.5,0.2-1,0.3-1.5,0.3c-0.3,0-0.5,0-0.7-0.1c-0.2-0.1-0.4-0.1-0.6-0.2c-0.2-0.1-0.4-0.2-0.5-0.4
					c-0.2-0.1-0.3-0.3-0.4-0.5l-0.1,0.6c0,0.1-0.1,0.3-0.2,0.3c-0.1,0.1-0.2,0.1-0.3,0.1h-1.4v-12.7h2.1V4018.8z M3601.9,4024.2
					c0.2,0.3,0.5,0.5,0.8,0.6c0.3,0.1,0.6,0.2,0.9,0.2c0.3,0,0.6-0.1,0.9-0.2c0.3-0.1,0.5-0.3,0.7-0.5c0.2-0.2,0.3-0.6,0.4-0.9
					c0.1-0.4,0.1-0.8,0.1-1.4c0-1-0.2-1.7-0.5-2.1c-0.3-0.4-0.8-0.6-1.4-0.6c-0.4,0-0.8,0.1-1.1,0.3c-0.3,0.2-0.6,0.4-0.9,0.8
					V4024.2z"/>
				<path class="st12" d="M3614.2,4017.6c0.6,0,1.2,0.1,1.8,0.3c0.5,0.2,1,0.5,1.4,0.9s0.7,0.9,0.9,1.4c0.2,0.6,0.3,1.2,0.3,1.9
					c0,0.7-0.1,1.3-0.3,1.9c-0.2,0.6-0.5,1-0.9,1.4c-0.4,0.4-0.8,0.7-1.4,0.9c-0.5,0.2-1.1,0.3-1.8,0.3c-0.7,0-1.2-0.1-1.8-0.3
					c-0.5-0.2-1-0.5-1.4-0.9c-0.4-0.4-0.7-0.9-0.9-1.4c-0.2-0.6-0.3-1.2-0.3-1.9c0-0.7,0.1-1.3,0.3-1.9c0.2-0.6,0.5-1,0.9-1.4
					c0.4-0.4,0.8-0.7,1.4-0.9C3612.9,4017.7,3613.5,4017.6,3614.2,4017.6z M3614.2,4025c0.7,0,1.3-0.2,1.6-0.7
					c0.3-0.5,0.5-1.2,0.5-2.2c0-0.9-0.2-1.7-0.5-2.2c-0.3-0.5-0.9-0.7-1.6-0.7c-0.7,0-1.3,0.2-1.6,0.7c-0.4,0.5-0.5,1.2-0.5,2.2
					c0,0.9,0.2,1.7,0.5,2.1C3612.9,4024.8,3613.5,4025,3614.2,4025z"/>
				<path class="st12" d="M3628.4,4026.5h-2c-0.2,0-0.3,0-0.4-0.1c-0.1-0.1-0.2-0.2-0.2-0.3l-1.9-3c0,0.1-0.1,0.2-0.1,0.3
					c0,0.1-0.1,0.2-0.1,0.2l-1.6,2.5c-0.1,0.1-0.1,0.2-0.2,0.3c-0.1,0.1-0.2,0.1-0.3,0.1h-1.9l3-4.5l-2.9-4.2h2c0.2,0,0.3,0,0.3,0.1
					c0.1,0,0.1,0.1,0.2,0.2l1.8,2.9c0.1-0.2,0.2-0.4,0.3-0.6l1.5-2.3c0.1-0.2,0.3-0.3,0.5-0.3h1.9l-2.9,4.1L3628.4,4026.5z"/>
				<path class="st12" d="M3642.9,4017.7v11.6h-2.1v-4c-0.3,0.4-0.7,0.7-1.2,0.9c-0.4,0.2-0.9,0.3-1.5,0.3c-0.5,0-0.9-0.1-1.3-0.3
					c-0.4-0.2-0.7-0.5-1-0.9c-0.3-0.4-0.5-0.8-0.7-1.4c-0.2-0.6-0.2-1.2-0.2-1.9c0-0.6,0.1-1.3,0.3-1.8c0.2-0.6,0.4-1,0.8-1.5
					c0.3-0.4,0.7-0.7,1.2-1c0.5-0.2,1-0.3,1.6-0.3c0.5,0,1,0.1,1.4,0.3c0.4,0.2,0.7,0.4,1,0.8l0.1-0.5c0.1-0.3,0.3-0.4,0.5-0.4
					H3642.9z M3640.8,4020c-0.2-0.3-0.5-0.5-0.8-0.6c-0.3-0.1-0.6-0.2-0.9-0.2c-0.3,0-0.6,0.1-0.9,0.2c-0.3,0.1-0.5,0.3-0.7,0.5
					c-0.2,0.2-0.3,0.5-0.4,0.9c-0.1,0.4-0.1,0.8-0.1,1.3c0,0.5,0,0.9,0.1,1.3c0.1,0.4,0.2,0.6,0.4,0.9c0.2,0.2,0.3,0.4,0.6,0.5
					c0.2,0.1,0.5,0.1,0.7,0.1c0.4,0,0.8-0.1,1.1-0.3c0.3-0.2,0.6-0.4,0.9-0.8V4020z"/>
				<path class="st12" d="M3653.4,4017.7v8.8h-1.3c-0.3,0-0.5-0.1-0.5-0.4l-0.1-0.7c-0.4,0.4-0.8,0.7-1.2,0.9
					c-0.4,0.2-0.9,0.3-1.5,0.3c-0.5,0-0.9-0.1-1.3-0.2c-0.4-0.2-0.7-0.4-0.9-0.7c-0.3-0.3-0.4-0.6-0.6-1.1c-0.1-0.4-0.2-0.9-0.2-1.3
					v-5.6h2.1v5.6c0,0.5,0.1,0.9,0.4,1.2c0.2,0.3,0.6,0.4,1.1,0.4c0.4,0,0.7-0.1,1-0.2c0.3-0.2,0.6-0.4,0.9-0.7v-6.3H3653.4z"/>
				<path class="st12" d="M3658,4022.4c0,0.4,0.1,0.8,0.2,1.2c0.1,0.3,0.3,0.6,0.5,0.8c0.2,0.2,0.4,0.4,0.7,0.5
					c0.3,0.1,0.6,0.2,0.9,0.2s0.6,0,0.9-0.1c0.2-0.1,0.5-0.2,0.6-0.3c0.2-0.1,0.3-0.2,0.5-0.3c0.1-0.1,0.3-0.1,0.4-0.1
					c0.2,0,0.3,0.1,0.4,0.2l0.6,0.8c-0.2,0.3-0.5,0.5-0.8,0.7c-0.3,0.2-0.6,0.3-0.9,0.4c-0.3,0.1-0.6,0.2-1,0.2
					c-0.3,0-0.6,0.1-1,0.1c-0.6,0-1.2-0.1-1.7-0.3c-0.5-0.2-1-0.5-1.4-0.9c-0.4-0.4-0.7-0.9-0.9-1.5c-0.2-0.6-0.3-1.3-0.3-2
					c0-0.6,0.1-1.2,0.3-1.7c0.2-0.5,0.5-1,0.8-1.4c0.4-0.4,0.8-0.7,1.3-0.9c0.5-0.2,1.1-0.3,1.8-0.3c0.6,0,1.1,0.1,1.5,0.3
					c0.5,0.2,0.9,0.4,1.2,0.8c0.3,0.3,0.6,0.8,0.8,1.2c0.2,0.5,0.3,1.1,0.3,1.7c0,0.3,0,0.5-0.1,0.6s-0.2,0.2-0.4,0.2H3658z
					 M3662,4021.1c0-0.3,0-0.5-0.1-0.8c-0.1-0.2-0.2-0.5-0.3-0.6c-0.2-0.2-0.3-0.3-0.6-0.4c-0.2-0.1-0.5-0.2-0.8-0.2
					c-0.6,0-1.1,0.2-1.4,0.5c-0.3,0.3-0.6,0.8-0.7,1.5H3662z"/>
				<path class="st12" d="M3673.9,4017.7v8.8h-1.3c-0.3,0-0.5-0.1-0.5-0.4l-0.1-0.7c-0.4,0.4-0.8,0.7-1.2,0.9
					c-0.4,0.2-0.9,0.3-1.5,0.3c-0.5,0-0.9-0.1-1.3-0.2c-0.4-0.2-0.7-0.4-0.9-0.7c-0.3-0.3-0.4-0.6-0.6-1.1c-0.1-0.4-0.2-0.9-0.2-1.3
					v-5.6h2.1v5.6c0,0.5,0.1,0.9,0.4,1.2c0.2,0.3,0.6,0.4,1.1,0.4c0.4,0,0.7-0.1,1-0.2c0.3-0.2,0.6-0.4,0.9-0.7v-6.3H3673.9z"/>
				<path class="st12" d="M3678.4,4022.4c0,0.4,0.1,0.8,0.2,1.2c0.1,0.3,0.3,0.6,0.5,0.8c0.2,0.2,0.4,0.4,0.7,0.5
					c0.3,0.1,0.6,0.2,0.9,0.2c0.3,0,0.6,0,0.9-0.1c0.2-0.1,0.5-0.2,0.6-0.3c0.2-0.1,0.3-0.2,0.5-0.3c0.1-0.1,0.3-0.1,0.4-0.1
					c0.2,0,0.3,0.1,0.4,0.2l0.6,0.8c-0.2,0.3-0.5,0.5-0.8,0.7c-0.3,0.2-0.6,0.3-0.9,0.4c-0.3,0.1-0.6,0.2-1,0.2
					c-0.3,0-0.6,0.1-1,0.1c-0.6,0-1.2-0.1-1.7-0.3c-0.5-0.2-1-0.5-1.4-0.9c-0.4-0.4-0.7-0.9-0.9-1.5c-0.2-0.6-0.3-1.3-0.3-2
					c0-0.6,0.1-1.2,0.3-1.7c0.2-0.5,0.5-1,0.8-1.4c0.4-0.4,0.8-0.7,1.3-0.9c0.5-0.2,1.1-0.3,1.8-0.3c0.6,0,1.1,0.1,1.5,0.3
					c0.5,0.2,0.9,0.4,1.2,0.8c0.3,0.3,0.6,0.8,0.8,1.2c0.2,0.5,0.3,1.1,0.3,1.7c0,0.3,0,0.5-0.1,0.6s-0.2,0.2-0.4,0.2H3678.4z
					 M3682.4,4021.1c0-0.3,0-0.5-0.1-0.8c-0.1-0.2-0.2-0.5-0.3-0.6c-0.2-0.2-0.3-0.3-0.6-0.4c-0.2-0.1-0.5-0.2-0.8-0.2
					c-0.6,0-1.1,0.2-1.4,0.5c-0.3,0.3-0.6,0.8-0.7,1.5H3682.4z"/>
			</g>
		</g>
		<g>
			<g id="third_queue_3_">
				<path class="st5" d="M3796.6,4341.7c-6.2,0-11.2-5-11.2-11.2v-57.8c0-6.2,5-11.2,11.2-11.2h112.8c6.2,0,11.2,5,11.2,11.2v57.8
					c0,6.2-5,11.2-11.2,11.2H3796.6z"/>
				<path class="st6" d="M3909.4,4261.8c6,0,10.9,4.9,10.9,10.9v57.8c0,6-4.9,10.9-10.9,10.9h-112.8c-6,0-10.9-4.9-10.9-10.9v-57.8
					c0-6,4.9-10.9,10.9-10.9H3909.4 M3909.4,4261.2h-112.8c-6.4,0-11.6,5.2-11.6,11.6v57.8c0,6.4,5.2,11.6,11.6,11.6h112.8
					c6.4,0,11.6-5.2,11.6-11.6v-57.8C3920.9,4266.4,3915.7,4261.2,3909.4,4261.2L3909.4,4261.2z"/>
			</g>
			<g id="second_queue_3_">
				<path class="st5" d="M3801.4,4346.6c-6.2,0-11.2-5-11.2-11.2v-57.8c0-6.2,5-11.2,11.2-11.2h112.8c6.2,0,11.2,5,11.2,11.2v57.8
					c0,6.2-5,11.2-11.2,11.2H3801.4z"/>
				<path class="st6" d="M3914.2,4266.7c6,0,10.9,4.9,10.9,10.9v57.8c0,6-4.9,10.9-10.9,10.9h-112.8c-6,0-10.9-4.9-10.9-10.9v-57.8
					c0-6,4.9-10.9,10.9-10.9H3914.2 M3914.2,4266h-112.8c-6.4,0-11.6,5.2-11.6,11.6v57.8c0,6.4,5.2,11.6,11.6,11.6h112.8
					c6.4,0,11.6-5.2,11.6-11.6v-57.8C3925.8,4271.2,3920.5,4266,3914.2,4266L3914.2,4266z"/>
			</g>
			<g id="queue_3_">
				<path class="st7" d="M3805.3,4351.4c-6.2,0-11.2-5-11.2-11.2v-57.8c0-6.2,5-11.2,11.2-11.2H3918c6.2,0,11.2,5,11.2,11.2v57.8
					c0,6.2-5,11.2-11.2,11.2H3805.3z"/>
				<path class="st6" d="M3918,4271.5c6,0,10.9,4.9,10.9,10.9v57.8c0,6-4.9,10.9-10.9,10.9h-112.8c-6,0-10.9-4.9-10.9-10.9v-57.8
					c0-6,4.9-10.9,10.9-10.9H3918 M3918,4270.8h-112.8c-6.4,0-11.6,5.2-11.6,11.6v57.8c0,6.4,5.2,11.6,11.6,11.6H3918
					c6.4,0,11.6-5.2,11.6-11.6v-57.8C3929.6,4276,3924.4,4270.8,3918,4270.8L3918,4270.8z"/>
			</g>
			<g id="RabbitMQ_3_">
				<path class="st8" d="M3909.7,4306.1h-13.1c-0.9,0-1.6-0.8-1.6-1.6v-13.1c0-0.9-0.8-1.6-1.6-1.6h-4.4c-0.9,0-1.6,0.8-1.6,1.6
					v13.1c0,0.9-0.8,1.6-1.6,1.6h-5.4c-0.9,0-1.6-0.8-1.6-1.6v-13.1c0-0.9-0.8-1.6-1.6-1.6h-4.4c-0.9,0-1.6,0.8-1.6,1.6v37.2
					c0,0.9,0.8,1.6,1.6,1.6h37.2c0.9,0,1.6-0.8,1.6-1.6v-20.8C3911.3,4306.9,3910.5,4306.1,3909.7,4306.1z M3901.2,4321.5h-2.8
					c-1.3,0-2.4-1.1-2.4-2.4v-2.8c0-1.3,1.1-2.4,2.4-2.4h2.8c1.3,0,2.4,1.1,2.4,2.4v2.8C3903.6,4320.5,3902.5,4321.5,3901.2,4321.5z
					"/>
			</g>
		</g>
		<g>
			<g>
				<path class="st12" d="M3808.8,4370.3c-0.1,0.1-0.1,0.2-0.2,0.3c-0.1,0.1-0.2,0.1-0.3,0.1c-0.1,0-0.2,0-0.4-0.1
					c-0.1-0.1-0.3-0.2-0.5-0.3c-0.2-0.1-0.4-0.2-0.7-0.3c-0.3-0.1-0.6-0.1-0.9-0.1c-0.3,0-0.6,0-0.8,0.1c-0.2,0.1-0.4,0.2-0.6,0.3
					c-0.2,0.1-0.3,0.3-0.4,0.5c-0.1,0.2-0.1,0.4-0.1,0.6c0,0.3,0.1,0.5,0.2,0.7c0.2,0.2,0.4,0.4,0.6,0.5c0.3,0.1,0.6,0.3,0.9,0.4
					c0.3,0.1,0.7,0.2,1,0.3c0.4,0.1,0.7,0.3,1,0.4c0.3,0.2,0.6,0.4,0.9,0.6c0.3,0.2,0.5,0.6,0.6,0.9c0.2,0.4,0.2,0.8,0.2,1.3
					c0,0.6-0.1,1.1-0.3,1.6c-0.2,0.5-0.5,0.9-0.8,1.3c-0.4,0.4-0.8,0.6-1.3,0.9c-0.5,0.2-1.1,0.3-1.8,0.3c-0.4,0-0.8,0-1.2-0.1
					c-0.4-0.1-0.7-0.2-1.1-0.3c-0.3-0.1-0.7-0.3-1-0.5c-0.3-0.2-0.6-0.4-0.8-0.7l0.7-1.1c0.1-0.1,0.1-0.1,0.2-0.2
					c0.1-0.1,0.2-0.1,0.3-0.1c0.1,0,0.3,0.1,0.5,0.2s0.4,0.2,0.6,0.4c0.2,0.1,0.5,0.3,0.8,0.4c0.3,0.1,0.7,0.2,1.1,0.2
					c0.7,0,1.2-0.2,1.5-0.5c0.4-0.3,0.5-0.8,0.5-1.3c0-0.3-0.1-0.6-0.2-0.8c-0.2-0.2-0.4-0.4-0.6-0.5c-0.3-0.1-0.6-0.3-0.9-0.4
					c-0.3-0.1-0.7-0.2-1-0.3c-0.4-0.1-0.7-0.3-1-0.4c-0.3-0.2-0.6-0.4-0.9-0.6c-0.3-0.3-0.5-0.6-0.6-1c-0.2-0.4-0.2-0.9-0.2-1.4
					c0-0.4,0.1-0.9,0.3-1.3s0.4-0.8,0.8-1.1c0.3-0.3,0.8-0.6,1.3-0.8c0.5-0.2,1.1-0.3,1.7-0.3c0.7,0,1.4,0.1,2,0.3
					c0.6,0.2,1.1,0.5,1.6,1L3808.8,4370.3z"/>
				<path class="st12" d="M3819.5,4371.6v8.8h-1.3c-0.3,0-0.5-0.1-0.5-0.4l-0.1-0.7c-0.4,0.4-0.8,0.7-1.2,0.9
					c-0.4,0.2-0.9,0.3-1.5,0.3c-0.5,0-0.9-0.1-1.3-0.2c-0.4-0.2-0.7-0.4-0.9-0.7c-0.3-0.3-0.4-0.6-0.6-1.1c-0.1-0.4-0.2-0.9-0.2-1.3
					v-5.6h2.1v5.6c0,0.5,0.1,0.9,0.4,1.2c0.2,0.3,0.6,0.4,1.1,0.4c0.4,0,0.7-0.1,1-0.2c0.3-0.2,0.6-0.4,0.9-0.7v-6.3H3819.5z"/>
				<path class="st12" d="M3828.7,4373.4c-0.1,0.1-0.1,0.1-0.2,0.2c-0.1,0-0.1,0.1-0.3,0.1c-0.1,0-0.2,0-0.3-0.1
					c-0.1-0.1-0.2-0.1-0.4-0.2c-0.1-0.1-0.3-0.2-0.5-0.2c-0.2-0.1-0.4-0.1-0.7-0.1c-0.4,0-0.7,0.1-1,0.2c-0.3,0.1-0.5,0.3-0.7,0.6
					c-0.2,0.3-0.3,0.6-0.4,0.9c-0.1,0.4-0.1,0.8-0.1,1.2c0,0.5,0,0.9,0.1,1.2c0.1,0.4,0.2,0.7,0.4,0.9c0.2,0.2,0.4,0.4,0.7,0.6
					c0.3,0.1,0.6,0.2,0.9,0.2c0.3,0,0.6,0,0.8-0.1c0.2-0.1,0.4-0.2,0.5-0.3c0.1-0.1,0.3-0.2,0.4-0.3c0.1-0.1,0.2-0.1,0.4-0.1
					c0.2,0,0.3,0.1,0.4,0.2l0.6,0.8c-0.2,0.3-0.5,0.5-0.8,0.7c-0.3,0.2-0.6,0.3-0.8,0.4c-0.3,0.1-0.6,0.2-0.9,0.2
					c-0.3,0-0.6,0.1-0.9,0.1c-0.5,0-1-0.1-1.5-0.3s-0.9-0.5-1.3-0.9c-0.4-0.4-0.6-0.9-0.8-1.4c-0.2-0.6-0.3-1.2-0.3-1.9
					c0-0.6,0.1-1.2,0.3-1.8c0.2-0.5,0.5-1,0.8-1.4c0.4-0.4,0.8-0.7,1.3-0.9c0.5-0.2,1.1-0.3,1.8-0.3c0.7,0,1.2,0.1,1.7,0.3
					c0.5,0.2,0.9,0.5,1.3,0.9L3828.7,4373.4z"/>
				<path class="st12" d="M3837.6,4373.4c-0.1,0.1-0.1,0.1-0.2,0.2c-0.1,0-0.1,0.1-0.3,0.1c-0.1,0-0.2,0-0.3-0.1s-0.2-0.1-0.4-0.2
					c-0.1-0.1-0.3-0.2-0.5-0.2c-0.2-0.1-0.4-0.1-0.7-0.1c-0.4,0-0.7,0.1-1,0.2c-0.3,0.1-0.5,0.3-0.7,0.6c-0.2,0.3-0.3,0.6-0.4,0.9
					c-0.1,0.4-0.1,0.8-0.1,1.2c0,0.5,0,0.9,0.1,1.2c0.1,0.4,0.2,0.7,0.4,0.9c0.2,0.2,0.4,0.4,0.7,0.6c0.3,0.1,0.6,0.2,0.9,0.2
					c0.3,0,0.6,0,0.8-0.1c0.2-0.1,0.4-0.2,0.5-0.3c0.1-0.1,0.3-0.2,0.4-0.3c0.1-0.1,0.2-0.1,0.4-0.1c0.2,0,0.3,0.1,0.4,0.2l0.6,0.8
					c-0.2,0.3-0.5,0.5-0.8,0.7c-0.3,0.2-0.6,0.3-0.8,0.4c-0.3,0.1-0.6,0.2-0.9,0.2c-0.3,0-0.6,0.1-0.9,0.1c-0.5,0-1-0.1-1.5-0.3
					s-0.9-0.5-1.3-0.9c-0.4-0.4-0.6-0.9-0.8-1.4c-0.2-0.6-0.3-1.2-0.3-1.9c0-0.6,0.1-1.2,0.3-1.8s0.5-1,0.8-1.4s0.8-0.7,1.3-0.9
					c0.5-0.2,1.1-0.3,1.8-0.3c0.7,0,1.2,0.1,1.7,0.3c0.5,0.2,0.9,0.5,1.3,0.9L3837.6,4373.4z"/>
				<path class="st12" d="M3841.9,4376.2c0,0.4,0.1,0.8,0.2,1.2c0.1,0.3,0.3,0.6,0.5,0.8c0.2,0.2,0.4,0.4,0.7,0.5
					c0.3,0.1,0.6,0.2,0.9,0.2c0.3,0,0.6,0,0.9-0.1c0.2-0.1,0.5-0.2,0.6-0.3c0.2-0.1,0.3-0.2,0.5-0.3c0.1-0.1,0.3-0.1,0.4-0.1
					c0.2,0,0.3,0.1,0.4,0.2l0.6,0.8c-0.2,0.3-0.5,0.5-0.8,0.7c-0.3,0.2-0.6,0.3-0.9,0.4c-0.3,0.1-0.6,0.2-1,0.2
					c-0.3,0-0.6,0.1-1,0.1c-0.6,0-1.2-0.1-1.7-0.3c-0.5-0.2-1-0.5-1.4-0.9c-0.4-0.4-0.7-0.9-0.9-1.5c-0.2-0.6-0.3-1.3-0.3-2
					c0-0.6,0.1-1.2,0.3-1.7c0.2-0.5,0.5-1,0.8-1.4c0.4-0.4,0.8-0.7,1.3-0.9c0.5-0.2,1.1-0.3,1.8-0.3c0.6,0,1.1,0.1,1.5,0.3
					c0.5,0.2,0.9,0.4,1.2,0.8c0.3,0.3,0.6,0.8,0.8,1.2c0.2,0.5,0.3,1.1,0.3,1.7c0,0.3,0,0.5-0.1,0.6c-0.1,0.1-0.2,0.2-0.4,0.2
					H3841.9z M3845.9,4375c0-0.3,0-0.5-0.1-0.8c-0.1-0.2-0.2-0.5-0.3-0.6c-0.2-0.2-0.3-0.3-0.6-0.4c-0.2-0.1-0.5-0.2-0.8-0.2
					c-0.6,0-1.1,0.2-1.4,0.5c-0.4,0.3-0.6,0.8-0.7,1.5H3845.9z"/>
				<path class="st12" d="M3855.6,4373.3c-0.1,0.1-0.1,0.2-0.2,0.2c-0.1,0-0.1,0.1-0.2,0.1c-0.1,0-0.2,0-0.3-0.1
					c-0.1-0.1-0.3-0.1-0.4-0.2c-0.2-0.1-0.3-0.1-0.5-0.2c-0.2-0.1-0.4-0.1-0.7-0.1c-0.4,0-0.7,0.1-1,0.3c-0.2,0.2-0.4,0.4-0.4,0.7
					c0,0.2,0.1,0.3,0.2,0.5c0.1,0.1,0.3,0.2,0.5,0.3c0.2,0.1,0.4,0.2,0.7,0.3c0.3,0.1,0.5,0.2,0.8,0.3c0.3,0.1,0.5,0.2,0.8,0.3
					c0.3,0.1,0.5,0.3,0.7,0.4c0.2,0.2,0.4,0.4,0.5,0.6c0.1,0.3,0.2,0.6,0.2,0.9c0,0.4-0.1,0.8-0.2,1.2c-0.2,0.4-0.4,0.7-0.7,0.9
					c-0.3,0.3-0.7,0.5-1.1,0.6c-0.4,0.1-0.9,0.2-1.5,0.2c-0.3,0-0.6,0-0.9-0.1c-0.3-0.1-0.6-0.1-0.8-0.2s-0.5-0.2-0.7-0.3
					c-0.2-0.1-0.4-0.3-0.6-0.4l0.5-0.8c0.1-0.1,0.1-0.2,0.2-0.2s0.2-0.1,0.3-0.1s0.3,0,0.4,0.1c0.1,0.1,0.3,0.2,0.4,0.2
					c0.2,0.1,0.3,0.2,0.5,0.2c0.2,0.1,0.5,0.1,0.8,0.1c0.3,0,0.5,0,0.6-0.1c0.2-0.1,0.3-0.1,0.4-0.2s0.2-0.2,0.3-0.3
					c0.1-0.1,0.1-0.3,0.1-0.4c0-0.2-0.1-0.4-0.2-0.5c-0.1-0.1-0.3-0.2-0.5-0.3s-0.4-0.2-0.7-0.3c-0.3-0.1-0.5-0.2-0.8-0.3
					c-0.3-0.1-0.5-0.2-0.8-0.3c-0.3-0.1-0.5-0.3-0.7-0.5c-0.2-0.2-0.4-0.4-0.5-0.7c-0.1-0.3-0.2-0.6-0.2-1c0-0.4,0.1-0.7,0.2-1
					c0.1-0.3,0.4-0.6,0.6-0.8c0.3-0.2,0.6-0.4,1-0.6c0.4-0.1,0.9-0.2,1.4-0.2c0.6,0,1.2,0.1,1.6,0.3c0.5,0.2,0.9,0.5,1.2,0.8
					L3855.6,4373.3z"/>
				<path class="st12" d="M3863.9,4373.3c-0.1,0.1-0.1,0.2-0.2,0.2c-0.1,0-0.1,0.1-0.2,0.1c-0.1,0-0.2,0-0.3-0.1
					c-0.1-0.1-0.3-0.1-0.4-0.2c-0.2-0.1-0.3-0.1-0.5-0.2c-0.2-0.1-0.4-0.1-0.7-0.1c-0.4,0-0.7,0.1-1,0.3c-0.2,0.2-0.4,0.4-0.4,0.7
					c0,0.2,0.1,0.3,0.2,0.5c0.1,0.1,0.3,0.2,0.5,0.3c0.2,0.1,0.4,0.2,0.7,0.3c0.3,0.1,0.5,0.2,0.8,0.3c0.3,0.1,0.5,0.2,0.8,0.3
					c0.3,0.1,0.5,0.3,0.7,0.4c0.2,0.2,0.4,0.4,0.5,0.6c0.1,0.3,0.2,0.6,0.2,0.9c0,0.4-0.1,0.8-0.2,1.2c-0.2,0.4-0.4,0.7-0.7,0.9
					c-0.3,0.3-0.7,0.5-1.1,0.6c-0.4,0.1-0.9,0.2-1.5,0.2c-0.3,0-0.6,0-0.9-0.1c-0.3-0.1-0.6-0.1-0.8-0.2c-0.3-0.1-0.5-0.2-0.7-0.3
					c-0.2-0.1-0.4-0.3-0.6-0.4l0.5-0.8c0.1-0.1,0.1-0.2,0.2-0.2c0.1-0.1,0.2-0.1,0.3-0.1s0.3,0,0.4,0.1c0.1,0.1,0.3,0.2,0.4,0.2
					c0.2,0.1,0.3,0.2,0.5,0.2c0.2,0.1,0.5,0.1,0.8,0.1c0.3,0,0.5,0,0.6-0.1c0.2-0.1,0.3-0.1,0.4-0.2c0.1-0.1,0.2-0.2,0.3-0.3
					c0.1-0.1,0.1-0.3,0.1-0.4c0-0.2-0.1-0.4-0.2-0.5c-0.1-0.1-0.3-0.2-0.5-0.3c-0.2-0.1-0.4-0.2-0.7-0.3c-0.3-0.1-0.5-0.2-0.8-0.3
					c-0.3-0.1-0.5-0.2-0.8-0.3c-0.3-0.1-0.5-0.3-0.7-0.5c-0.2-0.2-0.4-0.4-0.5-0.7c-0.1-0.3-0.2-0.6-0.2-1c0-0.4,0.1-0.7,0.2-1
					c0.1-0.3,0.4-0.6,0.6-0.8c0.3-0.2,0.6-0.4,1-0.6c0.4-0.1,0.9-0.2,1.4-0.2c0.6,0,1.2,0.1,1.6,0.3c0.5,0.2,0.9,0.5,1.2,0.8
					L3863.9,4373.3z"/>
				<path class="st12" d="M3879.6,4371.6v11.6h-2.1v-4c-0.3,0.4-0.7,0.7-1.2,0.9c-0.4,0.2-0.9,0.3-1.5,0.3c-0.5,0-0.9-0.1-1.3-0.3
					c-0.4-0.2-0.7-0.5-1-0.9s-0.5-0.8-0.7-1.4c-0.2-0.6-0.2-1.2-0.2-1.9c0-0.6,0.1-1.3,0.3-1.8c0.2-0.6,0.4-1,0.8-1.5
					c0.3-0.4,0.7-0.7,1.2-1s1-0.3,1.6-0.3c0.5,0,1,0.1,1.4,0.3c0.4,0.2,0.7,0.4,1,0.8l0.1-0.5c0.1-0.3,0.3-0.4,0.5-0.4H3879.6z
					 M3877.4,4373.8c-0.2-0.3-0.5-0.5-0.8-0.6c-0.3-0.1-0.6-0.2-0.9-0.2c-0.3,0-0.6,0.1-0.9,0.2c-0.3,0.1-0.5,0.3-0.7,0.5
					c-0.2,0.2-0.3,0.5-0.4,0.9c-0.1,0.4-0.1,0.8-0.1,1.3c0,0.5,0,0.9,0.1,1.3c0.1,0.4,0.2,0.6,0.4,0.9c0.2,0.2,0.3,0.4,0.6,0.5
					c0.2,0.1,0.5,0.1,0.7,0.1c0.4,0,0.8-0.1,1.1-0.3c0.3-0.2,0.6-0.4,0.9-0.8V4373.8z"/>
				<path class="st12" d="M3890,4371.6v8.8h-1.3c-0.3,0-0.5-0.1-0.5-0.4l-0.1-0.7c-0.4,0.4-0.8,0.7-1.2,0.9
					c-0.4,0.2-0.9,0.3-1.5,0.3c-0.5,0-0.9-0.1-1.3-0.2c-0.4-0.2-0.7-0.4-0.9-0.7c-0.3-0.3-0.4-0.6-0.6-1.1c-0.1-0.4-0.2-0.9-0.2-1.3
					v-5.6h2.1v5.6c0,0.5,0.1,0.9,0.4,1.2c0.2,0.3,0.6,0.4,1.1,0.4c0.4,0,0.7-0.1,1-0.2c0.3-0.2,0.6-0.4,0.9-0.7v-6.3H3890z"/>
				<path class="st12" d="M3894.6,4376.2c0,0.4,0.1,0.8,0.2,1.2c0.1,0.3,0.3,0.6,0.5,0.8c0.2,0.2,0.4,0.4,0.7,0.5
					c0.3,0.1,0.6,0.2,0.9,0.2c0.3,0,0.6,0,0.9-0.1c0.2-0.1,0.5-0.2,0.6-0.3c0.2-0.1,0.3-0.2,0.5-0.3s0.3-0.1,0.4-0.1
					c0.2,0,0.3,0.1,0.4,0.2l0.6,0.8c-0.2,0.3-0.5,0.5-0.8,0.7c-0.3,0.2-0.6,0.3-0.9,0.4c-0.3,0.1-0.6,0.2-1,0.2
					c-0.3,0-0.6,0.1-1,0.1c-0.6,0-1.2-0.1-1.7-0.3c-0.5-0.2-1-0.5-1.4-0.9c-0.4-0.4-0.7-0.9-0.9-1.5c-0.2-0.6-0.3-1.3-0.3-2
					c0-0.6,0.1-1.2,0.3-1.7c0.2-0.5,0.5-1,0.8-1.4c0.4-0.4,0.8-0.7,1.3-0.9c0.5-0.2,1.1-0.3,1.8-0.3c0.6,0,1.1,0.1,1.5,0.3
					c0.5,0.2,0.9,0.4,1.2,0.8c0.3,0.3,0.6,0.8,0.8,1.2c0.2,0.5,0.3,1.1,0.3,1.7c0,0.3,0,0.5-0.1,0.6c-0.1,0.1-0.2,0.2-0.4,0.2
					H3894.6z M3898.6,4375c0-0.3,0-0.5-0.1-0.8c-0.1-0.2-0.2-0.5-0.3-0.6c-0.2-0.2-0.3-0.3-0.6-0.4c-0.2-0.1-0.5-0.2-0.8-0.2
					c-0.6,0-1.1,0.2-1.4,0.5c-0.3,0.3-0.6,0.8-0.7,1.5H3898.6z"/>
				<path class="st12" d="M3910.5,4371.6v8.8h-1.3c-0.3,0-0.5-0.1-0.5-0.4l-0.1-0.7c-0.4,0.4-0.8,0.7-1.2,0.9s-0.9,0.3-1.5,0.3
					c-0.5,0-0.9-0.1-1.3-0.2c-0.4-0.2-0.7-0.4-0.9-0.7c-0.3-0.3-0.4-0.6-0.6-1.1c-0.1-0.4-0.2-0.9-0.2-1.3v-5.6h2.1v5.6
					c0,0.5,0.1,0.9,0.4,1.2c0.2,0.3,0.6,0.4,1.1,0.4c0.4,0,0.7-0.1,1-0.2c0.3-0.2,0.6-0.4,0.9-0.7v-6.3H3910.5z"/>
				<path class="st12" d="M3915,4376.2c0,0.4,0.1,0.8,0.2,1.2c0.1,0.3,0.3,0.6,0.5,0.8c0.2,0.2,0.4,0.4,0.7,0.5
					c0.3,0.1,0.6,0.2,0.9,0.2c0.3,0,0.6,0,0.9-0.1c0.2-0.1,0.5-0.2,0.6-0.3c0.2-0.1,0.3-0.2,0.5-0.3c0.1-0.1,0.3-0.1,0.4-0.1
					c0.2,0,0.3,0.1,0.4,0.2l0.6,0.8c-0.2,0.3-0.5,0.5-0.8,0.7c-0.3,0.2-0.6,0.3-0.9,0.4c-0.3,0.1-0.6,0.2-1,0.2
					c-0.3,0-0.6,0.1-1,0.1c-0.6,0-1.2-0.1-1.7-0.3c-0.5-0.2-1-0.5-1.4-0.9c-0.4-0.4-0.7-0.9-0.9-1.5c-0.2-0.6-0.3-1.3-0.3-2
					c0-0.6,0.1-1.2,0.3-1.7c0.2-0.5,0.5-1,0.8-1.4c0.4-0.4,0.8-0.7,1.3-0.9c0.5-0.2,1.1-0.3,1.8-0.3c0.6,0,1.1,0.1,1.5,0.3
					c0.5,0.2,0.9,0.4,1.2,0.8c0.3,0.3,0.6,0.8,0.8,1.2c0.2,0.5,0.3,1.1,0.3,1.7c0,0.3,0,0.5-0.1,0.6c-0.1,0.1-0.2,0.2-0.4,0.2H3915z
					 M3919.1,4375c0-0.3,0-0.5-0.1-0.8c-0.1-0.2-0.2-0.5-0.3-0.6c-0.2-0.2-0.3-0.3-0.6-0.4c-0.2-0.1-0.5-0.2-0.8-0.2
					c-0.6,0-1.1,0.2-1.4,0.5c-0.4,0.3-0.6,0.8-0.7,1.5H3919.1z"/>
			</g>
		</g>
		<g>
			<g id="third_queue_2_">
				<path class="st5" d="M4035,4341.7c-6.2,0-11.2-5-11.2-11.2v-57.8c0-6.2,5-11.2,11.2-11.2h112.8c6.2,0,11.2,5,11.2,11.2v57.8
					c0,6.2-5,11.2-11.2,11.2H4035z"/>
				<path class="st6" d="M4147.8,4261.8c6,0,10.9,4.9,10.9,10.9v57.8c0,6-4.9,10.9-10.9,10.9H4035c-6,0-10.9-4.9-10.9-10.9v-57.8
					c0-6,4.9-10.9,10.9-10.9H4147.8 M4147.8,4261.2H4035c-6.4,0-11.6,5.2-11.6,11.6v57.8c0,6.4,5.2,11.6,11.6,11.6h112.8
					c6.4,0,11.6-5.2,11.6-11.6v-57.8C4159.3,4266.4,4154.1,4261.2,4147.8,4261.2L4147.8,4261.2z"/>
			</g>
			<g id="second_queue_2_">
				<path class="st5" d="M4039.8,4346.6c-6.2,0-11.2-5-11.2-11.2v-57.8c0-6.2,5-11.2,11.2-11.2h112.8c6.2,0,11.2,5,11.2,11.2v57.8
					c0,6.2-5,11.2-11.2,11.2H4039.8z"/>
				<path class="st6" d="M4152.6,4266.7c6,0,10.9,4.9,10.9,10.9v57.8c0,6-4.9,10.9-10.9,10.9h-112.8c-6,0-10.9-4.9-10.9-10.9v-57.8
					c0-6,4.9-10.9,10.9-10.9H4152.6 M4152.6,4266h-112.8c-6.4,0-11.6,5.2-11.6,11.6v57.8c0,6.4,5.2,11.6,11.6,11.6h112.8
					c6.4,0,11.6-5.2,11.6-11.6v-57.8C4164.1,4271.2,4158.9,4266,4152.6,4266L4152.6,4266z"/>
			</g>
			<g id="queue_2_">
				<path class="st7" d="M4043.7,4351.4c-6.2,0-11.2-5-11.2-11.2v-57.8c0-6.2,5-11.2,11.2-11.2h112.8c6.2,0,11.2,5,11.2,11.2v57.8
					c0,6.2-5,11.2-11.2,11.2H4043.7z"/>
				<path class="st6" d="M4156.4,4271.5c6,0,10.9,4.9,10.9,10.9v57.8c0,6-4.9,10.9-10.9,10.9h-112.8c-6,0-10.9-4.9-10.9-10.9v-57.8
					c0-6,4.9-10.9,10.9-10.9H4156.4 M4156.4,4270.8h-112.8c-6.4,0-11.6,5.2-11.6,11.6v57.8c0,6.4,5.2,11.6,11.6,11.6h112.8
					c6.4,0,11.6-5.2,11.6-11.6v-57.8C4168,4276,4162.8,4270.8,4156.4,4270.8L4156.4,4270.8z"/>
			</g>
			<g id="RabbitMQ_2_">
				<path class="st8" d="M4148,4306.1h-13.1c-0.9,0-1.6-0.8-1.6-1.6v-13.1c0-0.9-0.8-1.6-1.6-1.6h-4.4c-0.9,0-1.6,0.8-1.6,1.6v13.1
					c0,0.9-0.8,1.6-1.6,1.6h-5.4c-0.9,0-1.6-0.8-1.6-1.6v-13.1c0-0.9-0.8-1.6-1.6-1.6h-4.4c-0.9,0-1.6,0.8-1.6,1.6v37.2
					c0,0.9,0.8,1.6,1.6,1.6h37.2c0.9,0,1.6-0.8,1.6-1.6v-20.8C4149.7,4306.9,4148.9,4306.1,4148,4306.1z M4139.6,4321.5h-2.8
					c-1.3,0-2.4-1.1-2.4-2.4v-2.8c0-1.3,1.1-2.4,2.4-2.4h2.8c1.3,0,2.4,1.1,2.4,2.4v2.8C4142,4320.5,4140.9,4321.5,4139.6,4321.5z"
					/>
			</g>
		</g>
		<g>
			<g>
				<path class="st12" d="M4050.6,4369.8v3.7h4.6v1.8h-4.6v5h-2.3V4368h7.8v1.8H4050.6z"/>
				<path class="st12" d="M4057.1,4372.8c1-0.9,2.2-1.4,3.6-1.4c0.5,0,1,0.1,1.4,0.3c0.4,0.2,0.7,0.4,1,0.7c0.3,0.3,0.5,0.7,0.6,1.1
					c0.1,0.4,0.2,0.9,0.2,1.4v5.5h-1c-0.2,0-0.4,0-0.5-0.1c-0.1-0.1-0.2-0.2-0.3-0.4l-0.2-0.6c-0.2,0.2-0.4,0.4-0.6,0.5
					c-0.2,0.2-0.4,0.3-0.7,0.4c-0.2,0.1-0.5,0.2-0.7,0.2c-0.3,0.1-0.5,0.1-0.9,0.1c-0.4,0-0.7-0.1-1-0.1c-0.3-0.1-0.6-0.2-0.8-0.4
					c-0.2-0.2-0.4-0.4-0.5-0.7c-0.1-0.3-0.2-0.6-0.2-1c0-0.2,0-0.4,0.1-0.7c0.1-0.2,0.2-0.4,0.4-0.6s0.4-0.4,0.7-0.6
					c0.3-0.2,0.6-0.3,1-0.5c0.4-0.1,0.8-0.2,1.4-0.3s1.1-0.1,1.8-0.1v-0.5c0-0.6-0.1-1-0.4-1.3s-0.6-0.4-1.1-0.4
					c-0.3,0-0.6,0-0.8,0.1c-0.2,0.1-0.4,0.2-0.6,0.3c-0.2,0.1-0.3,0.2-0.5,0.3c-0.1,0.1-0.3,0.1-0.5,0.1c-0.1,0-0.3,0-0.4-0.1
					c-0.1-0.1-0.2-0.2-0.2-0.3L4057.1,4372.8z M4062,4376.6c-0.6,0-1.1,0.1-1.5,0.2c-0.4,0.1-0.7,0.2-1,0.3s-0.4,0.3-0.5,0.4
					c-0.1,0.2-0.2,0.3-0.2,0.5c0,0.4,0.1,0.6,0.3,0.8s0.5,0.2,0.9,0.2c0.4,0,0.8-0.1,1.1-0.2c0.3-0.2,0.6-0.4,0.9-0.7V4376.6z"/>
				<path class="st12" d="M4069.3,4369c0,0.2,0,0.4-0.1,0.5c-0.1,0.2-0.2,0.3-0.3,0.4c-0.1,0.1-0.3,0.2-0.4,0.3
					c-0.2,0.1-0.3,0.1-0.5,0.1c-0.2,0-0.4,0-0.5-0.1c-0.2-0.1-0.3-0.2-0.4-0.3c-0.1-0.1-0.2-0.3-0.3-0.4c-0.1-0.2-0.1-0.3-0.1-0.5
					c0-0.2,0-0.4,0.1-0.5c0.1-0.2,0.2-0.3,0.3-0.4c0.1-0.1,0.3-0.2,0.4-0.3c0.2-0.1,0.3-0.1,0.5-0.1c0.2,0,0.4,0,0.5,0.1
					s0.3,0.2,0.4,0.3c0.1,0.1,0.2,0.3,0.3,0.4S4069.3,4368.9,4069.3,4369z M4069,4371.6v8.8h-2.1v-8.8H4069z"/>
				<path class="st12" d="M4074.2,4367.7v12.7h-2.1v-12.7H4074.2z"/>
				<path class="st12" d="M4078.8,4376.2c0,0.4,0.1,0.8,0.2,1.2c0.1,0.3,0.3,0.6,0.5,0.8c0.2,0.2,0.4,0.4,0.7,0.5
					c0.3,0.1,0.6,0.2,0.9,0.2c0.3,0,0.6,0,0.9-0.1c0.2-0.1,0.5-0.2,0.6-0.3c0.2-0.1,0.3-0.2,0.5-0.3s0.3-0.1,0.4-0.1
					c0.2,0,0.3,0.1,0.4,0.2l0.6,0.8c-0.2,0.3-0.5,0.5-0.8,0.7c-0.3,0.2-0.6,0.3-0.9,0.4c-0.3,0.1-0.6,0.2-1,0.2
					c-0.3,0-0.6,0.1-1,0.1c-0.6,0-1.2-0.1-1.7-0.3c-0.5-0.2-1-0.5-1.4-0.9c-0.4-0.4-0.7-0.9-0.9-1.5c-0.2-0.6-0.3-1.3-0.3-2
					c0-0.6,0.1-1.2,0.3-1.7c0.2-0.5,0.5-1,0.8-1.4s0.8-0.7,1.3-0.9c0.5-0.2,1.1-0.3,1.8-0.3c0.6,0,1.1,0.1,1.5,0.3
					c0.5,0.2,0.9,0.4,1.2,0.8c0.3,0.3,0.6,0.8,0.8,1.2c0.2,0.5,0.3,1.1,0.3,1.7c0,0.3,0,0.5-0.1,0.6c-0.1,0.1-0.2,0.2-0.4,0.2
					H4078.8z M4082.8,4375c0-0.3,0-0.5-0.1-0.8c-0.1-0.2-0.2-0.5-0.3-0.6c-0.2-0.2-0.3-0.3-0.6-0.4c-0.2-0.1-0.5-0.2-0.8-0.2
					c-0.6,0-1.1,0.2-1.4,0.5c-0.3,0.3-0.6,0.8-0.7,1.5H4082.8z"/>
				<path class="st12" d="M4094.7,4367.7v12.7h-1.3c-0.3,0-0.5-0.1-0.5-0.4l-0.2-0.8c-0.4,0.4-0.8,0.7-1.2,1c-0.5,0.3-1,0.4-1.6,0.4
					c-0.5,0-0.9-0.1-1.3-0.3c-0.4-0.2-0.7-0.5-1-0.9c-0.3-0.4-0.5-0.8-0.7-1.4c-0.2-0.6-0.2-1.2-0.2-1.9c0-0.6,0.1-1.3,0.3-1.8
					c0.2-0.6,0.4-1,0.8-1.5c0.3-0.4,0.7-0.7,1.2-1c0.5-0.2,1-0.3,1.6-0.3c0.5,0,0.9,0.1,1.3,0.2c0.3,0.2,0.7,0.4,0.9,0.6v-4.6
					H4094.7z M4092.6,4373.8c-0.2-0.3-0.5-0.5-0.8-0.6c-0.3-0.1-0.6-0.2-0.9-0.2c-0.3,0-0.6,0.1-0.9,0.2c-0.3,0.1-0.5,0.3-0.7,0.5
					c-0.2,0.2-0.3,0.5-0.4,0.9c-0.1,0.4-0.1,0.8-0.1,1.3c0,0.5,0,0.9,0.1,1.3c0.1,0.4,0.2,0.6,0.4,0.9c0.2,0.2,0.3,0.4,0.6,0.5
					c0.2,0.1,0.5,0.1,0.7,0.1c0.4,0,0.8-0.1,1.1-0.3c0.3-0.2,0.6-0.4,0.9-0.8V4373.8z"/>
				<path class="st12" d="M4110.2,4371.6v11.6h-2.1v-4c-0.3,0.4-0.7,0.7-1.2,0.9c-0.4,0.2-0.9,0.3-1.5,0.3c-0.5,0-0.9-0.1-1.3-0.3
					c-0.4-0.2-0.7-0.5-1-0.9s-0.5-0.8-0.7-1.4s-0.2-1.2-0.2-1.9c0-0.6,0.1-1.3,0.3-1.8c0.2-0.6,0.4-1,0.8-1.5c0.3-0.4,0.7-0.7,1.2-1
					c0.5-0.2,1-0.3,1.6-0.3c0.5,0,1,0.1,1.4,0.3c0.4,0.2,0.7,0.4,1,0.8l0.1-0.5c0.1-0.3,0.3-0.4,0.5-0.4H4110.2z M4108.1,4373.8
					c-0.2-0.3-0.5-0.5-0.8-0.6c-0.3-0.1-0.6-0.2-0.9-0.2c-0.3,0-0.6,0.1-0.9,0.2c-0.3,0.1-0.5,0.3-0.7,0.5c-0.2,0.2-0.3,0.5-0.4,0.9
					c-0.1,0.4-0.1,0.8-0.1,1.3c0,0.5,0,0.9,0.1,1.3c0.1,0.4,0.2,0.6,0.4,0.9c0.2,0.2,0.3,0.4,0.6,0.5c0.2,0.1,0.5,0.1,0.7,0.1
					c0.4,0,0.8-0.1,1.1-0.3c0.3-0.2,0.6-0.4,0.9-0.8V4373.8z"/>
				<path class="st12" d="M4120.7,4371.6v8.8h-1.3c-0.3,0-0.5-0.1-0.5-0.4l-0.1-0.7c-0.4,0.4-0.8,0.7-1.2,0.9s-0.9,0.3-1.5,0.3
					c-0.5,0-0.9-0.1-1.3-0.2c-0.4-0.2-0.7-0.4-0.9-0.7c-0.3-0.3-0.4-0.6-0.6-1.1c-0.1-0.4-0.2-0.9-0.2-1.3v-5.6h2.1v5.6
					c0,0.5,0.1,0.9,0.4,1.2c0.2,0.3,0.6,0.4,1.1,0.4c0.4,0,0.7-0.1,1-0.2c0.3-0.2,0.6-0.4,0.9-0.7v-6.3H4120.7z"/>
				<path class="st12" d="M4125.3,4376.2c0,0.4,0.1,0.8,0.2,1.2c0.1,0.3,0.3,0.6,0.5,0.8s0.4,0.4,0.7,0.5c0.3,0.1,0.6,0.2,0.9,0.2
					c0.3,0,0.6,0,0.9-0.1c0.2-0.1,0.5-0.2,0.6-0.3c0.2-0.1,0.3-0.2,0.5-0.3c0.1-0.1,0.3-0.1,0.4-0.1c0.2,0,0.3,0.1,0.4,0.2l0.6,0.8
					c-0.2,0.3-0.5,0.5-0.8,0.7c-0.3,0.2-0.6,0.3-0.9,0.4c-0.3,0.1-0.6,0.2-1,0.2c-0.3,0-0.6,0.1-1,0.1c-0.6,0-1.2-0.1-1.7-0.3
					s-1-0.5-1.4-0.9c-0.4-0.4-0.7-0.9-0.9-1.5c-0.2-0.6-0.3-1.3-0.3-2c0-0.6,0.1-1.2,0.3-1.7c0.2-0.5,0.5-1,0.8-1.4
					c0.4-0.4,0.8-0.7,1.3-0.9c0.5-0.2,1.1-0.3,1.8-0.3c0.6,0,1.1,0.1,1.5,0.3c0.5,0.2,0.9,0.4,1.2,0.8c0.3,0.3,0.6,0.8,0.8,1.2
					s0.3,1.1,0.3,1.7c0,0.3,0,0.5-0.1,0.6c-0.1,0.1-0.2,0.2-0.4,0.2H4125.3z M4129.3,4375c0-0.3,0-0.5-0.1-0.8s-0.2-0.5-0.3-0.6
					c-0.2-0.2-0.3-0.3-0.6-0.4c-0.2-0.1-0.5-0.2-0.8-0.2c-0.6,0-1.1,0.2-1.4,0.5c-0.4,0.3-0.6,0.8-0.7,1.5H4129.3z"/>
				<path class="st12" d="M4141.2,4371.6v8.8h-1.3c-0.3,0-0.5-0.1-0.5-0.4l-0.1-0.7c-0.4,0.4-0.8,0.7-1.2,0.9s-0.9,0.3-1.5,0.3
					c-0.5,0-0.9-0.1-1.3-0.2c-0.4-0.2-0.7-0.4-0.9-0.7c-0.3-0.3-0.4-0.6-0.6-1.1c-0.1-0.4-0.2-0.9-0.2-1.3v-5.6h2.1v5.6
					c0,0.5,0.1,0.9,0.4,1.2c0.2,0.3,0.6,0.4,1.1,0.4c0.4,0,0.7-0.1,1-0.2c0.3-0.2,0.6-0.4,0.9-0.7v-6.3H4141.2z"/>
				<path class="st12" d="M4145.7,4376.2c0,0.4,0.1,0.8,0.2,1.2s0.3,0.6,0.5,0.8s0.4,0.4,0.7,0.5c0.3,0.1,0.6,0.2,0.9,0.2
					s0.6,0,0.9-0.1c0.2-0.1,0.5-0.2,0.6-0.3c0.2-0.1,0.3-0.2,0.5-0.3s0.3-0.1,0.4-0.1c0.2,0,0.3,0.1,0.4,0.2l0.6,0.8
					c-0.2,0.3-0.5,0.5-0.8,0.7c-0.3,0.2-0.6,0.3-0.9,0.4c-0.3,0.1-0.6,0.2-1,0.2c-0.3,0-0.6,0.1-1,0.1c-0.6,0-1.2-0.1-1.7-0.3
					c-0.5-0.2-1-0.5-1.4-0.9c-0.4-0.4-0.7-0.9-0.9-1.5c-0.2-0.6-0.3-1.3-0.3-2c0-0.6,0.1-1.2,0.3-1.7c0.2-0.5,0.5-1,0.8-1.4
					s0.8-0.7,1.3-0.9c0.5-0.2,1.1-0.3,1.8-0.3c0.6,0,1.1,0.1,1.5,0.3c0.5,0.2,0.9,0.4,1.2,0.8s0.6,0.8,0.8,1.2
					c0.2,0.5,0.3,1.1,0.3,1.7c0,0.3,0,0.5-0.1,0.6c-0.1,0.1-0.2,0.2-0.4,0.2H4145.7z M4149.7,4375c0-0.3,0-0.5-0.1-0.8
					c-0.1-0.2-0.2-0.5-0.3-0.6c-0.2-0.2-0.3-0.3-0.6-0.4c-0.2-0.1-0.5-0.2-0.8-0.2c-0.6,0-1.1,0.2-1.4,0.5c-0.4,0.3-0.6,0.8-0.7,1.5
					H4149.7z"/>
			</g>
		</g>
		<g>
			<g>
				<path class="st12" d="M4279.9,4380.3h-1.8c-0.2,0-0.4-0.1-0.5-0.1c-0.1-0.1-0.2-0.2-0.3-0.4l-0.9-2.5h-5.1l-0.9,2.5
					c0,0.1-0.1,0.3-0.3,0.4c-0.1,0.1-0.3,0.2-0.5,0.2h-1.8l4.9-12.3h2.3L4279.9,4380.3z M4275.9,4375.7l-1.5-4.1
					c-0.1-0.2-0.2-0.4-0.2-0.6c-0.1-0.3-0.2-0.5-0.2-0.8c-0.1,0.3-0.2,0.6-0.2,0.8c-0.1,0.3-0.2,0.5-0.2,0.7l-1.5,4.1H4275.9z"/>
				<path class="st12" d="M4283.8,4367.7v12.7h-2.1v-12.7H4283.8z"/>
				<path class="st12" d="M4288.9,4367.7v12.7h-2.1v-12.7H4288.9z"/>
				<path class="st12" d="M4298.9,4373.1c0.3-0.5,0.6-0.9,1-1.2c0.4-0.3,0.8-0.4,1.3-0.4c0.4,0,0.7,0.1,1,0.3l-0.1,1.6
					c0,0.1-0.1,0.2-0.1,0.2c-0.1,0-0.1,0.1-0.2,0.1c-0.1,0-0.2,0-0.4,0c-0.2,0-0.3,0-0.5,0c-0.2,0-0.4,0-0.6,0.1
					c-0.2,0.1-0.3,0.2-0.5,0.3c-0.1,0.1-0.3,0.3-0.4,0.5c-0.1,0.2-0.2,0.4-0.3,0.6v5.4h-2.1v-8.8h1.2c0.2,0,0.4,0,0.5,0.1
					c0.1,0.1,0.1,0.2,0.2,0.4L4298.9,4373.1z"/>
				<path class="st12" d="M4305.5,4376.2c0,0.4,0.1,0.8,0.2,1.2s0.3,0.6,0.5,0.8c0.2,0.2,0.4,0.4,0.7,0.5c0.3,0.1,0.6,0.2,0.9,0.2
					c0.3,0,0.6,0,0.9-0.1c0.2-0.1,0.5-0.2,0.6-0.3c0.2-0.1,0.3-0.2,0.5-0.3c0.1-0.1,0.3-0.1,0.4-0.1c0.2,0,0.3,0.1,0.4,0.2l0.6,0.8
					c-0.2,0.3-0.5,0.5-0.8,0.7c-0.3,0.2-0.6,0.3-0.9,0.4c-0.3,0.1-0.6,0.2-1,0.2c-0.3,0-0.6,0.1-1,0.1c-0.6,0-1.2-0.1-1.7-0.3
					s-1-0.5-1.4-0.9c-0.4-0.4-0.7-0.9-0.9-1.5c-0.2-0.6-0.3-1.3-0.3-2c0-0.6,0.1-1.2,0.3-1.7c0.2-0.5,0.5-1,0.8-1.4
					c0.4-0.4,0.8-0.7,1.3-0.9c0.5-0.2,1.1-0.3,1.8-0.3c0.6,0,1.1,0.1,1.5,0.3c0.5,0.2,0.9,0.4,1.2,0.8c0.3,0.3,0.6,0.8,0.8,1.2
					s0.3,1.1,0.3,1.7c0,0.3,0,0.5-0.1,0.6c-0.1,0.1-0.2,0.2-0.4,0.2H4305.5z M4309.5,4375c0-0.3,0-0.5-0.1-0.8
					c-0.1-0.2-0.2-0.5-0.3-0.6c-0.2-0.2-0.3-0.3-0.6-0.4s-0.5-0.2-0.8-0.2c-0.6,0-1.1,0.2-1.4,0.5c-0.4,0.3-0.6,0.8-0.7,1.5H4309.5z
					"/>
				<path class="st12" d="M4319.2,4373.3c-0.1,0.1-0.1,0.2-0.2,0.2c-0.1,0-0.1,0.1-0.2,0.1c-0.1,0-0.2,0-0.3-0.1
					c-0.1-0.1-0.3-0.1-0.4-0.2c-0.2-0.1-0.3-0.1-0.5-0.2c-0.2-0.1-0.4-0.1-0.7-0.1c-0.4,0-0.7,0.1-1,0.3c-0.2,0.2-0.4,0.4-0.4,0.7
					c0,0.2,0.1,0.3,0.2,0.5c0.1,0.1,0.3,0.2,0.5,0.3c0.2,0.1,0.4,0.2,0.7,0.3c0.3,0.1,0.5,0.2,0.8,0.3c0.3,0.1,0.5,0.2,0.8,0.3
					c0.3,0.1,0.5,0.3,0.7,0.4c0.2,0.2,0.4,0.4,0.5,0.6c0.1,0.3,0.2,0.6,0.2,0.9c0,0.4-0.1,0.8-0.2,1.2c-0.2,0.4-0.4,0.7-0.7,0.9
					c-0.3,0.3-0.7,0.5-1.1,0.6c-0.4,0.1-0.9,0.2-1.5,0.2c-0.3,0-0.6,0-0.9-0.1c-0.3-0.1-0.6-0.1-0.8-0.2s-0.5-0.2-0.7-0.3
					c-0.2-0.1-0.4-0.3-0.6-0.4l0.5-0.8c0.1-0.1,0.1-0.2,0.2-0.2c0.1-0.1,0.2-0.1,0.3-0.1s0.3,0,0.4,0.1c0.1,0.1,0.3,0.2,0.4,0.2
					c0.2,0.1,0.3,0.2,0.5,0.2c0.2,0.1,0.5,0.1,0.8,0.1c0.3,0,0.5,0,0.6-0.1c0.2-0.1,0.3-0.1,0.4-0.2s0.2-0.2,0.3-0.3
					c0.1-0.1,0.1-0.3,0.1-0.4c0-0.2-0.1-0.4-0.2-0.5c-0.1-0.1-0.3-0.2-0.5-0.3c-0.2-0.1-0.4-0.2-0.7-0.3c-0.3-0.1-0.5-0.2-0.8-0.3
					c-0.3-0.1-0.5-0.2-0.8-0.3c-0.3-0.1-0.5-0.3-0.7-0.5c-0.2-0.2-0.4-0.4-0.5-0.7c-0.1-0.3-0.2-0.6-0.2-1c0-0.4,0.1-0.7,0.2-1
					c0.1-0.3,0.4-0.6,0.6-0.8c0.3-0.2,0.6-0.4,1-0.6c0.4-0.1,0.9-0.2,1.4-0.2c0.6,0,1.2,0.1,1.6,0.3s0.9,0.5,1.2,0.8L4319.2,4373.3z
					"/>
				<path class="st12" d="M4329.7,4371.6v8.8h-1.3c-0.3,0-0.5-0.1-0.5-0.4l-0.1-0.7c-0.4,0.4-0.8,0.7-1.2,0.9s-0.9,0.3-1.5,0.3
					c-0.5,0-0.9-0.1-1.3-0.2c-0.4-0.2-0.7-0.4-0.9-0.7c-0.3-0.3-0.4-0.6-0.6-1.1c-0.1-0.4-0.2-0.9-0.2-1.3v-5.6h2.1v5.6
					c0,0.5,0.1,0.9,0.4,1.2c0.2,0.3,0.6,0.4,1.1,0.4c0.4,0,0.7-0.1,1-0.2c0.3-0.2,0.6-0.4,0.9-0.7v-6.3H4329.7z"/>
				<path class="st12" d="M4334.8,4367.7v12.7h-2.1v-12.7H4334.8z"/>
				<path class="st12" d="M4340.7,4380.5c-0.8,0-1.3-0.2-1.8-0.6c-0.4-0.4-0.6-1-0.6-1.8v-4.9h-0.9c-0.1,0-0.2,0-0.3-0.1
					c-0.1-0.1-0.1-0.2-0.1-0.3v-0.8l1.4-0.2l0.4-2.4c0-0.1,0.1-0.2,0.2-0.3c0.1-0.1,0.2-0.1,0.3-0.1h1.1v2.8h2.3v1.5h-2.3v4.7
					c0,0.3,0.1,0.5,0.2,0.6c0.1,0.2,0.3,0.2,0.6,0.2c0.1,0,0.2,0,0.3,0c0.1,0,0.2-0.1,0.2-0.1c0.1,0,0.1-0.1,0.2-0.1
					c0.1,0,0.1,0,0.2,0c0.1,0,0.1,0,0.2,0c0,0,0.1,0.1,0.1,0.1l0.6,1c-0.3,0.3-0.7,0.4-1.1,0.6
					C4341.5,4380.4,4341.1,4380.5,4340.7,4380.5z"/>
				<path class="st12" d="M4350.3,4373.3c-0.1,0.1-0.1,0.2-0.2,0.2c-0.1,0-0.1,0.1-0.2,0.1c-0.1,0-0.2,0-0.3-0.1
					c-0.1-0.1-0.3-0.1-0.4-0.2c-0.2-0.1-0.3-0.1-0.5-0.2c-0.2-0.1-0.4-0.1-0.7-0.1c-0.4,0-0.7,0.1-1,0.3c-0.2,0.2-0.4,0.4-0.4,0.7
					c0,0.2,0.1,0.3,0.2,0.5c0.1,0.1,0.3,0.2,0.5,0.3c0.2,0.1,0.4,0.2,0.7,0.3c0.3,0.1,0.5,0.2,0.8,0.3c0.3,0.1,0.5,0.2,0.8,0.3
					c0.3,0.1,0.5,0.3,0.7,0.4c0.2,0.2,0.4,0.4,0.5,0.6c0.1,0.3,0.2,0.6,0.2,0.9c0,0.4-0.1,0.8-0.2,1.2c-0.2,0.4-0.4,0.7-0.7,0.9
					c-0.3,0.3-0.7,0.5-1.1,0.6c-0.4,0.1-0.9,0.2-1.5,0.2c-0.3,0-0.6,0-0.9-0.1c-0.3-0.1-0.6-0.1-0.8-0.2c-0.3-0.1-0.5-0.2-0.7-0.3
					c-0.2-0.1-0.4-0.3-0.6-0.4l0.5-0.8c0.1-0.1,0.1-0.2,0.2-0.2c0.1-0.1,0.2-0.1,0.3-0.1c0.1,0,0.3,0,0.4,0.1
					c0.1,0.1,0.3,0.2,0.4,0.2c0.2,0.1,0.3,0.2,0.5,0.2c0.2,0.1,0.5,0.1,0.8,0.1c0.3,0,0.5,0,0.6-0.1c0.2-0.1,0.3-0.1,0.4-0.2
					s0.2-0.2,0.3-0.3c0.1-0.1,0.1-0.3,0.1-0.4c0-0.2-0.1-0.4-0.2-0.5s-0.3-0.2-0.5-0.3c-0.2-0.1-0.4-0.2-0.7-0.3
					c-0.3-0.1-0.5-0.2-0.8-0.3c-0.3-0.1-0.5-0.2-0.8-0.3c-0.3-0.1-0.5-0.3-0.7-0.5c-0.2-0.2-0.4-0.4-0.5-0.7s-0.2-0.6-0.2-1
					c0-0.4,0.1-0.7,0.2-1c0.1-0.3,0.4-0.6,0.6-0.8c0.3-0.2,0.6-0.4,1-0.6c0.4-0.1,0.9-0.2,1.4-0.2c0.6,0,1.2,0.1,1.6,0.3
					c0.5,0.2,0.9,0.5,1.2,0.8L4350.3,4373.3z"/>
				<path class="st12" d="M4365.9,4371.6v11.6h-2.1v-4c-0.3,0.4-0.7,0.7-1.2,0.9c-0.4,0.2-0.9,0.3-1.5,0.3c-0.5,0-0.9-0.1-1.3-0.3
					c-0.4-0.2-0.7-0.5-1-0.9s-0.5-0.8-0.7-1.4c-0.2-0.6-0.2-1.2-0.2-1.9c0-0.6,0.1-1.3,0.3-1.8c0.2-0.6,0.4-1,0.8-1.5
					c0.3-0.4,0.7-0.7,1.2-1c0.5-0.2,1-0.3,1.6-0.3c0.5,0,1,0.1,1.4,0.3c0.4,0.2,0.7,0.4,1,0.8l0.1-0.5c0.1-0.3,0.3-0.4,0.5-0.4
					H4365.9z M4363.8,4373.8c-0.2-0.3-0.5-0.5-0.8-0.6c-0.3-0.1-0.6-0.2-0.9-0.2c-0.3,0-0.6,0.1-0.9,0.2c-0.3,0.1-0.5,0.3-0.7,0.5
					c-0.2,0.2-0.3,0.5-0.4,0.9s-0.1,0.8-0.1,1.3c0,0.5,0,0.9,0.1,1.3c0.1,0.4,0.2,0.6,0.4,0.9c0.2,0.2,0.3,0.4,0.6,0.5
					c0.2,0.1,0.5,0.1,0.7,0.1c0.4,0,0.8-0.1,1.1-0.3c0.3-0.2,0.6-0.4,0.9-0.8V4373.8z"/>
				<path class="st12" d="M4376.4,4371.6v8.8h-1.3c-0.3,0-0.5-0.1-0.5-0.4l-0.1-0.7c-0.4,0.4-0.8,0.7-1.2,0.9
					c-0.4,0.2-0.9,0.3-1.5,0.3c-0.5,0-0.9-0.1-1.3-0.2c-0.4-0.2-0.7-0.4-0.9-0.7c-0.3-0.3-0.4-0.6-0.6-1.1c-0.1-0.4-0.2-0.9-0.2-1.3
					v-5.6h2.1v5.6c0,0.5,0.1,0.9,0.4,1.2c0.2,0.3,0.6,0.4,1.1,0.4c0.4,0,0.7-0.1,1-0.2c0.3-0.2,0.6-0.4,0.9-0.7v-6.3H4376.4z"/>
				<path class="st12" d="M4380.9,4376.2c0,0.4,0.1,0.8,0.2,1.2s0.3,0.6,0.5,0.8c0.2,0.2,0.4,0.4,0.7,0.5c0.3,0.1,0.6,0.2,0.9,0.2
					c0.3,0,0.6,0,0.9-0.1c0.2-0.1,0.5-0.2,0.6-0.3c0.2-0.1,0.3-0.2,0.5-0.3c0.1-0.1,0.3-0.1,0.4-0.1c0.2,0,0.3,0.1,0.4,0.2l0.6,0.8
					c-0.2,0.3-0.5,0.5-0.8,0.7c-0.3,0.2-0.6,0.3-0.9,0.4c-0.3,0.1-0.6,0.2-1,0.2c-0.3,0-0.6,0.1-1,0.1c-0.6,0-1.2-0.1-1.7-0.3
					c-0.5-0.2-1-0.5-1.4-0.9c-0.4-0.4-0.7-0.9-0.9-1.5c-0.2-0.6-0.3-1.3-0.3-2c0-0.6,0.1-1.2,0.3-1.7c0.2-0.5,0.5-1,0.8-1.4
					c0.4-0.4,0.8-0.7,1.3-0.9c0.5-0.2,1.1-0.3,1.8-0.3c0.6,0,1.1,0.1,1.5,0.3c0.5,0.2,0.9,0.4,1.2,0.8c0.3,0.3,0.6,0.8,0.8,1.2
					c0.2,0.5,0.3,1.1,0.3,1.7c0,0.3,0,0.5-0.1,0.6c-0.1,0.1-0.2,0.2-0.4,0.2H4380.9z M4385,4375c0-0.3,0-0.5-0.1-0.8
					c-0.1-0.2-0.2-0.5-0.3-0.6c-0.2-0.2-0.3-0.3-0.6-0.4c-0.2-0.1-0.5-0.2-0.8-0.2c-0.6,0-1.1,0.2-1.4,0.5c-0.3,0.3-0.6,0.8-0.7,1.5
					H4385z"/>
				<path class="st12" d="M4396.8,4371.6v8.8h-1.3c-0.3,0-0.5-0.1-0.5-0.4l-0.1-0.7c-0.4,0.4-0.8,0.7-1.2,0.9
					c-0.4,0.2-0.9,0.3-1.5,0.3c-0.5,0-0.9-0.1-1.3-0.2c-0.4-0.2-0.7-0.4-0.9-0.7c-0.3-0.3-0.4-0.6-0.6-1.1c-0.1-0.4-0.2-0.9-0.2-1.3
					v-5.6h2.1v5.6c0,0.5,0.1,0.9,0.4,1.2c0.2,0.3,0.6,0.4,1.1,0.4c0.4,0,0.7-0.1,1-0.2c0.3-0.2,0.6-0.4,0.9-0.7v-6.3H4396.8z"/>
				<path class="st12" d="M4401.4,4376.2c0,0.4,0.1,0.8,0.2,1.2c0.1,0.3,0.3,0.6,0.5,0.8c0.2,0.2,0.4,0.4,0.7,0.5
					c0.3,0.1,0.6,0.2,0.9,0.2c0.3,0,0.6,0,0.9-0.1c0.2-0.1,0.5-0.2,0.6-0.3c0.2-0.1,0.3-0.2,0.5-0.3c0.1-0.1,0.3-0.1,0.4-0.1
					c0.2,0,0.3,0.1,0.4,0.2l0.6,0.8c-0.2,0.3-0.5,0.5-0.8,0.7c-0.3,0.2-0.6,0.3-0.9,0.4c-0.3,0.1-0.6,0.2-1,0.2
					c-0.3,0-0.6,0.1-1,0.1c-0.6,0-1.2-0.1-1.7-0.3s-1-0.5-1.4-0.9c-0.4-0.4-0.7-0.9-0.9-1.5c-0.2-0.6-0.3-1.3-0.3-2
					c0-0.6,0.1-1.2,0.3-1.7c0.2-0.5,0.5-1,0.8-1.4c0.4-0.4,0.8-0.7,1.3-0.9c0.5-0.2,1.1-0.3,1.8-0.3c0.6,0,1.1,0.1,1.5,0.3
					c0.5,0.2,0.9,0.4,1.2,0.8c0.3,0.3,0.6,0.8,0.8,1.2s0.3,1.1,0.3,1.7c0,0.3,0,0.5-0.1,0.6c-0.1,0.1-0.2,0.2-0.4,0.2H4401.4z
					 M4405.4,4375c0-0.3,0-0.5-0.1-0.8s-0.2-0.5-0.3-0.6c-0.2-0.2-0.3-0.3-0.6-0.4c-0.2-0.1-0.5-0.2-0.8-0.2c-0.6,0-1.1,0.2-1.4,0.5
					c-0.4,0.3-0.6,0.8-0.7,1.5H4405.4z"/>
			</g>
		</g>
		<circle class="st5" cx="4095.7" cy="4045.1" r="12.4"/>
		<polyline class="st10" points="3861.7,4227.1 3861.7,4119 4338.3,4119 4338.3,4227.1 		"/>
		<polygon class="st5" points="4104.8,4224.3 4095.7,4224.3 4086.7,4224.3 4095.7,4242.4 		"/>
		<polygon class="st5" points="4347.7,4224.3 4338.7,4224.3 4329.6,4224.3 4338.7,4242.4 		"/>
		<polygon class="st5" points="3870.7,4224.3 3861.6,4224.3 3852.6,4224.3 3861.6,4242.4 		"/>
		<polygon class="st13" points="3635.3,4224.3 3626.2,4224.3 3617.1,4224.3 3626.2,4242.4 		"/>
		<polygon class="st13" points="3617.1,4059.5 3626.2,4059.5 3635.3,4059.5 3626.2,4041.4 		"/>
		<g>
			<g>
				<g>
					<g>
						<path class="st5" d="M3594.8,4299.5c8.4,0,15.1,6.6,15.2,15h4.6l-6.9,7.7l-6.9-7.7h5.4c-0.3-6.2-5.3-11.2-11.5-11.2
							c-6.3,0-11.5,5.1-11.5,11.5s5.1,11.5,11.5,11.5c2.6,0,4.9-0.8,6.7-2.3l2.7,2.8c-2.6,2-5.9,3.2-9.4,3.2
							c-8.5,0-15.2-6.9-15.2-15.4C3579.6,4306.4,3586.3,4299.5,3594.8,4299.5z"/>
					</g>
				</g>
			</g>
		</g>
		<g>
			<g>
				<g>
					<g>
						<path class="st14" d="M3831.7,4327.9c-0.8,0-1.6-0.4-2-1.1l-6.7-8.9c-0.8-1.2-0.7-2.8,0.5-3.6c1.2-0.8,2.8-0.7,3.6,0.5
							l4.4,5.8l11-17.8c0.8-1.2,2.4-1.6,3.6-0.8c1.2,0.8,1.6,2.4,0.8,3.6l-13.1,21C3833.4,4327.4,3832.6,4327.9,3831.7,4327.9
							L3831.7,4327.9z"/>
					</g>
				</g>
			</g>
		</g>
		<g>
			<g>
				<g>
					<path class="st15" d="M4086.6,4323.9l-7.9-9.2l7.9-9.2c1.3-1.3,1.3-3.5,0-5c-1.3-1.3-3.5-1.3-5,0l-7.7,8.8l-7.7-8.8
						c-1.3-1.3-3.5-1.3-5,0c-1.3,1.3-1.3,3.5,0,5l7.9,9.2l-7.9,9.2c-1.3,1.3-1.3,3.5,0,5c1.3,1.3,3.5,1.3,5,0l7.7-8.8l7.7,8.8
						c1.3,1.3,3.6,1.3,5,0S4088,4325.3,4086.6,4323.9z"/>
				</g>
			</g>
		</g>
		<g>
			<g>
				<path class="st5" d="M4299.9,4323.1h-2.7c-1.5,0-2.7,1.2-2.7,2.7s1.2,2.7,2.7,2.7h2.7c1.5,0,2.7-1.2,2.7-2.7
					C4302.8,4324.3,4301.5,4323.1,4299.9,4323.1z M4299.9,4312.1h-2.7c-1.5,0-2.7,1.2-2.7,2.7s1.2,2.7,2.7,2.7h2.7
					c1.5,0,2.7-1.2,2.7-2.7C4302.8,4313.3,4301.5,4312.1,4299.9,4312.1z M4299.9,4301h-2.7c-1.5,0-2.7,1.2-2.7,2.7s1.2,2.7,2.7,2.7
					h2.7c1.5,0,2.7-1.2,2.7-2.7C4302.8,4302.2,4301.5,4301,4299.9,4301z M4311,4306.5h19.3c1.5,0,2.7-1.2,2.7-2.7s-1.2-2.7-2.7-2.7
					H4311c-1.5,0-2.7,1.2-2.7,2.7C4308.3,4305.2,4309.5,4306.5,4311,4306.5z M4330.4,4312.1H4311c-1.5,0-2.7,1.2-2.7,2.7
					s1.2,2.7,2.7,2.7h19.3c1.5,0,2.7-1.2,2.7-2.7C4333.1,4313.3,4331.9,4312.1,4330.4,4312.1z M4330.4,4323.1H4311
					c-1.5,0-2.7,1.2-2.7,2.7s1.2,2.7,2.7,2.7h19.3c1.5,0,2.7-1.2,2.7-2.7C4333.1,4324.3,4331.9,4323.1,4330.4,4323.1z"/>
			</g>
		</g>
	</g>
</g>
</svg>
