<?xml version="1.0" encoding="utf-8"?>
<!-- Generator: Adobe Illustrator 19.1.0, SVG Export Plug-In . SVG Version: 6.00 Build 0)  -->
<svg version="1.1" id="Layer_1" xmlns="http://www.w3.org/2000/svg" xmlns:xlink="http://www.w3.org/1999/xlink" x="0px" y="0px"
	 width="502.3px" height="551.6px" viewBox="-519.3 510.8 502.3 551.6" style="enable-background:new -519.3 510.8 502.3 551.6;"
	 xml:space="preserve">
<defs>
	<style type="text/css">@import url('https://fonts.googleapis.com/css?family=Lato');</style>
</defs>
<line style="fill:none;stroke:#4F5858;stroke-miterlimit:10;" x1="-384.8" y1="843.3" x2="-116.8" y2="843.3"/>
<rect x="-217.3" y="885.5" style="fill:#FFFFFF;stroke:#4F5858;stroke-miterlimit:10;" width="199.8" height="37.3"/>
<g>
	<g>
		<line style="fill:none;stroke:#4F5858;stroke-miterlimit:10;" x1="-385.4" y1="842.8" x2="-385.4" y2="961.8"/>
		<g>
			<polygon style="fill:#4F5858;" points="-386.9,959.7 -385.4,961.4 -383.9,959.7 -383.9,961.1 -385.4,962.8 -386.9,961.1 			"/>
		</g>
	</g>
</g>
<rect x="-485.3" y="885.5" style="fill:#FFFFFF;stroke:#4F5858;stroke-miterlimit:10;" width="199.8" height="37.3"/>
<g id="arrow">
	<g>
		<line style="fill:none;stroke:#4F5858;stroke-miterlimit:10;" x1="-250.8" y1="609.8" x2="-250.8" y2="820.8"/>
		<g>
			<polygon style="fill:#4F5858;" points="-252.3,818.7 -250.8,820.4 -249.3,818.7 -249.3,820.1 -250.8,821.8 -252.3,820.1 			"/>
		</g>
	</g>
</g>
<g>
	<g>
		<path id="XMLID_5_" style="fill:#4F5858;" d="M-257.7,570.2c-0.8-1.8,0-3.9,1.8-4.7l0,0c1.8-0.8,3.9,0,4.7,1.8l0,0l0,0l0,0
			c0.8,1.8,0,3.9-1.8,4.7l0,0c-0.1,0.1-0.3,0.1-0.4,0.2l0,0C-255.1,572.7-257,571.9-257.7,570.2z M-263.3,560.3L-263.3,560.3
			c-1.1-1.6-0.7-3.9,1-5l0,0c1.6-1.1,3.9-0.7,5,1l0,0c1.1,1.6,0.7,3.9-1,5l0,0c-0.3,0.2-0.6,0.4-0.9,0.5l0,0
			C-260.7,562.2-262.4,561.7-263.3,560.3z M-270.4,551.5L-270.4,551.5c-1.4-1.4-1.3-3.7,0.1-5.1l0,0c1.4-1.4,3.7-1.3,5.1,0.1l0,0
			l0,0l0,0c1.4,1.4,1.3,3.7-0.1,5.1l0,0c-0.4,0.4-0.9,0.7-1.4,0.8l0,0C-268,552.8-269.4,552.5-270.4,551.5z M-278.9,544L-278.9,544
			c-1.6-1.2-1.9-3.4-0.7-5l0,0c1.2-1.6,3.4-1.9,5-0.7l0,0c1.6,1.2,1.9,3.4,0.7,5l0,0c-0.5,0.6-1.1,1.1-1.8,1.3l0,0
			C-276.8,544.9-277.9,544.7-278.9,544z M-288.5,538c-1.8-0.9-2.5-3.1-1.6-4.8l0,0c0.9-1.8,3.1-2.5,4.8-1.6l0,0
			c1.8,0.9,2.5,3.1,1.6,4.8l0,0c-0.5,0.9-1.2,1.5-2.1,1.8l0,0C-286.7,538.5-287.6,538.5-288.5,538z M-299,533.7
			c-1.9-0.6-2.9-2.6-2.4-4.5l0,0c0.6-1.9,2.6-2.9,4.5-2.4l0,0c1.9,0.6,2.9,2.6,2.3,4.5l0,0c-0.4,1.2-1.3,2-2.4,2.3l0,0
			C-297.5,533.9-298.3,533.9-299,533.7z M-310.1,531.2c-2-0.3-3.3-2.1-3.1-4l0,0c0.3-2,2.1-3.3,4-3.1l0,0l0,0l0,0
			c2,0.3,3.3,2.1,3.1,4l0,0c-0.2,1.4-1.2,2.5-2.5,2.9l0,0C-309,531.2-309.5,531.3-310.1,531.2z M-253,580.3
			c-1.8-0.9-2.4-3.1-1.5-4.9l0,0l0,0l0,0c0.9-1.7,3.1-2.4,4.9-1.5l0,0c1.7,0.9,2.4,3.1,1.5,4.8l0,0c-0.5,0.9-1.2,1.5-2.1,1.7l0,0
			C-251.1,580.8-252.1,580.7-253,580.3z M-247,569.9c-1.6-1.2-1.9-3.5-0.7-5l0,0c1.2-1.6,3.5-1.9,5-0.7l0,0c1.6,1.2,1.9,3.5,0.7,5
			l0,0c-0.5,0.6-1.1,1-1.8,1.2l0,0C-244.8,570.8-246.1,570.6-247,569.9z M-239.4,560.7c-1.4-1.5-1.3-3.7,0.2-5.1l0,0
			c1.4-1.4,3.7-1.3,5.1,0.2l0,0c1.3,1.5,1.3,3.7-0.2,5.1l0,0c-0.4,0.4-0.9,0.6-1.4,0.8l0,0C-237,562-238.4,561.7-239.4,560.7z
			 M-230.4,552.8c-1.1-1.6-0.6-3.9,1-5l0,0l0,0l0,0c1.6-1.1,3.9-0.6,5,1l0,0c1.1,1.6,0.6,3.9-1,5l0,0c-0.3,0.2-0.6,0.3-0.9,0.4l0,0
			C-227.8,554.8-229.5,554.2-230.4,552.8z"/>
		
			<line id="XMLID_2_" style="fill:none;stroke:#DD4F2F;stroke-width:4.9768;stroke-miterlimit:10;" x1="-277" y1="583" x2="-227.7" y2="583"/>
	</g>
	<g id="closed-email_2_">
		<g>
			<path style="fill:#E15829;stroke:#FFFFFF;stroke-width:0.3844;stroke-miterlimit:10;" d="M-188.5,538.1c0.1-0.2,0.2-0.4,0.2-0.6
				s-0.1-0.4-0.3-0.6l-32.1-25.7c-0.4-0.3-0.9-0.2-1.2,0.1l-14.6,18.2c-0.3,0.3-0.2,0.8,0.1,1.1l23.4,3.6h0.1v0.1l8.6,22.1
				c0.4,0.2,0.8,0.2,1.1-0.2L-188.5,538.1L-188.5,538.1z"/>
		</g>
		<g>
			<path style="fill:#E15829;stroke:#FFFFFF;stroke-width:0.3844;stroke-miterlimit:10;" d="M-236.6,529.7c-0.1,0.2-0.2,0.4-0.2,0.6
				s0.1,0.4,0.3,0.6l32.1,25.8c0.4,0.3,0.9,0.2,1.2-0.1l14.6-18.2c0.3-0.3,0.2-0.8-0.1-1.1l-23.4-3.6h-0.1v-0.1l-8.6-22.1
				c-0.4-0.2-0.8-0.2-1.1,0.2C-222,511.4-236.6,529.7-236.6,529.7z"/>
		</g>
	</g>
</g>
<text transform="matrix(1 0 0 1 -316.2082 604.5537)" style="fill:#4F5858; font-family:'Lato'; font-size:18px;">Bounce received</text>
<rect x="-395.3" y="746" style="fill:#FFFFFF;stroke:#4F5858;stroke-width:1.0406;stroke-linejoin:round;stroke-miterlimit:10;" width="289" height="43.1"/>
<g>
	<g>
		<path id="XMLID_3_" style="fill:#4F5858;" d="M-366.1,774.1c-0.3-0.6,0-1.3,0.6-1.5l0,0c0.6-0.3,1.3,0,1.5,0.6l0,0l0,0l0,0
			c0.3,0.6,0,1.3-0.6,1.5l0,0h-0.1l0,0C-365.3,774.9-365.9,774.6-366.1,774.1z M-367.9,770.9L-367.9,770.9c-0.4-0.5-0.2-1.3,0.3-1.6
			l0,0c0.5-0.4,1.3-0.2,1.6,0.3l0,0c0.4,0.5,0.2,1.3-0.3,1.6l0,0c-0.1,0.1-0.2,0.1-0.3,0.1l0,0
			C-367.1,771.5-367.6,771.3-367.9,770.9z M-370.2,768L-370.2,768c-0.4-0.5-0.4-1.2,0-1.6l0,0c0.5-0.4,1.2-0.4,1.6,0l0,0l0,0l0,0
			c0.4,0.5,0.4,1.2,0,1.6l0,0c-0.1,0.1-0.3,0.2-0.5,0.3l0,0C-369.5,768.4-369.9,768.3-370.2,768z M-373,765.6L-373,765.6
			c-0.5-0.4-0.6-1.1-0.2-1.6l0,0c0.4-0.5,1.1-0.6,1.6-0.2l0,0c0.5,0.4,0.6,1.1,0.2,1.6l0,0c-0.1,0.2-0.4,0.3-0.6,0.4l0,0
			C-372.3,765.9-372.7,765.8-373,765.6z M-376.1,763.6c-0.6-0.3-0.8-1-0.5-1.6l0,0c0.3-0.6,1-0.8,1.6-0.5l0,0c0.6,0.3,0.8,1,0.5,1.6
			l0,0c-0.1,0.3-0.4,0.5-0.7,0.6l0,0C-375.5,763.8-375.9,763.8-376.1,763.6z M-379.5,762.2c-0.6-0.2-1-0.8-0.8-1.5l0,0
			c0.2-0.6,0.9-1,1.5-0.8l0,0c0.6,0.2,1,0.9,0.8,1.5l0,0c-0.1,0.4-0.4,0.7-0.8,0.8l0,0C-379.1,762.3-379.3,762.3-379.5,762.2z
			 M-383.1,761.4c-0.6-0.1-1.1-0.7-1-1.3l0,0c0.1-0.6,0.7-1.1,1.3-1l0,0l0,0l0,0c0.6,0.1,1.1,0.7,1,1.3l0,0c-0.1,0.5-0.4,0.8-0.8,1
			l0,0C-382.8,761.4-383,761.4-383.1,761.4z M-364.6,777.3c-0.6-0.3-0.8-1-0.5-1.6l0,0l0,0l0,0c0.3-0.6,1-0.8,1.6-0.5l0,0
			c0.6,0.3,0.8,1,0.5,1.6l0,0c-0.1,0.3-0.4,0.5-0.7,0.6l0,0C-364,777.5-364.3,777.5-364.6,777.3z M-362.7,774
			c-0.5-0.4-0.6-1.1-0.2-1.6l0,0c0.4-0.5,1.1-0.6,1.6-0.2l0,0c0.5,0.4,0.6,1.1,0.2,1.6l0,0c-0.2,0.2-0.4,0.3-0.6,0.4l0,0
			C-361.9,774.3-362.3,774.2-362.7,774z M-360.2,771c-0.4-0.5-0.4-1.2,0.1-1.6l0,0c0.5-0.4,1.2-0.4,1.6,0.1l0,0
			c0.4,0.5,0.4,1.2-0.1,1.6l0,0c-0.1,0.1-0.3,0.2-0.4,0.3l0,0C-359.4,771.4-359.9,771.3-360.2,771z M-357.3,768.4
			c-0.3-0.5-0.2-1.3,0.3-1.6l0,0l0,0l0,0c0.5-0.4,1.3-0.2,1.6,0.3l0,0c0.4,0.5,0.2,1.3-0.3,1.6l0,0c-0.1,0.1-0.2,0.1-0.3,0.1l0,0
			C-356.4,769.1-357,768.9-357.3,768.4z"/>
		
			<line id="XMLID_1_" style="fill:none;stroke:#DD4F2F;stroke-width:1.6167;stroke-miterlimit:10;" x1="-372.4" y1="778.2" x2="-356.4" y2="778.2"/>
	</g>
	<g id="closed-email_1_">
		<g>
			<path style="fill:#E15829;stroke:#FFFFFF;stroke-width:0.1249;stroke-miterlimit:10;" d="M-343.6,763.7c0-0.1,0.1-0.1,0.1-0.2
				c0-0.1,0-0.1-0.1-0.2l-10.4-8.4c-0.1-0.1-0.3-0.1-0.4,0l-4.8,5.9c-0.1,0.1-0.1,0.3,0,0.4l7.6,1.2l0,0l0,0l2.8,7.2
				c0.1,0.1,0.3,0.1,0.4-0.1L-343.6,763.7L-343.6,763.7z"/>
		</g>
		<g>
			<path style="fill:#E15829;stroke:#FFFFFF;stroke-width:0.1249;stroke-miterlimit:10;" d="M-359.3,760.9c0,0.1-0.1,0.1-0.1,0.2
				c0,0.1,0,0.1,0.1,0.2l10.4,8.4c0.1,0.1,0.3,0.1,0.4,0l4.8-5.9c0.1-0.1,0.1-0.3,0-0.4l-7.6-1.2l0,0l0,0l-2.8-7.2
				c-0.1-0.1-0.3-0.1-0.4,0.1C-354.5,755-359.3,760.9-359.3,760.9z"/>
		</g>
	</g>
</g>
<rect x="-395.3" y="645.3" style="fill:#FFFFFF;stroke:#4F5858;stroke-width:1.0406;stroke-linejoin:round;stroke-miterlimit:10;" width="289" height="43.1"/>
<rect x="-395.3" y="695.9" style="fill:#FFFFFF;stroke:#4F5858;stroke-width:1.0406;stroke-linejoin:round;stroke-miterlimit:10;" width="289" height="43.1"/>
<text transform="matrix(1 0 0 1 -332.4698 671.5682)" style="fill:#4F5858; font-family:'Lato'; font-size:16px;">Logged in bounce log file</text>
<text transform="matrix(1 0 0 1 -332.4698 715.1163)" style="fill:#4F5858; font-family:'Lato'; font-size:16px;">Feedback for bounce event</text>
<text transform="matrix(1 0 0 1 -332.4699 764.2626)" style="fill:#4F5858; font-family:'Lato'; font-size:15px;">Forward bounce to the envelope</text>
<g>
	<g id="document_2_">
		<g>
			<g>
				<g>
					<path style="fill:#4F5858;" d="M-357.6,677.9h-18.5v-22h13.1l5.4,5.2V677.9z M-374.8,676.6h15.8v-15l-4.7-4.5h-11.2
						L-374.8,676.6L-374.8,676.6z"/>
				</g>
				<g>
					<path style="fill:#4F5858;" d="M-358.3,662h-5.1c-0.4,0-0.7-0.3-0.7-0.6v-4.9c0-0.3,0.2-0.5,0.4-0.6c0.3-0.1,0.5,0,0.7,0.1
						l5.1,4.9c0.2,0.2,0.2,0.4,0.1,0.7C-357.8,661.8-358,662-358.3,662z M-362.7,660.7h2.8l-2.8-2.7V660.7z"/>
				</g>
				<g>
					<path id="line1" style="fill:#4F5858;opacity:0;" d="M-361.6,669.8H-372c-0.4,0-0.7-0.3-0.7-0.6s0.3-0.6,0.7-0.6h10.4
						c0.4,0,0.7,0.3,0.7,0.6C-361,669.5-361.3,669.8-361.6,669.8z"/>
				</g>
				<g>
					<path id="line2" style="fill:#4F5858;opacity:0;" d="M-361.6,673.2H-372c-0.4,0-0.7-0.3-0.7-0.6c0-0.3,0.3-0.6,0.7-0.6
						h10.4c0.4,0,0.7,0.3,0.7,0.6C-361,672.9-361.3,673.2-361.6,673.2z"/>
				</g>
			</g>
		</g>
	</g>
</g>
<g>
	<path style="fill:#4F5858;" d="M-351.5,720c-0.1-0.8-1.4-1.5-3.5-1.8c0-0.4,0-0.8,0-1.3c-0.6-4.9-5.7-13.9-10.6-13.3
		c-4.9,0.6-7.7,10.5-7.2,15.4c0,0.4,0.1,0.7,0.2,1.1c-2.3,0.9-3.7,1.9-3.5,2.8c0.2,1.8,5.9,2.6,12.7,1.8c0.1,0,0.2,0,0.3,0
		c0,0,0,0,0.1,0h0.1C-356.4,723.8-351.3,721.8-351.5,720z"/>
	<path id="bell" style="fill:#E15829;stroke:#FFFFFF;stroke-width:0.1249;stroke-miterlimit:10;" d="M-364,725.7
		c-1.9,0.2-3.6,0.3-5.2,0.3c0,0.1,0,0.2,0,0.3c0.2,1.8,1.8,3,3.6,2.8c1.8-0.2,3-1.8,2.8-3.6l0,0C-363.1,725.6-363.6,725.6-364,725.7
		z"/>
</g>
<rect x="-313.1" y="826.8" style="fill:#FFFFFF;stroke:#E15829;stroke-width:1.105;stroke-miterlimit:10;" width="124.7" height="33"/>
<line style="fill:none;stroke:#4F5858;stroke-miterlimit:10;" x1="-117.4" y1="842.8" x2="-117.4" y2="885.8"/>
<text transform="matrix(1 0 0 1 -459.0034 909.8024)" style="fill:#4F5858; font-family:'Lato'; font-size:16px;">Recognized as failure</text>
<text transform="matrix(1 0 0 1 -170.8074 909.8022)" style="fill:#4F5858; font-family:'Lato'; font-size:16px;">Not recognized</text>
<rect x="-518.8" y="970.7" style="fill:#FFFFFF;stroke:#4F5858;stroke-linejoin:round;stroke-miterlimit:10;" width="266.9" height="43.1"/>
<text transform="matrix(1 0 0 1 -465.5687 997.5705)" style="fill:#4F5858; font-family:'Lato'; font-size:16px;">Logged in failure log files</text>
<g>
	<g id="document_1_">
		<g>
			<g>
				<g>
					<path style="fill:#4F5858;" d="M-484,1003.3h-18.6v-22h13.1l5.4,5.2L-484,1003.3L-484,1003.3z M-501.2,1002h15.8v-15l-4.7-4.5
						h-11.1V1002L-501.2,1002z"/>
				</g>
				<g>
					<path style="fill:#4F5858;" d="M-484.7,987.4h-5.1c-0.4,0-0.7-0.3-0.7-0.6v-4.9c0-0.3,0.2-0.5,0.4-0.6c0.3-0.1,0.5,0,0.7,0.1
						l5.1,4.9c0.2,0.2,0.2,0.4,0.1,0.7C-484.2,987.2-484.4,987.4-484.7,987.4z M-489.1,986.1h2.8l-2.8-2.7V986.1z"/>
				</g>
				<g>
					<path id="line3" style="fill:#4F5858;opacity:0;" d="M-488.1,995.2h-10.4c-0.4,0-0.7-0.3-0.7-0.6s0.3-0.6,0.7-0.6h10.4
						c0.4,0,0.7,0.3,0.7,0.6C-487.4,994.9-487.7,995.2-488.1,995.2z"/>
				</g>
				<g>
					<path id="line4" style="fill:#4F5858;opacity:0;" d="M-488.1,998.6h-10.4c-0.4,0-0.7-0.3-0.7-0.6s0.3-0.6,0.7-0.6h10.4
						c0.4,0,0.7,0.3,0.7,0.6C-487.4,998.3-487.7,998.6-488.1,998.6z"/>
				</g>
			</g>
		</g>
	</g>
	<path style="fill:#E15829;stroke:#FFFFFF;stroke-width:0.3163;stroke-miterlimit:10;" d="M-492,988l-1.4,1.5l-1.5-1.4
		c-0.3-0.3-0.7-0.3-1,0s-0.3,0.7,0,1l1.5,1.4l-1.4,1.5c-0.3,0.3-0.3,0.7,0,1s0.7,0.3,1,0l1.4-1.5l1.5,1.4c0.3,0.3,0.7,0.3,1,0
		s0.3-0.7,0-1l-1.5-1.4l1.4-1.5c0.3-0.3,0.3-0.7,0-1C-491.2,987.7-491.7,987.7-492,988z"/>
</g>
<g>
	<path id="XMLID_6_" style="fill:#DD4F2F;" d="M-368.3,665.8c-0.1-0.2,0-0.4,0.2-0.5l0,0c0.2-0.1,0.4,0,0.5,0.2l0,0l0,0l0,0
		c0.1,0.2,0,0.4-0.2,0.5l0,0l0,0l0,0C-368,666-368.2,666-368.3,665.8z M-368.8,664.8L-368.8,664.8c-0.1-0.2-0.1-0.4,0.1-0.5l0,0
		c0.2-0.1,0.4-0.1,0.5,0.1l0,0c0.1,0.2,0.1,0.4-0.1,0.5l0,0h-0.1l0,0C-368.6,665-368.7,664.9-368.8,664.8z M-369.5,663.9
		L-369.5,663.9c-0.1-0.1-0.1-0.4,0-0.5l0,0c0.1-0.1,0.4-0.1,0.5,0l0,0l0,0l0,0c0.1,0.1,0.1,0.4,0,0.5l0,0l-0.1,0.1l0,0
		C-369.3,664-369.4,664-369.5,663.9z M-370.4,663.2L-370.4,663.2c-0.2-0.1-0.2-0.3-0.1-0.5l0,0c0.1-0.2,0.3-0.2,0.5-0.1l0,0
		c0.2,0.1,0.2,0.3,0.1,0.5l0,0c0,0.1-0.1,0.1-0.2,0.1l0,0C-370.2,663.2-370.3,663.2-370.4,663.2z M-371.4,662.6
		c-0.2-0.1-0.2-0.3-0.2-0.5l0,0c0.1-0.2,0.3-0.2,0.5-0.2l0,0c0.2,0.1,0.2,0.3,0.2,0.5l0,0c0,0.1-0.1,0.2-0.2,0.2l0,0
		C-371.2,662.6-371.3,662.6-371.4,662.6z M-367.8,666.8c-0.2-0.1-0.2-0.3-0.2-0.5l0,0l0,0l0,0c0.1-0.2,0.3-0.2,0.5-0.2l0,0
		c0.2,0.1,0.2,0.3,0.1,0.5l0,0c0,0.1-0.1,0.1-0.2,0.2l0,0C-367.6,666.9-367.7,666.9-367.8,666.8z M-367.2,665.8
		c-0.2-0.1-0.2-0.3-0.1-0.5l0,0c0.1-0.2,0.3-0.2,0.5-0.1l0,0c0.2,0.1,0.2,0.3,0.1,0.5l0,0c0,0.1-0.1,0.1-0.2,0.1l0,0
		C-367,665.9-367.1,665.8-367.2,665.8z M-366.4,664.8c-0.1-0.1-0.1-0.4,0-0.5l0,0c0.1-0.1,0.4-0.1,0.5,0l0,0c0.1,0.1,0.1,0.4,0,0.5
		l0,0l-0.1,0.1l0,0C-366.2,665-366.3,664.9-366.4,664.8z M-365.7,663.8c-0.2-0.4-0.1-0.9,0.2-1.1l0,0l0,0l0,0
		c0.4-0.2,0.9-0.1,1.1,0.2l0,0c0.2,0.4,0.1,0.9-0.2,1.1l0,0c-0.1,0-0.1,0.1-0.2,0.1l0,0C-365.1,664.2-365.5,664.1-365.7,663.8z"/>
	
		<line id="XMLID_4_" style="fill:none;stroke:#DD4F2F;stroke-width:0.5014;stroke-miterlimit:10;" x1="-370.2" y1="667.1" x2="-365.2" y2="667.1"/>
</g>
<rect x="-518.8" y="1018.8" style="fill:#FFFFFF;stroke:#4F5858;stroke-linejoin:round;stroke-miterlimit:10;" width="266.9" height="43.1"/>
<g>
	<path style="fill:#4F5858;" d="M-481,1044c-0.1-0.8-1.4-1.5-3.5-1.8c0-0.4,0-0.8,0-1.3c-0.6-4.9-5.7-13.9-10.6-13.3
		c-4.9,0.6-7.7,10.5-7.2,15.4c0,0.4,0.1,0.7,0.2,1.1c-2.3,0.9-3.7,1.9-3.5,2.8c0.2,1.8,5.9,2.6,12.7,1.8c0.1,0,0.2,0,0.3,0
		c0,0,0,0,0.1,0h0.1C-485.9,1047.8-480.8,1045.7-481,1044z"/>
	<path id="bell2" style="fill:#E15829;stroke:#FFFFFF;stroke-width:0.1249;stroke-miterlimit:10;" d="M-493.5,1049.6
		c-1.9,0.2-3.6,0.3-5.2,0.3c0,0.1,0,0.2,0,0.3c0.2,1.8,1.8,3,3.6,2.8c1.8-0.2,3-1.8,2.8-3.6l0,0
		C-492.7,1049.5-493.1,1049.6-493.5,1049.6z"/>
</g>
<text transform="matrix(1 0 0 1 -465.0495 1036.9279)" style="fill:#4F5858; font-family:'Lato'; font-size:16px;">Trigger failure feedback loop</text>
<text transform="matrix(1 0 0 1 -465.0495 1053.7279)" style="fill:#4F5858; font-family:'Lato'; font-size:14px;">(if it is configured)</text>
<text transform="matrix(1 0 0 1 -303.8732 848.6102)" style="fill:#4F5858; font-family:'Lato'; font-size:18px;">Parse bounce</text>
<text transform="matrix(1 0 0 1 -332.4697 779.4065)" style="fill:#4F5858; font-family:'Lato'; font-size:14px;">(if it is configured)</text>
<text transform="matrix(1 0 0 1 -332.4698 731.0731)" style="fill:#4F5858; font-family:'Lato'; font-size:14px;">(if it is configured)</text>
<script xlink:href="https://cdnjs.cloudflare.com/ajax/libs/snap.svg/0.4.1/snap.svg-min.js"></script>
<script>
 	var moveRight = new Snap.Matrix();
 	moveRight.translate(8, 0);

 	var moveLeft = new Snap.Matrix();
 	moveLeft.translate(-2, 0);

 	Snap('#line1').animate({opacity: 1}, 800, function() {
		Snap('#line2').animate({opacity: 1}, 800, function() {
			Snap('#bell').animate({transform: moveRight}, 500, function() {
				Snap('#bell').animate({transform: moveLeft}, 500, function() {
					Snap('#line3').animate({opacity: 1}, 800, function() {
						Snap('#line4').animate({opacity: 1}, 800, function() {
							Snap('#bell2').animate({transform: moveRight}, 500, function() {
								Snap('#bell2').animate({transform: moveLeft}, 500);
							});
						});
					});
				});
			});
		});
	});

</script>
</svg>
