<?xml version="1.0" encoding="utf-8"?>
<!-- Generator: Adobe Illustrator 19.1.0, SVG Export Plug-In . SVG Version: 6.00 Build 0)  -->
<svg version="1.1" id="Layer_1" xmlns="http://www.w3.org/2000/svg" xmlns:xlink="http://www.w3.org/1999/xlink" x="0px" y="0px"
	 width="733px" height="813px" viewBox="-89.3 318.7 733 813" style="enable-background:new -89.3 318.7 733 813;"
	 xml:space="preserve">
<defs>
	<style type="text/css">@import url('https://fonts.googleapis.com/css?family=Lato');</style>
</defs>
<line style="fill:none;stroke:#4F5858;stroke-width:0.9129;stroke-miterlimit:10;" x1="19.7" y1="719.5" x2="19.7" y2="831.5"/>
<rect x="-41" y="759" style="fill:#FFFFFF;stroke:#296D0D;stroke-width:0.9078;stroke-linecap:round;stroke-linejoin:round;stroke-miterlimit:10;" width="122" height="34"/>
<g id="arrow">
	<g>
		<line style="fill:none;stroke:#4F5858;stroke-miterlimit:10;" x1="264.7" y1="375" x2="264.7" y2="432"/>
		<g>
			<polygon style="fill:#4F5858;" points="263.2,430.3 264.7,432 266.2,430.3 266.2,431.8 264.7,433.5 263.2,431.8 			"/>
		</g>
	</g>
</g>
<line id="arrow_1_" style="fill:none;stroke:#4F5858;stroke-miterlimit:10;" x1="264.7" y1="548" x2="264.7" y2="719"/>
<rect x="127.7" y="600" style="fill:#FFFFFF;stroke:#4F5858;stroke-linejoin:round;stroke-miterlimit:10;" width="273.5" height="63"/>
<g id="servers">
	<polygon style="fill:none;stroke:#4F5858;stroke-width:3;stroke-miterlimit:10;" points="240.5,478.9 240.5,490.1 238.2,490.1 
		240.5,490.1 240.5,501.4 240.5,490.1 242.7,490.1 240.5,490.1 	"/>
	<polygon style="fill:none;stroke:#4F5858;stroke-width:3;stroke-miterlimit:10;" points="288.6,478.9 288.6,490.1 286.4,490.1 
		288.6,490.1 288.6,501.4 288.6,490.1 290.9,490.1 288.6,490.1 	"/>
	<g>
		<g>
			<g>
				<g>
					<g>
						<defs>
							<rect id="SVGID_1_" x="204.8" y="462.1" width="119.4" height="86.2"/>
						</defs>
						<clipPath id="SVGID_2_">
							<use xlink:href="#SVGID_1_"  style="overflow:visible;"/>
						</clipPath>
						<path style="clip-path:url(#SVGID_2_);fill:#4F5858;" d="M208.5,494.9c0,0-3.6,0-3.6,3.6v18.1c0,0,0,3.6,3.6,3.6h112.2
							c0,0,3.6,0,3.6-3.6v-18.1c0,0,0-3.6-3.6-3.6H208.5z"/>
					</g>
				</g>
			</g>
		</g>
		<g>
			<g>
				<g>
					<g>
						<defs>
							<rect id="SVGID_3_" x="204.8" y="462.1" width="119.4" height="86.2"/>
						</defs>
						<clipPath id="SVGID_4_">
							<use xlink:href="#SVGID_3_"  style="overflow:visible;"/>
						</clipPath>
						<path id="lamp1" style="clip-path:url(#SVGID_4_);fill:#E15829;" d="M295.8,510.8c1.8,0,3.3-1.5,3.3-3.3s-1.5-3.3-3.3-3.3
							s-3.3,1.5-3.3,3.3C292.5,509.4,293.9,510.8,295.8,510.8"/>
					</g>
				</g>
			</g>
		</g>
		<g>
			<g>
				<g>
					<g>
						<defs>
							<rect id="SVGID_5_" x="204.8" y="462.1" width="119.4" height="86.2"/>
						</defs>
						<clipPath id="SVGID_6_">
							<use xlink:href="#SVGID_5_"  style="overflow:visible;"/>
						</clipPath>
						<path style="clip-path:url(#SVGID_6_);fill:none;stroke:#FFFFFF;stroke-width:0.6379;" d="M295.8,510.8c1.8,0,3.3-1.5,3.3-3.3
							s-1.5-3.3-3.3-3.3s-3.3,1.5-3.3,3.3C292.5,509.4,293.9,510.8,295.8,510.8z"/>
					</g>
				</g>
			</g>
		</g>
		<g>
			<g>
				<g>
					<g>
						<defs>
							<rect id="SVGID_7_" x="204.8" y="462.1" width="119.4" height="86.2"/>
						</defs>
						<clipPath id="SVGID_8_">
							<use xlink:href="#SVGID_7_"  style="overflow:visible;"/>
						</clipPath>
						<path style="clip-path:url(#SVGID_8_);fill:#FBAD90;" d="M305.7,510.8c1.8,0,3.3-1.5,3.3-3.3s-1.5-3.3-3.3-3.3
							s-3.3,1.5-3.3,3.3C302.4,509.4,303.9,510.8,305.7,510.8"/>
					</g>
				</g>
			</g>
		</g>
		<g>
			<g>
				<g>
					<g>
						<defs>
							<rect id="SVGID_9_" x="204.8" y="462.1" width="119.4" height="86.2"/>
						</defs>
						<clipPath id="SVGID_10_">
							<use xlink:href="#SVGID_9_"  style="overflow:visible;"/>
						</clipPath>
						<path style="clip-path:url(#SVGID_10_);fill:none;stroke:#FFFFFF;stroke-width:0.6379;" d="M305.7,510.8
							c1.8,0,3.3-1.5,3.3-3.3s-1.5-3.3-3.3-3.3s-3.3,1.5-3.3,3.3C302.4,509.4,303.9,510.8,305.7,510.8z"/>
					</g>
				</g>
			</g>
		</g>
	</g>
	<line style="fill:none;stroke:#FFFFFF;stroke-width:2.5529;" x1="216.1" y1="507.6" x2="255.1" y2="507.6"/>
	<g>
		<g>
			<g>
				<g>
					<g>
						<defs>
							<rect id="SVGID_11_" x="204.8" y="462.1" width="119.4" height="86.2"/>
						</defs>
						<clipPath id="SVGID_12_">
							<use xlink:href="#SVGID_11_"  style="overflow:visible;"/>
						</clipPath>
						<path style="clip-path:url(#SVGID_12_);fill:#4F5858;" d="M208.5,523c0,0-3.6,0-3.6,3.6v18.1c0,0,0,3.6,3.6,3.6h112.2
							c0,0,3.6,0,3.6-3.6v-18.1c0,0,0-3.6-3.6-3.6H208.5L208.5,523z"/>
					</g>
				</g>
			</g>
		</g>
		<g>
			<g>
				<g>
					<g>
						<defs>
							<rect id="SVGID_13_" x="204.8" y="462.1" width="119.4" height="86.2"/>
						</defs>
						<clipPath id="SVGID_14_">
							<use xlink:href="#SVGID_13_"  style="overflow:visible;"/>
						</clipPath>
						<path id="lamp2" style="clip-path:url(#SVGID_14_);fill:#E15829;" d="M295.8,538.9c1.8,0,3.3-1.5,3.3-3.3s-1.5-3.3-3.3-3.3
							s-3.3,1.5-3.3,3.3S293.9,538.9,295.8,538.9"/>
					</g>
				</g>
			</g>
		</g>
		<g>
			<g>
				<g>
					<g>
						<defs>
							<rect id="SVGID_15_" x="204.8" y="462.1" width="119.4" height="86.2"/>
						</defs>
						<clipPath id="SVGID_16_">
							<use xlink:href="#SVGID_15_"  style="overflow:visible;"/>
						</clipPath>
						<path style="clip-path:url(#SVGID_16_);fill:none;stroke:#FFFFFF;stroke-width:0.6379;" d="M295.8,538.9
							c1.8,0,3.3-1.5,3.3-3.3s-1.5-3.3-3.3-3.3s-3.3,1.5-3.3,3.3S293.9,538.9,295.8,538.9z"/>
					</g>
				</g>
			</g>
		</g>
		<g>
			<g>
				<g>
					<g>
						<defs>
							<rect id="SVGID_17_" x="204.8" y="462.1" width="119.4" height="86.2"/>
						</defs>
						<clipPath id="SVGID_18_">
							<use xlink:href="#SVGID_17_"  style="overflow:visible;"/>
						</clipPath>
						<path style="clip-path:url(#SVGID_18_);fill:#FBAD90;" d="M305.7,538.9c1.8,0,3.3-1.5,3.3-3.3s-1.5-3.3-3.3-3.3
							s-3.3,1.5-3.3,3.3C302.4,537.4,303.9,538.9,305.7,538.9"/>
					</g>
				</g>
			</g>
		</g>
		<g>
			<g>
				<g>
					<g>
						<defs>
							<rect id="SVGID_19_" x="204.8" y="462.1" width="119.4" height="86.2"/>
						</defs>
						<clipPath id="SVGID_20_">
							<use xlink:href="#SVGID_19_"  style="overflow:visible;"/>
						</clipPath>
						<path style="clip-path:url(#SVGID_20_);fill:none;stroke:#FFFFFF;stroke-width:0.6379;" d="M305.7,538.9
							c1.8,0,3.3-1.5,3.3-3.3s-1.5-3.3-3.3-3.3s-3.3,1.5-3.3,3.3C302.4,537.4,303.9,538.9,305.7,538.9z"/>
					</g>
				</g>
			</g>
		</g>
	</g>
	<line style="fill:none;stroke:#FFFFFF;stroke-width:2.5529;" x1="216.1" y1="536.6" x2="255.1" y2="536.6"/>
</g>
<g id="logo">
	<polygon style="fill:#E15829;" points="171.1,437.4 163.4,479.1 272.7,479.1 280.4,437.4 	"/>
	<g>
		<g>
			<g>
				<g>
					<g>
						<defs>
							<rect id="SVGID_21_" x="163.3" y="437.4" width="202.4" height="41.7"/>
						</defs>
						<clipPath id="SVGID_22_">
							<use xlink:href="#SVGID_21_"  style="overflow:visible;"/>
						</clipPath>
						<path style="clip-path:url(#SVGID_22_);fill:#FFFFFF;" d="M174.9,465.4c0.9,0.4,1.9,0.6,2.8,0.9c0.9,0.2,1.9,0.4,2.8,0.4
							c0.7,0,1.5-0.1,2.1-0.3c0.6-0.2,1.2-0.4,1.7-0.7c0.5-0.4,0.8-0.7,1.1-1.3c0.3-0.5,0.4-1.1,0.4-1.7c0-0.5-0.1-0.9-0.3-1.3
							c-0.2-0.4-0.5-0.7-0.8-1c-0.4-0.3-0.7-0.6-1.2-0.8c-0.5-0.2-0.9-0.5-1.4-0.8c-1.6-0.9-2.8-1.9-3.7-2.9c-0.9-1-1.4-2.2-1.4-3.5
							s0.2-2.5,0.7-3.5s1.1-1.9,2-2.6s1.9-1.3,3.1-1.6c1.2-0.4,2.6-0.6,4.1-0.6c1.3,0,2.5,0.1,3.5,0.3c1,0.2,2,0.5,3.1,0.9
							c-0.1,0.7-0.3,1.3-0.5,2.1c-0.2,0.7-0.6,1.5-1,2.2c-0.7-0.4-1.4-0.6-2.2-0.8c-0.7-0.2-1.7-0.3-2.9-0.3c-0.4,0-0.9,0-1.4,0.1
							s-0.9,0.2-1.3,0.4c-0.4,0.2-0.7,0.5-1,0.9s-0.4,0.8-0.4,1.4c0,0.8,0.3,1.5,0.9,2c0.6,0.6,1.4,1.1,2.3,1.6
							c0.8,0.5,1.6,0.9,2.3,1.4c0.7,0.5,1.3,0.9,1.9,1.5s0.9,1.1,1.3,1.8c0.3,0.7,0.5,1.5,0.5,2.3c0,1.3-0.2,2.4-0.7,3.6
							c-0.4,1.1-1.1,2.1-2.1,3c-0.9,0.9-2.1,1.5-3.5,2c-1.5,0.5-3.2,0.7-5.1,0.7c-2.3,0-4.5-0.4-6.8-1.3c0.1-0.7,0.3-1.5,0.5-2.2
							C174.3,467,174.6,466.2,174.9,465.4"/>
					</g>
				</g>
			</g>
		</g>
		<g>
			<g>
				<g>
					<g>
						<defs>
							<rect id="SVGID_23_" x="163.3" y="437.4" width="202.4" height="41.7"/>
						</defs>
						<clipPath id="SVGID_24_">
							<use xlink:href="#SVGID_23_"  style="overflow:visible;"/>
						</clipPath>
						<path style="clip-path:url(#SVGID_24_);fill:#FFFFFF;" d="M203.5,444.5c1-0.2,2-0.3,2.9-0.3c0.5,0,0.9,0,1.3,0.1
							c0.4,0,0.8,0.1,1.3,0.2l3,14.7l8.5-14.7c0.4-0.1,0.8-0.2,1.3-0.2c0.4,0,0.9,0,1.3,0s0.8,0,1.3,0c0.4,0,0.9,0.1,1.3,0.2
							l-3.4,26.3c-1,0.2-1.9,0.2-2.7,0.2c-0.9,0-1.7-0.1-2.4-0.2l2.4-17.2l-6.9,11.7c-0.4,0-0.7,0.1-1.1,0.1s-0.7,0-1,0
							c-0.4,0-0.7,0-1,0s-0.7-0.1-1-0.2l-2.4-11.9l-3.5,17.3c-0.9,0.2-1.7,0.2-2.4,0.2c-0.7,0-1.5-0.1-2.3-0.2L203.5,444.5z"/>
					</g>
				</g>
			</g>
		</g>
		<g>
			<g>
				<g>
					<g>
						<defs>
							<rect id="SVGID_25_" x="163.3" y="437.4" width="202.4" height="41.7"/>
						</defs>
						<clipPath id="SVGID_26_">
							<use xlink:href="#SVGID_25_"  style="overflow:visible;"/>
						</clipPath>
						<path style="clip-path:url(#SVGID_26_);fill:#FFFFFF;" d="M238.8,449h-6.2c0-0.7,0.1-1.5,0.2-2.2s0.4-1.5,0.6-2.3h17.8
							c0,0.7-0.1,1.5-0.2,2.2s-0.4,1.5-0.6,2.3h-6.2l-3.8,21.8c-1,0.2-1.9,0.2-2.8,0.2s-1.7-0.1-2.6-0.2L238.8,449z"/>
					</g>
				</g>
			</g>
		</g>
		<g>
			<g>
				<g>
					<g>
						<defs>
							<rect id="SVGID_27_" x="163.3" y="437.4" width="202.4" height="41.7"/>
						</defs>
						<clipPath id="SVGID_28_">
							<use xlink:href="#SVGID_27_"  style="overflow:visible;"/>
						</clipPath>
						<path style="clip-path:url(#SVGID_28_);fill:#FFFFFF;" d="M259,444.4c0.6,0,1-0.1,1.5-0.2c0.5,0,0.9-0.1,1.4-0.1
							c0.4,0,0.9-0.1,1.3-0.1s0.9,0,1.5,0c1.1,0,2.1,0.1,3.3,0.3c1.1,0.2,2.2,0.6,3.2,1.1c0.9,0.6,1.7,1.3,2.4,2.3
							c0.6,1,0.9,2.3,0.9,3.9c0,1.5-0.3,3-0.8,4.3s-1.3,2.4-2.3,3.4c-1,0.9-2.2,1.7-3.7,2.2c-1.5,0.6-3.1,0.8-4.9,0.8
							c-0.4,0-0.7,0-0.9,0s-0.5,0-0.7,0l-1.5,8.4c-0.5,0.1-0.9,0.1-1.4,0.2c-0.4,0-0.9,0-1.3,0s-0.8,0-1.2,0c-0.4,0-0.9-0.1-1.5-0.2
							L259,444.4z M261.9,457.9c0.3,0.1,0.9,0.1,1.7,0.1c0.6,0,1.2-0.1,1.8-0.3c0.6-0.2,1.2-0.5,1.7-1s0.9-1.1,1.3-1.8
							c0.4-0.7,0.5-1.7,0.5-2.8c0-0.7-0.1-1.3-0.4-1.7c-0.2-0.5-0.6-0.8-0.9-1.1c-0.4-0.2-0.8-0.4-1.3-0.5s-0.9-0.2-1.3-0.2h-0.6
							c-0.2,0-0.4,0-0.8,0.1L261.9,457.9z"/>
					</g>
				</g>
			</g>
		</g>
		<g>
			<g>
				<g>
					<g>
						<defs>
							<rect id="SVGID_29_" x="163.3" y="437.4" width="202.4" height="41.7"/>
						</defs>
						<clipPath id="SVGID_30_">
							<use xlink:href="#SVGID_29_"  style="overflow:visible;"/>
						</clipPath>
						<polygon style="clip-path:url(#SVGID_30_);fill:#4F5858;" points="358,479.4 272.6,479.4 280.4,437.4 365.8,437.4 						"/>
					</g>
				</g>
			</g>
		</g>
		<g>
			<g>
				<g>
					<g>
						<defs>
							<rect id="SVGID_31_" x="163.3" y="437.4" width="202.4" height="41.7"/>
						</defs>
						<clipPath id="SVGID_32_">
							<use xlink:href="#SVGID_31_"  style="overflow:visible;"/>
						</clipPath>
						<path style="clip-path:url(#SVGID_32_);fill:#FFFFFF;" d="M283.5,463.4c0.2,1.2,0.6,2,1.2,2.6s1.6,0.9,2.8,0.9
							c1,0,1.9-0.1,2.6-0.3c0.7-0.2,1.5-0.5,2.4-0.8c0.4,0.5,0.7,1.1,0.8,1.8c0.1,0.7,0.2,1.4,0.2,2.2c-0.4,0.2-0.9,0.4-1.5,0.5
							c-0.6,0.2-1.1,0.3-1.7,0.4s-1.2,0.2-1.8,0.2c-0.6,0.1-1.1,0.1-1.6,0.1c-1.5,0-2.8-0.2-3.8-0.6s-1.9-0.9-2.6-1.5
							s-1.2-1.5-1.5-2.4s-0.5-2-0.5-3.2c0-1.5,0.3-3,0.7-4.4c0.5-1.5,1.2-2.7,2.2-3.9c0.9-1.1,2.1-2,3.4-2.8c1.3-0.7,2.9-1,4.5-1
							c0.8,0,1.5,0.1,2.2,0.3c0.7,0.2,1.3,0.5,1.8,0.9s0.9,0.9,1.2,1.5c0.3,0.6,0.4,1.3,0.4,2c0,1.1-0.3,2-0.7,2.8
							c-0.5,0.8-1.2,1.5-2,2s-1.8,1-2.9,1.4s-2.2,0.6-3.4,0.8L283.5,463.4z M285.6,459.7c0.9-0.2,1.7-0.4,2.3-0.6
							c0.6-0.2,1.1-0.5,1.4-0.7c0.4-0.3,0.6-0.6,0.7-0.9s0.2-0.6,0.2-0.9c0-0.5-0.2-0.8-0.5-1.1c-0.3-0.3-0.7-0.4-1.2-0.4
							c-0.6,0-1.2,0.2-1.7,0.4c-0.5,0.3-1,0.7-1.4,1.1c-0.4,0.5-0.7,1-1,1.6s-0.5,1.2-0.6,1.8L285.6,459.7z"/>
					</g>
				</g>
			</g>
		</g>
		<g>
			<g>
				<g>
					<g>
						<defs>
							<rect id="SVGID_33_" x="163.3" y="437.4" width="202.4" height="41.7"/>
						</defs>
						<clipPath id="SVGID_34_">
							<use xlink:href="#SVGID_33_"  style="overflow:visible;"/>
						</clipPath>
						<path style="clip-path:url(#SVGID_34_);fill:#FFFFFF;" d="M303.6,455.6h-2.8c0-0.7,0-1.3,0.2-1.9c0.1-0.6,0.3-1.3,0.6-2h2.8
							l0.2-1.1c0.1-0.6,0.2-1.2,0.2-1.7c0-0.6,0-1,0-1.4c0.6-0.4,1.4-0.7,2.4-0.9c1-0.2,1.8-0.3,2.6-0.3c0.1,0.4,0.2,0.8,0.2,1.4
							c0,0.4,0,0.8-0.1,1.3c-0.1,0.4-0.2,0.9-0.2,1.5l-0.2,1.2h4.5c0,0.7-0.1,1.4-0.2,2s-0.3,1.3-0.5,1.9h-4.5l-1.3,7.2
							c0,0.4-0.1,0.7-0.1,0.9c0,0.3,0,0.6,0,0.8c0,0.6,0.2,1.1,0.4,1.5c0.3,0.4,0.8,0.6,1.7,0.6c0.4,0,0.8,0,1.1-0.1
							s0.6-0.1,0.9-0.2c0.3,0.7,0.5,1.6,0.5,2.8v0.6c0,0.2,0,0.4,0,0.6c-1.1,0.3-2.3,0.5-3.8,0.5c-2,0-3.5-0.4-4.5-1.1
							s-1.5-2-1.5-3.8c0-0.4,0-0.7,0.1-1.1c0-0.4,0.1-0.8,0.2-1.3L303.6,455.6z"/>
					</g>
				</g>
			</g>
		</g>
		<g>
			<g>
				<g>
					<g>
						<defs>
							<rect id="SVGID_35_" x="163.3" y="437.4" width="202.4" height="41.7"/>
						</defs>
						<clipPath id="SVGID_36_">
							<use xlink:href="#SVGID_35_"  style="overflow:visible;"/>
						</clipPath>
						<path style="clip-path:url(#SVGID_36_);fill:#FFFFFF;" d="M323.3,463.4c0.2,1.2,0.6,2,1.2,2.6s1.6,0.9,2.8,0.9
							c1,0,1.9-0.1,2.6-0.3c0.7-0.2,1.5-0.5,2.4-0.8c0.4,0.5,0.7,1.1,0.8,1.8c0.1,0.7,0.2,1.4,0.2,2.2c-0.4,0.2-0.9,0.4-1.5,0.5
							c-0.6,0.2-1.1,0.3-1.7,0.4s-1.2,0.2-1.8,0.2c-0.6,0.1-1.1,0.1-1.6,0.1c-1.5,0-2.8-0.2-3.8-0.6s-1.9-0.9-2.6-1.5
							c-0.7-0.7-1.2-1.5-1.5-2.4s-0.5-2-0.5-3.2c0-1.5,0.3-3,0.7-4.4c0.5-1.5,1.2-2.7,2.2-3.9c1-1.2,2.1-2,3.4-2.8
							c1.3-0.7,2.9-1,4.5-1c0.8,0,1.5,0.1,2.2,0.3c0.7,0.2,1.3,0.5,1.8,0.9s0.9,0.9,1.2,1.5s0.4,1.3,0.4,2c0,1.1-0.3,2-0.7,2.8
							c-0.5,0.8-1.2,1.5-2,2c-0.9,0.6-1.8,1-2.9,1.4s-2.2,0.6-3.4,0.8L323.3,463.4z M325.4,459.7c0.9-0.2,1.7-0.4,2.3-0.6
							c0.6-0.2,1.1-0.5,1.4-0.7c0.4-0.3,0.6-0.6,0.7-0.9s0.2-0.6,0.2-0.9c0-0.5-0.2-0.8-0.5-1.1c-0.3-0.3-0.7-0.4-1.2-0.4
							c-0.6,0-1.2,0.2-1.7,0.4c-0.5,0.3-1,0.7-1.4,1.1c-0.4,0.5-0.7,1-1,1.6s-0.5,1.2-0.6,1.8L325.4,459.7z"/>
					</g>
				</g>
			</g>
		</g>
		<g>
			<g>
				<g>
					<g>
						<defs>
							<rect id="SVGID_37_" x="163.3" y="437.4" width="202.4" height="41.7"/>
						</defs>
						<clipPath id="SVGID_38_">
							<use xlink:href="#SVGID_37_"  style="overflow:visible;"/>
						</clipPath>
						<path style="clip-path:url(#SVGID_38_);fill:#FFFFFF;" d="M342.4,459.8c0.3-1.5,0.5-2.9,0.6-4.1s0.2-2.1,0.2-2.8v-0.7
							c0-0.2,0-0.4,0-0.6c0.8-0.2,1.6-0.2,2.4-0.2c0.4,0,0.7,0,1.1,0s0.7,0.1,1.2,0.2c0,0.2,0.1,0.4,0.2,0.7c0,0.3,0.1,0.7,0.1,1.2
							c0,0.2,0,0.4,0,0.7c0,0.2,0,0.5-0.1,0.8c0.2-0.4,0.6-0.9,0.9-1.3c0.4-0.4,0.8-0.8,1.2-1.1c0.4-0.4,0.9-0.6,1.5-0.8
							c0.6-0.2,1.1-0.3,1.8-0.3c0.5,0,0.9,0.1,1.3,0.2c0,0.1,0,0.2,0,0.3v0.3c0,0.7-0.1,1.4-0.2,2.1c-0.2,0.7-0.4,1.3-0.7,1.8
							c-0.2,0-0.3,0-0.5-0.1c-0.2,0-0.4,0-0.7,0c-1,0-1.8,0.2-2.5,0.5c-0.6,0.4-1.2,0.8-1.6,1.5c-0.4,0.6-0.7,1.4-1,2.2
							c-0.3,0.8-0.5,1.9-0.7,2.9l-1.3,7.3c-0.9,0.2-1.9,0.2-2.7,0.2c-0.9,0-1.7-0.1-2.5-0.2L342.4,459.8z"/>
					</g>
				</g>
			</g>
		</g>
		<g>
			<g>
				<g>
					<g>
						<defs>
							<rect id="SVGID_39_" x="163.3" y="437.4" width="202.4" height="41.7"/>
						</defs>
						<clipPath id="SVGID_40_">
							<use xlink:href="#SVGID_39_"  style="overflow:visible;"/>
						</clipPath>
						<path style="clip-path:url(#SVGID_40_);fill:#FFFFFF;" d="M174.9,464.6c0.9,0.4,1.9,0.6,2.8,0.9c0.9,0.2,1.9,0.4,2.8,0.4
							c0.7,0,1.5-0.1,2.1-0.3c0.6-0.2,1.2-0.4,1.7-0.7c0.5-0.4,0.8-0.7,1.1-1.3c0.3-0.5,0.4-1.1,0.4-1.7c0-0.5-0.1-0.9-0.3-1.3
							c-0.2-0.4-0.5-0.7-0.8-1c-0.4-0.3-0.7-0.6-1.2-0.8c-0.5-0.2-0.9-0.5-1.4-0.8c-1.6-0.9-2.8-1.9-3.7-2.9c-0.9-1-1.4-2.2-1.4-3.5
							s0.2-2.5,0.7-3.5s1.1-1.9,2-2.6s1.9-1.3,3.1-1.6c1.2-0.4,2.6-0.6,4.1-0.6c1.3,0,2.5,0.1,3.5,0.3c1,0.2,2,0.5,3.1,0.9
							c-0.1,0.7-0.3,1.3-0.5,2.1c-0.2,0.7-0.6,1.5-1,2.2c-0.7-0.4-1.4-0.6-2.2-0.8c-0.7-0.2-1.7-0.3-2.9-0.3c-0.4,0-0.9,0-1.4,0.1
							s-0.9,0.2-1.3,0.4c-0.4,0.2-0.7,0.5-1,0.9s-0.4,0.8-0.4,1.4c0,0.8,0.3,1.5,0.9,2c0.6,0.6,1.4,1.1,2.3,1.6
							c0.8,0.5,1.6,0.9,2.3,1.4s1.3,0.9,1.9,1.5s0.9,1.1,1.3,1.8c0.3,0.7,0.5,1.5,0.5,2.3c0,1.3-0.2,2.4-0.7,3.6
							c-0.4,1.1-1.1,2.1-2.1,3c-0.9,0.9-2.1,1.5-3.5,2c-1.5,0.5-3.2,0.7-5.1,0.7c-2.3,0-4.5-0.4-6.8-1.3c0.1-0.7,0.3-1.5,0.5-2.2
							C174.3,466.2,174.6,465.4,174.9,464.6"/>
					</g>
				</g>
			</g>
		</g>
		<g>
			<g>
				<g>
					<g>
						<defs>
							<rect id="SVGID_41_" x="163.3" y="437.4" width="202.4" height="41.7"/>
						</defs>
						<clipPath id="SVGID_42_">
							<use xlink:href="#SVGID_41_"  style="overflow:visible;"/>
						</clipPath>
						<path style="clip-path:url(#SVGID_42_);fill:#FFFFFF;" d="M203.5,443.7c1-0.2,2-0.3,2.9-0.3c0.5,0,0.9,0,1.3,0.1
							c0.4,0,0.8,0.1,1.3,0.2l3,14.7l8.5-14.7c0.4-0.1,0.8-0.2,1.3-0.2c0.4,0,0.9,0,1.3,0s0.8,0,1.3,0c0.4,0,0.9,0.1,1.3,0.2
							l-3.4,26.3c-1,0.2-1.9,0.2-2.7,0.2c-0.9,0-1.7-0.1-2.4-0.2l2.4-17.2l-6.9,11.7c-0.4,0-0.7,0.1-1.1,0.1s-0.7,0-1,0
							c-0.4,0-0.7,0-1,0s-0.7-0.1-1-0.2l-2.4-11.9l-3.5,17.3c-0.9,0.2-1.7,0.2-2.4,0.2c-0.7,0-1.5-0.1-2.3-0.2L203.5,443.7z"/>
					</g>
				</g>
			</g>
		</g>
		<g>
			<g>
				<g>
					<g>
						<defs>
							<rect id="SVGID_43_" x="163.3" y="437.4" width="202.4" height="41.7"/>
						</defs>
						<clipPath id="SVGID_44_">
							<use xlink:href="#SVGID_43_"  style="overflow:visible;"/>
						</clipPath>
						<path style="clip-path:url(#SVGID_44_);fill:#FFFFFF;" d="M238.8,448.2h-6.2c0-0.7,0.1-1.5,0.2-2.2s0.4-1.5,0.6-2.3h17.8
							c0,0.7-0.1,1.5-0.2,2.2s-0.4,1.5-0.6,2.3h-6.2l-3.8,21.8c-1,0.2-1.9,0.2-2.8,0.2s-1.7-0.1-2.6-0.2L238.8,448.2z"/>
					</g>
				</g>
			</g>
		</g>
		<g>
			<g>
				<g>
					<g>
						<defs>
							<rect id="SVGID_45_" x="163.3" y="437.4" width="202.4" height="41.7"/>
						</defs>
						<clipPath id="SVGID_46_">
							<use xlink:href="#SVGID_45_"  style="overflow:visible;"/>
						</clipPath>
						<path style="clip-path:url(#SVGID_46_);fill:#FFFFFF;" d="M259,443.6c0.6,0,1-0.1,1.5-0.2c0.5,0,0.9-0.1,1.4-0.1
							c0.4,0,0.9-0.1,1.3-0.1s0.9,0,1.5,0c1.1,0,2.1,0.1,3.3,0.3c1.1,0.2,2.2,0.6,3.2,1.1c0.9,0.6,1.7,1.3,2.4,2.3s0.9,2.3,0.9,3.9
							c0,1.5-0.3,3-0.8,4.3s-1.3,2.4-2.3,3.4c-1,0.9-2.2,1.7-3.7,2.2c-1.5,0.6-3.1,0.8-4.9,0.8c-0.4,0-0.7,0-0.9,0s-0.5,0-0.7,0
							l-1.5,8.4c-0.5,0.1-0.9,0.1-1.4,0.2c-0.4,0-0.9,0-1.3,0s-0.8,0-1.2,0c-0.4,0-0.9-0.1-1.5-0.2L259,443.6z M261.9,457.1
							c0.3,0.1,0.9,0.1,1.7,0.1c0.6,0,1.2-0.1,1.8-0.3c0.6-0.2,1.2-0.5,1.7-1s0.9-1.1,1.3-1.8c0.4-0.7,0.5-1.7,0.5-2.8
							c0-0.7-0.1-1.3-0.4-1.7c-0.2-0.5-0.6-0.8-0.9-1.1c-0.4-0.2-0.8-0.4-1.3-0.5s-0.9-0.2-1.3-0.2h-0.6c-0.2,0-0.4,0-0.8,0.1
							L261.9,457.1z"/>
					</g>
				</g>
			</g>
		</g>
	</g>
</g>
<g>
	<g id="document">
		<g>
			<g>
				<g>
					<path style="fill:#4F5858;" d="M189.9,647.5H163v-31.6h19l7.9,7.5V647.5z M164.9,645.7h23v-21.5l-6.8-6.4h-16.2V645.7
						L164.9,645.7z"/>
				</g>
				<g>
					<path style="fill:#4F5858;" d="M188.9,624.7h-7.3c-0.5,0-1-0.4-1-0.9v-7c0-0.4,0.2-0.7,0.6-0.8c0.4-0.1,0.8-0.1,1.1,0.2l7.3,7
						c0.3,0.3,0.4,0.6,0.2,1C189.6,624.5,189.3,624.7,188.9,624.7z M182.5,622.9h4.1l-4.1-3.9V622.9z"/>
				</g>
				<g>
					<path id="line1" style="fill:#4F5858;opacity:0;" d="M184.1,631h-15.2c-0.5,0-1-0.4-1-0.9s0.4-0.9,1-0.9h15.2
						c0.5,0,1,0.4,1,0.9S184.6,631,184.1,631z"/>
				</g>
				<g>
					<path id="line2" style="fill:#4F5858;opacity:0;" d="M184,635.9h-15.2c-0.5,0-1-0.4-1-0.9s0.4-0.9,1-0.9H184
						c0.5,0,1,0.4,1,0.9S184.5,635.9,184,635.9z"/>
				</g>
				<g>
					<path id="line3" style="fill:#4F5858;opacity:0;" d="M184,640.8h-15.2c-0.5,0-1-0.4-1-0.9s0.4-0.9,1-0.9H184
						c0.5,0,1,0.4,1,0.9S184.5,640.8,184,640.8z"/>
				</g>
			</g>
		</g>
	</g>
	<text transform="matrix(1 0 0 1 201.8911 626.8614)" style="fill:#4F5858; font-family:'Lato'; font-size:16px;">Logged in log files with </text>
	<text transform="matrix(1 0 0 1 201.8911 646.0614)" style="fill:#4F5858; font-family:'Lato'; font-size:16px;">the prefix &quot;attempts&quot;</text>
</g>
<line style="fill:none;stroke:#4F5858;stroke-width:0.9129;stroke-miterlimit:10;" x1="19.7" y1="719.5" x2="509.7" y2="719.5"/>
<g>
	<g>
		<line style="fill:none;stroke:#4F5858;stroke-miterlimit:10;" x1="509.7" y1="719" x2="509.7" y2="876"/>
		<g>
			<polygon style="fill:#4F5858;" points="508.2,874 509.7,875.6 511.2,874 511.2,875.4 509.7,877 508.2,875.4 			"/>
		</g>
	</g>
</g>
<text transform="matrix(1 0 0 1 -25.783 782.3075)" style="fill:#4F5858; font-family:'Lato'; font-size:18px;text-transform:uppercase;">Accepted</text>
<g>
	<g>
		<path style="fill:#E15829;" d="M-24.4,902L-53,884.1l-0.1-0.1l-0.1,0.1L-82,902"/>
	</g>
	<g id="letter">
		<path style="fill:#FFFFFF;stroke:#4F5858;stroke-width:0.5464;stroke-miterlimit:10;" d="M-27.7,931.4c0,0.4-0.3,0.7-0.7,0.7H-78
			c-0.4,0-0.7-0.3-0.7-0.7v-39.5c0-0.4,0.3-0.7,0.7-0.7h49.6c0.4,0,0.7,0.3,0.7,0.7L-27.7,931.4L-27.7,931.4z"/>
		<g>
			<rect x="-71.8" y="897.6" style="fill:#4F5858;" width="12.6" height="12.6"/>
			<g>
				<rect x="-57.8" y="900.6" style="fill:#4F5858;" width="23.2" height="1.3"/>
				<rect x="-57.8" y="903.3" style="fill:#4F5858;" width="19.7" height="1.3"/>
				<rect x="-57.8" y="906" style="fill:#4F5858;" width="21.8" height="1.3"/>
			</g>
		</g>
	</g>
	<g>
		<g>
			<path style="fill:#E15829;stroke:#FFFFFF;stroke-width:1.0928;stroke-miterlimit:10;" d="M-83,934c0,0.3,0.1,0.6,0.3,0.8
				c0.2,0.2,0.5,0.3,0.8,0.3h57.4c0.6,0,1.1-0.5,1.1-1.1v-31.2c0-0.6-0.5-1.1-1.1-1.1l-28.6,16.6l-0.1,0.1l-0.1-0.1L-82,901.7
				c-0.6,0-1.1,0.5-1.1,1.1C-83,902.8-83,934-83,934z"/>
		</g>
	</g>
</g>
<line style="fill:none;stroke:#4F5858;stroke-miterlimit:10;" x1="-53.3" y1="831.5" x2="93" y2="831.5"/>
<g>
	<g>
		<line style="fill:none;stroke:#4F5858;stroke-miterlimit:10;" x1="-53.8" y1="831" x2="-53.8" y2="875"/>
		<g>
			<polygon style="fill:#4F5858;" points="-55.3,872.9 -53.8,874.6 -52.3,872.9 -52.3,874.3 -53.8,876 -55.3,874.3 			"/>
		</g>
	</g>
</g>
<text transform="matrix(1 0 0 1 -89.332 966.246)" style="fill:#4F5858; font-family:'Lato'; font-size:16px;">Delivered </text>
<text transform="matrix(1 0 0 1 -82.032 985.446)" style="fill:#4F5858; font-family:'Lato'; font-size:16px;">to inbox</text>
<g>
	<g>
		<line style="fill:none;stroke:#4F5858;stroke-miterlimit:10;" x1="92.9" y1="831" x2="92.9" y2="875"/>
		<g>
			<polygon style="fill:#4F5858;" points="91.4,872.9 92.9,874.6 94.4,872.9 94.4,874.3 92.9,876 91.4,874.3 			"/>
		</g>
	</g>
</g>
<text transform="matrix(1 0 0 1 44.1139 966.2458)" style="fill:#4F5858; font-family:'Lato'; font-size:16px;">Bounced back</text>
<text transform="matrix(1 0 0 1 48.7139 985.4459)" style="fill:#4F5858; font-family:'Lato'; font-size:16px;">to SMTPeter</text>
<g id="closed-email_1_">
	<g>
		<path style="fill:#E15829;stroke:#FFFFFF;stroke-width:0.7532;stroke-miterlimit:10;" d="M307.4,320.7c0-0.4-0.2-0.8-0.5-1.1
			c-0.3-0.3-0.7-0.5-1.1-0.5h-80.6c-0.9,0-1.6,0.7-1.6,1.6v45.8c0,0.9,0.7,1.6,1.5,1.6l40.2-23.3l0.2-0.1l0.2,0.1l40.2,23.3
			c0.8-0.1,1.5-0.8,1.5-1.6L307.4,320.7L307.4,320.7z"/>
	</g>
	<g>
		<path style="fill:#E15829;stroke:#FFFFFF;stroke-width:0.7532;stroke-miterlimit:10;" d="M223.5,366.8c0,0.4,0.2,0.8,0.5,1.1
			c0.3,0.3,0.7,0.5,1.1,0.5h80.6c0.9,0,1.6-0.7,1.6-1.6v-45.7c0-0.9-0.7-1.6-1.5-1.6l-40.2,23.2l-0.2,0.1l-0.2-0.1L225,319.5
			c-0.8,0.1-1.5,0.8-1.5,1.6V366.8z"/>
	</g>
</g>
<g>
	<g>
		<path id="XMLID_5_" style="fill:#4F5858;" d="M405.3,1009.5c-0.3-0.6,0-1.3,0.6-1.5l0,0c0.6-0.3,1.3,0,1.5,0.6l0,0l0,0l0,0
			c0.3,0.6,0,1.3-0.6,1.5l0,0h-0.1l0,0C406.1,1010.3,405.5,1010,405.3,1009.5z M403.5,1006.3L403.5,1006.3c-0.4-0.5-0.2-1.3,0.3-1.6
			l0,0c0.5-0.4,1.3-0.2,1.6,0.3l0,0c0.4,0.5,0.2,1.3-0.3,1.6l0,0c-0.1,0.1-0.2,0.1-0.3,0.1l0,0
			C404.3,1006.9,403.8,1006.7,403.5,1006.3z M401.2,1003.4L401.2,1003.4c-0.4-0.5-0.4-1.2,0-1.6l0,0c0.5-0.4,1.2-0.4,1.6,0l0,0l0,0
			l0,0c0.4,0.5,0.4,1.2,0,1.6l0,0c-0.1,0.1-0.3,0.2-0.5,0.3l0,0C401.9,1003.8,401.5,1003.7,401.2,1003.4z M398.4,1001L398.4,1001
			c-0.5-0.4-0.6-1.1-0.2-1.6l0,0c0.4-0.5,1.1-0.6,1.6-0.2l0,0c0.5,0.4,0.6,1.1,0.2,1.6l0,0c-0.1,0.2-0.4,0.3-0.6,0.4l0,0
			C399.1,1001.2,398.7,1001.2,398.4,1001z M395.3,999c-0.6-0.3-0.8-1-0.5-1.6l0,0c0.3-0.6,1-0.8,1.6-0.5l0,0c0.6,0.3,0.8,1,0.5,1.6
			l0,0c-0.1,0.3-0.4,0.5-0.7,0.6l0,0C395.9,999.2,395.6,999.2,395.3,999z M391.9,997.6c-0.6-0.2-1-0.8-0.8-1.5l0,0
			c0.2-0.6,0.9-1,1.5-0.8l0,0c0.6,0.2,1,0.9,0.8,1.5l0,0c-0.1,0.4-0.4,0.7-0.8,0.8l0,0C392.3,997.7,392.1,997.7,391.9,997.6z
			 M388.3,996.8c-0.6-0.1-1.1-0.7-1-1.3l0,0c0.1-0.6,0.7-1.1,1.3-1l0,0l0,0l0,0c0.6,0.1,1.1,0.7,1,1.3l0,0c-0.1,0.5-0.4,0.8-0.8,1
			l0,0C388.6,996.8,388.4,996.8,388.3,996.8z M406.8,1012.7c-0.6-0.3-0.8-1-0.5-1.6l0,0l0,0l0,0c0.3-0.6,1-0.8,1.6-0.5l0,0
			c0.6,0.3,0.8,1,0.5,1.6l0,0c-0.1,0.3-0.4,0.5-0.7,0.6l0,0C407.4,1012.9,407.1,1012.9,406.8,1012.7z M408.8,1009.4
			c-0.5-0.4-0.6-1.1-0.2-1.6l0,0c0.4-0.5,1.1-0.6,1.6-0.2l0,0c0.5,0.4,0.6,1.1,0.2,1.6l0,0c-0.2,0.2-0.4,0.3-0.6,0.4l0,0
			C409.5,1009.7,409.1,1009.6,408.8,1009.4z M411.2,1006.4c-0.4-0.5-0.4-1.2,0.1-1.6l0,0c0.5-0.4,1.2-0.4,1.6,0.1l0,0
			c0.4,0.5,0.4,1.2-0.1,1.6l0,0c-0.1,0.1-0.3,0.2-0.4,0.3l0,0C412,1006.8,411.5,1006.7,411.2,1006.4z M414.2,1003.8
			c-0.3-0.5-0.2-1.3,0.3-1.6l0,0l0,0l0,0c0.5-0.4,1.3-0.2,1.6,0.3l0,0c0.4,0.5,0.2,1.3-0.3,1.6l0,0c-0.1,0.1-0.2,0.1-0.3,0.1l0,0
			C415,1004.5,414.5,1004.3,414.2,1003.8z"/>
		
			<line id="XMLID_2_" style="fill:none;stroke:#DD4F2F;stroke-width:1.6167;stroke-miterlimit:10;" x1="399" y1="1013.6" x2="415.1" y2="1013.6"/>
	</g>
	<g id="closed-email_2_">
		<g>
			<path style="fill:#E15829;stroke:#FFFFFF;stroke-width:0.1249;stroke-miterlimit:10;" d="M427.8,999c0-0.1,0.1-0.1,0.1-0.2
				s0-0.1-0.1-0.2l-10.4-8.4c-0.1-0.1-0.3-0.1-0.4,0l-4.8,5.9c-0.1,0.1-0.1,0.3,0,0.4l7.6,1.2l0,0l0,0l2.8,7.2
				c0.1,0.1,0.3,0.1,0.4-0.1L427.8,999L427.8,999z"/>
		</g>
		<g>
			<path style="fill:#E15829;stroke:#FFFFFF;stroke-width:0.1249;stroke-miterlimit:10;" d="M412.1,996.3c0,0.1-0.1,0.1-0.1,0.2
				c0,0.1,0,0.1,0.1,0.2l10.4,8.4c0.1,0.1,0.3,0.1,0.4,0l4.8-5.9c0.1-0.1,0.1-0.3,0-0.4l-7.6-1.2l0,0l0,0l-2.8-7.2
				c-0.1-0.1-0.3-0.1-0.4,0.1C416.9,990.4,412.1,996.3,412.1,996.3z"/>
		</g>
	</g>
</g>
<rect x="376.3" y="881.7" style="fill:#ffffff;stroke:#4F5858;stroke-width:0.9681;stroke-linejoin:round;stroke-miterlimit:10;" width="266.9" height="43.1"/>
<rect x="376.3" y="980.4" style="fill:#ffffff;stroke:#4F5858;stroke-width:0.9681;stroke-linejoin:round;stroke-miterlimit:10;" width="266.9" height="43.1"/>
<rect x="376.3" y="931.3" style="fill:#ffffff;stroke:#4F5858;stroke-width:0.9681;stroke-linejoin:round;stroke-miterlimit:10;" width="266.9" height="43.1"/>
<text transform="matrix(1 0 0 1 434.2798 908.5582)" style="fill:#4F5858; font-family:'Lato'; font-size:16px;">Logged in failure log files</text>
<text transform="matrix(1 0 0 1 434.7989 951.0978)" style="fill:#4F5858; font-family:'Lato'; font-size:16px;">Trigger failure feedback loop</text>
<text transform="matrix(1 0 0 1 434.7989 967.8978)" style="fill:#4F5858; font-family:'Lato'; font-size:14px;">(if it is configured)</text>
<text transform="matrix(1 0 0 1 434.7992 998.5224)" style="fill:#4F5858; font-family:'Lato'; font-size:16px;">Bounce back to the envelope</text>
<text transform="matrix(1 0 0 1 434.7992 1015.3224)" style="fill:#4F5858; font-family:'Lato'; font-size:14px;">(if it is configured)</text>
<g>
	<g id="document_2_">
		<g>
			<g>
				<g>
					<path style="fill:#4F5858;" d="M416.8,914.2h-18.5v-22h13.1l5.4,5.2V914.2z M399.6,913h15.8v-15l-4.7-4.5h-11.2L399.6,913
						L399.6,913z"/>
				</g>
				<g>
					<path style="fill:#4F5858;" d="M416.1,898.4H411c-0.4,0-0.7-0.3-0.7-0.6v-4.9c0-0.3,0.2-0.5,0.4-0.6c0.3-0.1,0.5,0,0.7,0.1
						l5.1,4.9c0.2,0.2,0.2,0.4,0.1,0.7C416.7,898.2,416.4,898.4,416.1,898.4z M411.8,897.1h2.8l-2.8-2.7V897.1z"/>
				</g>
				<g>
					<path id="line2-1" style="fill:#4F5858;opacity:0;" d="M412.8,906.1h-10.4c-0.4,0-0.7-0.3-0.7-0.6s0.3-0.6,0.7-0.6h10.4
						c0.4,0,0.7,0.3,0.7,0.6C413.4,905.9,413.1,906.1,412.8,906.1z"/>
				</g>
				<g>
					<path id="line2-2" style="fill:#4F5858;opacity:0;" d="M412.8,909.6h-10.4c-0.4,0-0.7-0.3-0.7-0.6s0.3-0.6,0.7-0.6h10.4
						c0.4,0,0.7,0.3,0.7,0.6C413.4,909.3,413.1,909.6,412.8,909.6z"/>
				</g>
			</g>
		</g>
	</g>
	<path style="fill:#E15829;stroke:#FFFFFF;stroke-width:0.3163;stroke-miterlimit:10;" d="M408.9,899l-1.4,1.5l-1.5-1.4
		c-0.3-0.3-0.7-0.3-1,0s-0.3,0.7,0,1l1.5,1.4l-1.4,1.5c-0.3,0.3-0.3,0.7,0,1s0.7,0.3,1,0l1.4-1.5l1.5,1.4c0.3,0.3,0.7,0.3,1,0
		s0.3-0.7,0-1l-1.5-1.4l1.4-1.5c0.3-0.3,0.3-0.7,0-1C409.6,898.7,409.2,898.7,408.9,899z"/>
</g>
<g>
	<path style="fill:#4F5858;" d="M419.8,956.4c-0.1-0.8-1.4-1.5-3.5-1.8c0-0.4,0-0.8,0-1.3c-0.6-4.9-5.7-13.9-10.6-13.3
		c-4.9,0.6-7.7,10.5-7.2,15.4c0,0.4,0.1,0.7,0.2,1.1c-2.3,0.9-3.7,1.9-3.5,2.8c0.2,1.8,5.9,2.6,12.7,1.8c0.1,0,0.2,0,0.3,0
		c0,0,0,0,0.1,0h0.1C415,960.2,420,958.2,419.8,956.4z"/>
	<path id="bell" style="fill:#E15829;stroke:#FFFFFF;stroke-width:0.1249;stroke-miterlimit:10;" d="M407.3,962.1
		c-1.9,0.2-3.6,0.3-5.2,0.3c0,0.1,0,0.2,0,0.3c0.2,1.8,1.8,3,3.6,2.8s3-1.8,2.8-3.6l0,0C408.2,961.9,407.8,962,407.3,962.1z"/>
</g>
<rect x="450.1" y="759" style="fill:#FFFFFF;stroke:#E91112;stroke-width:0.9078;stroke-linecap:round;stroke-linejoin:round;stroke-miterlimit:10;" width="117.6" height="34"/>
<text transform="matrix(1 0 0 1 465.8348 782.3055)" style="fill:#4F5858; font-family:'Lato'; font-size:18px;">REJECTED</text>
<g>
	<g>
		<path id="XMLID_4_" style="fill:#4F5858;" d="M90.3,924.8c-0.7-1.5,0-3.1,1.5-3.8l0,0c1.5-0.7,3.1,0,3.8,1.5l0,0l0,0l0,0
			c0.7,1.5,0,3.1-1.5,3.8l0,0c-0.1,0-0.2,0.1-0.3,0.1l0,0C92.5,926.9,91,926.2,90.3,924.8z M86,917L86,917c-0.9-1.4-0.6-3.1,0.8-4
			l0,0c1.3-0.9,3.1-0.6,4,0.8l0,0c0.9,1.4,0.6,3.1-0.8,4l0,0c-0.3,0.2-0.5,0.3-0.8,0.4l0,0C88,918.4,86.6,918,86,917z M80.2,910
			L80.2,910c-1.1-1.2-1.1-2.9,0.1-4.1l0,0c1.2-1.1,3-1.1,4.1,0.1l0,0l0,0l0,0c1.1,1.2,1.1,2.9-0.1,4.1l0,0c-0.3,0.3-0.7,0.6-1.2,0.7
			l0,0C82.2,911,81,910.8,80.2,910z M73.5,904L73.5,904c-1.3-1-1.6-2.7-0.6-4l0,0c1-1.3,2.7-1.6,4-0.6l0,0c1.3,1,1.6,2.7,0.6,4l0,0
			c-0.4,0.5-0.9,0.9-1.5,1.1l0,0C75.2,904.6,74.2,904.5,73.5,904z M65.8,899.2c-1.4-0.7-1.9-2.4-1.3-3.9l0,0
			c0.7-1.4,2.4-1.9,3.9-1.3l0,0c1.4,0.7,1.9,2.4,1.3,3.9l0,0c-0.4,0.7-1,1.2-1.7,1.5l0,0C67.3,899.6,66.6,899.6,65.8,899.2z
			 M57.4,895.8c-1.5-0.5-2.3-2-1.8-3.6l0,0c0.5-1.6,2.1-2.3,3.6-1.8l0,0c1.6,0.5,2.3,2.1,1.8,3.6l0,0c-0.3,1-1,1.6-1.8,1.8l0,0
			C58.6,895.9,58,895.9,57.4,895.8z M48.6,893.8c-1.6-0.2-2.6-1.6-2.4-3.2l0,0c0.2-1.6,1.6-2.6,3.2-2.4l0,0l0,0l0,0
			c1.6,0.2,2.6,1.6,2.4,3.2l0,0c-0.2,1.2-1,2-1.9,2.3l0,0C49.5,893.8,49.1,893.9,48.6,893.8z M94.2,932.9c-1.4-0.8-1.9-2.4-1.2-3.9
			l0,0l0,0l0,0c0.8-1.4,2.4-1.9,3.9-1.2l0,0c1.4,0.8,1.9,2.4,1.2,3.9l0,0c-0.4,0.7-1,1.2-1.6,1.4l0,0
			C95.7,933.3,94.9,933.3,94.2,932.9z M99,924.6c-1.3-1-1.5-2.7-0.6-4l0,0c1-1.3,2.7-1.5,4-0.5l0,0c1.3,1,1.5,2.7,0.6,4l0,0
			c-0.4,0.5-0.9,0.8-1.5,1l0,0C100.7,925.3,99.6,925.2,99,924.6z M105,917.3c-1.1-1.2-1-3,0.2-4.1l0,0c1.2-1.1,3-1,4.1,0.2l0,0
			c1.1,1.2,1,3-0.2,4.1l0,0c-0.3,0.3-0.7,0.5-1.1,0.6l0,0C106.9,918.3,105.7,918.1,105,917.3z M112.1,911c-0.9-1.4-0.5-3.1,0.8-4
			l0,0l0,0l0,0c1.4-0.9,3.1-0.5,4,0.8l0,0c0.9,1.4,0.5,3.1-0.8,4l0,0c-0.2,0.2-0.5,0.3-0.7,0.3l0,0
			C114.2,912.5,112.9,912.1,112.1,911z"/>
		
			<line id="XMLID_3_" style="fill:none;stroke:#DD4F2F;stroke-width:3.9688;stroke-miterlimit:10;" x1="75" y1="935.1" x2="114.4" y2="935.1"/>
	</g>
	<g id="closed-email_4_">
		<g>
			<path style="fill:#E15829;stroke:#FFFFFF;stroke-width:0.2462;stroke-miterlimit:10;" d="M140.8,900.4c0.1-0.1,0.1-0.3,0.1-0.4
				c0-0.1-0.1-0.3-0.2-0.4l-20.6-16.5c-0.2-0.2-0.6-0.1-0.8,0.1l-9.4,11.6c-0.2,0.2-0.2,0.5,0.1,0.7l15,2.3h0.1v0.1l5.4,14.2
				c0.2,0.2,0.6,0.1,0.7-0.1L140.8,900.4L140.8,900.4z"/>
		</g>
		<g>
			<path style="fill:#E15829;stroke:#FFFFFF;stroke-width:0.2462;stroke-miterlimit:10;" d="M109.9,894.9c-0.1,0.1-0.1,0.3-0.1,0.4
				c0,0.1,0.1,0.3,0.2,0.4l20.6,16.5c0.2,0.2,0.6,0.1,0.8-0.1l9.4-11.6c0.2-0.2,0.2-0.5-0.1-0.7l-15-2.3h-0.1v-0.1l-5.4-14.2
				c-0.2-0.2-0.6-0.1-0.7,0.1C119.3,883.3,109.9,894.9,109.9,894.9z"/>
		</g>
	</g>
</g>
<script xlink:href="https://cdnjs.cloudflare.com/ajax/libs/snap.svg/0.4.1/snap.svg-min.js"></script>
<script>
	
	var moveUp = new Snap.Matrix();
 	moveUp.translate(0, -10);

 	var moveRight = new Snap.Matrix();
 	moveRight.translate(8, 0);

 	var moveLeft = new Snap.Matrix();
 	moveLeft.translate(-2, 0);

	Snap('#lamp1').animate({fill: '#0CEE0E'}, 800, function(){
		Snap('#lamp2').animate({fill: '#0CEE0E'}, 800, function(){
			Snap('#line1').animate({opacity: 1}, 800, function() {
		 	 	Snap('#line2').animate({opacity: 1}, 800, function() {
		 	 		Snap('#line3').animate({opacity: 1}, 800, function() {

					 	Snap('#letter').animate({transform: moveUp}, 1000,function() {
					 		Snap('#line2-1').animate({opacity:1}, 1000,function() {
					 			Snap('#line2-2').animate({opacity:1}, 1000,function() {
									Snap('#bell').animate({transform: moveRight}, 500, function() {
										Snap('#bell').animate({transform: moveLeft}, 500);
									});
								});
							});
					 	});
					});
				});
			});
		});
	});
	 	
</script>
</svg>
