<?xml version="1.0" encoding="utf-8"?>
<!-- Generator: Adobe Illustrator 19.1.0, SVG Export Plug-In . SVG Version: 6.00 Build 0)  -->
<svg version="1.1" id="Layer_1" xmlns="http://www.w3.org/2000/svg" xmlns:xlink="http://www.w3.org/1999/xlink" x="0px" y="0px"
	 width="733px" height="705.3px" viewBox="-202.3 192.7 733 705.3" style="enable-background:new -202.3 192.7 733 705.3;"
	 xml:space="preserve">
<defs>
	<style type="text/css">@import url('https://fonts.googleapis.com/css?family=Lato');</style>
</defs>
<rect x="263.3" y="854.4" style="fill:#FFFFFF;stroke:#4F5858;stroke-width:0.9681;stroke-linejoin:round;stroke-miterlimit:10;" width="266.9" height="43.1"/>
<line style="fill:none;stroke:#4F5858;stroke-width:0.9129;stroke-miterlimit:10;" x1="-93.3" y1="593.5" x2="-93.3" y2="705.5"/>
<rect x="-154" y="633" style="fill:#FFFFFF;stroke:#296D0D;stroke-width:0.9078;stroke-linecap:round;stroke-linejoin:round;stroke-miterlimit:10;" width="122" height="34"/>
<g id="arrow">
	<g>
		<line style="fill:none;stroke:#4F5858;stroke-miterlimit:10;" x1="151.7" y1="249" x2="151.7" y2="306"/>
		<g>
			<polygon style="fill:#4F5858;" points="150.2,304.3 151.7,306 153.2,304.3 153.2,305.8 151.7,307.5 150.2,305.8 			"/>
		</g>
	</g>
</g>
<line id="arrow_1_" style="fill:none;stroke:#4F5858;stroke-miterlimit:10;" x1="151.7" y1="422" x2="151.7" y2="593"/>
<rect x="14.7" y="474" style="fill:#FFFFFF;stroke:#4F5858;stroke-linejoin:round;stroke-miterlimit:10;" width="273.5" height="63"/>
<g id="servers">
	<polygon style="fill:none;stroke:#4F5858;stroke-width:3;stroke-miterlimit:10;" points="127.5,352.9 127.5,364.1 125.2,364.1 
		127.5,364.1 127.5,375.4 127.5,364.1 129.7,364.1 127.5,364.1 	"/>
	<polygon style="fill:none;stroke:#4F5858;stroke-width:3;stroke-miterlimit:10;" points="175.6,352.9 175.6,364.1 173.4,364.1 
		175.6,364.1 175.6,375.4 175.6,364.1 177.9,364.1 175.6,364.1 	"/>
	<g>
		<g>
			<g>
				<g>
					<g>
						<g>
							<defs>
								<rect id="SVGID_1_" x="91.8" y="336.1" width="119.4" height="86.2"/>
							</defs>
							<clipPath id="SVGID_2_">
								<use xlink:href="#SVGID_1_"  style="overflow:visible;"/>
							</clipPath>
							<path style="clip-path:url(#SVGID_2_);fill:#4F5858;" d="M95.5,368.9c0,0-3.6,0-3.6,3.6v18.1c0,0,0,3.6,3.6,3.6h112.2
								c0,0,3.6,0,3.6-3.6v-18.1c0,0,0-3.6-3.6-3.6L95.5,368.9L95.5,368.9z"/>
						</g>
					</g>
				</g>
			</g>
		</g>
		<g>
			<g>
				<g>
					<g>
						<g>
							<defs>
								<rect id="SVGID_3_" x="91.8" y="336.1" width="119.4" height="86.2"/>
							</defs>
							<clipPath id="SVGID_4_">
								<use xlink:href="#SVGID_3_"  style="overflow:visible;"/>
							</clipPath>
							<path id="lamp1" style="clip-path:url(#SVGID_4_);fill:#E15829;" d="M182.8,384.8c1.8,0,3.3-1.5,3.3-3.3s-1.5-3.3-3.3-3.3
								s-3.3,1.5-3.3,3.3C179.5,383.4,180.9,384.8,182.8,384.8"/>
						</g>
					</g>
				</g>
			</g>
		</g>
		<g>
			<g>
				<g>
					<g>
						<g>
							<defs>
								<rect id="SVGID_5_" x="91.8" y="336.1" width="119.4" height="86.2"/>
							</defs>
							<clipPath id="SVGID_6_">
								<use xlink:href="#SVGID_5_"  style="overflow:visible;"/>
							</clipPath>
							<path style="clip-path:url(#SVGID_6_);fill:none;stroke:#FFFFFF;stroke-width:0.6379;" d="M182.8,384.8
								c1.8,0,3.3-1.5,3.3-3.3s-1.5-3.3-3.3-3.3s-3.3,1.5-3.3,3.3C179.5,383.4,180.9,384.8,182.8,384.8z"/>
						</g>
					</g>
				</g>
			</g>
		</g>
		<g>
			<g>
				<g>
					<g>
						<g>
							<defs>
								<rect id="SVGID_7_" x="91.8" y="336.1" width="119.4" height="86.2"/>
							</defs>
							<clipPath id="SVGID_8_">
								<use xlink:href="#SVGID_7_"  style="overflow:visible;"/>
							</clipPath>
							<path style="clip-path:url(#SVGID_8_);fill:#FBAD90;" d="M192.7,384.8c1.8,0,3.3-1.5,3.3-3.3s-1.5-3.3-3.3-3.3
								s-3.3,1.5-3.3,3.3C189.4,383.4,190.9,384.8,192.7,384.8"/>
						</g>
					</g>
				</g>
			</g>
		</g>
		<g>
			<g>
				<g>
					<g>
						<g>
							<defs>
								<rect id="SVGID_9_" x="91.8" y="336.1" width="119.4" height="86.2"/>
							</defs>
							<clipPath id="SVGID_10_">
								<use xlink:href="#SVGID_9_"  style="overflow:visible;"/>
							</clipPath>
							<path style="clip-path:url(#SVGID_10_);fill:none;stroke:#FFFFFF;stroke-width:0.6379;" d="M192.7,384.8
								c1.8,0,3.3-1.5,3.3-3.3s-1.5-3.3-3.3-3.3s-3.3,1.5-3.3,3.3C189.4,383.4,190.9,384.8,192.7,384.8z"/>
						</g>
					</g>
				</g>
			</g>
		</g>
	</g>
	<line style="fill:none;stroke:#FFFFFF;stroke-width:2.5529;" x1="103.1" y1="381.6" x2="142.1" y2="381.6"/>
	<g>
		<g>
			<g>
				<g>
					<g>
						<g>
							<defs>
								<rect id="SVGID_11_" x="91.8" y="336.1" width="119.4" height="86.2"/>
							</defs>
							<clipPath id="SVGID_12_">
								<use xlink:href="#SVGID_11_"  style="overflow:visible;"/>
							</clipPath>
							<path style="clip-path:url(#SVGID_12_);fill:#4F5858;" d="M95.5,397c0,0-3.6,0-3.6,3.6v18.1c0,0,0,3.6,3.6,3.6h112.2
								c0,0,3.6,0,3.6-3.6v-18.1c0,0,0-3.6-3.6-3.6H95.5L95.5,397z"/>
						</g>
					</g>
				</g>
			</g>
		</g>
		<g>
			<g>
				<g>
					<g>
						<g>
							<defs>
								<rect id="SVGID_13_" x="91.8" y="336.1" width="119.4" height="86.2"/>
							</defs>
							<clipPath id="SVGID_14_">
								<use xlink:href="#SVGID_13_"  style="overflow:visible;"/>
							</clipPath>
							<path id="lamp2" style="clip-path:url(#SVGID_14_);fill:#E15829;" d="M182.8,412.9c1.8,0,3.3-1.5,3.3-3.3s-1.5-3.3-3.3-3.3
								s-3.3,1.5-3.3,3.3S180.9,412.9,182.8,412.9"/>
						</g>
					</g>
				</g>
			</g>
		</g>
		<g>
			<g>
				<g>
					<g>
						<g>
							<defs>
								<rect id="SVGID_15_" x="91.8" y="336.1" width="119.4" height="86.2"/>
							</defs>
							<clipPath id="SVGID_16_">
								<use xlink:href="#SVGID_15_"  style="overflow:visible;"/>
							</clipPath>
							<path style="clip-path:url(#SVGID_16_);fill:none;stroke:#FFFFFF;stroke-width:0.6379;" d="M182.8,412.9
								c1.8,0,3.3-1.5,3.3-3.3s-1.5-3.3-3.3-3.3s-3.3,1.5-3.3,3.3S180.9,412.9,182.8,412.9z"/>
						</g>
					</g>
				</g>
			</g>
		</g>
		<g>
			<g>
				<g>
					<g>
						<g>
							<defs>
								<rect id="SVGID_17_" x="91.8" y="336.1" width="119.4" height="86.2"/>
							</defs>
							<clipPath id="SVGID_18_">
								<use xlink:href="#SVGID_17_"  style="overflow:visible;"/>
							</clipPath>
							<path style="clip-path:url(#SVGID_18_);fill:#FBAD90;" d="M192.7,412.9c1.8,0,3.3-1.5,3.3-3.3s-1.5-3.3-3.3-3.3
								s-3.3,1.5-3.3,3.3C189.4,411.4,190.9,412.9,192.7,412.9"/>
						</g>
					</g>
				</g>
			</g>
		</g>
		<g>
			<g>
				<g>
					<g>
						<g>
							<defs>
								<rect id="SVGID_19_" x="91.8" y="336.1" width="119.4" height="86.2"/>
							</defs>
							<clipPath id="SVGID_20_">
								<use xlink:href="#SVGID_19_"  style="overflow:visible;"/>
							</clipPath>
							<path style="clip-path:url(#SVGID_20_);fill:none;stroke:#FFFFFF;stroke-width:0.6379;" d="M192.7,412.9
								c1.8,0,3.3-1.5,3.3-3.3s-1.5-3.3-3.3-3.3s-3.3,1.5-3.3,3.3C189.4,411.4,190.9,412.9,192.7,412.9z"/>
						</g>
					</g>
				</g>
			</g>
		</g>
	</g>
	<line style="fill:none;stroke:#FFFFFF;stroke-width:2.5529;" x1="103.1" y1="410.6" x2="142.1" y2="410.6"/>
</g>
<g id="logo">
	<polygon style="fill:#E15829;" points="58.1,311.4 50.4,353.1 159.7,353.1 167.4,311.4 	"/>
	<g>
		<g>
			<g>
				<g>
					<g>
						<g>
							<defs>
								<rect id="SVGID_21_" x="50.3" y="311.4" width="202.4" height="41.7"/>
							</defs>
							<clipPath id="SVGID_22_">
								<use xlink:href="#SVGID_21_"  style="overflow:visible;"/>
							</clipPath>
							<path style="clip-path:url(#SVGID_22_);fill:#FFFFFF;" d="M61.9,339.4c0.9,0.4,1.9,0.6,2.8,0.9c0.9,0.2,1.9,0.4,2.8,0.4
								c0.7,0,1.5-0.1,2.1-0.3c0.6-0.2,1.2-0.4,1.7-0.7c0.5-0.4,0.8-0.7,1.1-1.3c0.3-0.5,0.4-1.1,0.4-1.7c0-0.5-0.1-0.9-0.3-1.3
								s-0.5-0.7-0.8-1c-0.4-0.3-0.7-0.6-1.2-0.8c-0.5-0.2-0.9-0.5-1.4-0.8c-1.6-0.9-2.8-1.9-3.7-2.9s-1.4-2.2-1.4-3.5
								s0.2-2.5,0.7-3.5s1.1-1.9,2-2.6s1.9-1.3,3.1-1.6c1.2-0.4,2.6-0.6,4.1-0.6c1.3,0,2.5,0.1,3.5,0.3c1,0.2,2,0.5,3.1,0.9
								c-0.1,0.7-0.3,1.3-0.5,2.1c-0.2,0.7-0.6,1.5-1,2.2c-0.7-0.4-1.4-0.6-2.2-0.8c-0.7-0.2-1.7-0.3-2.9-0.3c-0.4,0-0.9,0-1.4,0.1
								s-0.9,0.2-1.3,0.4c-0.4,0.2-0.7,0.5-1,0.9s-0.4,0.8-0.4,1.4c0,0.8,0.3,1.5,0.9,2c0.6,0.6,1.4,1.1,2.3,1.6
								c0.8,0.5,1.6,0.9,2.3,1.4s1.3,0.9,1.9,1.5s0.9,1.1,1.3,1.8c0.3,0.7,0.5,1.5,0.5,2.3c0,1.3-0.2,2.4-0.7,3.6
								c-0.4,1.1-1.1,2.1-2.1,3c-0.9,0.9-2.1,1.5-3.5,2c-1.5,0.5-3.2,0.7-5.1,0.7c-2.3,0-4.5-0.4-6.8-1.3c0.1-0.7,0.3-1.5,0.5-2.2
								C61.3,341,61.6,340.2,61.9,339.4"/>
						</g>
					</g>
				</g>
			</g>
		</g>
		<g>
			<g>
				<g>
					<g>
						<g>
							<defs>
								<rect id="SVGID_23_" x="50.3" y="311.4" width="202.4" height="41.7"/>
							</defs>
							<clipPath id="SVGID_24_">
								<use xlink:href="#SVGID_23_"  style="overflow:visible;"/>
							</clipPath>
							<path style="clip-path:url(#SVGID_24_);fill:#FFFFFF;" d="M90.5,318.5c1-0.2,2-0.3,2.9-0.3c0.5,0,0.9,0,1.3,0.1
								c0.4,0,0.8,0.1,1.3,0.2l3,14.7l8.5-14.7c0.4-0.1,0.8-0.2,1.3-0.2c0.4,0,0.9,0,1.3,0s0.8,0,1.3,0c0.4,0,0.9,0.1,1.3,0.2
								l-3.4,26.3c-1,0.2-1.9,0.2-2.7,0.2c-0.9,0-1.7-0.1-2.4-0.2l2.4-17.2l-6.9,11.7c-0.4,0-0.7,0.1-1.1,0.1s-0.7,0-1,0
								c-0.4,0-0.7,0-1,0s-0.7-0.1-1-0.2l-2.4-11.9l-3.5,17.3c-0.9,0.2-1.7,0.2-2.4,0.2s-1.5-0.1-2.3-0.2L90.5,318.5z"/>
						</g>
					</g>
				</g>
			</g>
		</g>
		<g>
			<g>
				<g>
					<g>
						<g>
							<defs>
								<rect id="SVGID_25_" x="50.3" y="311.4" width="202.4" height="41.7"/>
							</defs>
							<clipPath id="SVGID_26_">
								<use xlink:href="#SVGID_25_"  style="overflow:visible;"/>
							</clipPath>
							<path style="clip-path:url(#SVGID_26_);fill:#FFFFFF;" d="M125.8,323h-6.2c0-0.7,0.1-1.5,0.2-2.2s0.4-1.5,0.6-2.3h17.8
								c0,0.7-0.1,1.5-0.2,2.2s-0.4,1.5-0.6,2.3h-6.2l-3.8,21.8c-1,0.2-1.9,0.2-2.8,0.2s-1.7-0.1-2.6-0.2L125.8,323z"/>
						</g>
					</g>
				</g>
			</g>
		</g>
		<g>
			<g>
				<g>
					<g>
						<g>
							<defs>
								<rect id="SVGID_27_" x="50.3" y="311.4" width="202.4" height="41.7"/>
							</defs>
							<clipPath id="SVGID_28_">
								<use xlink:href="#SVGID_27_"  style="overflow:visible;"/>
							</clipPath>
							<path style="clip-path:url(#SVGID_28_);fill:#FFFFFF;" d="M146,318.4c0.6,0,1-0.1,1.5-0.2c0.5,0,0.9-0.1,1.4-0.1
								c0.4,0,0.9-0.1,1.3-0.1s0.9,0,1.5,0c1.1,0,2.1,0.1,3.3,0.3c1.1,0.2,2.2,0.6,3.2,1.1c0.9,0.6,1.7,1.3,2.4,2.3
								c0.6,1,0.9,2.3,0.9,3.9c0,1.5-0.3,3-0.8,4.3s-1.3,2.4-2.3,3.4c-1,0.9-2.2,1.7-3.7,2.2c-1.5,0.6-3.1,0.8-4.9,0.8
								c-0.4,0-0.7,0-0.9,0s-0.5,0-0.7,0l-1.5,8.4c-0.5,0.1-0.9,0.1-1.4,0.2c-0.4,0-0.9,0-1.3,0s-0.8,0-1.2,0
								c-0.4,0-0.9-0.1-1.5-0.2L146,318.4z M148.9,331.9c0.3,0.1,0.9,0.1,1.7,0.1c0.6,0,1.2-0.1,1.8-0.3c0.6-0.2,1.2-0.5,1.7-1
								s0.9-1.1,1.3-1.8c0.4-0.7,0.5-1.7,0.5-2.8c0-0.7-0.1-1.3-0.4-1.7c-0.2-0.5-0.6-0.8-0.9-1.1c-0.4-0.2-0.8-0.4-1.3-0.5
								s-0.9-0.2-1.3-0.2h-0.6c-0.2,0-0.4,0-0.8,0.1L148.9,331.9z"/>
						</g>
					</g>
				</g>
			</g>
		</g>
		<g>
			<g>
				<g>
					<g>
						<g>
							<defs>
								<rect id="SVGID_29_" x="50.3" y="311.4" width="202.4" height="41.7"/>
							</defs>
							<clipPath id="SVGID_30_">
								<use xlink:href="#SVGID_29_"  style="overflow:visible;"/>
							</clipPath>
							<polygon style="clip-path:url(#SVGID_30_);fill:#4F5858;" points="245,353.4 159.6,353.4 167.4,311.4 252.8,311.4 							"/>
						</g>
					</g>
				</g>
			</g>
		</g>
		<g>
			<g>
				<g>
					<g>
						<g>
							<defs>
								<rect id="SVGID_31_" x="50.3" y="311.4" width="202.4" height="41.7"/>
							</defs>
							<clipPath id="SVGID_32_">
								<use xlink:href="#SVGID_31_"  style="overflow:visible;"/>
							</clipPath>
							<path style="clip-path:url(#SVGID_32_);fill:#FFFFFF;" d="M170.5,337.4c0.2,1.2,0.6,2,1.2,2.6s1.6,0.9,2.8,0.9
								c1,0,1.9-0.1,2.6-0.3c0.7-0.2,1.5-0.5,2.4-0.8c0.4,0.5,0.7,1.1,0.8,1.8c0.1,0.7,0.2,1.4,0.2,2.2c-0.4,0.2-0.9,0.4-1.5,0.5
								c-0.6,0.2-1.1,0.3-1.7,0.4s-1.2,0.2-1.8,0.2c-0.6,0.1-1.1,0.1-1.6,0.1c-1.5,0-2.8-0.2-3.8-0.6s-1.9-0.9-2.6-1.5
								s-1.2-1.5-1.5-2.4s-0.5-2-0.5-3.2c0-1.5,0.3-3,0.7-4.4c0.5-1.5,1.2-2.7,2.2-3.9c0.9-1.1,2.1-2,3.4-2.8c1.3-0.7,2.9-1,4.5-1
								c0.8,0,1.5,0.1,2.2,0.3c0.7,0.2,1.3,0.5,1.8,0.9s0.9,0.9,1.2,1.5c0.3,0.6,0.4,1.3,0.4,2c0,1.1-0.3,2-0.7,2.8
								c-0.5,0.8-1.2,1.5-2,2s-1.8,1-2.9,1.4s-2.2,0.6-3.4,0.8L170.5,337.4z M172.6,333.7c0.9-0.2,1.7-0.4,2.3-0.6
								c0.6-0.2,1.1-0.5,1.4-0.7c0.4-0.3,0.6-0.6,0.7-0.9s0.2-0.6,0.2-0.9c0-0.5-0.2-0.8-0.5-1.1c-0.3-0.3-0.7-0.4-1.2-0.4
								c-0.6,0-1.2,0.2-1.7,0.4c-0.5,0.3-1,0.7-1.4,1.1c-0.4,0.5-0.7,1-1,1.6s-0.5,1.2-0.6,1.8L172.6,333.7z"/>
						</g>
					</g>
				</g>
			</g>
		</g>
		<g>
			<g>
				<g>
					<g>
						<g>
							<defs>
								<rect id="SVGID_33_" x="50.3" y="311.4" width="202.4" height="41.7"/>
							</defs>
							<clipPath id="SVGID_34_">
								<use xlink:href="#SVGID_33_"  style="overflow:visible;"/>
							</clipPath>
							<path style="clip-path:url(#SVGID_34_);fill:#FFFFFF;" d="M190.6,329.6h-2.8c0-0.7,0-1.3,0.2-1.9c0.1-0.6,0.3-1.3,0.6-2h2.8
								l0.2-1.1c0.1-0.6,0.2-1.2,0.2-1.7c0-0.6,0-1,0-1.4c0.6-0.4,1.4-0.7,2.4-0.9c1-0.2,1.8-0.3,2.6-0.3c0.1,0.4,0.2,0.8,0.2,1.4
								c0,0.4,0,0.8-0.1,1.3c-0.1,0.4-0.2,0.9-0.2,1.5l-0.2,1.2h4.5c0,0.7-0.1,1.4-0.2,2s-0.3,1.3-0.5,1.9h-4.5l-1.3,7.2
								c0,0.4-0.1,0.7-0.1,0.9c0,0.3,0,0.6,0,0.8c0,0.6,0.2,1.1,0.4,1.5c0.3,0.4,0.8,0.6,1.7,0.6c0.4,0,0.8,0,1.1-0.1
								s0.6-0.1,0.9-0.2c0.3,0.7,0.5,1.6,0.5,2.8v0.6c0,0.2,0,0.4,0,0.6c-1.1,0.3-2.3,0.5-3.8,0.5c-2,0-3.5-0.4-4.5-1.1
								s-1.5-2-1.5-3.8c0-0.4,0-0.7,0.1-1.1c0-0.4,0.1-0.8,0.2-1.3L190.6,329.6z"/>
						</g>
					</g>
				</g>
			</g>
		</g>
		<g>
			<g>
				<g>
					<g>
						<g>
							<defs>
								<rect id="SVGID_35_" x="50.3" y="311.4" width="202.4" height="41.7"/>
							</defs>
							<clipPath id="SVGID_36_">
								<use xlink:href="#SVGID_35_"  style="overflow:visible;"/>
							</clipPath>
							<path style="clip-path:url(#SVGID_36_);fill:#FFFFFF;" d="M210.3,337.4c0.2,1.2,0.6,2,1.2,2.6s1.6,0.9,2.8,0.9
								c1,0,1.9-0.1,2.6-0.3c0.7-0.2,1.5-0.5,2.4-0.8c0.4,0.5,0.7,1.1,0.8,1.8c0.1,0.7,0.2,1.4,0.2,2.2c-0.4,0.2-0.9,0.4-1.5,0.5
								c-0.6,0.2-1.1,0.3-1.7,0.4s-1.2,0.2-1.8,0.2c-0.6,0.1-1.1,0.1-1.6,0.1c-1.5,0-2.8-0.2-3.8-0.6s-1.9-0.9-2.6-1.5
								c-0.7-0.7-1.2-1.5-1.5-2.4s-0.5-2-0.5-3.2c0-1.5,0.3-3,0.7-4.4c0.5-1.5,1.2-2.7,2.2-3.9c1-1.2,2.1-2,3.4-2.8
								c1.3-0.7,2.9-1,4.5-1c0.8,0,1.5,0.1,2.2,0.3c0.7,0.2,1.3,0.5,1.8,0.9s0.9,0.9,1.2,1.5s0.4,1.3,0.4,2c0,1.1-0.3,2-0.7,2.8
								c-0.5,0.8-1.2,1.5-2,2c-0.9,0.6-1.8,1-2.9,1.4s-2.2,0.6-3.4,0.8L210.3,337.4z M212.4,333.7c0.9-0.2,1.7-0.4,2.3-0.6
								c0.6-0.2,1.1-0.5,1.4-0.7c0.4-0.3,0.6-0.6,0.7-0.9s0.2-0.6,0.2-0.9c0-0.5-0.2-0.8-0.5-1.1c-0.3-0.3-0.7-0.4-1.2-0.4
								c-0.6,0-1.2,0.2-1.7,0.4c-0.5,0.3-1,0.7-1.4,1.1c-0.4,0.5-0.7,1-1,1.6s-0.5,1.2-0.6,1.8L212.4,333.7z"/>
						</g>
					</g>
				</g>
			</g>
		</g>
		<g>
			<g>
				<g>
					<g>
						<g>
							<defs>
								<rect id="SVGID_37_" x="50.3" y="311.4" width="202.4" height="41.7"/>
							</defs>
							<clipPath id="SVGID_38_">
								<use xlink:href="#SVGID_37_"  style="overflow:visible;"/>
							</clipPath>
							<path style="clip-path:url(#SVGID_38_);fill:#FFFFFF;" d="M229.4,333.8c0.3-1.5,0.5-2.9,0.6-4.1s0.2-2.1,0.2-2.8v-0.7
								c0-0.2,0-0.4,0-0.6c0.8-0.2,1.6-0.2,2.4-0.2c0.4,0,0.7,0,1.1,0s0.7,0.1,1.2,0.2c0,0.2,0.1,0.4,0.2,0.7c0,0.3,0.1,0.7,0.1,1.2
								c0,0.2,0,0.4,0,0.7c0,0.2,0,0.5-0.1,0.8c0.2-0.4,0.6-0.9,0.9-1.3c0.4-0.4,0.8-0.8,1.2-1.1c0.4-0.4,0.9-0.6,1.5-0.8
								c0.6-0.2,1.1-0.3,1.8-0.3c0.5,0,0.9,0.1,1.3,0.2c0,0.1,0,0.2,0,0.3v0.3c0,0.7-0.1,1.4-0.2,2.1c-0.2,0.7-0.4,1.3-0.7,1.8
								c-0.2,0-0.3,0-0.5-0.1c-0.2,0-0.4,0-0.7,0c-1,0-1.8,0.2-2.5,0.5c-0.6,0.4-1.2,0.8-1.6,1.5c-0.4,0.6-0.7,1.4-1,2.2
								c-0.3,0.8-0.5,1.9-0.7,2.9l-1.3,7.3c-0.9,0.2-1.9,0.2-2.7,0.2c-0.9,0-1.7-0.1-2.5-0.2L229.4,333.8z"/>
						</g>
					</g>
				</g>
			</g>
		</g>
		<g>
			<g>
				<g>
					<g>
						<g>
							<defs>
								<rect id="SVGID_39_" x="50.3" y="311.4" width="202.4" height="41.7"/>
							</defs>
							<clipPath id="SVGID_40_">
								<use xlink:href="#SVGID_39_"  style="overflow:visible;"/>
							</clipPath>
							<path style="clip-path:url(#SVGID_40_);fill:#FFFFFF;" d="M61.9,338.6c0.9,0.4,1.9,0.6,2.8,0.9c0.9,0.2,1.9,0.4,2.8,0.4
								c0.7,0,1.5-0.1,2.1-0.3c0.6-0.2,1.2-0.4,1.7-0.7c0.5-0.4,0.8-0.7,1.1-1.3c0.3-0.5,0.4-1.1,0.4-1.7c0-0.5-0.1-0.9-0.3-1.3
								s-0.5-0.7-0.8-1c-0.4-0.3-0.7-0.6-1.2-0.8c-0.5-0.2-0.9-0.5-1.4-0.8c-1.6-0.9-2.8-1.9-3.7-2.9s-1.4-2.2-1.4-3.5
								s0.2-2.5,0.7-3.5s1.1-1.9,2-2.6s1.9-1.3,3.1-1.6c1.2-0.4,2.6-0.6,4.1-0.6c1.3,0,2.5,0.1,3.5,0.3c1,0.2,2,0.5,3.1,0.9
								c-0.1,0.7-0.3,1.3-0.5,2.1c-0.2,0.7-0.6,1.5-1,2.2c-0.7-0.4-1.4-0.6-2.2-0.8c-0.7-0.2-1.7-0.3-2.9-0.3c-0.4,0-0.9,0-1.4,0.1
								s-0.9,0.2-1.3,0.4c-0.4,0.2-0.7,0.5-1,0.9s-0.4,0.8-0.4,1.4c0,0.8,0.3,1.5,0.9,2c0.6,0.6,1.4,1.1,2.3,1.6
								c0.8,0.5,1.6,0.9,2.3,1.4s1.3,0.9,1.9,1.5s0.9,1.1,1.3,1.8c0.3,0.7,0.5,1.5,0.5,2.3c0,1.3-0.2,2.4-0.7,3.6
								c-0.4,1.1-1.1,2.1-2.1,3c-0.9,0.9-2.1,1.5-3.5,2c-1.5,0.5-3.2,0.7-5.1,0.7c-2.3,0-4.5-0.4-6.8-1.3c0.1-0.7,0.3-1.5,0.5-2.2
								C61.3,340.2,61.6,339.4,61.9,338.6"/>
						</g>
					</g>
				</g>
			</g>
		</g>
		<g>
			<g>
				<g>
					<g>
						<g>
							<defs>
								<rect id="SVGID_41_" x="50.3" y="311.4" width="202.4" height="41.7"/>
							</defs>
							<clipPath id="SVGID_42_">
								<use xlink:href="#SVGID_41_"  style="overflow:visible;"/>
							</clipPath>
							<path style="clip-path:url(#SVGID_42_);fill:#FFFFFF;" d="M90.5,317.7c1-0.2,2-0.3,2.9-0.3c0.5,0,0.9,0,1.3,0.1
								c0.4,0,0.8,0.1,1.3,0.2l3,14.7l8.5-14.7c0.4-0.1,0.8-0.2,1.3-0.2c0.4,0,0.9,0,1.3,0s0.8,0,1.3,0c0.4,0,0.9,0.1,1.3,0.2
								l-3.4,26.3c-1,0.2-1.9,0.2-2.7,0.2c-0.9,0-1.7-0.1-2.4-0.2l2.4-17.2l-6.9,11.7c-0.4,0-0.7,0.1-1.1,0.1s-0.7,0-1,0
								c-0.4,0-0.7,0-1,0s-0.7-0.1-1-0.2l-2.4-11.9l-3.5,17.3c-0.9,0.2-1.7,0.2-2.4,0.2s-1.5-0.1-2.3-0.2L90.5,317.7z"/>
						</g>
					</g>
				</g>
			</g>
		</g>
		<g>
			<g>
				<g>
					<g>
						<g>
							<defs>
								<rect id="SVGID_43_" x="50.3" y="311.4" width="202.4" height="41.7"/>
							</defs>
							<clipPath id="SVGID_44_">
								<use xlink:href="#SVGID_43_"  style="overflow:visible;"/>
							</clipPath>
							<path style="clip-path:url(#SVGID_44_);fill:#FFFFFF;" d="M125.8,322.2h-6.2c0-0.7,0.1-1.5,0.2-2.2s0.4-1.5,0.6-2.3h17.8
								c0,0.7-0.1,1.5-0.2,2.2s-0.4,1.5-0.6,2.3h-6.2l-3.8,21.8c-1,0.2-1.9,0.2-2.8,0.2s-1.7-0.1-2.6-0.2L125.8,322.2z"/>
						</g>
					</g>
				</g>
			</g>
		</g>
		<g>
			<g>
				<g>
					<g>
						<g>
							<defs>
								<rect id="SVGID_45_" x="50.3" y="311.4" width="202.4" height="41.7"/>
							</defs>
							<clipPath id="SVGID_46_">
								<use xlink:href="#SVGID_45_"  style="overflow:visible;"/>
							</clipPath>
							<path style="clip-path:url(#SVGID_46_);fill:#FFFFFF;" d="M146,317.6c0.6,0,1-0.1,1.5-0.2c0.5,0,0.9-0.1,1.4-0.1
								c0.4,0,0.9-0.1,1.3-0.1s0.9,0,1.5,0c1.1,0,2.1,0.1,3.3,0.3c1.1,0.2,2.2,0.6,3.2,1.1c0.9,0.6,1.7,1.3,2.4,2.3s0.9,2.3,0.9,3.9
								c0,1.5-0.3,3-0.8,4.3s-1.3,2.4-2.3,3.4c-1,0.9-2.2,1.7-3.7,2.2c-1.5,0.6-3.1,0.8-4.9,0.8c-0.4,0-0.7,0-0.9,0s-0.5,0-0.7,0
								l-1.5,8.4c-0.5,0.1-0.9,0.1-1.4,0.2c-0.4,0-0.9,0-1.3,0s-0.8,0-1.2,0c-0.4,0-0.9-0.1-1.5-0.2L146,317.6z M148.9,331.1
								c0.3,0.1,0.9,0.1,1.7,0.1c0.6,0,1.2-0.1,1.8-0.3c0.6-0.2,1.2-0.5,1.7-1s0.9-1.1,1.3-1.8c0.4-0.7,0.5-1.7,0.5-2.8
								c0-0.7-0.1-1.3-0.4-1.7c-0.2-0.5-0.6-0.8-0.9-1.1c-0.4-0.2-0.8-0.4-1.3-0.5s-0.9-0.2-1.3-0.2h-0.6c-0.2,0-0.4,0-0.8,0.1
								L148.9,331.1z"/>
						</g>
					</g>
				</g>
			</g>
		</g>
	</g>
</g>
<g>
	<g id="document">
		<g>
			<g>
				<g>
					<path style="fill:#4F5858;" d="M76.9,521.5H50v-31.6h19l7.9,7.5V521.5z M51.9,519.7h23v-21.5l-6.8-6.4H51.9V519.7L51.9,519.7z"
						/>
				</g>
				<g>
					<path style="fill:#4F5858;" d="M75.9,498.7h-7.3c-0.5,0-1-0.4-1-0.9v-7c0-0.4,0.2-0.7,0.6-0.8c0.4-0.1,0.8-0.1,1.1,0.2l7.3,7
						c0.3,0.3,0.4,0.6,0.2,1C76.6,498.5,76.3,498.7,75.9,498.7z M69.5,496.9h4.1l-4.1-3.9V496.9z"/>
				</g>
				<g>
					<path id="line1" style="fill:#4F5858;opacity:0;" d="M71.1,505H55.9c-0.5,0-1-0.4-1-0.9s0.4-0.9,1-0.9h15.2
						c0.5,0,1,0.4,1,0.9S71.6,505,71.1,505z"/>
				</g>
				<g>
					<path id="line2" style="fill:#4F5858;opacity:0;" d="M71,509.9H55.8c-0.5,0-1-0.4-1-0.9s0.4-0.9,1-0.9H71
						c0.5,0,1,0.4,1,0.9S71.5,509.9,71,509.9z"/>
				</g>
				<g>
					<path id="line3" style="fill:#4F5858;opacity:0;" d="M71,514.8H55.8c-0.5,0-1-0.4-1-0.9s0.4-0.9,1-0.9H71
						c0.5,0,1,0.4,1,0.9S71.5,514.8,71,514.8z"/>
				</g>
			</g>
		</g>
	</g>
	<text transform="matrix(1 0 0 1 88.8911 500.8614)" style="fill:#4F5858; font-family:'Lato'; font-size:16px;">Logged in log files with </text>
	<text transform="matrix(1 0 0 1 88.8911 520.0614)" style="fill:#4F5858; font-family:'Lato'; font-size:16px;">the prefix &quot;attempts&quot;</text>
</g>
<line style="fill:none;stroke:#4F5858;stroke-width:0.9129;stroke-miterlimit:10;" x1="-93.3" y1="593.5" x2="396.7" y2="593.5"/>
<g>
	<g>
		<line style="fill:none;stroke:#4F5858;stroke-miterlimit:10;" x1="396.7" y1="593" x2="396.7" y2="750"/>
		<g>
			<polygon style="fill:#4F5858;" points="395.2,748 396.7,749.6 398.2,748 398.2,749.4 396.7,751 395.2,749.4 			"/>
		</g>
	</g>
</g>
<text transform="matrix(1 0 0 1 -138.7828 656.3075)" style="fill:#4F5858; font-family:'Lato'; font-size:18px;">ACCEPTED</text>
<g>
	<g>
		<path style="fill:#E15829;" d="M-137.4,776l-28.6-17.9l-0.1-0.1l-0.1,0.1L-195,776"/>
	</g>
	<g id="letter">
		<path style="fill:#FFFFFF;stroke:#4F5858;stroke-width:0.5464;stroke-miterlimit:10;" d="M-140.7,805.4c0,0.4-0.3,0.7-0.7,0.7
			H-191c-0.4,0-0.7-0.3-0.7-0.7v-39.5c0-0.4,0.3-0.7,0.7-0.7h49.6c0.4,0,0.7,0.3,0.7,0.7V805.4L-140.7,805.4z"/>
		<g>
			<rect x="-184.8" y="771.6" style="fill:#4F5858;" width="12.6" height="12.6"/>
			<g>
				<rect x="-170.8" y="774.6" style="fill:#4F5858;" width="23.2" height="1.3"/>
				<rect x="-170.8" y="777.3" style="fill:#4F5858;" width="19.7" height="1.3"/>
				<rect x="-170.8" y="780" style="fill:#4F5858;" width="21.8" height="1.3"/>
			</g>
		</g>
	</g>
	<g>
		<g>
			<path style="fill:#E15829;stroke:#FFFFFF;stroke-width:1.0928;stroke-miterlimit:10;" d="M-196,808c0,0.3,0.1,0.6,0.3,0.8
				s0.5,0.3,0.8,0.3h57.4c0.6,0,1.1-0.5,1.1-1.1v-31.2c0-0.6-0.5-1.1-1.1-1.1l-28.6,16.6l-0.1,0.1l-0.1-0.1l-28.7-16.6
				c-0.6,0-1.1,0.5-1.1,1.1C-196,776.8-196,808-196,808z"/>
		</g>
	</g>
</g>
<line style="fill:none;stroke:#4F5858;stroke-miterlimit:10;" x1="-166.3" y1="705.5" x2="-20" y2="705.5"/>
<g>
	<g>
		<line style="fill:none;stroke:#4F5858;stroke-miterlimit:10;" x1="-166.8" y1="705" x2="-166.8" y2="749"/>
		<g>
			<polygon style="fill:#4F5858;" points="-168.3,746.9 -166.8,748.6 -165.3,746.9 -165.3,748.3 -166.8,750 -168.3,748.3 			"/>
		</g>
	</g>
</g>
<text transform="matrix(1 0 0 1 -202.332 840.246)" style="fill:#4F5858; font-family:'Lato'; font-size:16px;">Delivered </text>
<text transform="matrix(1 0 0 1 -195.032 859.446)" style="fill:#4F5858; font-family:'Lato'; font-size:16px;">to inbox</text>
<g>
	<g>
		<line style="fill:none;stroke:#4F5858;stroke-miterlimit:10;" x1="-20.1" y1="705" x2="-20.1" y2="749"/>
		<g>
			<polygon style="fill:#4F5858;" points="-21.6,746.9 -20.1,748.6 -18.6,746.9 -18.6,748.3 -20.1,750 -21.6,748.3 			"/>
		</g>
	</g>
</g>
<text transform="matrix(1 0 0 1 -68.8861 840.2458)" style="fill:#4F5858; font-family:'Lato'; font-size:16px;">Bounced back</text>
<text transform="matrix(1 0 0 1 -64.2861 859.4459)" style="fill:#4F5858; font-family:'Lato'; font-size:16px;">to SMTPeter</text>
<g id="closed-email_1_">
	<g>
		<path style="fill:#E15829;stroke:#FFFFFF;stroke-width:0.7532;stroke-miterlimit:10;" d="M194.4,194.7c0-0.4-0.2-0.8-0.5-1.1
			c-0.3-0.3-0.7-0.5-1.1-0.5h-80.6c-0.9,0-1.6,0.7-1.6,1.6v45.8c0,0.9,0.7,1.6,1.5,1.6l40.2-23.3l0.2-0.1l0.2,0.1l40.2,23.3
			c0.8-0.1,1.5-0.8,1.5-1.6L194.4,194.7L194.4,194.7z"/>
	</g>
	<g>
		<path style="fill:#E15829;stroke:#FFFFFF;stroke-width:0.7532;stroke-miterlimit:10;" d="M110.5,240.8c0,0.4,0.2,0.8,0.5,1.1
			c0.3,0.3,0.7,0.5,1.1,0.5h80.6c0.9,0,1.6-0.7,1.6-1.6v-45.7c0-0.9-0.7-1.6-1.5-1.6l-40.2,23.2l-0.2,0.1l-0.2-0.1L112,193.5
			c-0.8,0.1-1.5,0.8-1.5,1.6V240.8z"/>
	</g>
</g>
<g>
	<g>
		<path id="XMLID_5_" style="fill:#4F5858;" d="M292.3,883.5c-0.3-0.6,0-1.3,0.6-1.5l0,0c0.6-0.3,1.3,0,1.5,0.6l0,0l0,0l0,0
			c0.3,0.6,0,1.3-0.6,1.5l0,0h-0.1l0,0C293.1,884.3,292.5,884,292.3,883.5z M290.5,880.3L290.5,880.3c-0.4-0.5-0.2-1.3,0.3-1.6l0,0
			c0.5-0.4,1.3-0.2,1.6,0.3l0,0c0.4,0.5,0.2,1.3-0.3,1.6l0,0c-0.1,0.1-0.2,0.1-0.3,0.1l0,0C291.3,880.9,290.8,880.7,290.5,880.3z
			 M288.2,877.4L288.2,877.4c-0.4-0.5-0.4-1.2,0-1.6l0,0c0.5-0.4,1.2-0.4,1.6,0l0,0l0,0l0,0c0.4,0.5,0.4,1.2,0,1.6l0,0
			c-0.1,0.1-0.3,0.2-0.5,0.3l0,0C288.9,877.8,288.5,877.7,288.2,877.4z M285.4,875L285.4,875c-0.5-0.4-0.6-1.1-0.2-1.6l0,0
			c0.4-0.5,1.1-0.6,1.6-0.2l0,0c0.5,0.4,0.6,1.1,0.2,1.6l0,0c-0.1,0.2-0.4,0.3-0.6,0.4l0,0C286.1,875.2,285.7,875.2,285.4,875z
			 M282.3,873c-0.6-0.3-0.8-1-0.5-1.6l0,0c0.3-0.6,1-0.8,1.6-0.5l0,0c0.6,0.3,0.8,1,0.5,1.6l0,0c-0.1,0.3-0.4,0.5-0.7,0.6l0,0
			C282.9,873.2,282.6,873.2,282.3,873z M278.9,871.6c-0.6-0.2-1-0.8-0.8-1.5l0,0c0.2-0.6,0.9-1,1.5-0.8l0,0c0.6,0.2,1,0.9,0.8,1.5
			l0,0c-0.1,0.4-0.4,0.7-0.8,0.8l0,0C279.3,871.7,279.1,871.7,278.9,871.6z M275.3,870.8c-0.6-0.1-1.1-0.7-1-1.3l0,0
			c0.1-0.6,0.7-1.1,1.3-1l0,0l0,0l0,0c0.6,0.1,1.1,0.7,1,1.3l0,0c-0.1,0.5-0.4,0.8-0.8,1l0,0C275.6,870.8,275.4,870.8,275.3,870.8z
			 M293.8,886.7c-0.6-0.3-0.8-1-0.5-1.6l0,0l0,0l0,0c0.3-0.6,1-0.8,1.6-0.5l0,0c0.6,0.3,0.8,1,0.5,1.6l0,0c-0.1,0.3-0.4,0.5-0.7,0.6
			l0,0C294.4,886.9,294.1,886.9,293.8,886.7z M295.8,883.4c-0.5-0.4-0.6-1.1-0.2-1.6l0,0c0.4-0.5,1.1-0.6,1.6-0.2l0,0
			c0.5,0.4,0.6,1.1,0.2,1.6l0,0c-0.2,0.2-0.4,0.3-0.6,0.4l0,0C296.5,883.7,296.1,883.6,295.8,883.4z M298.2,880.4
			c-0.4-0.5-0.4-1.2,0.1-1.6l0,0c0.5-0.4,1.2-0.4,1.6,0.1l0,0c0.4,0.5,0.4,1.2-0.1,1.6l0,0c-0.1,0.1-0.3,0.2-0.4,0.3l0,0
			C299,880.8,298.5,880.7,298.2,880.4z M301.2,877.8c-0.3-0.5-0.2-1.3,0.3-1.6l0,0l0,0l0,0c0.5-0.4,1.3-0.2,1.6,0.3l0,0
			c0.4,0.5,0.2,1.3-0.3,1.6l0,0c-0.1,0.1-0.2,0.1-0.3,0.1l0,0C302,878.5,301.5,878.3,301.2,877.8z"/>
		
			<line id="XMLID_2_" style="fill:none;stroke:#DD4F2F;stroke-width:1.6167;stroke-miterlimit:10;" x1="286" y1="887.6" x2="302.1" y2="887.6"/>
	</g>
	<g id="closed-email_2_">
		<g>
			<path style="fill:#E15829;stroke:#FFFFFF;stroke-width:0.1249;stroke-miterlimit:10;" d="M314.8,873c0-0.1,0.1-0.1,0.1-0.2
				s0-0.1-0.1-0.2l-10.4-8.4c-0.1-0.1-0.3-0.1-0.4,0l-4.8,5.9c-0.1,0.1-0.1,0.3,0,0.4l7.6,1.2l0,0l0,0l2.8,7.2
				c0.1,0.1,0.3,0.1,0.4-0.1L314.8,873L314.8,873z"/>
		</g>
		<g>
			<path style="fill:#E15829;stroke:#FFFFFF;stroke-width:0.1249;stroke-miterlimit:10;" d="M299.1,870.3c0,0.1-0.1,0.1-0.1,0.2
				c0,0.1,0,0.1,0.1,0.2l10.4,8.4c0.1,0.1,0.3,0.1,0.4,0l4.8-5.9c0.1-0.1,0.1-0.3,0-0.4l-7.6-1.2l0,0l0,0l-2.8-7.2
				c-0.1-0.1-0.3-0.1-0.4,0.1C303.9,864.4,299.1,870.3,299.1,870.3z"/>
		</g>
	</g>
</g>
<rect x="263.3" y="755.7" style="fill:#FFFFFF;stroke:#4F5858;stroke-width:0.9681;stroke-linejoin:round;stroke-miterlimit:10;" width="266.9" height="43.1"/>
<rect x="263.3" y="805.3" style="fill:#FFFFFF;stroke:#4F5858;stroke-width:0.9681;stroke-linejoin:round;stroke-miterlimit:10;" width="266.9" height="43.1"/>
<text transform="matrix(1 0 0 1 321.2798 782.5582)" style="fill:#4F5858; font-family:'Lato'; font-size:16px;">Logged in failure log files</text>
<text transform="matrix(1 0 0 1 321.7989 825.0978)" style="fill:#4F5858; font-family:'Lato'; font-size:16px;">Trigger failure feedback loop</text>
<text transform="matrix(1 0 0 1 321.7989 841.8978)" style="fill:#4F5858; font-family:'Lato'; font-size:14px;">(if it is configured)</text>
<text transform="matrix(1 0 0 1 321.7992 872.5224)" style="fill:#4F5858; font-family:'Lato'; font-size:16px;">Bounce back to envelope</text>
<text transform="matrix(1 0 0 1 321.7992 889.3224)" style="fill:#4F5858; font-family:'Lato'; font-size:14px;">(if it is configured)</text>
<g>
	<g id="document_2_">
		<g>
			<g>
				<g>
					<path style="fill:#4F5858;" d="M303.8,788.2h-18.5v-22h13.1l5.4,5.2V788.2z M286.6,787h15.8v-15l-4.7-4.5h-11.2L286.6,787
						L286.6,787z"/>
				</g>
				<g>
					<path style="fill:#4F5858;" d="M303.1,772.4H298c-0.4,0-0.7-0.3-0.7-0.6v-4.9c0-0.3,0.2-0.5,0.4-0.6c0.3-0.1,0.5,0,0.7,0.1
						l5.1,4.9c0.2,0.2,0.2,0.4,0.1,0.7C303.7,772.2,303.4,772.4,303.1,772.4z M298.8,771.1h2.8l-2.8-2.7V771.1z"/>
				</g>
				<g>
					<path id="line2-1" style="fill:#4F5858;opacity:0;" d="M299.8,780.1h-10.4c-0.4,0-0.7-0.3-0.7-0.6s0.3-0.6,0.7-0.6h10.4
						c0.4,0,0.7,0.3,0.7,0.6C300.4,779.9,300.1,780.1,299.8,780.1z"/>
				</g>
				<g>
					<path id="line2-2" style="fill:#4F5858;opacity:0;" d="M299.8,783.6h-10.4c-0.4,0-0.7-0.3-0.7-0.6s0.3-0.6,0.7-0.6h10.4
						c0.4,0,0.7,0.3,0.7,0.6C300.4,783.3,300.1,783.6,299.8,783.6z"/>
				</g>
			</g>
		</g>
	</g>
	<path style="fill:#E15829;stroke:#FFFFFF;stroke-width:0.3163;stroke-miterlimit:10;" d="M295.9,773l-1.4,1.5l-1.5-1.4
		c-0.3-0.3-0.7-0.3-1,0s-0.3,0.7,0,1l1.5,1.4l-1.4,1.5c-0.3,0.3-0.3,0.7,0,1s0.7,0.3,1,0l1.4-1.5l1.5,1.4c0.3,0.3,0.7,0.3,1,0
		s0.3-0.7,0-1l-1.5-1.4l1.4-1.5c0.3-0.3,0.3-0.7,0-1S296.2,772.7,295.9,773z"/>
</g>
<g>
	<path style="fill:#4F5858;" d="M306.8,830.4c-0.1-0.8-1.4-1.5-3.5-1.8c0-0.4,0-0.8,0-1.3c-0.6-4.9-5.7-13.9-10.6-13.3
		c-4.9,0.6-7.7,10.5-7.2,15.4c0,0.4,0.1,0.7,0.2,1.1c-2.3,0.9-3.7,1.9-3.5,2.8c0.2,1.8,5.9,2.6,12.7,1.8c0.1,0,0.2,0,0.3,0
		c0,0,0,0,0.1,0h0.1C302,834.2,307,832.2,306.8,830.4z"/>
	<path id="bell" style="fill:#E15829;stroke:#FFFFFF;stroke-width:0.1249;stroke-miterlimit:10;" d="M294.3,836.1
		c-1.9,0.2-3.6,0.3-5.2,0.3c0,0.1,0,0.2,0,0.3c0.2,1.8,1.8,3,3.6,2.8s3-1.8,2.8-3.6l0,0C295.2,835.9,294.8,836,294.3,836.1z"/>
</g>
<rect x="337.1" y="633" style="fill:#FFFFFF;stroke:#E91112;stroke-width:0.9078;stroke-linecap:round;stroke-linejoin:round;stroke-miterlimit:10;" width="117.6" height="34"/>
<text transform="matrix(1 0 0 1 352.8348 656.3055)" style="fill:#4F5858; font-family:'Lato'; font-size:18px;">REJECTED</text>
<g>
	<g>
		<path id="XMLID_4_" style="fill:#4F5858;" d="M-22.7,798.8c-0.7-1.5,0-3.1,1.5-3.8l0,0c1.5-0.7,3.1,0,3.8,1.5l0,0l0,0l0,0
			c0.7,1.5,0,3.1-1.5,3.8l0,0c-0.1,0-0.2,0.1-0.3,0.1l0,0C-20.5,800.9-22,800.2-22.7,798.8z M-27,791L-27,791
			c-0.9-1.4-0.6-3.1,0.8-4l0,0c1.3-0.9,3.1-0.6,4,0.8l0,0c0.9,1.4,0.6,3.1-0.8,4l0,0c-0.3,0.2-0.5,0.3-0.8,0.4l0,0
			C-25,792.4-26.4,792-27,791z M-32.8,784L-32.8,784c-1.1-1.2-1.1-2.9,0.1-4.1l0,0c1.2-1.1,3-1.1,4.1,0.1l0,0l0,0l0,0
			c1.1,1.2,1.1,2.9-0.1,4.1l0,0c-0.3,0.3-0.7,0.6-1.2,0.7l0,0C-30.8,785-32,784.8-32.8,784z M-39.5,778L-39.5,778
			c-1.3-1-1.6-2.7-0.6-4l0,0c1-1.3,2.7-1.6,4-0.6l0,0c1.3,1,1.6,2.7,0.6,4l0,0c-0.4,0.5-0.9,0.9-1.5,1.1l0,0
			C-37.8,778.6-38.8,778.5-39.5,778z M-47.2,773.2c-1.4-0.7-1.9-2.4-1.3-3.9l0,0c0.7-1.4,2.4-1.9,3.9-1.3l0,0
			c1.4,0.7,1.9,2.4,1.3,3.9l0,0c-0.4,0.7-1,1.2-1.7,1.5l0,0C-45.7,773.6-46.4,773.6-47.2,773.2z M-55.6,769.8
			c-1.5-0.5-2.3-2-1.8-3.6l0,0c0.5-1.6,2.1-2.3,3.6-1.8l0,0c1.6,0.5,2.3,2.1,1.8,3.6l0,0c-0.3,1-1,1.6-1.8,1.8l0,0
			C-54.4,769.9-55,769.9-55.6,769.8z M-64.4,767.8c-1.6-0.2-2.6-1.6-2.4-3.2l0,0c0.2-1.6,1.6-2.6,3.2-2.4l0,0l0,0l0,0
			c1.6,0.2,2.6,1.6,2.4,3.2l0,0c-0.2,1.2-1,2-1.9,2.3l0,0C-63.5,767.8-63.9,767.9-64.4,767.8z M-18.8,806.9
			c-1.4-0.8-1.9-2.4-1.2-3.9l0,0l0,0l0,0c0.8-1.4,2.4-1.9,3.9-1.2l0,0c1.4,0.8,1.9,2.4,1.2,3.9l0,0c-0.4,0.7-1,1.2-1.6,1.4l0,0
			C-17.3,807.3-18.1,807.3-18.8,806.9z M-14,798.6c-1.3-1-1.5-2.7-0.6-4l0,0c1-1.3,2.7-1.5,4-0.5l0,0c1.3,1,1.5,2.7,0.6,4l0,0
			c-0.4,0.5-0.9,0.8-1.5,1l0,0C-12.3,799.3-13.4,799.2-14,798.6z M-8,791.3c-1.1-1.2-1-3,0.2-4.1l0,0c1.2-1.1,3-1,4.1,0.2l0,0
			c1.1,1.2,1,3-0.2,4.1l0,0c-0.3,0.3-0.7,0.5-1.1,0.6l0,0C-6.1,792.3-7.3,792.1-8,791.3z M-0.9,785c-0.9-1.4-0.5-3.1,0.8-4l0,0l0,0
			l0,0c1.4-0.9,3.1-0.5,4,0.8l0,0c0.9,1.4,0.5,3.1-0.8,4l0,0c-0.2,0.2-0.5,0.3-0.7,0.3l0,0C1.2,786.5-0.1,786.1-0.9,785z"/>
		
			<line id="XMLID_3_" style="fill:none;stroke:#DD4F2F;stroke-width:3.9688;stroke-miterlimit:10;" x1="-38" y1="809.1" x2="1.4" y2="809.1"/>
	</g>
	<g id="closed-email_4_">
		<g>
			<path style="fill:#E15829;stroke:#FFFFFF;stroke-width:0.2462;stroke-miterlimit:10;" d="M27.8,774.4c0.1-0.1,0.1-0.3,0.1-0.4
				c0-0.1-0.1-0.3-0.2-0.4L7.1,757.1c-0.2-0.2-0.6-0.1-0.8,0.1l-9.4,11.6c-0.2,0.2-0.2,0.5,0.1,0.7l15,2.3h0.1v0.1l5.4,14.2
				c0.2,0.2,0.6,0.1,0.7-0.1L27.8,774.4L27.8,774.4z"/>
		</g>
		<g>
			<path style="fill:#E15829;stroke:#FFFFFF;stroke-width:0.2462;stroke-miterlimit:10;" d="M-3.1,768.9c-0.1,0.1-0.1,0.3-0.1,0.4
				c0,0.1,0.1,0.3,0.2,0.4l20.6,16.5c0.2,0.2,0.6,0.1,0.8-0.1l9.4-11.6c0.2-0.2,0.2-0.5-0.1-0.7l-15-2.3h-0.1v-0.1l-5.4-14.2
				c-0.2-0.2-0.6-0.1-0.7,0.1C6.3,757.3-3.1,768.9-3.1,768.9z"/>
		</g>
	</g>
</g>
<script xlink:href="https://cdnjs.cloudflare.com/ajax/libs/snap.svg/0.4.1/snap.svg-min.js"></script>
<script>
	
	var moveUp = new Snap.Matrix();
 	moveUp.translate(0, -10);

 	var moveRight = new Snap.Matrix();
 	moveRight.translate(8, 0);

 	var moveLeft = new Snap.Matrix();
 	moveLeft.translate(-2, 0);

	Snap('#lamp1').animate({fill: '#0CEE0E'}, 800, function(){
		Snap('#lamp2').animate({fill: '#0CEE0E'}, 800, function(){
			Snap('#line1').animate({opacity: 1}, 800, function() {
		 	 	Snap('#line2').animate({opacity: 1}, 800, function() {
		 	 		Snap('#line3').animate({opacity: 1}, 800, function() {

					 	Snap('#letter').animate({transform: moveUp}, 1000,function() {
					 		Snap('#line2-1').animate({opacity:1}, 1000,function() {
					 			Snap('#line2-2').animate({opacity:1}, 1000,function() {
									Snap('#bell').animate({transform: moveRight}, 500, function() {
										Snap('#bell').animate({transform: moveLeft}, 500);
									});
								});
							});
					 	});
					});
				});
			});
		});
	});
	 	
</script>
</svg>
