<?xml version="1.0" encoding="utf-8"?>
<!-- Generator: Adobe Illustrator 21.0.2, SVG Export Plug-In . SVG Version: 6.00 Build 0)  -->
<!DOCTYPE svg PUBLIC "-//W3C//DTD SVG 1.1//EN" "http://www.w3.org/Graphics/SVG/1.1/DTD/svg11.dtd">
<svg version="1.1" id="Layer_1"
	 xmlns="http://www.w3.org/2000/svg" xmlns:xlink="http://www.w3.org/1999/xlink" x="0px" y="0px" width="649.5px" height="556.5px"
	 viewBox="0 0 649.5 556.5" style="enable-background:new 0 0 649.5 556.5;" xml:space="preserve">

	<g>
		<g>
			<polygon style="fill:none;stroke:#000000;stroke-miterlimit:10;" points="550.5,457.5 96.8,457.5 96.8,95 			"/>
			<circle style="fill:#EE4A4B;" cx="550.5" cy="457.5" r="99"/>
			<path style="fill:#FFFFFF;stroke:#EE4A4B;stroke-miterlimit:10;" d="M82.9,153.3l0.2-0.1C82.9,153.2,82.8,153.2,82.9,153.3z"/>
			<path style="fill:#FFFFFF;stroke:#EE4A4B;stroke-miterlimit:10;" d="M44.1,145.9v-10.1c0,0-9.3-8.6-12-20.6
				c-2.3-1.5-3.8-4-3.8-6.9v-11c0-2.4,1.5-4.6,3.2-6.1v-16c0,0,1.4-25.5,31.9-25.5c10.8,0,17.8,3.3,22.4,6.8V56
				c0,0-3.8-28.7,35.1-28.7C159.8,27.3,156,56,156,56v18.5c1.9,1.8,3.2,4.3,3.2,7.1v12.8c0,4.3-2.9,7.9-6.8,9.1
				c-2.2,6.8-5.3,13.2-9.5,19.1c-1,1.5-2,2.7-2.9,3.7v12c0,4.4,2.5,8.4,6.4,10.4l26.7,13.4c14.6-17.1,23.3-39.3,23.3-63.5
				c0-54.1-43.9-98-98-98c-54.1,0-98,43.9-98,98c0,24.9,9.3,47.6,24.6,64.9l13.8-8.6C42.1,153,44.1,149.6,44.1,145.9z"/>
			<path style="fill:#8697CB;" d="M173.2,162l-26.7-13.4c-3.9-2-6.4-6-6.4-10.4v-12c0.9-1,1.8-2.2,2.9-3.7
				c4.2-5.9,7.3-12.3,9.5-19.1c3.9-1.2,6.8-4.8,6.8-9.1V81.6c0-2.8-1.2-5.3-3.2-7.1V56c0,0,3.8-28.7-35.1-28.7
				C81.9,27.3,85.7,56,85.7,56v0.4v18c-1.9,1.8-3.2,4.3-3.2,7.1v12.8c0,0.4,0,0.8,0.1,1.2c0.4,2.8,2,5.3,4.3,6.8
				c0.3,1.1,0.6,2.2,0.9,3.3c0.1,0.3,0.2,0.5,0.2,0.8c0.3,1,0.6,1.9,1,2.9c0,0.1,0,0.1,0.1,0.2c0.4,1,0.8,2,1.2,3
				c0.1,0.1,0.1,0.3,0.2,0.4c0.4,0.9,0.8,1.8,1.3,2.7c0,0,0,0,0,0c3.3,6.5,6.7,10.6,6.7,10.6v11.7c0,4.3-2.3,8.2-6.1,10.2l-9.3,5.1
				c0,0,0,0,0,0l-0.2,0.1c0,0,0,0,0,0l-19,10.4c-7.6,4.2-12.6,11.8-13.3,20.4c14.1,7.9,30.4,12.4,47.8,12.4
				C128.4,196.5,155.2,183.1,173.2,162z"/>
			<path style="fill:#556080;" d="M50.7,184.1c0.7-8.5,5.6-16.2,13.3-20.4l19-10.4c-0.1-0.1,0-0.1,0.2-0.1l9.3-5.1
				c3.7-2,6.1-6,6.1-10.2v-11.7c0,0-8.4-10-11.6-23.9c-2.3-1.5-4-4-4.3-6.8c-0.1-0.4-0.1-0.8-0.1-1.2V81.6c0-2.8,1.2-5.3,3.2-7.1
				v-18c-4.5-3.5-11.5-6.8-22.4-6.8c-30.5,0-31.9,25.5-31.9,25.5v16c-1.7,1.5-3.2,3.7-3.2,6.1v11c0,2.9,1.5,5.5,3.8,6.9
				c2.8,12,12,20.6,12,20.6v10.1c0,3.7-2,7.1-5.2,8.8l-13.8,8.6C32.4,171.7,41,178.7,50.7,184.1z"/>
			<polygon style="fill:#556080;" points="82.9,153.3 82.9,153.3 64,163.7 			"/>
			<path style="fill:#556080;" d="M87,102.4c3.2,13.9,11.6,23.9,11.6,23.9s-3.4-4.1-6.7-10.6c0,0,0,0,0,0c-0.4-0.9-0.9-1.8-1.3-2.7
				c-0.1-0.1-0.1-0.3-0.2-0.4c-0.4-1-0.8-2-1.2-3c0-0.1,0-0.1-0.1-0.2c-0.3-0.9-0.7-1.9-1-2.9c-0.1-0.3-0.2-0.5-0.2-0.8
				C87.5,104.6,87.2,103.5,87,102.4c-2.3-1.5-4-4-4.3-6.8C83,98.4,84.6,100.9,87,102.4z"/>
			<path style="fill:#556080;" d="M92.4,148.2l-9.3,5.1c0,0,0,0,0,0L92.4,148.2c3.7-2,6.1-6,6.1-10.2
				C98.5,142.2,96.2,146.1,92.4,148.2z"/>
			
				<rect x="276" y="440.9" style="fill:#FFFFFF;stroke:#000000;stroke-width:0.7396;stroke-miterlimit:10;" width="95" height="31.1"/>
			<g>
				
					<rect x="257.4" y="260.3" transform="matrix(0.7817 0.6237 -0.6237 0.7817 243.3804 -141.2845)" style="fill:#FFFFFF;stroke:#000000;stroke-width:0.9054;stroke-miterlimit:10;" width="132.2" height="33.5"/>
				<g>
					<path d="M279.2,248.4l3.9-4.9c0.5-0.6,0.7-1.2,0.7-1.7c0-0.5-0.4-1-0.9-1.5c-0.8-0.6-1.5-0.9-2.3-0.7c-0.7,0.1-1.5,0.7-2.2,1.7
						l-3.1,3.9l-1.1-0.9l8.5-10.7l1.1,0.9l-2.6,3.2c-0.3,0.4-0.6,0.7-0.8,0.9l0.1,0.1c0.5-0.2,1.1-0.2,1.6-0.1
						c0.6,0.1,1.1,0.4,1.7,0.8c0.9,0.7,1.4,1.5,1.5,2.3c0.1,0.8-0.2,1.7-1,2.6l-3.9,4.9L279.2,248.4z"/>
					<path d="M287.3,254.9l0.6-1.3l-0.1,0c-0.8,0.2-1.4,0.2-1.9,0.1c-0.5-0.1-1-0.4-1.6-0.9c-0.7-0.6-1.2-1.3-1.3-2
						c-0.1-0.7,0.1-1.4,0.7-2.1c1.2-1.5,3.1-1.3,5.6,0.5l1.3,1l0.4-0.5c0.5-0.6,0.7-1.1,0.7-1.6c0-0.5-0.3-0.9-0.9-1.4
						c-0.6-0.5-1.5-0.9-2.6-1.1l0.3-1.2c0.5,0.1,1.1,0.3,1.6,0.5c0.5,0.2,1,0.5,1.5,0.9c0.9,0.7,1.4,1.4,1.5,2.2
						c0.1,0.7-0.2,1.6-0.9,2.4l-4.1,5.1L287.3,254.9z M285.4,252c0.7,0.6,1.4,0.8,2.1,0.8c0.7-0.1,1.4-0.4,1.9-1.1l0.5-0.7l-1.2-0.9
						c-0.9-0.7-1.7-1.1-2.3-1.1c-0.6-0.1-1.1,0.2-1.5,0.7c-0.3,0.4-0.5,0.8-0.4,1.2C284.7,251.3,285,251.7,285.4,252z"/>
					<path d="M292.2,258.7l3.2-9.8l1.2,1l-1.9,5.8c-0.5,1.3-0.8,2.2-1,2.5l0.1,0c0.2-0.2,0.8-0.6,1.7-1.1s2.8-1.7,5.8-3.6l1.2,1
						l-8.9,5.2L292.2,258.7z"/>
					<path d="M300.6,265.7c-1.1-0.9-1.7-1.9-1.8-3.1c-0.1-1.2,0.3-2.4,1.3-3.6c1-1.2,2-1.9,3.2-2.2c1.2-0.2,2.3,0,3.3,0.9
						c0.9,0.8,1.4,1.7,1.5,2.7c0.1,1.1-0.3,2.1-1.1,3.1l-0.6,0.7l-5.2-4.1c-0.7,0.9-1,1.8-0.9,2.5c0.1,0.8,0.5,1.5,1.2,2.1
						c0.8,0.6,1.7,1.1,2.8,1.4l-0.8,1c-0.5-0.1-1-0.3-1.4-0.5C301.6,266.4,301.2,266.1,300.6,265.7z M305.8,258.6
						c-0.6-0.5-1.2-0.7-1.9-0.6c-0.7,0.1-1.3,0.5-1.9,1.1l3.9,3.1c0.6-0.7,0.9-1.4,0.8-2C306.7,259.7,306.4,259.1,305.8,258.6z"/>
					<path d="M313.7,276l0.6-1.3l-0.1,0c-0.8,0.2-1.4,0.2-1.9,0.1c-0.5-0.1-1-0.4-1.6-0.9c-0.7-0.6-1.2-1.3-1.3-2
						c-0.1-0.7,0.1-1.4,0.7-2.1c1.2-1.5,3.1-1.3,5.6,0.5l1.3,1l0.4-0.5c0.5-0.6,0.7-1.1,0.7-1.6c0-0.5-0.3-0.9-0.9-1.4
						c-0.6-0.5-1.5-0.9-2.6-1.1l0.3-1.2c0.5,0.1,1.1,0.3,1.6,0.5c0.5,0.2,1,0.5,1.5,0.9c0.9,0.7,1.4,1.4,1.5,2.2
						c0.1,0.7-0.2,1.6-0.9,2.4l-4.1,5.1L313.7,276z M311.8,273.1c0.7,0.6,1.4,0.8,2.1,0.8c0.7-0.1,1.4-0.4,1.9-1.1l0.5-0.7l-1.2-0.9
						c-0.9-0.7-1.7-1.1-2.3-1.1c-0.6-0.1-1.1,0.2-1.5,0.7c-0.3,0.4-0.5,0.8-0.4,1.2C311.1,272.4,311.4,272.7,311.8,273.1z"/>
					<path d="M319.8,281.1c-1.1-0.9-1.7-1.9-1.7-3c-0.1-1.1,0.4-2.3,1.4-3.6c1-1.3,2.1-2,3.2-2.2c1.2-0.2,2.3,0.1,3.4,1
						c0.4,0.3,0.7,0.6,1,1c0.3,0.4,0.5,0.7,0.6,1l-1.1,0.7c-0.2-0.3-0.4-0.6-0.6-0.9c-0.2-0.3-0.5-0.5-0.7-0.7
						c-1.5-1.2-3.1-0.9-4.6,1.1c-0.7,0.9-1.1,1.8-1.1,2.6c0,0.8,0.3,1.5,1.1,2.1c0.6,0.5,1.4,0.9,2.3,1.1l-0.8,1
						C321.3,282,320.6,281.7,319.8,281.1z"/>
					<path d="M326.5,286.4c-1.1-0.9-1.7-1.9-1.7-3c-0.1-1.1,0.4-2.3,1.4-3.6c1-1.3,2.1-2,3.2-2.2c1.2-0.2,2.3,0.1,3.4,1
						c0.4,0.3,0.7,0.6,1,1c0.3,0.4,0.5,0.7,0.6,1l-1.1,0.7c-0.2-0.3-0.4-0.6-0.6-0.9s-0.5-0.5-0.7-0.7c-1.5-1.2-3.1-0.9-4.6,1.1
						c-0.7,0.9-1.1,1.8-1.1,2.6c0,0.8,0.3,1.5,1.1,2.1c0.6,0.5,1.4,0.9,2.3,1.1l-0.8,1C328,287.4,327.3,287,326.5,286.4z"/>
					<path d="M333.4,291.9c-1.1-0.9-1.7-1.9-1.8-3.1c-0.1-1.2,0.3-2.4,1.3-3.6c1-1.2,2-1.9,3.2-2.2c1.2-0.2,2.3,0,3.3,0.8
						c0.9,0.8,1.4,1.7,1.5,2.7c0.1,1.1-0.3,2.1-1.1,3.1l-0.6,0.7l-5.2-4.1c-0.7,0.9-1,1.8-0.9,2.5c0.1,0.8,0.5,1.5,1.2,2.1
						c0.8,0.6,1.7,1.1,2.8,1.4l-0.8,1c-0.5-0.1-1-0.3-1.4-0.5C334.4,292.6,333.9,292.3,333.4,291.9z M338.6,284.8
						c-0.6-0.5-1.2-0.7-1.9-0.6c-0.7,0.1-1.3,0.5-1.9,1.1l3.9,3.1c0.6-0.7,0.9-1.4,0.8-2C339.5,285.8,339.2,285.3,338.6,284.8z"/>
					<path d="M344.7,297.3c-0.6,0.7-1.3,1-2.1,1c-0.8,0-1.7-0.4-2.7-1.2c-1-0.8-1.7-1.6-2-2.3l0.8-1.1c0.2,0.5,0.5,0.9,0.8,1.4
						c0.3,0.4,0.7,0.8,1.1,1.1c0.6,0.5,1.1,0.7,1.6,0.8c0.5,0.1,0.9-0.1,1.2-0.5c0.2-0.3,0.3-0.6,0.2-1.1c-0.1-0.4-0.4-1.1-0.9-1.9
						c-0.5-0.8-0.8-1.4-0.9-1.9c-0.1-0.4-0.2-0.8-0.1-1.2c0.1-0.4,0.2-0.7,0.5-1.1c0.5-0.6,1.1-0.9,1.9-0.9c0.8,0,1.6,0.4,2.5,1.1
						c0.8,0.6,1.5,1.4,2,2.4l-1.1,0.6c-0.5-0.9-1.1-1.6-1.7-2.1c-0.5-0.4-1-0.7-1.4-0.7c-0.4,0-0.7,0.1-1,0.4
						c-0.2,0.2-0.2,0.4-0.3,0.6c0,0.2,0,0.5,0.2,0.8c0.1,0.3,0.4,0.8,0.9,1.6c0.6,1,1,1.8,1,2.4
						C345.3,296.3,345.1,296.8,344.7,297.3z"/>
					<path d="M351.4,302.7c-0.6,0.7-1.3,1-2.1,1c-0.8,0-1.7-0.4-2.7-1.2c-1-0.8-1.7-1.6-2-2.3l0.8-1.1c0.2,0.5,0.5,0.9,0.8,1.4
						c0.3,0.4,0.7,0.8,1.1,1.1c0.6,0.5,1.1,0.7,1.6,0.8c0.5,0.1,0.9-0.1,1.2-0.5c0.2-0.3,0.3-0.6,0.2-1.1c-0.1-0.4-0.4-1.1-0.9-1.9
						c-0.5-0.8-0.8-1.4-0.9-1.9c-0.1-0.4-0.2-0.8-0.1-1.2c0.1-0.4,0.2-0.7,0.5-1.1c0.5-0.6,1.1-0.9,1.9-0.9c0.8,0,1.6,0.4,2.5,1.1
						c0.8,0.6,1.5,1.4,2,2.4l-1.1,0.6c-0.5-0.9-1.1-1.6-1.7-2.1c-0.5-0.4-1-0.7-1.4-0.7s-0.7,0.1-1,0.4c-0.2,0.2-0.2,0.4-0.3,0.6
						c0,0.2,0,0.5,0.2,0.8c0.1,0.3,0.4,0.8,0.9,1.6c0.6,1,1,1.8,1,2.4C352,301.6,351.8,302.2,351.4,302.7z"/>
					<path d="M358.4,310.3c0.2,0.2,0.4,0.3,0.6,0.4c0.2,0.1,0.4,0.2,0.5,0.3l-0.7,0.9c-0.2,0-0.4-0.1-0.7-0.3
						c-0.3-0.2-0.5-0.3-0.7-0.5c-1.5-1.2-1.6-2.5-0.3-4l3.6-4.5l-1.1-0.9l0.4-0.5l1.5,0.4l1.8-1.2l0.7,0.5l-1.4,1.7l2.2,1.7
						l-0.7,0.9l-2.2-1.7l-3.5,4.4c-0.4,0.5-0.5,0.9-0.5,1.3C357.8,309.6,358,310,358.4,310.3z"/>
					<path d="M369.8,314.5c-1,1.2-2.1,1.9-3.2,2.1c-1.2,0.2-2.3-0.1-3.4-1c-0.7-0.5-1.1-1.2-1.4-1.9c-0.3-0.7-0.3-1.5-0.1-2.3
						c0.2-0.8,0.6-1.6,1.2-2.4c1-1.2,2-1.9,3.2-2.1c1.2-0.2,2.3,0.1,3.4,1c1.1,0.8,1.6,1.9,1.7,3.1
						C371.2,312.1,370.7,313.3,369.8,314.5z M364,309.9c-0.8,1-1.2,1.8-1.2,2.7c0,0.8,0.3,1.5,1.1,2.1c0.7,0.6,1.5,0.8,2.3,0.6
						c0.8-0.2,1.6-0.8,2.3-1.7c0.8-1,1.1-1.8,1.2-2.6c0-0.8-0.4-1.5-1.1-2.1c-0.7-0.6-1.5-0.8-2.3-0.6
						C365.6,308.4,364.8,309,364,309.9z"/>
				</g>
			</g>
			<g>
				<path d="M310.2,461.9c-0.6,0-1.2-0.1-1.7-0.3c-0.5-0.2-1-0.6-1.3-1.1h-0.1c0.1,0.6,0.1,1.1,0.1,1.6v4h-1.5v-14h1.2l0.2,1.3h0.1
					c0.4-0.5,0.8-0.9,1.3-1.1s1.1-0.4,1.7-0.4c1.3,0,2.3,0.4,3,1.3c0.7,0.9,1,2.1,1,3.7c0,1.6-0.4,2.8-1.1,3.7
					C312.4,461.5,311.4,461.9,310.2,461.9z M310,453.2c-1,0-1.7,0.3-2.1,0.8s-0.7,1.4-0.7,2.6v0.3c0,1.4,0.2,2.3,0.7,2.9
					c0.5,0.6,1.2,0.9,2.2,0.9c0.8,0,1.5-0.3,2-1s0.7-1.6,0.7-2.8c0-1.2-0.2-2.1-0.7-2.8C311.5,453.5,310.8,453.2,310,453.2z"/>
				<path d="M322.7,461.8l-0.3-1.4h-0.1c-0.5,0.6-1,1-1.4,1.2c-0.5,0.2-1.1,0.3-1.8,0.3c-1,0-1.7-0.2-2.2-0.7s-0.8-1.2-0.8-2.1
					c0-1.9,1.6-3,4.7-3.1l1.6-0.1v-0.6c0-0.8-0.2-1.3-0.5-1.7c-0.3-0.4-0.8-0.5-1.6-0.5c-0.8,0-1.7,0.2-2.7,0.7l-0.4-1.1
					c0.5-0.3,1-0.5,1.6-0.6s1.1-0.2,1.7-0.2c1.1,0,2,0.3,2.6,0.8c0.6,0.5,0.8,1.3,0.8,2.5v6.6H322.7z M319.4,460.7
					c0.9,0,1.6-0.2,2.1-0.7c0.5-0.5,0.8-1.2,0.8-2.1V457l-1.5,0.1c-1.2,0-2,0.2-2.5,0.5c-0.5,0.3-0.8,0.8-0.8,1.5
					c0,0.5,0.2,0.9,0.5,1.2S318.8,460.7,319.4,460.7z"/>
				<path d="M325.2,452.1h1.6l2.1,5.5c0.5,1.3,0.8,2.2,0.9,2.7h0.1c0.1-0.3,0.2-0.8,0.5-1.5c0.2-0.7,1-2.9,2.4-6.7h1.6l-4.1,11
					c-0.4,1.1-0.9,1.9-1.4,2.3c-0.5,0.5-1.2,0.7-2,0.7c-0.4,0-0.9,0-1.3-0.1v-1.2c0.3,0.1,0.7,0.1,1.1,0.1c1,0,1.7-0.6,2.1-1.7
					l0.5-1.4L325.2,452.1z"/>
				<path d="M342,459.1c0,0.9-0.3,1.6-1,2.1s-1.6,0.7-2.8,0.7c-1.3,0-2.3-0.2-3-0.6V460c0.5,0.2,1,0.4,1.5,0.6s1,0.2,1.5,0.2
					c0.8,0,1.3-0.1,1.8-0.4c0.4-0.2,0.6-0.6,0.6-1.1c0-0.4-0.2-0.7-0.5-1c-0.3-0.3-1-0.6-1.9-0.9c-0.9-0.3-1.5-0.6-1.9-0.9
					c-0.4-0.2-0.7-0.5-0.8-0.8c-0.2-0.3-0.3-0.7-0.3-1.1c0-0.8,0.3-1.4,1-1.9c0.6-0.5,1.5-0.7,2.6-0.7c1,0,2.1,0.2,3,0.6l-0.5,1.2
					c-1-0.4-1.8-0.6-2.6-0.6c-0.7,0-1.2,0.1-1.6,0.3s-0.5,0.5-0.5,0.9c0,0.3,0.1,0.5,0.2,0.7c0.1,0.2,0.3,0.4,0.6,0.5
					s0.9,0.4,1.7,0.7c1.1,0.4,1.9,0.8,2.3,1.3S342,458.5,342,459.1z"/>
			</g>
			<g>
				<path style="fill:#FFFFFF;stroke:#23526B;stroke-miterlimit:10;" d="M197.5,457.5c0-54.1-43.9-98-98-98c-54.1,0-98,43.9-98,98
					c0,35.2,18.6,66.1,46.5,83.4V390.5h31v-7h59v54h13v103.4C178.9,523.6,197.5,492.7,197.5,457.5z"/>
				<polygon style="fill:#525252;" points="110.6,437.5 138,437.5 138,383.5 79,383.5 79,390.5 110.6,390.5 				"/>
				<path style="fill:#556080;" d="M70.7,522.9H87v31.7c4.1,0.5,8.3,0.8,12.5,0.8c1.7,0,3.3,0,5-0.1v-58.1H79V390.5H48v150.4
					c7,4.3,14.6,7.8,22.7,10.3V522.9z M83.8,502.6h15.8v6.9H83.8V502.6z M58.3,401.5h15.8v6.9H58.3V401.5z M58.3,416.6h15.8v6.9
					H58.3V416.6z M58.3,430.4h15.8v6.9H58.3V430.4z M58.3,444.8h15.8v6.9H58.3V444.8z M58.3,459.3h15.8v6.9H58.3V459.3z M58.3,473.7
					h15.8v6.9H58.3V473.7z M58.3,486.8h15.8v6.9H58.3V486.8z M58.3,502.6h15.8v6.9H58.3V502.6z"/>
				<path style="fill:#556080;" d="M104.5,497.2v-59.7h6.1v-47H79v106.7H104.5z M83.8,401.5h15.8v6.9H83.8V401.5z M83.8,416.6h15.8
					v6.9H83.8V416.6z M83.8,430.4h15.8v6.9H83.8V430.4z M83.8,444.8h15.8v6.9H83.8V444.8z M83.8,459.3h15.8v6.9H83.8V459.3z
					 M83.8,473.7h15.8v6.9H83.8V473.7z M99.6,486.8v6.9H83.8v-6.9H99.6z"/>
				<path style="fill:#8697CB;" d="M138,437.5V449h6.6v5.6H138v8.1h6.6v5.6H138v7.4h6.6v5.6H138v8.4h6.6v5.6H138v2h-27.4v57.6
					c3.1-0.3,6.1-0.8,9.1-1.5v-18.9H136v13.9c5.2-2.1,10.3-4.6,15-7.6V437.5H138z M111,503.1h12.9v5.6H111V503.1z M124.9,522.6H112
					v-5.6h12.9V522.6z M131.7,503.1h12.9v5.6h-12.9V503.1z M132.7,522.6v-5.6h12.9v5.6H132.7z"/>
				<path style="fill:#8697CB;" d="M110.6,497.2H138v-2h-6.3v-5.6h6.3v-8.4h-6.3v-5.6h6.3v-7.4h-6.3v-5.6h6.3v-8.1h-6.3V449h6.3
					v-11.5h-27.4V497.2z M111,449h12.9v5.6H111V449z M111,462.7h12.9v5.6H111V462.7z M111,475.7h12.9v5.6H111V475.7z M123.9,489.7
					v5.6H111v-5.6H123.9z"/>
				<path style="fill:#8697CB;" d="M104.5,555.4c2.1-0.1,4.1-0.3,6.1-0.5v-57.6h-6.1V555.4z"/>
				<rect x="104.5" y="437.5" style="fill:#8697CB;" width="6.1" height="59.7"/>
				<rect x="58.3" y="401.5" style="fill:#FFFF00;" width="15.8" height="6.9"/>
				<rect x="83.8" y="401.5" style="fill:#F7F79F;" width="15.8" height="6.9"/>
				<rect x="58.3" y="416.6" style="fill:#F7F79F;" width="15.8" height="6.9"/>
				<rect x="83.8" y="416.6" style="fill:#F7F79F;" width="15.8" height="6.9"/>
				<rect x="58.3" y="430.4" style="fill:#F7F79F;" width="15.8" height="6.9"/>
				<rect x="83.8" y="430.4" style="fill:#F7F79F;" width="15.8" height="6.9"/>
				<rect x="58.3" y="444.8" style="fill:#F7F79F;" width="15.8" height="6.9"/>
				<rect x="83.8" y="444.8" style="fill:#FFFF00;" width="15.8" height="6.9"/>
				<rect x="58.3" y="459.3" style="fill:#F7F79F;" width="15.8" height="6.9"/>
				<rect x="83.8" y="459.3" style="fill:#F7F79F;" width="15.8" height="6.9"/>
				<rect x="58.3" y="473.7" style="fill:#F7F79F;" width="15.8" height="6.9"/>
				<rect x="83.8" y="473.7" style="fill:#F7F79F;" width="15.8" height="6.9"/>
				<rect x="58.3" y="486.8" style="fill:#F7F79F;" width="15.8" height="6.9"/>
				<rect x="83.8" y="486.8" style="fill:#F7F79F;" width="15.8" height="6.9"/>
				<rect x="58.3" y="502.6" style="fill:#F7F79F;" width="15.8" height="6.9"/>
				<rect x="83.8" y="502.6" style="fill:#F7F79F;" width="15.8" height="6.9"/>
				<path style="fill:#F7F79F;" d="M70.7,522.9v28.2c5.3,1.6,10.7,2.8,16.3,3.5v-31.7H70.7z"/>
				<path style="fill:#F7F79F;" d="M136,534.5h-16.3v18.9c5.6-1.2,11.1-2.8,16.3-4.9V534.5z"/>
				<rect x="111" y="449" style="fill:#F7F79F;" width="12.9" height="5.6"/>
				<rect x="138" y="449" style="fill:#F7F79F;" width="6.6" height="5.6"/>
				<rect x="131.7" y="449" style="fill:#F7F79F;" width="6.3" height="5.6"/>
				<rect x="111" y="489.7" style="fill:#F7F79F;" width="12.9" height="5.6"/>
				<rect x="138" y="489.7" style="fill:#F7F79F;" width="6.6" height="5.6"/>
				<rect x="131.7" y="489.7" style="fill:#F7F79F;" width="6.3" height="5.6"/>
				<rect x="111" y="503.1" style="fill:#F7F79F;" width="12.9" height="5.6"/>
				<rect x="131.7" y="503.1" style="fill:#F7F79F;" width="12.9" height="5.6"/>
				<rect x="111" y="475.7" style="fill:#F7F79F;" width="12.9" height="5.6"/>
				<rect x="138" y="475.7" style="fill:#F7F79F;" width="6.6" height="5.6"/>
				<rect x="131.7" y="475.7" style="fill:#F7F79F;" width="6.3" height="5.6"/>
				<rect x="111" y="462.7" style="fill:#F7F79F;" width="12.9" height="5.6"/>
				<rect x="138" y="462.7" style="fill:#F7F79F;" width="6.6" height="5.6"/>
				<rect x="131.7" y="462.7" style="fill:#F7F79F;" width="6.3" height="5.6"/>
				<rect x="112" y="517.1" style="fill:#F7F79F;" width="12.9" height="5.6"/>
				<rect x="132.7" y="517.1" style="fill:#F7F79F;" width="12.9" height="5.6"/>
			</g>
			<path style="fill:#EE4A4B;" d="M191.3,110.5H5.8c-2.9,0-5.3-2.4-5.3-5.3V86.8c0-2.9,2.4-5.3,5.3-5.3h185.5c2.9,0,5.3,2.4,5.3,5.3
				v18.5C196.5,108.1,194.1,110.5,191.3,110.5z"/>
			<g>
				<path style="fill:#FFFFFF;" d="M84.1,89.8v8.3c0,1.5-0.4,2.6-1.3,3.5s-2.1,1.3-3.6,1.3s-2.7-0.4-3.6-1.3s-1.3-2-1.3-3.5v-8.3
					h1.5v8.4c0,1.1,0.3,1.9,0.9,2.5s1.4,0.9,2.6,0.9c1.1,0,1.9-0.3,2.5-0.9s0.9-1.4,0.9-2.5v-8.4H84.1z"/>
				<path style="fill:#FFFFFF;" d="M94.7,99.2c0,1.1-0.4,2-1.2,2.6s-1.9,0.9-3.3,0.9c-1.5,0-2.7-0.2-3.5-0.6v-1.4
					c0.5,0.2,1.1,0.4,1.7,0.5s1.2,0.2,1.8,0.2c1,0,1.7-0.2,2.3-0.6s0.8-0.9,0.8-1.6c0-0.4-0.1-0.8-0.3-1.1c-0.2-0.3-0.5-0.5-0.9-0.8
					c-0.4-0.2-1.1-0.5-1.9-0.8c-1.2-0.4-2-0.9-2.6-1.5s-0.8-1.4-0.8-2.3c0-1,0.4-1.8,1.1-2.4s1.7-0.9,3-0.9c1.3,0,2.5,0.2,3.5,0.7
					l-0.5,1.3c-1.1-0.4-2.1-0.7-3.1-0.7c-0.8,0-1.4,0.2-1.9,0.5s-0.7,0.8-0.7,1.4c0,0.4,0.1,0.8,0.2,1.1s0.4,0.5,0.8,0.8
					c0.4,0.2,1,0.5,1.8,0.8c1.3,0.5,2.3,1,2.8,1.5C94.5,97.6,94.7,98.3,94.7,99.2z"/>
				<path style="fill:#FFFFFF;" d="M104.5,102.6h-7.2V89.8h7.2v1.3h-5.7v4.1h5.3v1.3h-5.3v4.7h5.7V102.6z"/>
				<path style="fill:#FFFFFF;" d="M108.8,97.3v5.3h-1.5V89.8h3.5c1.6,0,2.7,0.3,3.5,0.9c0.8,0.6,1.1,1.5,1.1,2.7
					c0,1.7-0.9,2.8-2.6,3.4l3.5,5.8h-1.8l-3.1-5.3H108.8z M108.8,96h2c1.1,0,1.8-0.2,2.3-0.6s0.7-1,0.7-1.9c0-0.8-0.3-1.5-0.8-1.8
					c-0.5-0.4-1.3-0.6-2.4-0.6h-1.9V96z"/>
				<path style="fill:#FFFFFF;" d="M125.7,99.2c0,1.1-0.4,2-1.2,2.6s-1.9,0.9-3.3,0.9c-1.5,0-2.7-0.2-3.5-0.6v-1.4
					c0.5,0.2,1.1,0.4,1.7,0.5s1.2,0.2,1.8,0.2c1,0,1.7-0.2,2.3-0.6s0.8-0.9,0.8-1.6c0-0.4-0.1-0.8-0.3-1.1c-0.2-0.3-0.5-0.5-0.9-0.8
					c-0.4-0.2-1.1-0.5-1.9-0.8c-1.2-0.4-2-0.9-2.6-1.5s-0.8-1.4-0.8-2.3c0-1,0.4-1.8,1.1-2.4s1.7-0.9,3-0.9c1.3,0,2.5,0.2,3.5,0.7
					l-0.5,1.3c-1.1-0.4-2.1-0.7-3.1-0.7c-0.8,0-1.4,0.2-1.9,0.5s-0.7,0.8-0.7,1.4c0,0.4,0.1,0.8,0.2,1.1s0.4,0.5,0.8,0.8
					c0.4,0.2,1,0.5,1.8,0.8c1.3,0.5,2.3,1,2.8,1.5C125.5,97.6,125.7,98.3,125.7,99.2z"/>
			</g>
			<path style="fill:#EE4A4B;" d="M192.3,471.5H6.8c-2.9,0-5.3-2.4-5.3-5.3v-18.5c0-2.9,2.4-5.3,5.3-5.3h185.5
				c2.9,0,5.3,2.4,5.3,5.3v18.5C197.5,469.1,195.1,471.5,192.3,471.5z"/>
			<g>
				<path style="fill:#FFFFFF;" d="M61,452.6c-1.4,0-2.5,0.5-3.3,1.4s-1.2,2.2-1.2,3.9c0,1.7,0.4,3,1.2,3.9s1.9,1.4,3.4,1.4
					c0.9,0,1.9-0.2,3.1-0.5v1.3c-0.9,0.3-2,0.5-3.3,0.5c-1.9,0-3.4-0.6-4.4-1.7s-1.5-2.8-1.5-4.9c0-1.3,0.2-2.5,0.7-3.5
					s1.2-1.8,2.1-2.3s2-0.8,3.3-0.8c1.3,0,2.5,0.2,3.5,0.7l-0.6,1.3C63,452.8,62,452.6,61,452.6z"/>
				<path style="fill:#FFFFFF;" d="M78,457.8c0,2.1-0.5,3.7-1.6,4.9s-2.5,1.8-4.3,1.8c-1.9,0-3.4-0.6-4.4-1.7
					c-1-1.2-1.5-2.8-1.5-4.9c0-2.1,0.5-3.7,1.5-4.9s2.5-1.7,4.4-1.7c1.8,0,3.3,0.6,4.3,1.8S78,455.8,78,457.8z M67.8,457.8
					c0,1.7,0.4,3.1,1.1,4c0.7,0.9,1.8,1.3,3.2,1.3c1.4,0,2.5-0.4,3.2-1.3s1.1-2.2,1.1-4c0-1.7-0.4-3-1.1-3.9s-1.8-1.3-3.2-1.3
					c-1.4,0-2.5,0.5-3.2,1.3C68.2,454.8,67.8,456.1,67.8,457.8z"/>
				<path style="fill:#FFFFFF;" d="M86.6,464.3l-4.4-11.4h-0.1c0.1,0.9,0.1,2,0.1,3.2v8.2h-1.4v-12.8h2.3l4.1,10.6h0.1l4.1-10.6h2.2
					v12.8h-1.5V456c0-0.9,0-2,0.1-3.1h-0.1l-4.4,11.4H86.6z"/>
				<path style="fill:#FFFFFF;" d="M105.3,455.2c0,1.3-0.4,2.3-1.3,3c-0.9,0.7-2.2,1-3.8,1h-1.5v5.1h-1.5v-12.8h3.3
					C103.7,451.4,105.3,452.7,105.3,455.2z M98.6,457.9h1.3c1.3,0,2.3-0.2,2.9-0.6s0.9-1.1,0.9-2.1c0-0.8-0.3-1.5-0.8-1.9
					s-1.4-0.6-2.6-0.6h-1.7V457.9z"/>
				<path style="fill:#FFFFFF;" d="M116.1,464.3l-1.6-4.1h-5.2l-1.6,4.1h-1.5l5.1-12.9h1.3l5.1,12.9H116.1z M114,458.8l-1.5-4
					c-0.2-0.5-0.4-1.1-0.6-1.9c-0.1,0.6-0.3,1.2-0.6,1.9l-1.5,4H114z"/>
				<path style="fill:#FFFFFF;" d="M129.4,464.3h-1.7l-7-10.8h-0.1c0.1,1.3,0.1,2.4,0.1,3.5v7.3h-1.4v-12.8h1.7l7,10.7h0.1
					c0-0.2,0-0.7-0.1-1.5s-0.1-1.5,0-1.8v-7.4h1.4V464.3z"/>
				<path style="fill:#FFFFFF;" d="M136.2,457.8l3.4-6.4h1.6l-4.3,7.9v5h-1.5v-4.9l-4.3-7.9h1.6L136.2,457.8z"/>
			</g>
			<g>
				<path style="fill:#FFFFFF;" d="M516,463.9l-0.9-3.1h-4.7l-0.9,3.1h-2.9L511,451h3.3l4.6,12.9H516z M514.4,458.6
					c-0.9-2.8-1.3-4.3-1.5-4.7s-0.2-0.7-0.2-0.9c-0.2,0.8-0.7,2.6-1.7,5.6H514.4z"/>
				<path style="fill:#FFFFFF;" d="M526,453.2c-1,0-1.8,0.4-2.4,1.2s-0.8,1.8-0.8,3.2c0,2.9,1.1,4.3,3.2,4.3c0.9,0,2-0.2,3.3-0.7
					v2.3c-1.1,0.4-2.2,0.7-3.5,0.7c-1.9,0-3.3-0.6-4.3-1.7s-1.5-2.8-1.5-4.9c0-1.3,0.2-2.5,0.7-3.5s1.2-1.8,2.1-2.3s2-0.8,3.2-0.8
					c1.2,0,2.5,0.3,3.8,0.9l-0.9,2.2c-0.5-0.2-1-0.4-1.5-0.6S526.5,453.2,526,453.2z"/>
				<path style="fill:#FFFFFF;" d="M537.5,453.2c-1,0-1.8,0.4-2.4,1.2s-0.8,1.8-0.8,3.2c0,2.9,1.1,4.3,3.2,4.3c0.9,0,2-0.2,3.3-0.7
					v2.3c-1.1,0.4-2.2,0.7-3.5,0.7c-1.9,0-3.3-0.6-4.3-1.7s-1.5-2.8-1.5-4.9c0-1.3,0.2-2.5,0.7-3.5s1.2-1.8,2.1-2.3s2-0.8,3.2-0.8
					c1.2,0,2.5,0.3,3.8,0.9l-0.9,2.2c-0.5-0.2-1-0.4-1.5-0.6S537.9,453.2,537.5,453.2z"/>
				<path style="fill:#FFFFFF;" d="M555.1,457.5c0,2.1-0.5,3.8-1.6,4.9s-2.6,1.7-4.5,1.7s-3.5-0.6-4.5-1.7s-1.6-2.8-1.6-4.9
					s0.5-3.8,1.6-4.9c1.1-1.1,2.6-1.7,4.5-1.7s3.5,0.6,4.5,1.7C554.6,453.7,555.1,455.4,555.1,457.5z M545.8,457.5
					c0,1.4,0.3,2.5,0.8,3.2s1.4,1.1,2.4,1.1c2.2,0,3.3-1.4,3.3-4.3c0-2.9-1.1-4.3-3.2-4.3c-1.1,0-1.9,0.4-2.5,1.1
					S545.8,456.1,545.8,457.5z"/>
				<path style="fill:#FFFFFF;" d="M568.3,451.1v8.3c0,0.9-0.2,1.8-0.6,2.5c-0.4,0.7-1,1.3-1.8,1.6s-1.8,0.6-2.8,0.6
					c-1.7,0-2.9-0.4-3.8-1.3s-1.4-2-1.4-3.5v-8.3h2.7v7.9c0,1,0.2,1.7,0.6,2.2s1.1,0.7,2,0.7c0.9,0,1.5-0.2,1.9-0.7s0.6-1.2,0.6-2.2
					v-7.8H568.3z"/>
				<path style="fill:#FFFFFF;" d="M582.8,463.9h-3.5l-5.6-9.7h-0.1c0.1,1.7,0.2,2.9,0.2,3.7v6h-2.4v-12.8h3.4l5.6,9.6h0.1
					c-0.1-1.7-0.1-2.9-0.1-3.5v-6.1h2.5V463.9z"/>
				<path style="fill:#FFFFFF;" d="M591,463.9h-2.7v-10.6h-3.5v-2.3h9.7v2.3H591V463.9z"/>
			</g>
			<g>
				
					<rect x="39" y="262.4" style="fill:#FFFFFF;stroke:#000000;stroke-width:0.7877;stroke-miterlimit:10;" width="115" height="29.1"/>
				<g>
					<path d="M76.8,282.3h-1.5l-2.6-8.6c-0.1-0.4-0.3-0.9-0.4-1.4s-0.2-0.9-0.2-1c-0.1,0.8-0.3,1.6-0.6,2.5l-2.5,8.6h-1.5l-3.4-12.8
						h1.6l2,7.9c0.3,1.1,0.5,2.1,0.6,3c0.2-1.1,0.4-2.1,0.7-3.1l2.3-7.8h1.6l2.4,7.9c0.3,0.9,0.5,1.9,0.7,3.1c0.1-0.8,0.3-1.8,0.6-3
						l2-7.9h1.6L76.8,282.3z"/>
					<path d="M90.3,277.4c0,1.6-0.4,2.8-1.2,3.7s-1.9,1.3-3.3,1.3c-0.9,0-1.6-0.2-2.3-0.6s-1.2-1-1.5-1.7s-0.5-1.6-0.5-2.7
						c0-1.6,0.4-2.8,1.2-3.7s1.9-1.3,3.3-1.3c1.3,0,2.4,0.4,3.2,1.3S90.3,275.9,90.3,277.4z M83,277.4c0,1.2,0.2,2.2,0.7,2.8
						s1.2,1,2.2,1s1.7-0.3,2.2-1c0.5-0.6,0.7-1.6,0.7-2.8c0-1.2-0.2-2.2-0.7-2.8c-0.5-0.6-1.2-1-2.2-1c-1,0-1.7,0.3-2.2,0.9
						S83,276.2,83,277.4z"/>
					<path d="M97.3,272.5c0.4,0,0.8,0,1.2,0.1l-0.2,1.4c-0.4-0.1-0.8-0.1-1.1-0.1c-0.8,0-1.4,0.3-2,0.9c-0.6,0.6-0.8,1.4-0.8,2.4
						v5.2h-1.5v-9.6h1.2l0.2,1.8h0.1c0.4-0.6,0.8-1.1,1.3-1.5S96.7,272.5,97.3,272.5z"/>
					<path d="M101.7,277.3c0.3-0.4,0.6-0.8,1.2-1.4l3.1-3.3h1.7l-3.9,4.1l4.2,5.5h-1.8l-3.4-4.6l-1.1,0.9v3.6h-1.4v-13.7h1.4v7.3
						C101.7,276.2,101.7,276.7,101.7,277.3L101.7,277.3z"/>
					<path d="M120.3,282.3l-0.3-1.4h-0.1c-0.5,0.6-1,1-1.4,1.2c-0.5,0.2-1.1,0.3-1.8,0.3c-1,0-1.7-0.2-2.2-0.7s-0.8-1.2-0.8-2.1
						c0-1.9,1.6-3,4.7-3.1l1.6-0.1v-0.6c0-0.8-0.2-1.3-0.5-1.7c-0.3-0.4-0.8-0.5-1.6-0.5c-0.8,0-1.7,0.2-2.7,0.7l-0.4-1.1
						c0.5-0.3,1-0.5,1.6-0.6s1.1-0.2,1.7-0.2c1.1,0,2,0.3,2.6,0.8c0.6,0.5,0.8,1.3,0.8,2.5v6.6H120.3z M117,281.2
						c0.9,0,1.6-0.2,2.1-0.7c0.5-0.5,0.8-1.2,0.8-2.1v-0.9l-1.5,0.1c-1.2,0-2,0.2-2.5,0.5c-0.5,0.3-0.8,0.8-0.8,1.5
						c0,0.5,0.2,0.9,0.5,1.2S116.4,281.2,117,281.2z"/>
					<path d="M127.5,281.2c0.3,0,0.5,0,0.7-0.1s0.4-0.1,0.6-0.1v1.1c-0.2,0.1-0.4,0.1-0.7,0.2c-0.3,0-0.6,0.1-0.8,0.1
						c-1.9,0-2.8-1-2.8-2.9v-5.7h-1.4v-0.7l1.4-0.6l0.6-2.1h0.8v2.2h2.8v1.1h-2.8v5.7c0,0.6,0.1,1,0.4,1.3S127,281.2,127.5,281.2z"
						/>
				</g>
			</g>
		</g>
	</g>
</svg>
