<svg class="campaigncanvas-workspace show-path" xmlns="http://www.w3.org/2000/svg" xmlns:html="http://www.w3.org/1999/xhtml" id="svgSjgg8fy3q6q4">
<style>
    @import "https://scriptkit.copernica.com/dev/frontend/campaigncanvas.css";
    tspan, text
    {
        font-family:    "Arial";
        font-size:      8pt;
    }
</style>
<g transform="matrix(1,0,0,1,676.6485,149.3243)"><g class="campaigncanvas-grid"><line x1="-1008" x2="4016" y1="-1008" y2="-1008" class="grid-line main"></line><line x1="-1008" x2="-1008" y1="-1008" y2="4016" class="grid-line main"></line><line x1="-1008" x2="4016" y1="4016" y2="4016" class="grid-line main"></line><line x1="4016" x2="4016" y1="-1008" y2="4016" class="grid-line main"></line><line x1="-992" x2="-992" y1="-992" y2="4000" class="grid-line"></line><line x1="-992" x2="4000" y1="-992" y2="-992" class="grid-line"></line><line x1="-976" x2="-976" y1="-992" y2="4000" class="grid-line"></line><line x1="-992" x2="4000" y1="-976" y2="-976" class="grid-line"></line><line x1="-960" x2="-960" y1="-992" y2="4000" class="grid-line"></line><line x1="-992" x2="4000" y1="-960" y2="-960" class="grid-line"></line><line x1="-944" x2="-944" y1="-992" y2="4000" class="grid-line"></line><line x1="-992" x2="4000" y1="-944" y2="-944" class="grid-line"></line><line x1="-928" x2="-928" y1="-992" y2="4000" class="grid-line"></line><line x1="-992" x2="4000" y1="-928" y2="-928" class="grid-line"></line><line x1="-912" x2="-912" y1="-992" y2="4000" class="grid-line"></line><line x1="-992" x2="4000" y1="-912" y2="-912" class="grid-line"></line><line x1="-896" x2="-896" y1="-992" y2="4000" class="grid-line"></line><line x1="-992" x2="4000" y1="-896" y2="-896" class="grid-line"></line><line x1="-880" x2="-880" y1="-992" y2="4000" class="grid-line"></line><line x1="-992" x2="4000" y1="-880" y2="-880" class="grid-line"></line><line x1="-864" x2="-864" y1="-992" y2="4000" class="grid-line"></line><line x1="-992" x2="4000" y1="-864" y2="-864" class="grid-line"></line><line x1="-848" x2="-848" y1="-992" y2="4000" class="grid-line"></line><line x1="-992" x2="4000" y1="-848" y2="-848" class="grid-line"></line><line x1="-832" x2="-832" y1="-992" y2="4000" class="grid-line"></line><line x1="-992" x2="4000" y1="-832" y2="-832" class="grid-line"></line><line x1="-816" x2="-816" y1="-992" y2="4000" class="grid-line"></line><line x1="-992" x2="4000" y1="-816" y2="-816" class="grid-line"></line><line x1="-800" x2="-800" y1="-992" y2="4000" class="grid-line"></line><line x1="-992" x2="4000" y1="-800" y2="-800" class="grid-line"></line><line x1="-784" x2="-784" y1="-992" y2="4000" class="grid-line"></line><line x1="-992" x2="4000" y1="-784" y2="-784" class="grid-line"></line><line x1="-768" x2="-768" y1="-992" y2="4000" class="grid-line"></line><line x1="-992" x2="4000" y1="-768" y2="-768" class="grid-line"></line><line x1="-752" x2="-752" y1="-992" y2="4000" class="grid-line"></line><line x1="-992" x2="4000" y1="-752" y2="-752" class="grid-line"></line><line x1="-736" x2="-736" y1="-992" y2="4000" class="grid-line"></line><line x1="-992" x2="4000" y1="-736" y2="-736" class="grid-line"></line><line x1="-720" x2="-720" y1="-992" y2="4000" class="grid-line"></line><line x1="-992" x2="4000" y1="-720" y2="-720" class="grid-line"></line><line x1="-704" x2="-704" y1="-992" y2="4000" class="grid-line"></line><line x1="-992" x2="4000" y1="-704" y2="-704" class="grid-line"></line><line x1="-688" x2="-688" y1="-992" y2="4000" class="grid-line"></line><line x1="-992" x2="4000" y1="-688" y2="-688" class="grid-line"></line><line x1="-672" x2="-672" y1="-992" y2="4000" class="grid-line"></line><line x1="-992" x2="4000" y1="-672" y2="-672" class="grid-line"></line><line x1="-656" x2="-656" y1="-992" y2="4000" class="grid-line"></line><line x1="-992" x2="4000" y1="-656" y2="-656" class="grid-line"></line><line x1="-640" x2="-640" y1="-992" y2="4000" class="grid-line"></line><line x1="-992" x2="4000" y1="-640" y2="-640" class="grid-line"></line><line x1="-624" x2="-624" y1="-992" y2="4000" class="grid-line"></line><line x1="-992" x2="4000" y1="-624" y2="-624" class="grid-line"></line><line x1="-608" x2="-608" y1="-992" y2="4000" class="grid-line"></line><line x1="-992" x2="4000" y1="-608" y2="-608" class="grid-line"></line><line x1="-592" x2="-592" y1="-992" y2="4000" class="grid-line"></line><line x1="-992" x2="4000" y1="-592" y2="-592" class="grid-line"></line><line x1="-576" x2="-576" y1="-992" y2="4000" class="grid-line"></line><line x1="-992" x2="4000" y1="-576" y2="-576" class="grid-line"></line><line x1="-560" x2="-560" y1="-992" y2="4000" class="grid-line"></line><line x1="-992" x2="4000" y1="-560" y2="-560" class="grid-line"></line><line x1="-544" x2="-544" y1="-992" y2="4000" class="grid-line"></line><line x1="-992" x2="4000" y1="-544" y2="-544" class="grid-line"></line><line x1="-528" x2="-528" y1="-992" y2="4000" class="grid-line"></line><line x1="-992" x2="4000" y1="-528" y2="-528" class="grid-line"></line><line x1="-512" x2="-512" y1="-992" y2="4000" class="grid-line"></line><line x1="-992" x2="4000" y1="-512" y2="-512" class="grid-line"></line><line x1="-496" x2="-496" y1="-992" y2="4000" class="grid-line"></line><line x1="-992" x2="4000" y1="-496" y2="-496" class="grid-line"></line><line x1="-480" x2="-480" y1="-992" y2="4000" class="grid-line"></line><line x1="-992" x2="4000" y1="-480" y2="-480" class="grid-line"></line><line x1="-464" x2="-464" y1="-992" y2="4000" class="grid-line"></line><line x1="-992" x2="4000" y1="-464" y2="-464" class="grid-line"></line><line x1="-448" x2="-448" y1="-992" y2="4000" class="grid-line"></line><line x1="-992" x2="4000" y1="-448" y2="-448" class="grid-line"></line><line x1="-432" x2="-432" y1="-992" y2="4000" class="grid-line"></line><line x1="-992" x2="4000" y1="-432" y2="-432" class="grid-line"></line><line x1="-416" x2="-416" y1="-992" y2="4000" class="grid-line"></line><line x1="-992" x2="4000" y1="-416" y2="-416" class="grid-line"></line><line x1="-400" x2="-400" y1="-992" y2="4000" class="grid-line"></line><line x1="-992" x2="4000" y1="-400" y2="-400" class="grid-line"></line><line x1="-384" x2="-384" y1="-992" y2="4000" class="grid-line"></line><line x1="-992" x2="4000" y1="-384" y2="-384" class="grid-line"></line><line x1="-368" x2="-368" y1="-992" y2="4000" class="grid-line"></line><line x1="-992" x2="4000" y1="-368" y2="-368" class="grid-line"></line><line x1="-352" x2="-352" y1="-992" y2="4000" class="grid-line"></line><line x1="-992" x2="4000" y1="-352" y2="-352" class="grid-line"></line><line x1="-336" x2="-336" y1="-992" y2="4000" class="grid-line"></line><line x1="-992" x2="4000" y1="-336" y2="-336" class="grid-line"></line><line x1="-320" x2="-320" y1="-992" y2="4000" class="grid-line"></line><line x1="-992" x2="4000" y1="-320" y2="-320" class="grid-line"></line><line x1="-304" x2="-304" y1="-992" y2="4000" class="grid-line"></line><line x1="-992" x2="4000" y1="-304" y2="-304" class="grid-line"></line><line x1="-288" x2="-288" y1="-992" y2="4000" class="grid-line"></line><line x1="-992" x2="4000" y1="-288" y2="-288" class="grid-line"></line><line x1="-272" x2="-272" y1="-992" y2="4000" class="grid-line"></line><line x1="-992" x2="4000" y1="-272" y2="-272" class="grid-line"></line><line x1="-256" x2="-256" y1="-992" y2="4000" class="grid-line"></line><line x1="-992" x2="4000" y1="-256" y2="-256" class="grid-line"></line><line x1="-240" x2="-240" y1="-992" y2="4000" class="grid-line"></line><line x1="-992" x2="4000" y1="-240" y2="-240" class="grid-line"></line><line x1="-224" x2="-224" y1="-992" y2="4000" class="grid-line"></line><line x1="-992" x2="4000" y1="-224" y2="-224" class="grid-line"></line><line x1="-208" x2="-208" y1="-992" y2="4000" class="grid-line"></line><line x1="-992" x2="4000" y1="-208" y2="-208" class="grid-line"></line><line x1="-192" x2="-192" y1="-992" y2="4000" class="grid-line"></line><line x1="-992" x2="4000" y1="-192" y2="-192" class="grid-line"></line><line x1="-176" x2="-176" y1="-992" y2="4000" class="grid-line"></line><line x1="-992" x2="4000" y1="-176" y2="-176" class="grid-line"></line><line x1="-160" x2="-160" y1="-992" y2="4000" class="grid-line"></line><line x1="-992" x2="4000" y1="-160" y2="-160" class="grid-line"></line><line x1="-144" x2="-144" y1="-992" y2="4000" class="grid-line"></line><line x1="-992" x2="4000" y1="-144" y2="-144" class="grid-line"></line><line x1="-128" x2="-128" y1="-992" y2="4000" class="grid-line"></line><line x1="-992" x2="4000" y1="-128" y2="-128" class="grid-line"></line><line x1="-112" x2="-112" y1="-992" y2="4000" class="grid-line"></line><line x1="-992" x2="4000" y1="-112" y2="-112" class="grid-line"></line><line x1="-96" x2="-96" y1="-992" y2="4000" class="grid-line"></line><line x1="-992" x2="4000" y1="-96" y2="-96" class="grid-line"></line><line x1="-80" x2="-80" y1="-992" y2="4000" class="grid-line"></line><line x1="-992" x2="4000" y1="-80" y2="-80" class="grid-line"></line><line x1="-64" x2="-64" y1="-992" y2="4000" class="grid-line"></line><line x1="-992" x2="4000" y1="-64" y2="-64" class="grid-line"></line><line x1="-48" x2="-48" y1="-992" y2="4000" class="grid-line"></line><line x1="-992" x2="4000" y1="-48" y2="-48" class="grid-line"></line><line x1="-32" x2="-32" y1="-992" y2="4000" class="grid-line"></line><line x1="-992" x2="4000" y1="-32" y2="-32" class="grid-line"></line><line x1="-16" x2="-16" y1="-992" y2="4000" class="grid-line"></line><line x1="-992" x2="4000" y1="-16" y2="-16" class="grid-line"></line><line x1="0" x2="0" y1="-992" y2="4000" class="grid-line"></line><line x1="-992" x2="4000" y1="0" y2="0" class="grid-line"></line><line x1="16" x2="16" y1="-992" y2="4000" class="grid-line"></line><line x1="-992" x2="4000" y1="16" y2="16" class="grid-line"></line><line x1="32" x2="32" y1="-992" y2="4000" class="grid-line"></line><line x1="-992" x2="4000" y1="32" y2="32" class="grid-line"></line><line x1="48" x2="48" y1="-992" y2="4000" class="grid-line"></line><line x1="-992" x2="4000" y1="48" y2="48" class="grid-line"></line><line x1="64" x2="64" y1="-992" y2="4000" class="grid-line"></line><line x1="-992" x2="4000" y1="64" y2="64" class="grid-line"></line><line x1="80" x2="80" y1="-992" y2="4000" class="grid-line"></line><line x1="-992" x2="4000" y1="80" y2="80" class="grid-line"></line><line x1="96" x2="96" y1="-992" y2="4000" class="grid-line"></line><line x1="-992" x2="4000" y1="96" y2="96" class="grid-line"></line><line x1="112" x2="112" y1="-992" y2="4000" class="grid-line"></line><line x1="-992" x2="4000" y1="112" y2="112" class="grid-line"></line><line x1="128" x2="128" y1="-992" y2="4000" class="grid-line"></line><line x1="-992" x2="4000" y1="128" y2="128" class="grid-line"></line><line x1="144" x2="144" y1="-992" y2="4000" class="grid-line"></line><line x1="-992" x2="4000" y1="144" y2="144" class="grid-line"></line><line x1="160" x2="160" y1="-992" y2="4000" class="grid-line"></line><line x1="-992" x2="4000" y1="160" y2="160" class="grid-line"></line><line x1="176" x2="176" y1="-992" y2="4000" class="grid-line"></line><line x1="-992" x2="4000" y1="176" y2="176" class="grid-line"></line><line x1="192" x2="192" y1="-992" y2="4000" class="grid-line"></line><line x1="-992" x2="4000" y1="192" y2="192" class="grid-line"></line><line x1="208" x2="208" y1="-992" y2="4000" class="grid-line"></line><line x1="-992" x2="4000" y1="208" y2="208" class="grid-line"></line><line x1="224" x2="224" y1="-992" y2="4000" class="grid-line"></line><line x1="-992" x2="4000" y1="224" y2="224" class="grid-line"></line><line x1="240" x2="240" y1="-992" y2="4000" class="grid-line"></line><line x1="-992" x2="4000" y1="240" y2="240" class="grid-line"></line><line x1="256" x2="256" y1="-992" y2="4000" class="grid-line"></line><line x1="-992" x2="4000" y1="256" y2="256" class="grid-line"></line><line x1="272" x2="272" y1="-992" y2="4000" class="grid-line"></line><line x1="-992" x2="4000" y1="272" y2="272" class="grid-line"></line><line x1="288" x2="288" y1="-992" y2="4000" class="grid-line"></line><line x1="-992" x2="4000" y1="288" y2="288" class="grid-line"></line><line x1="304" x2="304" y1="-992" y2="4000" class="grid-line"></line><line x1="-992" x2="4000" y1="304" y2="304" class="grid-line"></line><line x1="320" x2="320" y1="-992" y2="4000" class="grid-line"></line><line x1="-992" x2="4000" y1="320" y2="320" class="grid-line"></line><line x1="336" x2="336" y1="-992" y2="4000" class="grid-line"></line><line x1="-992" x2="4000" y1="336" y2="336" class="grid-line"></line><line x1="352" x2="352" y1="-992" y2="4000" class="grid-line"></line><line x1="-992" x2="4000" y1="352" y2="352" class="grid-line"></line><line x1="368" x2="368" y1="-992" y2="4000" class="grid-line"></line><line x1="-992" x2="4000" y1="368" y2="368" class="grid-line"></line><line x1="384" x2="384" y1="-992" y2="4000" class="grid-line"></line><line x1="-992" x2="4000" y1="384" y2="384" class="grid-line"></line><line x1="400" x2="400" y1="-992" y2="4000" class="grid-line"></line><line x1="-992" x2="4000" y1="400" y2="400" class="grid-line"></line><line x1="416" x2="416" y1="-992" y2="4000" class="grid-line"></line><line x1="-992" x2="4000" y1="416" y2="416" class="grid-line"></line><line x1="432" x2="432" y1="-992" y2="4000" class="grid-line"></line><line x1="-992" x2="4000" y1="432" y2="432" class="grid-line"></line><line x1="448" x2="448" y1="-992" y2="4000" class="grid-line"></line><line x1="-992" x2="4000" y1="448" y2="448" class="grid-line"></line><line x1="464" x2="464" y1="-992" y2="4000" class="grid-line"></line><line x1="-992" x2="4000" y1="464" y2="464" class="grid-line"></line><line x1="480" x2="480" y1="-992" y2="4000" class="grid-line"></line><line x1="-992" x2="4000" y1="480" y2="480" class="grid-line"></line><line x1="496" x2="496" y1="-992" y2="4000" class="grid-line"></line><line x1="-992" x2="4000" y1="496" y2="496" class="grid-line"></line><line x1="512" x2="512" y1="-992" y2="4000" class="grid-line"></line><line x1="-992" x2="4000" y1="512" y2="512" class="grid-line"></line><line x1="528" x2="528" y1="-992" y2="4000" class="grid-line"></line><line x1="-992" x2="4000" y1="528" y2="528" class="grid-line"></line><line x1="544" x2="544" y1="-992" y2="4000" class="grid-line"></line><line x1="-992" x2="4000" y1="544" y2="544" class="grid-line"></line><line x1="560" x2="560" y1="-992" y2="4000" class="grid-line"></line><line x1="-992" x2="4000" y1="560" y2="560" class="grid-line"></line><line x1="576" x2="576" y1="-992" y2="4000" class="grid-line"></line><line x1="-992" x2="4000" y1="576" y2="576" class="grid-line"></line><line x1="592" x2="592" y1="-992" y2="4000" class="grid-line"></line><line x1="-992" x2="4000" y1="592" y2="592" class="grid-line"></line><line x1="608" x2="608" y1="-992" y2="4000" class="grid-line"></line><line x1="-992" x2="4000" y1="608" y2="608" class="grid-line"></line><line x1="624" x2="624" y1="-992" y2="4000" class="grid-line"></line><line x1="-992" x2="4000" y1="624" y2="624" class="grid-line"></line><line x1="640" x2="640" y1="-992" y2="4000" class="grid-line"></line><line x1="-992" x2="4000" y1="640" y2="640" class="grid-line"></line><line x1="656" x2="656" y1="-992" y2="4000" class="grid-line"></line><line x1="-992" x2="4000" y1="656" y2="656" class="grid-line"></line><line x1="672" x2="672" y1="-992" y2="4000" class="grid-line"></line><line x1="-992" x2="4000" y1="672" y2="672" class="grid-line"></line><line x1="688" x2="688" y1="-992" y2="4000" class="grid-line"></line><line x1="-992" x2="4000" y1="688" y2="688" class="grid-line"></line><line x1="704" x2="704" y1="-992" y2="4000" class="grid-line"></line><line x1="-992" x2="4000" y1="704" y2="704" class="grid-line"></line><line x1="720" x2="720" y1="-992" y2="4000" class="grid-line"></line><line x1="-992" x2="4000" y1="720" y2="720" class="grid-line"></line><line x1="736" x2="736" y1="-992" y2="4000" class="grid-line"></line><line x1="-992" x2="4000" y1="736" y2="736" class="grid-line"></line><line x1="752" x2="752" y1="-992" y2="4000" class="grid-line"></line><line x1="-992" x2="4000" y1="752" y2="752" class="grid-line"></line><line x1="768" x2="768" y1="-992" y2="4000" class="grid-line"></line><line x1="-992" x2="4000" y1="768" y2="768" class="grid-line"></line><line x1="784" x2="784" y1="-992" y2="4000" class="grid-line"></line><line x1="-992" x2="4000" y1="784" y2="784" class="grid-line"></line><line x1="800" x2="800" y1="-992" y2="4000" class="grid-line"></line><line x1="-992" x2="4000" y1="800" y2="800" class="grid-line"></line><line x1="816" x2="816" y1="-992" y2="4000" class="grid-line"></line><line x1="-992" x2="4000" y1="816" y2="816" class="grid-line"></line><line x1="832" x2="832" y1="-992" y2="4000" class="grid-line"></line><line x1="-992" x2="4000" y1="832" y2="832" class="grid-line"></line><line x1="848" x2="848" y1="-992" y2="4000" class="grid-line"></line><line x1="-992" x2="4000" y1="848" y2="848" class="grid-line"></line><line x1="864" x2="864" y1="-992" y2="4000" class="grid-line"></line><line x1="-992" x2="4000" y1="864" y2="864" class="grid-line"></line><line x1="880" x2="880" y1="-992" y2="4000" class="grid-line"></line><line x1="-992" x2="4000" y1="880" y2="880" class="grid-line"></line><line x1="896" x2="896" y1="-992" y2="4000" class="grid-line"></line><line x1="-992" x2="4000" y1="896" y2="896" class="grid-line"></line><line x1="912" x2="912" y1="-992" y2="4000" class="grid-line"></line><line x1="-992" x2="4000" y1="912" y2="912" class="grid-line"></line><line x1="928" x2="928" y1="-992" y2="4000" class="grid-line"></line><line x1="-992" x2="4000" y1="928" y2="928" class="grid-line"></line><line x1="944" x2="944" y1="-992" y2="4000" class="grid-line"></line><line x1="-992" x2="4000" y1="944" y2="944" class="grid-line"></line><line x1="960" x2="960" y1="-992" y2="4000" class="grid-line"></line><line x1="-992" x2="4000" y1="960" y2="960" class="grid-line"></line><line x1="976" x2="976" y1="-992" y2="4000" class="grid-line"></line><line x1="-992" x2="4000" y1="976" y2="976" class="grid-line"></line><line x1="992" x2="992" y1="-992" y2="4000" class="grid-line"></line><line x1="-992" x2="4000" y1="992" y2="992" class="grid-line"></line><line x1="1008" x2="1008" y1="-992" y2="4000" class="grid-line"></line><line x1="-992" x2="4000" y1="1008" y2="1008" class="grid-line"></line><line x1="1024" x2="1024" y1="-992" y2="4000" class="grid-line"></line><line x1="-992" x2="4000" y1="1024" y2="1024" class="grid-line"></line><line x1="1040" x2="1040" y1="-992" y2="4000" class="grid-line"></line><line x1="-992" x2="4000" y1="1040" y2="1040" class="grid-line"></line><line x1="1056" x2="1056" y1="-992" y2="4000" class="grid-line"></line><line x1="-992" x2="4000" y1="1056" y2="1056" class="grid-line"></line><line x1="1072" x2="1072" y1="-992" y2="4000" class="grid-line"></line><line x1="-992" x2="4000" y1="1072" y2="1072" class="grid-line"></line><line x1="1088" x2="1088" y1="-992" y2="4000" class="grid-line"></line><line x1="-992" x2="4000" y1="1088" y2="1088" class="grid-line"></line><line x1="1104" x2="1104" y1="-992" y2="4000" class="grid-line"></line><line x1="-992" x2="4000" y1="1104" y2="1104" class="grid-line"></line><line x1="1120" x2="1120" y1="-992" y2="4000" class="grid-line"></line><line x1="-992" x2="4000" y1="1120" y2="1120" class="grid-line"></line><line x1="1136" x2="1136" y1="-992" y2="4000" class="grid-line"></line><line x1="-992" x2="4000" y1="1136" y2="1136" class="grid-line"></line><line x1="1152" x2="1152" y1="-992" y2="4000" class="grid-line"></line><line x1="-992" x2="4000" y1="1152" y2="1152" class="grid-line"></line><line x1="1168" x2="1168" y1="-992" y2="4000" class="grid-line"></line><line x1="-992" x2="4000" y1="1168" y2="1168" class="grid-line"></line><line x1="1184" x2="1184" y1="-992" y2="4000" class="grid-line"></line><line x1="-992" x2="4000" y1="1184" y2="1184" class="grid-line"></line><line x1="1200" x2="1200" y1="-992" y2="4000" class="grid-line"></line><line x1="-992" x2="4000" y1="1200" y2="1200" class="grid-line"></line><line x1="1216" x2="1216" y1="-992" y2="4000" class="grid-line"></line><line x1="-992" x2="4000" y1="1216" y2="1216" class="grid-line"></line><line x1="1232" x2="1232" y1="-992" y2="4000" class="grid-line"></line><line x1="-992" x2="4000" y1="1232" y2="1232" class="grid-line"></line><line x1="1248" x2="1248" y1="-992" y2="4000" class="grid-line"></line><line x1="-992" x2="4000" y1="1248" y2="1248" class="grid-line"></line><line x1="1264" x2="1264" y1="-992" y2="4000" class="grid-line"></line><line x1="-992" x2="4000" y1="1264" y2="1264" class="grid-line"></line><line x1="1280" x2="1280" y1="-992" y2="4000" class="grid-line"></line><line x1="-992" x2="4000" y1="1280" y2="1280" class="grid-line"></line><line x1="1296" x2="1296" y1="-992" y2="4000" class="grid-line"></line><line x1="-992" x2="4000" y1="1296" y2="1296" class="grid-line"></line><line x1="1312" x2="1312" y1="-992" y2="4000" class="grid-line"></line><line x1="-992" x2="4000" y1="1312" y2="1312" class="grid-line"></line><line x1="1328" x2="1328" y1="-992" y2="4000" class="grid-line"></line><line x1="-992" x2="4000" y1="1328" y2="1328" class="grid-line"></line><line x1="1344" x2="1344" y1="-992" y2="4000" class="grid-line"></line><line x1="-992" x2="4000" y1="1344" y2="1344" class="grid-line"></line><line x1="1360" x2="1360" y1="-992" y2="4000" class="grid-line"></line><line x1="-992" x2="4000" y1="1360" y2="1360" class="grid-line"></line><line x1="1376" x2="1376" y1="-992" y2="4000" class="grid-line"></line><line x1="-992" x2="4000" y1="1376" y2="1376" class="grid-line"></line><line x1="1392" x2="1392" y1="-992" y2="4000" class="grid-line"></line><line x1="-992" x2="4000" y1="1392" y2="1392" class="grid-line"></line><line x1="1408" x2="1408" y1="-992" y2="4000" class="grid-line"></line><line x1="-992" x2="4000" y1="1408" y2="1408" class="grid-line"></line><line x1="1424" x2="1424" y1="-992" y2="4000" class="grid-line"></line><line x1="-992" x2="4000" y1="1424" y2="1424" class="grid-line"></line><line x1="1440" x2="1440" y1="-992" y2="4000" class="grid-line"></line><line x1="-992" x2="4000" y1="1440" y2="1440" class="grid-line"></line><line x1="1456" x2="1456" y1="-992" y2="4000" class="grid-line"></line><line x1="-992" x2="4000" y1="1456" y2="1456" class="grid-line"></line><line x1="1472" x2="1472" y1="-992" y2="4000" class="grid-line"></line><line x1="-992" x2="4000" y1="1472" y2="1472" class="grid-line"></line><line x1="1488" x2="1488" y1="-992" y2="4000" class="grid-line"></line><line x1="-992" x2="4000" y1="1488" y2="1488" class="grid-line"></line><line x1="1504" x2="1504" y1="-992" y2="4000" class="grid-line"></line><line x1="-992" x2="4000" y1="1504" y2="1504" class="grid-line"></line><line x1="1520" x2="1520" y1="-992" y2="4000" class="grid-line"></line><line x1="-992" x2="4000" y1="1520" y2="1520" class="grid-line"></line><line x1="1536" x2="1536" y1="-992" y2="4000" class="grid-line"></line><line x1="-992" x2="4000" y1="1536" y2="1536" class="grid-line"></line><line x1="1552" x2="1552" y1="-992" y2="4000" class="grid-line"></line><line x1="-992" x2="4000" y1="1552" y2="1552" class="grid-line"></line><line x1="1568" x2="1568" y1="-992" y2="4000" class="grid-line"></line><line x1="-992" x2="4000" y1="1568" y2="1568" class="grid-line"></line><line x1="1584" x2="1584" y1="-992" y2="4000" class="grid-line"></line><line x1="-992" x2="4000" y1="1584" y2="1584" class="grid-line"></line><line x1="1600" x2="1600" y1="-992" y2="4000" class="grid-line"></line><line x1="-992" x2="4000" y1="1600" y2="1600" class="grid-line"></line><line x1="1616" x2="1616" y1="-992" y2="4000" class="grid-line"></line><line x1="-992" x2="4000" y1="1616" y2="1616" class="grid-line"></line><line x1="1632" x2="1632" y1="-992" y2="4000" class="grid-line"></line><line x1="-992" x2="4000" y1="1632" y2="1632" class="grid-line"></line><line x1="1648" x2="1648" y1="-992" y2="4000" class="grid-line"></line><line x1="-992" x2="4000" y1="1648" y2="1648" class="grid-line"></line><line x1="1664" x2="1664" y1="-992" y2="4000" class="grid-line"></line><line x1="-992" x2="4000" y1="1664" y2="1664" class="grid-line"></line><line x1="1680" x2="1680" y1="-992" y2="4000" class="grid-line"></line><line x1="-992" x2="4000" y1="1680" y2="1680" class="grid-line"></line><line x1="1696" x2="1696" y1="-992" y2="4000" class="grid-line"></line><line x1="-992" x2="4000" y1="1696" y2="1696" class="grid-line"></line><line x1="1712" x2="1712" y1="-992" y2="4000" class="grid-line"></line><line x1="-992" x2="4000" y1="1712" y2="1712" class="grid-line"></line><line x1="1728" x2="1728" y1="-992" y2="4000" class="grid-line"></line><line x1="-992" x2="4000" y1="1728" y2="1728" class="grid-line"></line><line x1="1744" x2="1744" y1="-992" y2="4000" class="grid-line"></line><line x1="-992" x2="4000" y1="1744" y2="1744" class="grid-line"></line><line x1="1760" x2="1760" y1="-992" y2="4000" class="grid-line"></line><line x1="-992" x2="4000" y1="1760" y2="1760" class="grid-line"></line><line x1="1776" x2="1776" y1="-992" y2="4000" class="grid-line"></line><line x1="-992" x2="4000" y1="1776" y2="1776" class="grid-line"></line><line x1="1792" x2="1792" y1="-992" y2="4000" class="grid-line"></line><line x1="-992" x2="4000" y1="1792" y2="1792" class="grid-line"></line><line x1="1808" x2="1808" y1="-992" y2="4000" class="grid-line"></line><line x1="-992" x2="4000" y1="1808" y2="1808" class="grid-line"></line><line x1="1824" x2="1824" y1="-992" y2="4000" class="grid-line"></line><line x1="-992" x2="4000" y1="1824" y2="1824" class="grid-line"></line><line x1="1840" x2="1840" y1="-992" y2="4000" class="grid-line"></line><line x1="-992" x2="4000" y1="1840" y2="1840" class="grid-line"></line><line x1="1856" x2="1856" y1="-992" y2="4000" class="grid-line"></line><line x1="-992" x2="4000" y1="1856" y2="1856" class="grid-line"></line><line x1="1872" x2="1872" y1="-992" y2="4000" class="grid-line"></line><line x1="-992" x2="4000" y1="1872" y2="1872" class="grid-line"></line><line x1="1888" x2="1888" y1="-992" y2="4000" class="grid-line"></line><line x1="-992" x2="4000" y1="1888" y2="1888" class="grid-line"></line><line x1="1904" x2="1904" y1="-992" y2="4000" class="grid-line"></line><line x1="-992" x2="4000" y1="1904" y2="1904" class="grid-line"></line><line x1="1920" x2="1920" y1="-992" y2="4000" class="grid-line"></line><line x1="-992" x2="4000" y1="1920" y2="1920" class="grid-line"></line><line x1="1936" x2="1936" y1="-992" y2="4000" class="grid-line"></line><line x1="-992" x2="4000" y1="1936" y2="1936" class="grid-line"></line><line x1="1952" x2="1952" y1="-992" y2="4000" class="grid-line"></line><line x1="-992" x2="4000" y1="1952" y2="1952" class="grid-line"></line><line x1="1968" x2="1968" y1="-992" y2="4000" class="grid-line"></line><line x1="-992" x2="4000" y1="1968" y2="1968" class="grid-line"></line><line x1="1984" x2="1984" y1="-992" y2="4000" class="grid-line"></line><line x1="-992" x2="4000" y1="1984" y2="1984" class="grid-line"></line><line x1="2000" x2="2000" y1="-992" y2="4000" class="grid-line"></line><line x1="-992" x2="4000" y1="2000" y2="2000" class="grid-line"></line><line x1="2016" x2="2016" y1="-992" y2="4000" class="grid-line"></line><line x1="-992" x2="4000" y1="2016" y2="2016" class="grid-line"></line><line x1="2032" x2="2032" y1="-992" y2="4000" class="grid-line"></line><line x1="-992" x2="4000" y1="2032" y2="2032" class="grid-line"></line><line x1="2048" x2="2048" y1="-992" y2="4000" class="grid-line"></line><line x1="-992" x2="4000" y1="2048" y2="2048" class="grid-line"></line><line x1="2064" x2="2064" y1="-992" y2="4000" class="grid-line"></line><line x1="-992" x2="4000" y1="2064" y2="2064" class="grid-line"></line><line x1="2080" x2="2080" y1="-992" y2="4000" class="grid-line"></line><line x1="-992" x2="4000" y1="2080" y2="2080" class="grid-line"></line><line x1="2096" x2="2096" y1="-992" y2="4000" class="grid-line"></line><line x1="-992" x2="4000" y1="2096" y2="2096" class="grid-line"></line><line x1="2112" x2="2112" y1="-992" y2="4000" class="grid-line"></line><line x1="-992" x2="4000" y1="2112" y2="2112" class="grid-line"></line><line x1="2128" x2="2128" y1="-992" y2="4000" class="grid-line"></line><line x1="-992" x2="4000" y1="2128" y2="2128" class="grid-line"></line><line x1="2144" x2="2144" y1="-992" y2="4000" class="grid-line"></line><line x1="-992" x2="4000" y1="2144" y2="2144" class="grid-line"></line><line x1="2160" x2="2160" y1="-992" y2="4000" class="grid-line"></line><line x1="-992" x2="4000" y1="2160" y2="2160" class="grid-line"></line><line x1="2176" x2="2176" y1="-992" y2="4000" class="grid-line"></line><line x1="-992" x2="4000" y1="2176" y2="2176" class="grid-line"></line><line x1="2192" x2="2192" y1="-992" y2="4000" class="grid-line"></line><line x1="-992" x2="4000" y1="2192" y2="2192" class="grid-line"></line><line x1="2208" x2="2208" y1="-992" y2="4000" class="grid-line"></line><line x1="-992" x2="4000" y1="2208" y2="2208" class="grid-line"></line><line x1="2224" x2="2224" y1="-992" y2="4000" class="grid-line"></line><line x1="-992" x2="4000" y1="2224" y2="2224" class="grid-line"></line><line x1="2240" x2="2240" y1="-992" y2="4000" class="grid-line"></line><line x1="-992" x2="4000" y1="2240" y2="2240" class="grid-line"></line><line x1="2256" x2="2256" y1="-992" y2="4000" class="grid-line"></line><line x1="-992" x2="4000" y1="2256" y2="2256" class="grid-line"></line><line x1="2272" x2="2272" y1="-992" y2="4000" class="grid-line"></line><line x1="-992" x2="4000" y1="2272" y2="2272" class="grid-line"></line><line x1="2288" x2="2288" y1="-992" y2="4000" class="grid-line"></line><line x1="-992" x2="4000" y1="2288" y2="2288" class="grid-line"></line><line x1="2304" x2="2304" y1="-992" y2="4000" class="grid-line"></line><line x1="-992" x2="4000" y1="2304" y2="2304" class="grid-line"></line><line x1="2320" x2="2320" y1="-992" y2="4000" class="grid-line"></line><line x1="-992" x2="4000" y1="2320" y2="2320" class="grid-line"></line><line x1="2336" x2="2336" y1="-992" y2="4000" class="grid-line"></line><line x1="-992" x2="4000" y1="2336" y2="2336" class="grid-line"></line><line x1="2352" x2="2352" y1="-992" y2="4000" class="grid-line"></line><line x1="-992" x2="4000" y1="2352" y2="2352" class="grid-line"></line><line x1="2368" x2="2368" y1="-992" y2="4000" class="grid-line"></line><line x1="-992" x2="4000" y1="2368" y2="2368" class="grid-line"></line><line x1="2384" x2="2384" y1="-992" y2="4000" class="grid-line"></line><line x1="-992" x2="4000" y1="2384" y2="2384" class="grid-line"></line><line x1="2400" x2="2400" y1="-992" y2="4000" class="grid-line"></line><line x1="-992" x2="4000" y1="2400" y2="2400" class="grid-line"></line><line x1="2416" x2="2416" y1="-992" y2="4000" class="grid-line"></line><line x1="-992" x2="4000" y1="2416" y2="2416" class="grid-line"></line><line x1="2432" x2="2432" y1="-992" y2="4000" class="grid-line"></line><line x1="-992" x2="4000" y1="2432" y2="2432" class="grid-line"></line><line x1="2448" x2="2448" y1="-992" y2="4000" class="grid-line"></line><line x1="-992" x2="4000" y1="2448" y2="2448" class="grid-line"></line><line x1="2464" x2="2464" y1="-992" y2="4000" class="grid-line"></line><line x1="-992" x2="4000" y1="2464" y2="2464" class="grid-line"></line><line x1="2480" x2="2480" y1="-992" y2="4000" class="grid-line"></line><line x1="-992" x2="4000" y1="2480" y2="2480" class="grid-line"></line><line x1="2496" x2="2496" y1="-992" y2="4000" class="grid-line"></line><line x1="-992" x2="4000" y1="2496" y2="2496" class="grid-line"></line><line x1="2512" x2="2512" y1="-992" y2="4000" class="grid-line"></line><line x1="-992" x2="4000" y1="2512" y2="2512" class="grid-line"></line><line x1="2528" x2="2528" y1="-992" y2="4000" class="grid-line"></line><line x1="-992" x2="4000" y1="2528" y2="2528" class="grid-line"></line><line x1="2544" x2="2544" y1="-992" y2="4000" class="grid-line"></line><line x1="-992" x2="4000" y1="2544" y2="2544" class="grid-line"></line><line x1="2560" x2="2560" y1="-992" y2="4000" class="grid-line"></line><line x1="-992" x2="4000" y1="2560" y2="2560" class="grid-line"></line><line x1="2576" x2="2576" y1="-992" y2="4000" class="grid-line"></line><line x1="-992" x2="4000" y1="2576" y2="2576" class="grid-line"></line><line x1="2592" x2="2592" y1="-992" y2="4000" class="grid-line"></line><line x1="-992" x2="4000" y1="2592" y2="2592" class="grid-line"></line><line x1="2608" x2="2608" y1="-992" y2="4000" class="grid-line"></line><line x1="-992" x2="4000" y1="2608" y2="2608" class="grid-line"></line><line x1="2624" x2="2624" y1="-992" y2="4000" class="grid-line"></line><line x1="-992" x2="4000" y1="2624" y2="2624" class="grid-line"></line><line x1="2640" x2="2640" y1="-992" y2="4000" class="grid-line"></line><line x1="-992" x2="4000" y1="2640" y2="2640" class="grid-line"></line><line x1="2656" x2="2656" y1="-992" y2="4000" class="grid-line"></line><line x1="-992" x2="4000" y1="2656" y2="2656" class="grid-line"></line><line x1="2672" x2="2672" y1="-992" y2="4000" class="grid-line"></line><line x1="-992" x2="4000" y1="2672" y2="2672" class="grid-line"></line><line x1="2688" x2="2688" y1="-992" y2="4000" class="grid-line"></line><line x1="-992" x2="4000" y1="2688" y2="2688" class="grid-line"></line><line x1="2704" x2="2704" y1="-992" y2="4000" class="grid-line"></line><line x1="-992" x2="4000" y1="2704" y2="2704" class="grid-line"></line><line x1="2720" x2="2720" y1="-992" y2="4000" class="grid-line"></line><line x1="-992" x2="4000" y1="2720" y2="2720" class="grid-line"></line><line x1="2736" x2="2736" y1="-992" y2="4000" class="grid-line"></line><line x1="-992" x2="4000" y1="2736" y2="2736" class="grid-line"></line><line x1="2752" x2="2752" y1="-992" y2="4000" class="grid-line"></line><line x1="-992" x2="4000" y1="2752" y2="2752" class="grid-line"></line><line x1="2768" x2="2768" y1="-992" y2="4000" class="grid-line"></line><line x1="-992" x2="4000" y1="2768" y2="2768" class="grid-line"></line><line x1="2784" x2="2784" y1="-992" y2="4000" class="grid-line"></line><line x1="-992" x2="4000" y1="2784" y2="2784" class="grid-line"></line><line x1="2800" x2="2800" y1="-992" y2="4000" class="grid-line"></line><line x1="-992" x2="4000" y1="2800" y2="2800" class="grid-line"></line><line x1="2816" x2="2816" y1="-992" y2="4000" class="grid-line"></line><line x1="-992" x2="4000" y1="2816" y2="2816" class="grid-line"></line><line x1="2832" x2="2832" y1="-992" y2="4000" class="grid-line"></line><line x1="-992" x2="4000" y1="2832" y2="2832" class="grid-line"></line><line x1="2848" x2="2848" y1="-992" y2="4000" class="grid-line"></line><line x1="-992" x2="4000" y1="2848" y2="2848" class="grid-line"></line><line x1="2864" x2="2864" y1="-992" y2="4000" class="grid-line"></line><line x1="-992" x2="4000" y1="2864" y2="2864" class="grid-line"></line><line x1="2880" x2="2880" y1="-992" y2="4000" class="grid-line"></line><line x1="-992" x2="4000" y1="2880" y2="2880" class="grid-line"></line><line x1="2896" x2="2896" y1="-992" y2="4000" class="grid-line"></line><line x1="-992" x2="4000" y1="2896" y2="2896" class="grid-line"></line><line x1="2912" x2="2912" y1="-992" y2="4000" class="grid-line"></line><line x1="-992" x2="4000" y1="2912" y2="2912" class="grid-line"></line><line x1="2928" x2="2928" y1="-992" y2="4000" class="grid-line"></line><line x1="-992" x2="4000" y1="2928" y2="2928" class="grid-line"></line><line x1="2944" x2="2944" y1="-992" y2="4000" class="grid-line"></line><line x1="-992" x2="4000" y1="2944" y2="2944" class="grid-line"></line><line x1="2960" x2="2960" y1="-992" y2="4000" class="grid-line"></line><line x1="-992" x2="4000" y1="2960" y2="2960" class="grid-line"></line><line x1="2976" x2="2976" y1="-992" y2="4000" class="grid-line"></line><line x1="-992" x2="4000" y1="2976" y2="2976" class="grid-line"></line><line x1="2992" x2="2992" y1="-992" y2="4000" class="grid-line"></line><line x1="-992" x2="4000" y1="2992" y2="2992" class="grid-line"></line><line x1="3008" x2="3008" y1="-992" y2="4000" class="grid-line"></line><line x1="-992" x2="4000" y1="3008" y2="3008" class="grid-line"></line><line x1="3024" x2="3024" y1="-992" y2="4000" class="grid-line"></line><line x1="-992" x2="4000" y1="3024" y2="3024" class="grid-line"></line><line x1="3040" x2="3040" y1="-992" y2="4000" class="grid-line"></line><line x1="-992" x2="4000" y1="3040" y2="3040" class="grid-line"></line><line x1="3056" x2="3056" y1="-992" y2="4000" class="grid-line"></line><line x1="-992" x2="4000" y1="3056" y2="3056" class="grid-line"></line><line x1="3072" x2="3072" y1="-992" y2="4000" class="grid-line"></line><line x1="-992" x2="4000" y1="3072" y2="3072" class="grid-line"></line><line x1="3088" x2="3088" y1="-992" y2="4000" class="grid-line"></line><line x1="-992" x2="4000" y1="3088" y2="3088" class="grid-line"></line><line x1="3104" x2="3104" y1="-992" y2="4000" class="grid-line"></line><line x1="-992" x2="4000" y1="3104" y2="3104" class="grid-line"></line><line x1="3120" x2="3120" y1="-992" y2="4000" class="grid-line"></line><line x1="-992" x2="4000" y1="3120" y2="3120" class="grid-line"></line><line x1="3136" x2="3136" y1="-992" y2="4000" class="grid-line"></line><line x1="-992" x2="4000" y1="3136" y2="3136" class="grid-line"></line><line x1="3152" x2="3152" y1="-992" y2="4000" class="grid-line"></line><line x1="-992" x2="4000" y1="3152" y2="3152" class="grid-line"></line><line x1="3168" x2="3168" y1="-992" y2="4000" class="grid-line"></line><line x1="-992" x2="4000" y1="3168" y2="3168" class="grid-line"></line><line x1="3184" x2="3184" y1="-992" y2="4000" class="grid-line"></line><line x1="-992" x2="4000" y1="3184" y2="3184" class="grid-line"></line><line x1="3200" x2="3200" y1="-992" y2="4000" class="grid-line"></line><line x1="-992" x2="4000" y1="3200" y2="3200" class="grid-line"></line><line x1="3216" x2="3216" y1="-992" y2="4000" class="grid-line"></line><line x1="-992" x2="4000" y1="3216" y2="3216" class="grid-line"></line><line x1="3232" x2="3232" y1="-992" y2="4000" class="grid-line"></line><line x1="-992" x2="4000" y1="3232" y2="3232" class="grid-line"></line><line x1="3248" x2="3248" y1="-992" y2="4000" class="grid-line"></line><line x1="-992" x2="4000" y1="3248" y2="3248" class="grid-line"></line><line x1="3264" x2="3264" y1="-992" y2="4000" class="grid-line"></line><line x1="-992" x2="4000" y1="3264" y2="3264" class="grid-line"></line><line x1="3280" x2="3280" y1="-992" y2="4000" class="grid-line"></line><line x1="-992" x2="4000" y1="3280" y2="3280" class="grid-line"></line><line x1="3296" x2="3296" y1="-992" y2="4000" class="grid-line"></line><line x1="-992" x2="4000" y1="3296" y2="3296" class="grid-line"></line><line x1="3312" x2="3312" y1="-992" y2="4000" class="grid-line"></line><line x1="-992" x2="4000" y1="3312" y2="3312" class="grid-line"></line><line x1="3328" x2="3328" y1="-992" y2="4000" class="grid-line"></line><line x1="-992" x2="4000" y1="3328" y2="3328" class="grid-line"></line><line x1="3344" x2="3344" y1="-992" y2="4000" class="grid-line"></line><line x1="-992" x2="4000" y1="3344" y2="3344" class="grid-line"></line><line x1="3360" x2="3360" y1="-992" y2="4000" class="grid-line"></line><line x1="-992" x2="4000" y1="3360" y2="3360" class="grid-line"></line><line x1="3376" x2="3376" y1="-992" y2="4000" class="grid-line"></line><line x1="-992" x2="4000" y1="3376" y2="3376" class="grid-line"></line><line x1="3392" x2="3392" y1="-992" y2="4000" class="grid-line"></line><line x1="-992" x2="4000" y1="3392" y2="3392" class="grid-line"></line><line x1="3408" x2="3408" y1="-992" y2="4000" class="grid-line"></line><line x1="-992" x2="4000" y1="3408" y2="3408" class="grid-line"></line><line x1="3424" x2="3424" y1="-992" y2="4000" class="grid-line"></line><line x1="-992" x2="4000" y1="3424" y2="3424" class="grid-line"></line><line x1="3440" x2="3440" y1="-992" y2="4000" class="grid-line"></line><line x1="-992" x2="4000" y1="3440" y2="3440" class="grid-line"></line><line x1="3456" x2="3456" y1="-992" y2="4000" class="grid-line"></line><line x1="-992" x2="4000" y1="3456" y2="3456" class="grid-line"></line><line x1="3472" x2="3472" y1="-992" y2="4000" class="grid-line"></line><line x1="-992" x2="4000" y1="3472" y2="3472" class="grid-line"></line><line x1="3488" x2="3488" y1="-992" y2="4000" class="grid-line"></line><line x1="-992" x2="4000" y1="3488" y2="3488" class="grid-line"></line><line x1="3504" x2="3504" y1="-992" y2="4000" class="grid-line"></line><line x1="-992" x2="4000" y1="3504" y2="3504" class="grid-line"></line><line x1="3520" x2="3520" y1="-992" y2="4000" class="grid-line"></line><line x1="-992" x2="4000" y1="3520" y2="3520" class="grid-line"></line><line x1="3536" x2="3536" y1="-992" y2="4000" class="grid-line"></line><line x1="-992" x2="4000" y1="3536" y2="3536" class="grid-line"></line><line x1="3552" x2="3552" y1="-992" y2="4000" class="grid-line"></line><line x1="-992" x2="4000" y1="3552" y2="3552" class="grid-line"></line><line x1="3568" x2="3568" y1="-992" y2="4000" class="grid-line"></line><line x1="-992" x2="4000" y1="3568" y2="3568" class="grid-line"></line><line x1="3584" x2="3584" y1="-992" y2="4000" class="grid-line"></line><line x1="-992" x2="4000" y1="3584" y2="3584" class="grid-line"></line><line x1="3600" x2="3600" y1="-992" y2="4000" class="grid-line"></line><line x1="-992" x2="4000" y1="3600" y2="3600" class="grid-line"></line><line x1="3616" x2="3616" y1="-992" y2="4000" class="grid-line"></line><line x1="-992" x2="4000" y1="3616" y2="3616" class="grid-line"></line><line x1="3632" x2="3632" y1="-992" y2="4000" class="grid-line"></line><line x1="-992" x2="4000" y1="3632" y2="3632" class="grid-line"></line><line x1="3648" x2="3648" y1="-992" y2="4000" class="grid-line"></line><line x1="-992" x2="4000" y1="3648" y2="3648" class="grid-line"></line><line x1="3664" x2="3664" y1="-992" y2="4000" class="grid-line"></line><line x1="-992" x2="4000" y1="3664" y2="3664" class="grid-line"></line><line x1="3680" x2="3680" y1="-992" y2="4000" class="grid-line"></line><line x1="-992" x2="4000" y1="3680" y2="3680" class="grid-line"></line><line x1="3696" x2="3696" y1="-992" y2="4000" class="grid-line"></line><line x1="-992" x2="4000" y1="3696" y2="3696" class="grid-line"></line><line x1="3712" x2="3712" y1="-992" y2="4000" class="grid-line"></line><line x1="-992" x2="4000" y1="3712" y2="3712" class="grid-line"></line><line x1="3728" x2="3728" y1="-992" y2="4000" class="grid-line"></line><line x1="-992" x2="4000" y1="3728" y2="3728" class="grid-line"></line><line x1="3744" x2="3744" y1="-992" y2="4000" class="grid-line"></line><line x1="-992" x2="4000" y1="3744" y2="3744" class="grid-line"></line><line x1="3760" x2="3760" y1="-992" y2="4000" class="grid-line"></line><line x1="-992" x2="4000" y1="3760" y2="3760" class="grid-line"></line><line x1="3776" x2="3776" y1="-992" y2="4000" class="grid-line"></line><line x1="-992" x2="4000" y1="3776" y2="3776" class="grid-line"></line><line x1="3792" x2="3792" y1="-992" y2="4000" class="grid-line"></line><line x1="-992" x2="4000" y1="3792" y2="3792" class="grid-line"></line><line x1="3808" x2="3808" y1="-992" y2="4000" class="grid-line"></line><line x1="-992" x2="4000" y1="3808" y2="3808" class="grid-line"></line><line x1="3824" x2="3824" y1="-992" y2="4000" class="grid-line"></line><line x1="-992" x2="4000" y1="3824" y2="3824" class="grid-line"></line><line x1="3840" x2="3840" y1="-992" y2="4000" class="grid-line"></line><line x1="-992" x2="4000" y1="3840" y2="3840" class="grid-line"></line><line x1="3856" x2="3856" y1="-992" y2="4000" class="grid-line"></line><line x1="-992" x2="4000" y1="3856" y2="3856" class="grid-line"></line><line x1="3872" x2="3872" y1="-992" y2="4000" class="grid-line"></line><line x1="-992" x2="4000" y1="3872" y2="3872" class="grid-line"></line><line x1="3888" x2="3888" y1="-992" y2="4000" class="grid-line"></line><line x1="-992" x2="4000" y1="3888" y2="3888" class="grid-line"></line><line x1="3904" x2="3904" y1="-992" y2="4000" class="grid-line"></line><line x1="-992" x2="4000" y1="3904" y2="3904" class="grid-line"></line><line x1="3920" x2="3920" y1="-992" y2="4000" class="grid-line"></line><line x1="-992" x2="4000" y1="3920" y2="3920" class="grid-line"></line><line x1="3936" x2="3936" y1="-992" y2="4000" class="grid-line"></line><line x1="-992" x2="4000" y1="3936" y2="3936" class="grid-line"></line><line x1="3952" x2="3952" y1="-992" y2="4000" class="grid-line"></line><line x1="-992" x2="4000" y1="3952" y2="3952" class="grid-line"></line><line x1="3968" x2="3968" y1="-992" y2="4000" class="grid-line"></line><line x1="-992" x2="4000" y1="3968" y2="3968" class="grid-line"></line><line x1="3984" x2="3984" y1="-992" y2="4000" class="grid-line"></line><line x1="-992" x2="4000" y1="3984" y2="3984" class="grid-line"></line><line x1="4000" x2="4000" y1="-992" y2="4000" class="grid-line"></line><line x1="-992" x2="4000" y1="4000" y2="4000" class="grid-line"></line></g><g class="links"><g class="campaigncanvas-link in-path" transform="matrix(1,0,0,1,119.5,96)"><path d="M 0 0 C 0 32 0 32 0 64"></path><g class="campaigncanvas-linklabel" transform="matrix(1,0,0,1,-50,19.5)" style="opacity: 1; display: none;"><rect x="0" y="0" width="100" height="25" rx="3" ry="3" class="background"></rect><rect x="1" y="1" width="98" height="23" rx="3" ry="3" class="content"></rect><text x="10" y="16"></text></g></g></g><g class="boxes"><g class="campaigncanvas-box clickable trigger in-path" transform="matrix(1,0,0,1,32,64)" style="null"><rect x="0" y="0" width="176" height="32" rx="3" ry="3" class="background"></rect><text x="10" y="20" class="title">FollowUp start</text><circle cx="87.5" cy="32" r="5" class="point out"></circle><g class="campaigncanvas-indicators"></g></g><g class="campaigncanvas-comment" transform="matrix(1,0,0,1,-240,64)" style="null"><rect x="0" y="0" width="176" height="58" class="background"></rect><text x="10" y="20"><tspan>A subprofile was created </tspan><tspan x="10" dy="1.2em">as the result of a new </tspan><tspan x="10" dy="1.2em">order.</tspan></text></g><g class="campaigncanvas-comment" transform="matrix(1,0,0,1,-240,160)" style="null"><rect x="0" y="0" width="176" height="82" class="background"></rect><text x="10" y="20"><tspan>If a phone from brand A or </tspan><tspan x="10" dy="1.2em">B is bought the order date </tspan><tspan x="10" dy="1.2em">is copied to the last </tspan><tspan x="10" dy="1.2em">purchase date in the </tspan><tspan x="10" dy="1.2em">profile.</tspan></text></g><g class="campaigncanvas-comment" transform="matrix(1,0,0,1,-240,288)" style="null"><rect x="0" y="0" width="176" height="58" class="background"></rect><text x="10" y="20"><tspan>The last purchase dates of </tspan><tspan x="10" dy="1.2em">phones from brand A and B </tspan><tspan x="10" dy="1.2em">are up-to-date again.</tspan></text></g><g class="campaigncanvas-box clickable javascript selected in-path" transform="matrix(1,0,0,1,32,160)" style="null"><rect x="-3" y="-3" width="182" height="102" rx="3" ry="3" class="campaigncanvas-overlay"></rect><g class="campaigncanvas-overlay" transform="matrix(1,0,0,1,176,-3)"><rect x="0" y="0" width="84.140625" height="72" rx="3" ry="3" class="campaigncanvas-overlay"></rect><g class="option" transform="matrix(1,0,0,1,0,0)"><rect x="0" y="0" width="84.140625" height="24" rx="3" ry="3" class="menu-background"></rect><text x="28" y="16" class="title">Edit</text><use xmlns:xlink="http://www.w3.org/1999/xlink" xlink:href="#edit-icon" width="12" height="12" x="7" y="7" class="icon"></use></g><g class="option" transform="matrix(1,0,0,1,0,24)"><rect x="0" y="0" width="84.140625" height="24" rx="3" ry="3" class="menu-background"></rect><line x1="0" x2="24" y1="0" y2="0" fill="#ffffff" style="stroke-width: 1;"></line><text x="28" y="16" class="title">Disable</text><use xmlns:xlink="http://www.w3.org/1999/xlink" xlink:href="#disable-icon" width="12" height="12" x="7" y="7" class="icon"></use></g><g class="option" transform="matrix(1,0,0,1,0,48)"><rect x="0" y="0" width="84.140625" height="24" rx="3" ry="3" class="menu-background"></rect><line x1="0" x2="24" y1="0" y2="0" fill="#ffffff" style="stroke-width: 1;"></line><text x="28" y="16" class="title">Remove</text><use xmlns:xlink="http://www.w3.org/1999/xlink" xlink:href="#close-icon" width="12" height="12" x="7" y="7" class="icon"></use></g></g><rect x="0" y="0" width="176" height="96" rx="3" ry="3" class="background"></rect><text x="10" y="20" class="title">Javascript execution</text><rect x="1" y="32" width="174" height="63" rx="3" ry="3" class="content"></rect><circle cx="87.5" cy="0" r="5" class="point in"></circle><g class="campaigncanvas-indicators"></g><text x="11" y="50"><tspan>Script defined</tspan></text></g></g><g class="points"></g><g class="overlay"></g></g><desc>Created with Snap</desc><defs><filter id="filter-grayscale" filterUnits="userSpaceOnUse"><feColorMatrix type="matrix" values="0.37007999999999996 0.57216 0.057760000000000006 0 0 0.17008 0.77216 0.057760000000000006 0 0 0.17008 0.57216 0.25775999999999993 0 0 0 0 0 1 0"></feColorMatrix></filter><symbol xmlns="http://www.w3.org/2000/svg" viewBox="0 0 2.1166666 2.1166667" id="arrow"><path d="M0 0l1.058 2.117L2.117 0z"></path></symbol><symbol xmlns="http://www.w3.org/2000/svg" viewBox="0 0 112 112" id="box-not-connected-icon"><path d="M112 0v35.7H76.3V19.4H56.4v20.1c5.1.9 9.3 4.4 11.1 9.2l-8 7-9-10.2-1.7 1.5-9.3 8c0-.4-.1-.8-.1-1.3 0-7.2 5.2-13.1 12.1-14.3V14.5h24.8V0H112zM59.1 62l-9-10.1-9.2 8.1c2 4.2 5.9 7.3 10.7 8.1v23.7H35.7V76.3H0V112h35.7V96.6h20.8V68c6.8-1.1 12-7 12.1-14.1l-9.3 8.2-.2-.1z"></path></symbol><symbol xmlns="http://www.w3.org/2000/svg" viewBox="0 0 112 112" id="check-destination-icon"><path d="M98.4 103.3c.3.8.5 1.6.5 2.5 0 .9-.2 1.7-.5 2.5s-.8 1.4-1.3 2c-.6.5-1.3 1-2.1 1.3-.8.3-1.8.5-2.8.5-1 0-2-.2-2.8-.5-.8-.3-1.5-.7-2.1-1.3s-1-1.2-1.3-2c-.3-.8-.5-1.6-.5-2.5 0-.9.2-1.7.5-2.5s.7-1.5 1.3-2c.6-.6 1.3-1 2.1-1.3.8-.3 1.8-.5 2.8-.5 1 0 1.9.2 2.8.5.8.3 1.5.8 2.1 1.3.6.5 1 1.2 1.3 2zM110.7 60c-.9-2-2.1-3.7-3.8-5-1.7-1.4-3.7-2.4-6.1-3.1-2.4-.7-5.1-1-8.2-1-2.7 0-5.2.3-7.6 1s-4.3 1.7-6 3.1c-1.7 1.4-3.1 3.1-4.1 5.1s-1.5 4.5-1.6 7.3h11.4c0-1.3.3-2.3.7-3.2.5-.9 1-1.6 1.8-2.2s1.6-1 2.5-1.3c.9-.3 1.9-.4 2.9-.4 2.6 0 4.5.6 5.9 1.7 1.3 1.1 2 3 2 5.5 0 1-.2 2.1-.7 3.1-.5 1-1.1 2.1-1.8 3.1-.8 1-1.6 2-2.5 2.9-.9.9-1.9 1.8-2.8 2.7-1.3 1-2.3 2-3 2.9-.7.8-1.3 1.8-1.6 2.8-.4 1.1-.6 2.2-.7 3.5-.1 1.3-.1 2.9-.1 4.8h10.3c0-1.1 0-2 .1-2.8.1-.8.2-1.5.4-2.2s.5-1.3 1-1.9c.5-.6 1.1-1.4 1.9-2.2 1.3-1.2 2.7-2.4 4-3.6 1.3-1.2 2.5-2.6 3.5-3.9 1-1.4 1.9-2.9 2.5-4.5s1-3.4 1-5.3c0-2.6-.4-4.9-1.3-6.9z"></path><path d="M82.8 102.1c.5-1.2 1.2-2.3 2.1-3.2.8-.8 1.9-1.4 3-1.9h-4.1v-3.5c0-1.9.1-3.6.1-4.9-1.7-9.7-6.3-13.7-19.4-16.4l-1.5-.3-.9 1.2c-.1.1-1.5 2-6.1 2-3.9 0-6.4-2.4-6.4-2.4l-.9-.9-1.2.2C31 75.2 28.1 81.2 27.3 94.5c-10.8-8-18.2-20.6-19.3-35h10.2v-7H8C9.8 28.7 28.8 9.7 52.6 8v10.2h7V8c22.7 1.6 41 19.1 44.1 41.3 2.1.8 3.9 1.7 5.5 3 1.1.9 2 1.9 2.8 2.9C111.6 24.7 86.7.1 56.1.1 25.2.1.1 25.2.1 56.1c0 22.5 13.4 41.9 32.6 50.8 1.7.9 3.8 1.8 6.5 2.6 5.3 1.7 11 2.6 16.8 2.6 5.9 0 11.5-.9 16.8-2.6 2.7-.8 4.9-1.7 6.5-2.6 1-.5 1.9-1.1 2.9-1.6.1-1.1.3-2.2.6-3.2zm-4.3-3.5c-5.7 3-12.1 5-18.9 5.5V93.9h-7v10.2c-6.8-.5-13.2-2.4-18.9-5.5V98c.6-13.5 1.2-17 13.7-19.3 2.3 1.9 5.3 2.9 8.8 2.9 3.9 0 7.1-1.3 8.9-2.8 11.5 2.8 12.8 6.3 13.4 19.8zM56.1 29.4c-11.4 0-17.2 6.8-17.2 20.3 0 11.2 7.7 20.2 17.2 20.2s17.2-9.1 17.2-20.2c-.1-5.1-.1-20.3-17.2-20.3zm0 34c-6.2 0-10.7-5.8-10.7-13.8 0-9.3 1.6-13.8 10.7-13.8s10.7 4.4 10.7 13.8c-.1 7.6-4.9 13.8-10.7 13.8z" fill="#3c3c3c"></path></symbol><symbol xmlns="http://www.w3.org/2000/svg" viewBox="0 0 112 112" id="check-link-icon"><path d="M98.4 103.3c.3.8.5 1.6.5 2.5 0 .9-.2 1.7-.5 2.5s-.8 1.4-1.3 2-1.3 1-2.1 1.3-1.8.5-2.8.5c-1 0-2-.2-2.8-.5s-1.5-.7-2.1-1.3-1-1.2-1.3-2-.5-1.6-.5-2.5c0-.9.2-1.7.5-2.5s.7-1.5 1.3-2 1.3-1 2.1-1.3 1.8-.5 2.8-.5c1 0 1.9.2 2.8.5s1.5.8 2.1 1.3 1 1.2 1.3 2zM110.7 60c-.9-2-2.1-3.7-3.8-5s-3.7-2.4-6.1-3.1-5.1-1-8.2-1c-2.7 0-5.2.3-7.5 1S80.7 53.6 79 55s-3.1 3.1-4.1 5.1-1.5 4.5-1.6 7.3h11.4c0-1.3.3-2.3.7-3.2.5-.9 1-1.6 1.8-2.2s1.6-1 2.5-1.3 1.9-.4 2.9-.4c2.6 0 4.5.6 5.9 1.7s2 3 2 5.5c0 1-.2 2.1-.7 3.1s-1.1 2.1-1.8 3.1-1.6 2-2.5 2.9-1.9 1.8-2.8 2.7c-1.3 1-2.3 2-3 2.9S88.4 84 88.1 85s-.6 2.2-.7 3.5-.1 2.9-.1 4.8h10.3c0-1.1 0-2 .1-2.8s.2-1.5.4-2.2.5-1.3 1-1.9 1.1-1.4 1.9-2.2c1.3-1.2 2.7-2.4 4-3.6s2.5-2.6 3.5-3.9 1.9-2.9 2.5-4.5 1-3.4 1-5.3c0-2.6-.4-4.9-1.3-6.9z"></path><path d="M84.2 25l-5.4-5.4L89.6 7.1l5.4 5.4L84.2 25zm5.2 10.8l16.1-6.2-3-6-15.9 5.3 2.8 6.9zM76.3 1.4l-7-1.4-2.7 16.9 7.9 1.3 1.8-16.8zm13.3 39.1l-1.4 7.1.7.1c1.2-.1 2.4-.2 3.7-.2 3.3 0 6.4.4 9.1 1.2 1.3.4 2.5.8 3.7 1.4v-6.9l-15.8-2.7zm1.1 23.6c-.2.1-.4.1-.6.2l4.8 3.8 1.9-2.5c-.1-.4-.3-.7-.5-.9-.7-.6-1.9-.9-3.6-.9-.7 0-1.4.1-2 .3zM73.1 38.8L55.4 95.7l-.1.1c-.7 1.3-1.8 2.9-4.1 2.9-1.4 0-2.4-1-3.2-1.8l-.2-.2-5.9-11.2c-.1 0-.2-.1-.3-.1-.3 0-.4 0-.5.1l-20.9 25.3C19 112 17.8 112 17 112c-.8 0-2 0-3.2-1.2l-6.2-5.6c-.7-.7-1.1-1.6-1.1-2.6 0-.9.3-1.8.9-2.5l21.3-25.6c.1-.3.1-.7.1-.8 0 0-.1-.2-.4-.3L14.6 69c-1.8-.6-3-2.4-3-4.4 0-1.6.8-2.9 2.2-3.4l53.3-27.9h1.7c1.6 0 3 .6 3.8 1.8.8 1 1 2.3.5 3.7zm-8.5 3.6L22.5 64.3l8.1 2.4c2.2.2 4.4 2.7 5.2 5 .8 2.4.2 5-1.6 6.8l-19.7 23.8 2.3 2L36 81.1c1.7-1.7 4.1-2.4 5.7-2.4 3.2 0 5.8 1.6 6.7 4.3l2.3 4.7 13.9-45.3zM45.1 32l-16.8-2.6-1.4 7 16.8 3.5 1.4-7.9zm36.2 38.9h-7.4l2.9 7.6 6-3-1.5-4.6zM62 17.1l-5.3-16-6.9 2.7 5.3 16 6.9-2.7zm-10.1 5.8L39.4 12.2 34 17.6l12.5 10.7 5.4-5.4z" fill="#3c3c3c"></path></symbol><symbol xmlns="http://www.w3.org/2000/svg" viewBox="0 0 112 112" id="check-subprofiles-icon"><path d="M98.4 103.3c.3.8.5 1.6.5 2.5 0 .9-.2 1.7-.5 2.5s-.8 1.4-1.3 2-1.3 1-2.1 1.3-1.8.5-2.8.5c-1 0-2-.2-2.8-.5s-1.5-.7-2.1-1.3-1-1.2-1.3-2-.5-1.6-.5-2.5c0-.9.2-1.7.5-2.5s.7-1.5 1.3-2 1.3-1 2.1-1.3 1.8-.5 2.8-.5c1 0 1.9.2 2.8.5s1.5.8 2.1 1.3 1 1.2 1.3 2zM110.7 60c-.9-2-2.1-3.7-3.8-5s-3.7-2.4-6.1-3.1-5.1-1-8.2-1c-2.7 0-5.2.3-7.5 1S80.7 53.6 79 55s-3.1 3.1-4.1 5.1-1.5 4.5-1.6 7.3h11.4c0-1.3.3-2.3.7-3.2.5-.9 1-1.6 1.8-2.2s1.6-1 2.5-1.3 1.9-.4 2.9-.4c2.6 0 4.5.6 5.9 1.7s2 3 2 5.5c0 1-.2 2.1-.7 3.1s-1.1 2.1-1.8 3.1-1.6 2-2.5 2.9-1.9 1.8-2.8 2.7c-1.3 1-2.3 2-3 2.9S88.4 84 88.1 85s-.6 2.2-.7 3.5-.1 2.9-.1 4.8h10.3c0-1.1 0-2 .1-2.8s.2-1.5.4-2.2.5-1.3 1-1.9 1.1-1.4 1.9-2.2c1.3-1.2 2.7-2.4 4-3.6s2.5-2.6 3.5-3.9 1.9-2.9 2.5-4.5 1-3.4 1-5.3c0-2.6-.4-4.9-1.3-6.9z"></path><path d="M56 64.5c9.5 0 17.2-9.1 17.2-20.3 0-5 0-20.3-17.2-20.3-11.4 0-17.2 6.8-17.2 20.3 0 11.3 7.7 20.3 17.2 20.3zm0-34c9.1 0 10.7 4.4 10.7 13.8 0 7.6-4.8 13.8-10.7 13.8-6.2 0-10.7-5.8-10.7-13.8 0-9.3 1.6-13.8 10.7-13.8zM24.5 55.9c8 0 14.5-7.7 14.5-17.1 0-4.2 0-17.1-14.5-17.1-9.6 0-14.5 5.8-14.5 17.1-.1 9.5 6.5 17.1 14.5 17.1zm0-28.7c7.7 0 9 3.8 9 11.6 0 6.4-4 11.6-9 11.6-5.2 0-9-4.9-9-11.6-.1-7.9 1.3-11.6 9-11.6zm53.3 24.3c-3-3.1-4.8-7.7-4.8-12.7 0-11.4 4.9-17.1 14.5-17.1 14.5 0 14.5 12.9 14.5 17.1 0 3.4-.9 6.6-2.3 9.3-1.9-.4-4-.6-6.2-.6 1.8-2.1 3-5.2 3-8.6 0-7.9-1.4-11.6-9-11.6-7.7 0-9 3.8-9 11.6 0 4.5 1.7 8.2 4.4 10.2-1.8.5-3.5 1.4-5.1 2.4zm14.8 12.3c.7 0 1.2.1 1.8.2-1.4.9-3.4 1.7-5.8 1.9v-.1c.2-.4.5-.8.8-1 .4-.3.8-.5 1.3-.6.6-.3 1.3-.4 1.9-.4zM112 80.1v2.6l-.2.4c-.3.6-2.3 4.3-10.5 6.4.1-.3.2-.6.5-.9.3-.5.9-1 1.5-1.7 1.3-1.2 2.7-2.4 4-3.6 1.5-1.4 2.8-2.9 4-4.4l.6-.9c0 .6.1 1.3.1 2.1zM84.6 96.9h-.8v-3.5c0-2 .1-3.7.2-5.1.1-1.2.3-2.4.6-3.4h-.2c-.9-6.8-2.9-11.1-7.6-14h-6.9v-3.5c0-2.4.4-4.6 1-6.5-2.8 1.5-4.6 3.5-5.7 6-.2 0-.4-.1-.6-.1l-1.6-.3-.9 1.2c-.1.1-1.5 2-6.1 2-3.9 0-6.4-2.4-6.4-2.4l-.9-.9-1.2.2c-.2 0-.5.1-.7.1-2.1-4.9-6.4-7.3-15.2-9.1l-1.3-.2-.7 1.1c0 .1-1.2 1.7-5.2 1.7-3.3 0-5.4-2-5.4-2l-.7-.7-1 .2C2.2 60.7.5 66.4 0 79.6v2.6l.2.8c.4.9 4.2 8 24.3 8h2.7c0 .5 0 1.1-.1 1.6v3.1l.2 1c.4 1 5 9.4 28.7 9.4 22.2-.1 27.6-7.5 28.6-9.2zm-57-12c-1.1 0-2.2.1-3.2.1-13.4 0-18-3.5-19-4.5v-.8c.5-11.4 1-14.4 11.6-16.3 2 1.6 4.5 2.5 7.4 2.5 3.3 0 6-1.1 7.5-2.4 4.9 1.1 7.6 2.5 9.2 4.9-9.4 2.9-12.4 7.9-13.5 16.5zm50.8 8.5c-5.1 4.5-14.9 5.5-22.4 5.5-15.9 0-21.3-4.2-22.4-5.3v-1c.6-13.5 1.2-17 13.7-19.3 2.4 1.9 5.4 2.9 8.8 2.9 3.9 0 7.1-1.3 8.9-2.8 11.7 2.8 13 6.3 13.6 19.7v.3z" fill="#3c3c3c"></path></symbol><symbol xmlns="http://www.w3.org/2000/svg" viewBox="0 0 112 112" id="check-unsubscribed-icon"><path d="M98.4 103.3c.3.8.5 1.6.5 2.5 0 .9-.2 1.7-.5 2.5s-.8 1.4-1.3 2-1.3 1-2.1 1.3-1.8.5-2.8.5c-1 0-2-.2-2.8-.5s-1.5-.7-2.1-1.3-1-1.2-1.3-2-.5-1.6-.5-2.5c0-.9.2-1.7.5-2.5s.7-1.5 1.3-2 1.3-1 2.1-1.3 1.8-.5 2.8-.5c1 0 1.9.2 2.8.5s1.5.8 2.1 1.3 1 1.2 1.3 2zM110.7 60c-.9-2-2.1-3.7-3.8-5s-3.7-2.4-6.1-3.1-5.1-1-8.2-1c-2.7 0-5.2.3-7.5 1S80.7 53.6 79 55s-3.1 3.1-4.1 5.1-1.5 4.5-1.6 7.3h11.4c0-1.3.3-2.3.7-3.2.5-.9 1-1.6 1.8-2.2s1.6-1 2.5-1.3 1.9-.4 2.9-.4c2.6 0 4.5.6 5.9 1.7s2 3 2 5.5c0 1-.2 2.1-.7 3.1s-1.1 2.1-1.8 3.1-1.6 2-2.5 2.9-1.9 1.8-2.8 2.7c-1.3 1-2.3 2-3 2.9S88.4 84 88.1 85s-.6 2.2-.7 3.5-.1 2.9-.1 4.8h10.3c0-1.1 0-2 .1-2.8s.2-1.5.4-2.2.5-1.3 1-1.9 1.1-1.4 1.9-2.2c1.3-1.2 2.7-2.4 4-3.6s2.5-2.6 3.5-3.9 1.9-2.9 2.5-4.5 1-3.4 1-5.3c0-2.6-.4-4.9-1.3-6.9z"></path><path d="M64.2 51.6c7.9 8.1 7.9 20.7-.2 28.7l-25.8 25.8c-3.8 3.8-8.9 5.9-14.1 5.9-5.2 0-10.3-2.2-14.1-5.9L5.9 102C1.9 98 0 93.4 0 87.9c0-6 2.2-11.1 6.1-14.2l25.5-25.5c.5-.9 1.4-1.5 2.5-1.6 1.4-.2 2.8.3 4 1.3.9.5 1.5 1.4 1.6 2.5.2 1.4-.3 3-1.5 4.2L12.4 80.3c-1.9 1.9-3.1 4.7-3.1 7.6 0 2.9 1.1 5.7 3.1 7.6l4.5 3.2c4.3 4.3 11.6 4.1 15.5.2l25.8-25.8c1.9-1.9 3.1-4.7 3.1-7.6 0-2.8-1.1-5.5-2.9-7.5-.9-.5-1.4-1.4-1.6-2.5-.2-1.4.3-2.8 1.3-4 1.2-2 4.8-2 6.1.1zm41.9-34.1l-4.1-4.1c-3.9-3.9-9.1-6.1-14.4-6.1-5.4 0-10.5 2.2-14.4 6.1L47.3 39.2c-3.9 3.9-6.1 9.1-6.1 14.4 0 5.4 2.2 10.5 6.1 14.4 1.1 1.1 2.7 1.7 4.2 1.5 1.2-.2 2.1-.9 2.6-1.9.9-1.8 1.2-3.4.8-4.6-.2-.7-.7-1.2-1.3-1.6-3.9-4.1-3.9-11.1.2-15.1l25.8-25.8c3.9-3.9 11.3-3.9 15.3 0l4.1 4.1c1.9 1.9 3.1 4.7 3.1 7.6s-1.1 5.7-3.1 7.6l-7.7 7.7c3.8-.2 7.6.1 10.7 1 .3.1.5.2.8.3l2.5-2.5c4.4-3.7 6.7-8.8 6.7-14.9 0-5.3-1.9-9.9-5.9-13.9zM73.3 72.3c1.1 1 2.3 1 3 1 .8 0 2.1 0 3.2-1.2l1.2-1.2H72c.4.6.8 1.1 1.3 1.4z" fill="#3c3c3c"></path></symbol><symbol xmlns="http://www.w3.org/2000/svg" viewBox="0 0 10 10" id="close-icon"><path d="M0 1.25L1.25 0 5 3.75 8.75 0 10 1.25 6.25 5 10 8.75 8.75 10 5 6.25 1.25 10 0 8.75 3.75 5z"></path></symbol><symbol xmlns="http://www.w3.org/2000/svg" viewBox="0 0 16 16" id="comment-icon"><path d="M8 2.7c-4.4 0-8 2.6-8 5.8 0 1.7 1.1 3.4 2.9 4.5L2 16l4-1.9c.6.1 1.3.2 2 .2 4.4 0 8-2.6 8-5.8s-3.6-5.8-8-5.8zm0 10.4c-.8 0-1.3 0-1.7-.1l-.3-.1-.4.1-1.6.8.1-.5.2-.8-.8-.5C2 11 1.2 9.8 1.2 8.5c0-2.6 3-4.6 6.8-4.6 3.7 0 6.8 2.1 6.8 4.6 0 2.5-3.1 4.6-6.8 4.6z"></path></symbol><symbol xmlns="http://www.w3.org/2000/svg" viewBox="0 0 10 10" id="create-link-icon"><path d="M4.375 0h1.25v4.375H10v1.25H5.625V10h-1.25V5.625H0v-1.25h4.375z"></path></symbol><symbol xmlns="http://www.w3.org/2000/svg" viewBox="0 0 112 112" id="create-profile-icon"><path d="M112 75.4v5.8c0 2.7-2.2 4.8-4.8 4.8H85.9v21.3c0 2.7-2.2 4.8-4.8 4.8h-5.8c-2.7 0-4.8-2.2-4.8-4.8V85.9H49.3c-2.7 0-4.8-2.2-4.8-4.8v-5.8c0-2.7 2.2-4.8 4.8-4.8h21.3V49.3c0-2.7 2.2-4.8 4.8-4.8h5.8c2.7 0 4.8 2.2 4.8 4.8v21.3h21.3c2.5 0 4.7 2.1 4.7 4.8z"></path><path d="M68.6 107.3c-5.9 2.6-15 4.7-29.1 4.7C7.1 112 .9 100.5.3 99.2L0 97.8v-4.2C.9 72.2 3.6 63 27.9 58.4l1.7-.3 1.2 1.2s3.5 3.3 8.7 3.3c6.3 0 8.2-2.7 8.3-2.8l1.2-1.7 2.1.3c7.8 1.6 13.4 3.5 17.4 6.2v4h-13c-1.2-.4-2.5-.7-3.9-1-.4.4-.9.7-1.4 1h-.9c-2.1 0-3.9.9-5.2 2.4-1.4.3-3 .5-4.6.5-4.7 0-8.8-1.4-12-4-17 3-17.9 7.8-18.6 26.2V95c1.6 1.5 9 7.2 30.6 7.2 9.5 0 21.8-1.1 29-6.2l.1 11.3c0-.1 0-.1 0 0zM16.1 27.7C16.1 9.3 24 0 39.5 0 63 0 63 20.8 63 27.7 63 43 52.5 55.4 39.5 55.4S16.1 42.9 16.1 27.7zm8.8 0c0 10.9 6.1 18.8 14.6 18.8 8 0 14.6-8.4 14.6-18.8 0-12.7-2.2-18.8-14.6-18.8s-14.6 6-14.6 18.8z" fill="#3c3c3c"></path></symbol><symbol xmlns="http://www.w3.org/2000/svg" viewBox="0 0 112 112" id="create-subprofile-icon"><path d="M112 82.7v4.6c0 2.1-1.7 3.8-3.8 3.8h-17v17c0 2.1-1.7 3.8-3.8 3.8h-4.6c-2.1 0-3.8-1.7-3.8-3.8v-17H62c-2.1 0-3.8-1.7-3.8-3.8v-4.6c0-2.1 1.7-3.8 3.8-3.8h17v-17c0-2.1 1.7-3.8 3.8-3.8h4.6c2.1 0 3.8 1.7 3.8 3.8v17h17c2.1-.1 3.8 1.7 3.8 3.8z"></path><path d="M77.9 58.6c-2.7-3.1-4.4-7.4-4.4-12.2 0-11.2 4.8-16.9 14.4-16.9 14.4 0 14.4 12.8 14.4 16.9 0 7.1-3.7 13.2-9 15.7v-.3c0-1.9-.9-3.6-2.3-4.6 3.4-1.6 5.9-5.8 5.9-10.8 0-7.8-1.3-11.5-8.9-11.5-7.6 0-8.9 3.7-8.9 11.5 0 4.2 1.5 7.6 3.8 9.6-2.2 0-4 1-5 2.6zm30.3 34.6h-15v4.7c8.8-.7 13.5-2.9 16-4.8-.3 0-.7.1-1 .1zM93.6 65l-.5.7v6.4c.8-.4 1.5-.8 2.1-1.3 5.6 1.3 8.4 2.9 9.8 6.1h3.1c1 0 2 .3 2.9.8-1.6-7.3-5.6-10.3-16.1-12.4l-1.3-.3zM27.4 96.3c0-.5.1-.9.1-1.3v-.2c0-.5.1-.9.1-1.3v-.1c0-.5.1-.9.1-1.4h-3.5c-13.3 0-17.8-3.5-18.8-4.4v-.8c.5-11.3 1-14.2 11.4-16.1 2 1.6 4.5 2.5 7.3 2.5 3.3 0 5.9-1.1 7.4-2.4 4.4 1 7 2.2 8.7 4.2 1.2-.4 2.6-.8 4.1-1.2h.1c.5-.1 1-.2 1.5-.4-2.2-4.4-6.5-6.6-14.7-8.2L30 65l-.7 1c0 .1-1.2 1.7-5.1 1.7-3.2 0-5.3-2-5.4-2l-.7-.7-1 .2C2.2 68 .5 73.6 0 86.7v2.6l.2.8c.3.9 4.2 7.9 24 7.9 1.1 0 2.2 0 3.2-.1 0-.5 0-1 .1-1.5-.1 0-.1-.1-.1-.1zm43.9-21.5c1.1-1.5 2.8-2.5 5.5-3.3V66c-5.8 1.6-9 3.9-10.8 7.3 2 .5 3.7 1 5.3 1.5zM9.8 46.4c0-11.2 4.8-16.9 14.4-16.9 14.4 0 14.4 12.8 14.4 16.9 0 9.3-6.4 16.9-14.4 16.9S9.8 55.7 9.8 46.4zm5.5 0c0 6.7 3.8 11.5 8.9 11.5 4.9 0 8.9-5.2 8.9-11.5 0-7.8-1.3-11.5-8.9-11.5s-8.9 3.7-8.9 11.5zM39 50.8c0-13.3 5.7-20.1 17-20.1 17 0 17 15.1 17 20.1 0 11.1-7.6 20.1-17 20.1s-17-9-17-20.1zm6.4 0c0 7.9 4.5 13.6 10.6 13.6 5.8 0 10.6-6.1 10.6-13.6 0-9.3-1.6-13.7-10.6-13.7s-10.6 4.4-10.6 13.7zm31.4 57.4v-7.6c-5.3 3.6-14 4.4-20.8 4.4-15.7 0-21.1-4.2-22.2-5.2v-1c.6-13.4 1.2-16.9 13.6-19.1 2.3 1.9 5.3 2.9 8.7 2.9.1-3.2 2.7-5.7 5.8-5.7H76c-1.3-.8-2.9-1.4-4.6-2-1.6-.5-3.3-1-5.3-1.4-.5-.1-1-.2-1.6-.3L63 73l-1 1.1c-.1.1-1.5 2-6 2-3.8 0-6.3-2.4-6.3-2.4l-.9-.9-1.2.2c-.6.1-1.1.2-1.6.3-.5.1-1 .2-1.5.4h-.1c-1.5.4-2.8.8-4.1 1.2-8.9 3.1-11.5 8.2-12.5 17 0 .5-.1.9-.1 1.4v.1c0 .4-.1.9-.1 1.3v.2c0 .4-.1.9-.1 1.3v.1c0 .5-.1 1-.1 1.5v3.8l.2 1c.4 1 5 9.3 28.5 9.3 10 0 16.6-1.5 20.9-3.3-.1-.1-.2-.3-.2-.4z" fill="#3c3c3c"></path></symbol><symbol xmlns="http://www.w3.org/2000/svg" viewBox="0 0 112 112" id="delay-icon"><path d="M55.8 7.7C82.3 7.7 104 29.4 104 56s-21.7 48.3-48.3 48.3S7.5 82.6 7.5 56 29.1 7.7 55.8 7.7m0-7.7C25 0-.2 25.2-.2 56s25.2 56 56 56 56-25.2 56-56-25.3-56-56-56zm0 11.2c-1.4 0-2.1.7-2.1 2.1v2.1c0 1.4.7 2.1 2.1 2.1 1.4 0 2.1-.7 2.1-2.1v-2.1c0-1.4-.8-2.1-2.1-2.1zm0 83.3c-1.4 0-2.1.7-2.1 2.1V98c0 1.4.7 2.1 2.1 2.1 1.4 0 2.1-.7 2.1-2.1v-2.1c0-.7-.8-1.4-2.1-1.4zm42.7-40.6h-2.1c-1.4 0-2.1.7-2.1 2.1 0 1.4.7 2.1 2.1 2.1h2.1c1.4 0 2.1-.7 2.1-2.1s-1.4-2.1-2.1-2.1zm-83.3 0h-2.1c-.7 0-1.4.7-1.4 2.1s.7 2.1 2.1 2.1h2.1c1.4 0 2.1-.7 2.1-2.1s-1.4-2.1-2.8-2.1zm69.3-29.4l-1.4 1.4c-.7.7-.7 2.1 0 2.8h1.4c.7 0 .7 0 1.4-.7l1.4-1.4c.7-.7.7-2.1 0-2.8-.8 0-2.1 0-2.8.7zM25.6 83.3l-1.4 1.4c-.7.7-.7 2.1 0 2.8.7.7.7.7 1.4.7s.7 0 1.4-.7l1.4-1.4c.7-.7.7-2.1 0-2.8s-2-.7-2.8 0zm60.2 0c-.7-.7-2.1-.7-2.8 0-.7.7-.7 2.1 0 2.8l1.4 1.4c.7.7.7.7 1.4.7s.7 0 1.4-.7.7-2.1 0-2.8l-1.4-1.4zM27.1 24.5c-.7-.7-2.1-.7-2.8 0-.7.7-.7 2.1 0 2.8l1.4 1.4c.7.7.7.7 1.4.7s.7 0 1.4-.7.7-2.1 0-2.8l-1.4-1.4z" fill="#3c3c3c"></path><path d="M58.3 46.7V25.5c0-1.4-1.1-2.5-2.5-2.5s-2.5 1.1-2.5 2.5v21.2c-3.3.9-5.9 3.5-6.8 6.8h-13c-1.4 0-2.5 1.1-2.5 2.5s1.1 2.5 2.5 2.5h12.9c1.1 4.1 4.9 7.2 9.3 7.2 5.3 0 9.7-4.3 9.7-9.7 0-4.5-3-8.2-7.1-9.3zm-2.5 14.1c-2.7 0-4.8-2.2-4.8-4.8s2.2-4.8 4.8-4.8 4.8 2.2 4.8 4.8-2.2 4.8-4.8 4.8z"></path></symbol><symbol xmlns="http://www.w3.org/2000/svg" viewBox="0 0 112 112" id="disable-icon"><path d="M56 0C25.1 0 0 25.1 0 56s25.1 56 56 56 56-25.1 56-56S86.9 0 56 0zM21.9 76.8C18.1 70.7 16 63.6 16 56c0-22.1 17.9-40 40-40 7.6 0 14.7 2.1 20.8 5.9L21.9 76.8zM56 96c-7.6 0-14.7-2.1-20.8-5.9l55-55C93.9 41.3 96 48.4 96 56c0 22.1-17.9 40-40 40z"></path></symbol><symbol xmlns="http://www.w3.org/2000/svg" viewBox="0 0 16 16" id="edit-icon"><path style="line-height:normal;font-variant-ligatures:normal;font-variant-position:normal;font-variant-caps:normal;font-variant-numeric:normal;font-variant-alternates:normal;font-feature-settings:normal;text-indent:0;text-align:start;text-decoration-line:none;text-decoration-style:solid;text-decoration-color:#000;text-transform:none;text-orientation:mixed;shape-padding:0;isolation:auto;mix-blend-mode:normal" d="M11.271.365l-.01.01-1.43 1.537 3.823 4.119 1.427-1.537.01-.01A1.156 1.156 0 0 0 15.04 3L12.646.422A.965.965 0 0 0 11.27.365zm.432.542h.004a.322.322 0 0 1 .47.017l2.394 2.582a.388.388 0 0 1 .016.51v.003l-.933 1.001-2.884-3.104zM9.638 2.12l-.233.255-8.74 9.406.002 4.116H4.49l8.974-9.658zm0 1.012l2.887 3.107-8.309 8.944H1.33v-3.107z" color="#000" font-weight="400" font-family="sans-serif" white-space="normal" overflow="visible"></path></symbol><symbol xmlns="http://www.w3.org/2000/svg" viewBox="0 0 112 112" id="evaluate-icon"><path d="M110 20L91.6 1.5c-1-1-2.1-1.5-3.3-1.5-1.2 0-2.3.5-3.3 1.5L67.3 19.3c-1.4 1.4-2 3.5-.9 4.9 1.1 2.1 2.7 2.1 4.1 2.1h3.1v16.4H5c-2.3 0-4.4 2.1-4.4 4.4v22.5C.6 71.9 2.7 74 5 74h45.4v11h-3.1c-2.1 0-3.2 1.1-3.9 1.9l-.3.4c-1.2 2.5.3 4 1 4.7l18.4 18.4c1 1 2.1 1.5 3.3 1.5 1.1 0 2.2-.5 3.3-1.5L87.5 92c1.2-1.2 1.2-3 1.2-3.9l-.2-.8C87.3 85 85.7 85 84.2 85h-3.8V73.1c13.3-2.8 23.2-14.9 23.2-28.7V27h3.1c2.1 0 3.2-1.1 3.9-1.9l.3-.4c1.3-2.5-.2-4-.9-4.7zM59.3 89.5V73.1c0-4.3-3.5-7.9-7.9-7.9h-42v-13h42c10.9 0 20.1 9.2 20.1 20.1v16.4c0 1.6 1 3.1 2.4 3.9l-8.2 8.7-8.3-8.3c1.1-.8 1.9-2.1 1.9-3.5zm23.2-45.1V22.5c0-1.5-.9-3-2.2-3.8l8.7-8.2 8.1 8.1c-1.3.8-2.3 2.3-2.3 3.8v21.9c0 9.2-6.4 17.3-15.5 19.8-1.3-4.5-3.7-8.6-6.9-12h2.3c4.3.1 7.8-3.4 7.8-7.7z"></path></symbol><symbol xmlns="http://www.w3.org/2000/svg" viewBox="0 0 112 112" id="event-icon"><path d="M49.5.038l-23.1 59.3 18.1-1.6-21.4 54.4 65.9-70.8H61L79.1.138l-29.6-.1z"></path></symbol><symbol xmlns="http://www.w3.org/2000/svg" viewBox="0 0 112 112" id="execute-icon"><path d="M59.2 96.9V112h53V96.9zM-.045 47.469l35.2 25-35.2 23v16.4l58.1-34.8v-8.4l-58.1-38.5z"></path></symbol><symbol xmlns="http://www.w3.org/2000/svg" viewBox="0 0 112 112" id="followup-icon"><path d="M35.5 54.4h22.9v3.5H35.5v-3.5zm42.4-38.8v3.5H58.5v74.1h19.4v3.5h-23V15.6h23z" fill="#3c3c3c"></path><path d="M1.5 39.1h34v34h-34v-34zM76.5 0h34v34h-34V0zm0 78h34v34h-34V78z"></path></symbol><symbol xmlns="http://www.w3.org/2000/svg" viewBox="0 0 32 32" id="person-check-icon"><g transform="translate(0 -265)" font-weight="400"><path style="line-height:normal;font-variant-ligatures:normal;font-variant-position:normal;font-variant-caps:normal;font-variant-numeric:normal;font-variant-alternates:normal;font-feature-settings:normal;text-indent:0;text-align:start;text-decoration-line:none;text-decoration-style:solid;text-decoration-color:#000;text-transform:none;text-orientation:mixed;shape-padding:0;isolation:auto;mix-blend-mode:normal" d="M11.975 269.096a6.035 6.035 0 0 0-6.029 6.029 6.036 6.036 0 0 0 6.03 6.031 6.036 6.036 0 0 0 6.029-6.031 6.035 6.035 0 0 0-6.03-6.03zm0 .74a5.283 5.283 0 0 1 5.29 5.289 5.285 5.285 0 0 1-5.29 5.291 5.285 5.285 0 0 1-5.289-5.291 5.283 5.283 0 0 1 5.29-5.29zm4.567 9.613l-.127.121c-1.251 1.212-3.007 1.934-4.739 1.844h-.005l-.008-.002c-1.535-.025-2.98-.721-4.069-1.803l-.125-.125-.175.02c-1.453.16-2.56.622-3.332 1.3a3.847 3.847 0 0 0-1.293 2.528l-.584 5.602c-.124 1.18.73 2.197 1.986 2.88 1.255.684 2.96 1.09 4.791 1.09h6.227c1.831 0 3.544-.408 4.804-1.092.63-.342 1.15-.753 1.506-1.238.356-.485.54-1.057.467-1.648l-.701-5.639c-.232-1.861-1.645-3.482-4.45-3.818zm.175.791c2.48.335 3.52 1.594 3.711 3.137l.704 5.64c.048.388-.062.751-.33 1.118-.27.366-.703.723-1.262 1.027-1.119.607-2.731 1.002-4.451 1.002H8.862c-1.72 0-3.322-.393-4.436-1-1.113-.607-1.687-1.373-1.605-2.154l.584-5.6a3.068 3.068 0 0 1 1.047-2.049c.612-.538 1.539-.933 2.81-1.093 1.187 1.107 2.714 1.854 4.383 1.882 1.872.096 3.697-.667 5.072-1.91z" color="#000" font-family="sans-serif" white-space="normal" overflow="visible"></path><g style="line-height:14.60163307px;-inkscape-font-specification:Lato"><path d="M22.217 273.04q.362-.338.794-.642.444-.304.958-.537.526-.234 1.121-.362.608-.14 1.309-.14.923 0 1.705.268.795.269 1.367.76.572.49.9 1.19.326.702.326 1.578 0 .888-.268 1.53-.257.643-.666 1.133-.397.48-.876.841l-.888.666q-.42.316-.724.63-.292.316-.339.702l-.21 1.787H25.3l-.14-1.94q-.047-.525.198-.91.245-.397.643-.736.397-.35.876-.678.479-.338.887-.747.421-.41.701-.923.28-.526.28-1.25 0-.502-.198-.911-.198-.409-.537-.69-.339-.291-.806-.443-.456-.152-.981-.152-.713 0-1.227.175-.502.175-.853.386-.35.21-.572.385-.21.175-.35.175-.293 0-.456-.268zM24.495 287q0-.304.105-.573.117-.268.304-.467.198-.198.467-.315.268-.117.572-.117.304 0 .573.117.268.117.467.315.198.199.315.467.117.269.117.573 0 .315-.117.584-.117.257-.315.455-.199.199-.467.304-.27.117-.573.117-.304 0-.572-.117-.269-.105-.467-.304-.187-.198-.304-.455-.105-.269-.105-.584z" style="-inkscape-font-specification:Lato" font-size="23.363" font-family="Lato" letter-spacing="0" word-spacing="0" stroke-width=".584"></path></g></g></symbol><symbol xmlns="http://www.w3.org/2000/svg" viewBox="0 0 32 32" id="person-edid-icon"><g transform="translate(0 -265)" font-weight="400"><path style="line-height:normal;font-variant-ligatures:normal;font-variant-position:normal;font-variant-caps:normal;font-variant-numeric:normal;font-variant-alternates:normal;font-feature-settings:normal;text-indent:0;text-align:start;text-decoration-line:none;text-decoration-style:solid;text-decoration-color:#000;text-transform:none;text-orientation:mixed;shape-padding:0;isolation:auto;mix-blend-mode:normal" d="M11.975 269.096a6.035 6.035 0 0 0-6.029 6.029 6.036 6.036 0 0 0 6.03 6.031 6.036 6.036 0 0 0 6.029-6.031 6.035 6.035 0 0 0-6.03-6.03zm0 .74a5.283 5.283 0 0 1 5.29 5.289 5.285 5.285 0 0 1-5.29 5.291 5.285 5.285 0 0 1-5.289-5.291 5.283 5.283 0 0 1 5.29-5.29zm4.567 9.613l-.127.121c-1.251 1.212-3.007 1.934-4.739 1.844h-.005l-.008-.002c-1.535-.025-2.98-.721-4.069-1.803l-.125-.125-.175.02c-1.453.16-2.56.622-3.332 1.3a3.847 3.847 0 0 0-1.293 2.528l-.584 5.602c-.124 1.18.73 2.197 1.986 2.88 1.255.684 2.96 1.09 4.791 1.09h6.227c1.831 0 3.544-.408 4.804-1.092.63-.342 1.15-.753 1.506-1.238.356-.485.54-1.057.467-1.648l-.701-5.639c-.232-1.861-1.645-3.482-4.45-3.818zm.175.791c2.48.335 3.52 1.594 3.711 3.137l.704 5.64c.048.388-.062.751-.33 1.118-.27.366-.703.723-1.262 1.027-1.119.607-2.731 1.002-4.451 1.002H8.862c-1.72 0-3.322-.393-4.436-1-1.113-.607-1.687-1.373-1.605-2.154l.584-5.6a3.068 3.068 0 0 1 1.047-2.049c.612-.538 1.539-.933 2.81-1.093 1.187 1.107 2.714 1.854 4.383 1.882 1.872.096 3.697-.667 5.072-1.91z" color="#000" font-family="sans-serif" white-space="normal" overflow="visible"></path><g style="line-height:14.60163307px;-inkscape-font-specification:Lato"><path d="M22.217 273.04q.362-.338.794-.642.444-.304.958-.537.526-.234 1.121-.362.608-.14 1.309-.14.923 0 1.705.268.795.269 1.367.76.572.49.9 1.19.326.702.326 1.578 0 .888-.268 1.53-.257.643-.666 1.133-.397.48-.876.841l-.888.666q-.42.316-.724.63-.292.316-.339.702l-.21 1.787H25.3l-.14-1.94q-.047-.525.198-.91.245-.397.643-.736.397-.35.876-.678.479-.338.887-.747.421-.41.701-.923.28-.526.28-1.25 0-.502-.198-.911-.198-.409-.537-.69-.339-.291-.806-.443-.456-.152-.981-.152-.713 0-1.227.175-.502.175-.853.386-.35.21-.572.385-.21.175-.35.175-.293 0-.456-.268zM24.495 287q0-.304.105-.573.117-.268.304-.467.198-.198.467-.315.268-.117.572-.117.304 0 .573.117.268.117.467.315.198.199.315.467.117.269.117.573 0 .315-.117.584-.117.257-.315.455-.199.199-.467.304-.27.117-.573.117-.304 0-.572-.117-.269-.105-.467-.304-.187-.198-.304-.455-.105-.269-.105-.584z" style="-inkscape-font-specification:Lato" font-size="23.363" font-family="Lato" letter-spacing="0" word-spacing="0" stroke-width=".584"></path></g></g></symbol><symbol xmlns="http://www.w3.org/2000/svg" viewBox="0 0 16 16" id="person-edit-icon"><g transform="translate(0 -265)" color="#000" font-weight="400" font-family="sans-serif" white-space="normal"><path style="line-height:normal;font-variant-ligatures:normal;font-variant-position:normal;font-variant-caps:normal;font-variant-numeric:normal;font-variant-alternates:normal;font-feature-settings:normal;text-indent:0;text-align:start;text-decoration-line:none;text-decoration-style:solid;text-decoration-color:#000;text-transform:none;text-orientation:mixed;shape-padding:0;isolation:auto;mix-blend-mode:normal" d="M13.459 270.348l-.006.006-.898.896 2.4 2.402.897-.896.005-.006a.638.638 0 0 0-.03-.865l-1.505-1.504a.639.639 0 0 0-.863-.033zm.271.316h.002a.213.213 0 0 1 .295.01l1.504 1.506a.214.214 0 0 1 .01.297v.002l-.586.584-1.81-1.81zm-1.296.707l-.147.149-5.488 5.486.002 2.4h2.4l5.635-5.633zm0 .59l1.812 1.812-5.217 5.217H7.217v-1.812z" overflow="visible"></path><path style="line-height:normal;font-variant-ligatures:normal;font-variant-position:normal;font-variant-caps:normal;font-variant-numeric:normal;font-variant-alternates:normal;font-feature-settings:normal;text-indent:0;text-align:start;text-decoration-line:none;text-decoration-style:solid;text-decoration-color:#000;text-transform:none;text-orientation:mixed;shape-padding:0;isolation:auto;mix-blend-mode:normal" d="M5.168 266.646A3.17 3.17 0 0 0 2 269.812c0 1.087.585 2 1.42 2.57-.164-.113-.39-.094-.533-.236l-.07-.07-.1.012c-.762.084-1.342.326-1.748.683-.406.358-.63.828-.682 1.33l-.307 2.93c-.065.626.388 1.16 1.047 1.52.66.359 1.552.572 2.512.572h3.002v-2.38l3.283-3.284-.072-.137c-.336-.643-1.028-1.123-2.104-1.252l-.1-.013-.07.07c-.65.63-1.566 1.006-2.466.959h-.008c-.217-.003-.369-.204-.576-.256.244.06.478.15.74.15a3.168 3.168 0 0 0 0-6.334zm0 .416a2.746 2.746 0 0 1 2.75 2.75 2.748 2.748 0 0 1-2.75 2.752 2.75 2.75 0 0 1-2.752-2.751c0-1.522 1.23-2.75 2.752-2.75zm2.484 5.438c.86.117 1.351.466 1.631.91l-3.16 3.16v2.135H3.539c-.897 0-1.733-.204-2.312-.52-.58-.315-.874-.71-.832-1.11l.306-2.929a1.59 1.59 0 0 1 .543-1.062c.316-.278.806-.476 1.465-.56.62.573 1.415.963 2.285.978.982.05 1.937-.352 2.658-1.002z" overflow="visible"></path></g></symbol><symbol xmlns="http://www.w3.org/2000/svg" viewBox="0 0 32 32" id="person-icon"><g transform="translate(0 -265)" font-weight="400"><path style="line-height:normal;font-variant-ligatures:normal;font-variant-position:normal;font-variant-caps:normal;font-variant-numeric:normal;font-variant-alternates:normal;font-feature-settings:normal;text-indent:0;text-align:start;text-decoration-line:none;text-decoration-style:solid;text-decoration-color:#000;text-transform:none;text-orientation:mixed;shape-padding:0;isolation:auto;mix-blend-mode:normal" d="M11.975 269.096a6.035 6.035 0 0 0-6.029 6.029 6.036 6.036 0 0 0 6.03 6.031 6.036 6.036 0 0 0 6.029-6.031 6.035 6.035 0 0 0-6.03-6.03zm0 .74a5.283 5.283 0 0 1 5.29 5.289 5.285 5.285 0 0 1-5.29 5.291 5.285 5.285 0 0 1-5.289-5.291 5.283 5.283 0 0 1 5.29-5.29zm4.567 9.613l-.127.121c-1.251 1.212-3.007 1.934-4.739 1.844h-.005l-.008-.002c-1.535-.025-2.98-.721-4.069-1.803l-.125-.125-.175.02c-1.453.16-2.56.622-3.332 1.3a3.847 3.847 0 0 0-1.293 2.528l-.584 5.602c-.124 1.18.73 2.197 1.986 2.88 1.255.684 2.96 1.09 4.791 1.09h6.227c1.831 0 3.544-.408 4.804-1.092.63-.342 1.15-.753 1.506-1.238.356-.485.54-1.057.467-1.648l-.701-5.639c-.232-1.861-1.645-3.482-4.45-3.818zm.175.791c2.48.335 3.52 1.594 3.711 3.137l.704 5.64c.048.388-.062.751-.33 1.118-.27.366-.703.723-1.262 1.027-1.119.607-2.731 1.002-4.451 1.002H8.862c-1.72 0-3.322-.393-4.436-1-1.113-.607-1.687-1.373-1.605-2.154l.584-5.6a3.068 3.068 0 0 1 1.047-2.049c.612-.538 1.539-.933 2.81-1.093 1.187 1.107 2.714 1.854 4.383 1.882 1.872.096 3.697-.667 5.072-1.91z" color="#000" font-family="sans-serif" white-space="normal" overflow="visible"></path><g style="line-height:14.60163307px;-inkscape-font-specification:Lato"><path d="M22.217 273.04q.362-.338.794-.642.444-.304.958-.537.526-.234 1.121-.362.608-.14 1.309-.14.923 0 1.705.268.795.269 1.367.76.572.49.9 1.19.326.702.326 1.578 0 .888-.268 1.53-.257.643-.666 1.133-.397.48-.876.841l-.888.666q-.42.316-.724.63-.292.316-.339.702l-.21 1.787H25.3l-.14-1.94q-.047-.525.198-.91.245-.397.643-.736.397-.35.876-.678.479-.338.887-.747.421-.41.701-.923.28-.526.28-1.25 0-.502-.198-.911-.198-.409-.537-.69-.339-.291-.806-.443-.456-.152-.981-.152-.713 0-1.227.175-.502.175-.853.386-.35.21-.572.385-.21.175-.35.175-.293 0-.456-.268zM24.495 287q0-.304.105-.573.117-.268.304-.467.198-.198.467-.315.268-.117.572-.117.304 0 .573.117.268.117.467.315.198.199.315.467.117.269.117.573 0 .315-.117.584-.117.257-.315.455-.199.199-.467.304-.27.117-.573.117-.304 0-.572-.117-.269-.105-.467-.304-.187-.198-.304-.455-.105-.269-.105-.584z" style="-inkscape-font-specification:Lato" font-size="23.363" font-family="Lato" letter-spacing="0" word-spacing="0" stroke-width=".584"></path></g></g></symbol><symbol xmlns="http://www.w3.org/2000/svg" viewBox="0 0 112 112" id="remove-destination-icon"><path d="M110.8 99.4c1.6 1.6 1.6 4.3 0 5.9l-5.4 5.4c-1.6 1.6-4.3 1.6-5.9 0L82.9 94.3l-16.5 16.5c-1.6 1.6-4.3 1.6-5.9 0l-5.4-5.4c-1.6-1.6-1.6-4.3 0-5.9L71.6 83 55.1 66.4c-1.6-1.6-1.6-4.3 0-5.9l5.4-5.4c1.6-1.6 4.3-1.6 5.9 0l16.5 16.5 16.5-16.5c1.6-1.6 4.3-1.6 5.9 0l5.4 5.4c1.6 1.6 1.6 4.3 0 5.9L94.3 82.9l16.5 16.5z"></path><path d="M73.2 49.6c0 2.8-.5 5.5-1.4 8l-3.9-3.9c-.4-.4-.9-.8-1.4-1.1.2-1 .3-2 .3-3 0-9.3-1.6-13.8-10.7-13.8s-10.7 4.4-10.7 13.8c0 6.1 2.6 10.9 6.7 12.8-.1.3-.1.7-.1 1 0 1.7.6 3.2 1.8 4.4l2 2c-9.3-.2-16.9-9.2-16.9-20.2 0-13.4 5.8-20.3 17.2-20.3 17.1.1 17.1 15.3 17.1 20.3zm20.7 8.3l4.2-4.2c.5-.5 1.1-.9 1.8-1.2H94v5.4zm-41.4 36v5.9c.3-.6.7-1.2 1.2-1.8l4.2-4.2h-5.4zm44.6-11l4.9 4.9c3.8-5.4 6.6-11.5 8.3-18.1L97.1 82.9zM56 112c1 0 1.9 0 2.8-.1l-5.1-5.1c-.8-.8-1.3-1.8-1.6-2.8-6.7-.5-12.9-2.4-18.6-5.4v-.7c.6-13.5 1.2-17 13.7-19.3 2.4 1.9 5.4 2.9 8.8 2.9 3.8 0 6.9-1.2 8.7-2.7l-4.5-4.5c-.9.4-2.3.7-4.2.7-3.9 0-6.4-2.4-6.4-2.4l-.9-.9-1.2.2C31 75.3 28.1 81.3 27.2 94.6 16.3 86.5 9 73.9 8 59.5h10.2v-7H8C9.7 28.7 28.7 9.7 52.5 8v10.2h7V8c23.7 1.7 42.6 20.6 44.5 44.2 1 .3 2 .8 2.8 1.6l5.1 5.1c0-.9.1-1.9.1-2.8 0-30.9-25.1-56-56-56C25.1 0 0 25.1 0 56c0 22.7 13.6 42.3 33.1 51.1 1.6.8 3.6 1.7 6.1 2.3 5.3 1.7 10.9 2.6 16.8 2.6zm13.8-1.7c1-.3 2.1-.6 3.1-.9 2.5-.7 4.5-1.5 6.1-2.3 3.1-1.4 6.1-3.1 8.9-5.1L83 97.1l-13.2 13.2z" fill="#3c3c3c"></path></symbol><symbol xmlns="http://www.w3.org/2000/svg" viewBox="0 0 112 112" id="send-email-icon"><path d="M111.4 73.8L90.6 110c-1 1.8-3.2 2.5-5.1 1.8-1-.1-2-.7-2.7-1.5-.4-.4-.8-.8-1-1.3l-9.5-12.2c-1.4-1.8-1.1-4.4.7-5.8l1.4-1.1c1.8-1.4 4.4-1.1 5.8.7L86 98l16.8-29.1c1.1-2 3.6-2.6 5.6-1.5l1.5.9c2 1.1 2.7 3.6 1.5 5.5z"></path><path d="M97.3 103.3v2.4c0 3.4-2.4 5.6-5 6.1.2-.2.3-.4.4-.7l4.6-7.8zM81.2 112H6.3c-3.7 0-6.3-2.3-6.3-5.7V54.9c0-3.8 2.5-6.3 6.3-6.3h84.8c3.9 0 6.3 3.2 6.3 6.3v18.5L90.7 85V58.4L66 80l7.9 7.1c-.4.2-.7.4-1.1.7l-1.4 1.1c-1 .8-1.7 1.8-2.1 2.8l-8.7-7.8L50 93.5c-.7.7-1.4.8-1.9.8s-1.3-.2-2-.9l-10.6-9.5-24.5 22h65.4l3.4 4.3c.3.6.8 1.2 1.3 1.7 0 0 0 .1.1.1zM11.7 54.7l36.7 32 36.7-32H11.7zm19.1 24.7L6.1 58.3v43.3l24.7-22.2z" fill="#3c3c3c"></path></symbol><symbol xmlns="http://www.w3.org/2000/svg" viewBox="0 0 112 112" id="show-followup-icon"><path d="M108.7 101.2L93.5 86.1c1.7-3.1 2.6-6.6 2.6-10.3 0-12-9.8-21.8-21.8-21.8s-21.8 9.8-21.8 21.8 9.8 21.8 21.8 21.8c3.7 0 7.2-.9 10.3-2.6l15.1 15.1c2.5 2.5 6.5 2.5 8.9 0 2.5-2.4 2.5-6.4.1-8.9zm-46-25.4c0-6.4 5.2-11.6 11.6-11.6 6.4 0 11.6 5.2 11.6 11.6 0 6.4-5.2 11.6-11.6 11.6-6.4 0-11.6-5.2-11.6-11.6z"></path><path d="M110.5 98.8L97.1 85.5c1-2.4 1.6-4.9 1.9-7.5h11.5v20.8zm-55.6-7.6v5.5H61c-2.3-1.5-4.4-3.3-6.1-5.5zM84 98.6c-2.4 1-4.9 1.6-7.5 1.9V112h20.8L84 98.6zM54.9 60.4c1.1-1.3 2.3-2.6 3.6-3.7V19.1h18V34h34V0h-34v15.6H54.9v38.8H35.5V39.1h-34v34h34V57.9h19.4v2.5z"></path></symbol><symbol xmlns="http://www.w3.org/2000/svg" viewBox="0 0 10 10" id="trace-icon"><path d="M3.92 0A3.92 3.92 0 0 0 0 3.92a3.92 3.92 0 0 0 3.92 3.92 3.92 3.92 0 0 0 2.072-.598L8.75 10 10 8.75 7.244 5.994A3.92 3.92 0 0 0 7.84 3.92 3.92 3.92 0 0 0 3.92 0zm0 1.177A2.744 2.744 0 0 1 6.665 3.92 2.744 2.744 0 0 1 3.92 6.665a2.744 2.744 0 0 1-2.744-2.744A2.744 2.744 0 0 1 3.92 1.177z"></path></symbol><symbol xmlns="http://www.w3.org/2000/svg" viewBox="0 0 112 112" id="unsubscribe-destination-icon"><path d="M71.6 50.8c-.2-.9-.1-1.9.5-2.7.5-.7 1.3-1.2 2.2-1.2.9-.2 1.8-.1 2.5.5.6.4 1 1.1 1.3 2l.1.3.7 6.5c0 2-1.5 3.6-3.3 3.6-1.7 0-3.2-1.1-3.3-2.4l-.7-6.6zM56 70.6l6.5 1.7h.7c1.5 0 2.6-.9 3.1-2.3.4-.8.2-1.7-.3-2.4-.3-.5-.9-.9-1.5-1.2l-7.2-1.8c-.7-.3-1.5-.3-2.2 0-.8.4-1.5 1.1-1.8 2-.3 1-.2 2 .4 2.8.6.7 1.4 1.2 2.3 1.2zm23.7-1.3c1.2 1.2 3.3 1.2 4.6 0l10.2-10.2c1.3-1.3 3.1-2 4.9-1.9 1.7 0 3.1.7 4.2 1.9 1.2 1.2 1.9 2.9 1.9 4.7s-.7 3.5-1.9 4.7L90.2 81.9c-1.3 1.3-1.3 3.3 0 4.6.8.8 1.6.8 2.5.8.5 0 1.7 0 2.5-.8l13-13.3c2.5-2.5 3.9-5.8 3.9-9.3 0-3.5-1.4-6.8-3.9-9.3-2.5-2.5-5.8-3.9-9.3-3.9S92 52 89.5 54.5l-9.8 10.2c-1.3 1.3-1.3 3.3 0 4.6zm-14.1-6.2c.5.5 1.2 1.2 2.5 1.2.5 0 1.3 0 2.1-.8 1.2-1.2 1.2-3 .6-4.2l-.1-.2-2.9-3.2c-.6-.8-1.4-1.3-2.3-1.4-.9-.1-1.8.2-2.4.9-1.4 1.4-1.6 3.4-.4 4.5l2.9 3.2zm34.6 32.8l-.2-.2c-1.2-1.2-3.3-1.2-4.6 0-.6.6-1 1.4-1 2.3 0 .8.3 1.6.9 2.2l2.8 3.5.1.1c.4.4 1.1 1.1 2.5 1.1.5 0 1.3 0 2.1-.8 1.3-1.3 1.3-3.2.1-4.5l-2.7-3.7zm8.8-8l-6.2-1h-.2c-2.2 0-3.2 1.3-3.5 2.4l-.1.2v.2c0 2.2 1.3 3.2 2.4 3.5l6.5 1.1h.6c1.4 0 3.1-1.2 3.2-2.6.2-.9.1-1.9-.5-2.6-.5-.7-1.3-1.1-2.2-1.2zm-23.9 3.7c-.4-.6-1-1-1.7-1.1-.9-.2-2 .2-2.7.9l-9.8 9.8c-1.2 1.2-3 2-4.6 2-1.3 0-3.2-.3-4.4-1.9l-.1-.1c-2.6-2.6-2.6-6.9 0-9.5l13.3-13.3c.6-.6 1-1.4 1-2.3 0-.9-.3-1.7-1-2.3l-.2-.2c-1.6-1.1-3.5-1-4.7.2L56.9 87.2c-5.1 5.1-5.1 13.5 0 18.6 2.4 2.4 6 4 9.1 4 3.6 0 7-1.5 9.2-4L85 96c1.2-1.3 1.2-3.2.1-4.4zm6.9 9.3c-.4-1.1-1.3-2.4-3.5-2.4H88c-1.1.4-2.4 1.3-2.4 3.5l1.8 7.4.1.3c.5 1 1.6 2.2 3.1 2.2h.6l.2-.1c1.1-.4 2.4-1.3 2.4-3.5 0-.1 0-.5-1.8-7.4z"></path><path d="M73 44.6c-1.2.3-2.2 1-2.9 2.1-.9 1.3-1.3 3-.9 4.6l.3 2.5c-.8-.9-1.8-1.4-3-1.6.2-.9.2-1.9.2-2.9 0-9.3-1.6-13.8-10.7-13.8s-10.7 4.4-10.7 13.8c0 6.8 3.3 12.1 8.1 13.4-1.1.7-2 1.8-2.4 3.1-.3.9-.4 1.9-.2 2.8-6.9-2.6-12-10.3-12-19.3C38.8 35.8 44.6 29 56 29c13.3 0 16.3 9.2 17 15.6zM62.4 63.3L61 61.7s-.1-.1-.1-.2c-.5.4-1.1.7-1.7.9l3.2.9zm5.5 9.2c-.2.2-.3.4-.5.6l.6-.6h-.1zm20.2 19.4c.5 1.3.4 2.8-.2 4.1h.5c1.4 0 2.7.4 3.6 1.1.2-1.1.8-2.2 1.6-3 .9-.9 2-1.4 3.2-1.6-.3-.8-.5-1.6-.5-2.6v-.6l.2-.6C95 90 93.2 90 92.6 90c-.6 0-1.3 0-2.1-.3-.7.6-1.5 1.4-2.4 2.2zm-33 15.7c-1.1-1.1-2.1-2.4-2.8-3.8-1.8-.1-3.5-.2-5-.4-4.9-.9-9.5-2.5-13.7-4.7l-.1-.1v-1c.6-13.5 1.2-17 13.7-19.3 2.4 1.9 5.4 2.9 8.8 2.9 1.3 0 2.5-.2 3.6-.4l7.5-7.5c-1 1-2.4 1.5-3.9 1.5l-1.1-.1-2.3-.6c-.9.3-2.2.6-3.8.6-3.9 0-6.4-2.4-6.4-2.4l-.9-.9-1.2.2C30.9 74.9 28 81 27.2 94.6 16.3 86.5 9 73.9 8 59.5h10.2v-7H8C9.7 28.7 28.7 9.7 52.5 8v10.2h7V8c22.6 1.6 40.9 18.9 44.1 41 2.3.8 4.5 2 6.3 3.8.8.8 1.5 1.7 2.1 2.6C111.6 24.8 86.7 0 56 0 25.1 0 0 25.1 0 56s25.1 56 56 56c2.1 0 4.1-.1 6.1-.3-2.6-.8-5.1-2.2-7-4.1zm22.8-16.9l1.1-1.1c1.3-1.3 3.1-1.9 4.9-1.6.1 0 .1 0 .2.1-.9-4.9-2.5-8.3-5.5-10.9-.2 1.1-.8 2.2-1.6 3l-2.4 2.4c1.8 1.9 2.7 4.4 3.3 8.1zm22.5-6c.7-.2 1.4-.3 2.1-.3l.7.1 1 .2c1.4-2.4 2.7-5 3.8-7.6l-7.6 7.6zm-24.1 23.5c2.5-1 5-2.2 7.3-3.5l-.6-2.3v-.3-.7l-6.1 6.1c-.1.2-.4.4-.6.7z" fill="#3c3c3c"></path></symbol><symbol xmlns="http://www.w3.org/2000/svg" viewBox="0 0 16 16" id="unsubscribe-icon"><path d="M15 1a3.32 3.32 0 0 0-4.7 0L7.5 3.9c-.2.2-.2.5 0 .7.2.2.5.2.7 0l2.9-2.9c.9-.9 2.4-.9 3.2 0 .9.9.9 2.4 0 3.3l-3.8 3.8c-.2.2-.2.5 0 .7.1.1.2.1.4.1.1 0 .3 0 .4-.1L15 5.7c1.3-1.3 1.3-3.4 0-4.7zM7.8 11.5L5 14.3c-.4.4-1 .7-1.6.7-.6 0-1.2-.2-1.6-.7-.9-.9-.9-2.4 0-3.3l3.8-3.8c.2-.2.2-.5 0-.7-.3-.2-.6-.2-.8 0L1 10.3A3.32 3.32 0 0 0 1 15c.6.6 1.5 1 2.3 1s1.7-.3 2.3-1l2.8-2.8c.2-.2.2-.5 0-.7-.1-.2-.4-.2-.6 0zm7.7-2l-1.8-.3c-.3 0-.5.1-.6.4 0 .3.1.5.4.6l1.8.3h.1c.2 0 .5-.2.5-.4.1-.3-.1-.6-.4-.6zm-2.8 2.1c-.2-.2-.5-.2-.7 0-.2.2-.2.5 0 .7l.8 1c.1.1.2.2.4.2.1 0 .2 0 .3-.1.2-.2.2-.5 0-.7l-.8-1.1zm-2.4 1.3c-.1-.3-.3-.4-.6-.4-.3.1-.4.3-.4.6l.5 2c.1.2.3.4.5.4h.1c.3-.1.4-.3.4-.6 0-.1-.5-2-.5-2zm-4-10c.3 0 .5-.3.5-.6L6.6.5C6.5.2 6.3 0 6 .1c-.3 0-.5.3-.4.6l.2 1.9c0 .1.2.3.5.3zM3.8 4c.1.1.2.2.4.2.1 0 .2 0 .3-.1.2-.2.2-.5.1-.7l-.8-.9c-.2-.3-.5-.3-.7-.1-.2.2-.3.5-.1.7l.8.9zm-3 2l1.9.5h.1c.2 0 .4-.1.5-.4.1-.2-.1-.4-.3-.5l-2-.5c-.2-.1-.5 0-.6.3-.1.3.1.6.4.6z"></path></symbol><symbol xmlns="http://www.w3.org/2000/svg" viewBox="0 0 112 112" id="update-destination-icon"><path d="M111 60.8L99.2 49c-1.3-1.3-3.2-1.3-4.5 0L88 55.7 104.3 72l6.7-6.7c1.3-1.3 1.3-3.2 0-4.5zM51.2 92.5L48 112l19.5-3.2 32.3-32.3-16.3-16.3-32.3 32.3z"></path><path d="M56 29.4c-11.4 0-17.2 6.8-17.2 20.3C38.8 60.9 46.5 70 56 70s17.2-9.1 17.2-20.3c0-5.1 0-20.3-17.2-20.3zm0 34c-6.2 0-10.7-5.8-10.7-13.8 0-9.3 1.6-13.8 10.7-13.8s10.7 4.4 10.7 13.8c0 7.6-4.8 13.8-10.7 13.8zm-22.9 43.7C13.6 98.3 0 78.7 0 56 0 25.1 25.1 0 56 0s56 25.1 56 56v1.5l-8.3-8.3C100.5 27 82.2 9.6 59.5 8v10.2h-7V8C28.7 9.7 9.7 28.7 8 52.5h10.2v7H8c1 14.4 8.4 27 19.3 35.1.8-13.4 3.8-19.4 20.3-22.5l1.2-.2.9.9s2.5 2.4 6.4 2.4c4.6 0 6-1.9 6.1-2l.9-1.2 1.5.2c.8.2 1.6.3 2.3.5L58 81.6c-.6.1-1.3.1-1.9.1-3.4 0-6.4-1-8.8-2.9C34.8 81 34.1 84.5 33.6 98v.7c4 2.1 8.3 3.7 12.8 4.6l-1.3 7.7c-2-.4-4-.9-6-1.5-2.5-.8-4.5-1.6-6-2.4zm45.8 0c-1.6.8-3.6 1.6-6.1 2.3-.8.2-1.6.5-2.4.7L104 76.5l-3.1-3.1c0-.1.1-.2.1-.3l3.2 3.2 5.8-5.8c-4.3 16.3-15.9 29.7-31.1 36.6z" fill="#3c3c3c"></path></symbol><symbol xmlns="http://www.w3.org/2000/svg" viewBox="0 0 10 10" id="warning-icon"><path d="M5 .722c-.411 0-.742.26-.95.62 0 0-3.674 6.271-3.687 6.526-.059.192-.06.254-.06.38 0 .551.672 1.006.95 1.008l7.48.022c.47-.025.963-.487.964-1.03 0-.15-.074-.413-.1-.495-.185-.432-3.669-6.42-3.669-6.42-.254-.416-.53-.61-.927-.611zm-.573 1.615h1.118c.242 0 .46.196.437.437L5.67 6.197c-.022.241-.195.437-.437.437h-.464c-.243 0-.413-.196-.437-.437L3.99 2.774c-.024-.241.195-.437.437-.437zm.569 4.746a.664.664 0 0 1 .664.664.664.664 0 0 1-.664.664.664.664 0 0 1-.664-.664.664.664 0 0 1 .664-.664z"></path></symbol></defs>
</svg>
